G04 #@! TF.GenerationSoftware,KiCad,Pcbnew,7.0.9*
G04 #@! TF.CreationDate,2023-12-15T21:40:49-05:00*
G04 #@! TF.ProjectId,MainBoard,4d61696e-426f-4617-9264-2e6b69636164,rev?*
G04 #@! TF.SameCoordinates,Original*
G04 #@! TF.FileFunction,Copper,L1,Top*
G04 #@! TF.FilePolarity,Positive*
%FSLAX46Y46*%
G04 Gerber Fmt 4.6, Leading zero omitted, Abs format (unit mm)*
G04 Created by KiCad (PCBNEW 7.0.9) date 2023-12-15 21:40:49*
%MOMM*%
%LPD*%
G01*
G04 APERTURE LIST*
G04 Aperture macros list*
%AMRoundRect*
0 Rectangle with rounded corners*
0 $1 Rounding radius*
0 $2 $3 $4 $5 $6 $7 $8 $9 X,Y pos of 4 corners*
0 Add a 4 corners polygon primitive as box body*
4,1,4,$2,$3,$4,$5,$6,$7,$8,$9,$2,$3,0*
0 Add four circle primitives for the rounded corners*
1,1,$1+$1,$2,$3*
1,1,$1+$1,$4,$5*
1,1,$1+$1,$6,$7*
1,1,$1+$1,$8,$9*
0 Add four rect primitives between the rounded corners*
20,1,$1+$1,$2,$3,$4,$5,0*
20,1,$1+$1,$4,$5,$6,$7,0*
20,1,$1+$1,$6,$7,$8,$9,0*
20,1,$1+$1,$8,$9,$2,$3,0*%
G04 Aperture macros list end*
G04 #@! TA.AperFunction,ComponentPad*
%ADD10R,1.350000X1.350000*%
G04 #@! TD*
G04 #@! TA.AperFunction,ComponentPad*
%ADD11O,1.350000X1.350000*%
G04 #@! TD*
G04 #@! TA.AperFunction,SMDPad,CuDef*
%ADD12RoundRect,0.243750X0.243750X0.456250X-0.243750X0.456250X-0.243750X-0.456250X0.243750X-0.456250X0*%
G04 #@! TD*
G04 #@! TA.AperFunction,WasherPad*
%ADD13C,1.300000*%
G04 #@! TD*
G04 #@! TA.AperFunction,ComponentPad*
%ADD14C,1.100000*%
G04 #@! TD*
G04 #@! TA.AperFunction,ComponentPad*
%ADD15R,1.100000X1.100000*%
G04 #@! TD*
G04 #@! TA.AperFunction,SMDPad,CuDef*
%ADD16R,1.800000X1.800000*%
G04 #@! TD*
G04 #@! TA.AperFunction,ComponentPad*
%ADD17C,0.600000*%
G04 #@! TD*
G04 #@! TA.AperFunction,SMDPad,CuDef*
%ADD18RoundRect,0.243750X-0.243750X-0.456250X0.243750X-0.456250X0.243750X0.456250X-0.243750X0.456250X0*%
G04 #@! TD*
G04 #@! TA.AperFunction,SMDPad,CuDef*
%ADD19R,0.600000X1.050000*%
G04 #@! TD*
G04 #@! TA.AperFunction,SMDPad,CuDef*
%ADD20R,0.450000X1.300000*%
G04 #@! TD*
G04 #@! TA.AperFunction,ComponentPad*
%ADD21O,1.450000X2.000000*%
G04 #@! TD*
G04 #@! TA.AperFunction,ComponentPad*
%ADD22O,1.150000X1.800000*%
G04 #@! TD*
G04 #@! TA.AperFunction,SMDPad,CuDef*
%ADD23RoundRect,0.243750X0.456250X-0.243750X0.456250X0.243750X-0.456250X0.243750X-0.456250X-0.243750X0*%
G04 #@! TD*
G04 #@! TA.AperFunction,SMDPad,CuDef*
%ADD24R,1.200000X0.400000*%
G04 #@! TD*
G04 #@! TA.AperFunction,SMDPad,CuDef*
%ADD25R,0.800000X0.900000*%
G04 #@! TD*
G04 #@! TA.AperFunction,SMDPad,CuDef*
%ADD26RoundRect,0.243750X-0.456250X0.243750X-0.456250X-0.243750X0.456250X-0.243750X0.456250X0.243750X0*%
G04 #@! TD*
G04 #@! TA.AperFunction,SMDPad,CuDef*
%ADD27R,1.500000X2.200000*%
G04 #@! TD*
G04 #@! TA.AperFunction,SMDPad,CuDef*
%ADD28R,3.800000X2.200000*%
G04 #@! TD*
G04 #@! TA.AperFunction,ComponentPad*
%ADD29R,1.700000X1.700000*%
G04 #@! TD*
G04 #@! TA.AperFunction,ComponentPad*
%ADD30O,1.700000X1.700000*%
G04 #@! TD*
G04 #@! TA.AperFunction,SMDPad,CuDef*
%ADD31RoundRect,0.218750X-0.218750X-0.256250X0.218750X-0.256250X0.218750X0.256250X-0.218750X0.256250X0*%
G04 #@! TD*
G04 #@! TA.AperFunction,SMDPad,CuDef*
%ADD32R,1.500000X1.000000*%
G04 #@! TD*
G04 #@! TA.AperFunction,ComponentPad*
%ADD33R,1.600000X1.600000*%
G04 #@! TD*
G04 #@! TA.AperFunction,ComponentPad*
%ADD34C,1.600000*%
G04 #@! TD*
G04 #@! TA.AperFunction,ComponentPad*
%ADD35C,4.000000*%
G04 #@! TD*
G04 #@! TA.AperFunction,SMDPad,CuDef*
%ADD36RoundRect,0.250000X-0.250000X-1.500000X0.250000X-1.500000X0.250000X1.500000X-0.250000X1.500000X0*%
G04 #@! TD*
G04 #@! TA.AperFunction,SMDPad,CuDef*
%ADD37RoundRect,0.250001X-0.499999X-1.449999X0.499999X-1.449999X0.499999X1.449999X-0.499999X1.449999X0*%
G04 #@! TD*
G04 #@! TA.AperFunction,ComponentPad*
%ADD38R,1.800000X1.800000*%
G04 #@! TD*
G04 #@! TA.AperFunction,ComponentPad*
%ADD39C,1.800000*%
G04 #@! TD*
G04 #@! TA.AperFunction,SMDPad,CuDef*
%ADD40R,5.000000X5.000000*%
G04 #@! TD*
G04 #@! TA.AperFunction,SMDPad,CuDef*
%ADD41R,0.900000X2.000000*%
G04 #@! TD*
G04 #@! TA.AperFunction,SMDPad,CuDef*
%ADD42R,2.000000X0.900000*%
G04 #@! TD*
G04 #@! TA.AperFunction,ViaPad*
%ADD43C,0.600000*%
G04 #@! TD*
G04 #@! TA.AperFunction,Conductor*
%ADD44C,0.250000*%
G04 #@! TD*
G04 #@! TA.AperFunction,Conductor*
%ADD45C,0.600000*%
G04 #@! TD*
G04 #@! TA.AperFunction,Conductor*
%ADD46C,0.400000*%
G04 #@! TD*
G04 #@! TA.AperFunction,Conductor*
%ADD47C,0.300000*%
G04 #@! TD*
G04 #@! TA.AperFunction,Conductor*
%ADD48C,0.200000*%
G04 #@! TD*
G04 #@! TA.AperFunction,Conductor*
%ADD49C,0.180000*%
G04 #@! TD*
G04 APERTURE END LIST*
D10*
X85686900Y-95148400D03*
D11*
X85686900Y-93148400D03*
D12*
X106529900Y-98806000D03*
X108404900Y-98806000D03*
D13*
X69128000Y-81381600D03*
X74128000Y-81381600D03*
D14*
X66598800Y-110515400D03*
X66598800Y-111785400D03*
D15*
X66598800Y-109245400D03*
D14*
X66598800Y-113055400D03*
D16*
X78079600Y-95656400D03*
D17*
X78079600Y-95656400D03*
X77579600Y-96156400D03*
X78579600Y-96156400D03*
X78579600Y-95156400D03*
X77579600Y-95156400D03*
D12*
X75897500Y-82042000D03*
X77772500Y-82042000D03*
X77772500Y-80264000D03*
X75897500Y-80264000D03*
D18*
X72565500Y-81534000D03*
X70690500Y-81534000D03*
X76342000Y-103378000D03*
X78217000Y-103378000D03*
D19*
X98486000Y-105871000D03*
X96586000Y-105871000D03*
X96586000Y-103171000D03*
X97536000Y-103171000D03*
X98486000Y-103171000D03*
D20*
X101884000Y-84881800D03*
X101234000Y-84881800D03*
X100584000Y-84881800D03*
X99934000Y-84881800D03*
X99284000Y-84881800D03*
D21*
X104309000Y-84831800D03*
X96859000Y-84831800D03*
D22*
X104459000Y-81031800D03*
X96709000Y-81031800D03*
D23*
X94742000Y-81963500D03*
X94742000Y-80088500D03*
D24*
X88459000Y-86042500D03*
X88459000Y-86677500D03*
X88459000Y-87312500D03*
X88459000Y-87947500D03*
X88459000Y-88582500D03*
X88459000Y-89217500D03*
X88459000Y-89852500D03*
X88459000Y-90487500D03*
X88459000Y-91122500D03*
X88459000Y-91757500D03*
X93659000Y-91757500D03*
X93659000Y-91122500D03*
X93659000Y-90487500D03*
X93659000Y-89852500D03*
X93659000Y-89217500D03*
X93659000Y-88582500D03*
X93659000Y-87947500D03*
X93659000Y-87312500D03*
X93659000Y-86677500D03*
X93659000Y-86042500D03*
D25*
X86360000Y-82439000D03*
X87310000Y-84439000D03*
X85410000Y-84439000D03*
D26*
X85598000Y-85930500D03*
X85598000Y-87805500D03*
D27*
X86069200Y-111862000D03*
X83769200Y-111862000D03*
X81469200Y-111862000D03*
D28*
X83769200Y-105562000D03*
D23*
X98386900Y-100962700D03*
X98386900Y-99087700D03*
D29*
X107950000Y-86741000D03*
D30*
X107950000Y-89281000D03*
X107950000Y-91821000D03*
X107950000Y-94361000D03*
D31*
X70866000Y-80010000D03*
X72441000Y-80010000D03*
D32*
X83030000Y-81726000D03*
X83030000Y-80326000D03*
X79530000Y-81726000D03*
X79530000Y-80326000D03*
D29*
X104140000Y-101854000D03*
D30*
X101600000Y-101854000D03*
D33*
X113030000Y-92710000D03*
D34*
X113030000Y-95480000D03*
X113030000Y-98250000D03*
X113030000Y-101020000D03*
X113030000Y-103790000D03*
X115870000Y-94095000D03*
X115870000Y-96865000D03*
X115870000Y-99635000D03*
X115870000Y-102405000D03*
D35*
X113330000Y-110750000D03*
X113330000Y-85750000D03*
D36*
X103775000Y-105735000D03*
X105775000Y-105735000D03*
D37*
X101425000Y-111485000D03*
X108125000Y-111485000D03*
D29*
X95885000Y-109601000D03*
D30*
X98425000Y-109601000D03*
X98425000Y-112268000D03*
D29*
X95885000Y-112268000D03*
D32*
X99785000Y-93650000D03*
X99785000Y-96850000D03*
X104685000Y-93650000D03*
X104685000Y-96850000D03*
X73051500Y-106921500D03*
X73051500Y-110121500D03*
X77951500Y-106921500D03*
X77951500Y-110121500D03*
D38*
X66675000Y-104267000D03*
D39*
X66675000Y-106807000D03*
D40*
X72905000Y-93710000D03*
D41*
X65405000Y-101210000D03*
X66675000Y-101210000D03*
X67945000Y-101210000D03*
X69215000Y-101210000D03*
X70485000Y-101210000D03*
X71755000Y-101210000D03*
X73025000Y-101210000D03*
X74295000Y-101210000D03*
X75565000Y-101210000D03*
X76835000Y-101210000D03*
X78105000Y-101210000D03*
X79375000Y-101210000D03*
X80645000Y-101210000D03*
X81915000Y-101210000D03*
D42*
X82915000Y-98425000D03*
X82915000Y-97155000D03*
X82915000Y-95885000D03*
X82915000Y-94615000D03*
X82915000Y-93345000D03*
X82915000Y-92075000D03*
X82915000Y-90805000D03*
X82915000Y-89535000D03*
X82915000Y-88265000D03*
X82915000Y-86995000D03*
D41*
X81915000Y-84210000D03*
X80645000Y-84210000D03*
X79375000Y-84210000D03*
X78105000Y-84210000D03*
X76835000Y-84210000D03*
X75565000Y-84210000D03*
X74295000Y-84210000D03*
X73025000Y-84210000D03*
X71755000Y-84210000D03*
X70485000Y-84210000D03*
X69215000Y-84210000D03*
X67945000Y-84210000D03*
X66675000Y-84210000D03*
X65405000Y-84210000D03*
D43*
X92329000Y-105410000D03*
X86360000Y-81026000D03*
X99822000Y-92837000D03*
X75692000Y-86487000D03*
X77038200Y-86487000D03*
X107950000Y-104876600D03*
X107950000Y-105664000D03*
X107950000Y-107061000D03*
X92299107Y-88312867D03*
X90119200Y-89255600D03*
X90779600Y-108864400D03*
X78409800Y-98933000D03*
X75412600Y-97104200D03*
X99885500Y-104584500D03*
X92126496Y-89129296D03*
X66675000Y-101210000D03*
X93091000Y-102171500D03*
X72441000Y-80010000D03*
X67515500Y-90424000D03*
X70916800Y-90474800D03*
X83540600Y-105310700D03*
X83030000Y-81726000D03*
X67945000Y-101210000D03*
X94742000Y-80088500D03*
X95328500Y-87172800D03*
X76492000Y-103251000D03*
X101170500Y-105537000D03*
X70485000Y-87874010D03*
X93659000Y-85977498D03*
X69215000Y-86804500D03*
X87020400Y-87249000D03*
X104775000Y-97663000D03*
X78041500Y-111061500D03*
X92274592Y-106885500D03*
X92456000Y-87528400D03*
X90865790Y-87934800D03*
X99822000Y-95186516D03*
X92391000Y-101409500D03*
X79946500Y-104584500D03*
X78994000Y-106934000D03*
X76835000Y-101210000D03*
X79946500Y-103441500D03*
X102171500Y-98806000D03*
X102996990Y-108966000D03*
X84709000Y-100965000D03*
X91694000Y-98297992D03*
X92710000Y-103809802D03*
X80645000Y-89662000D03*
X97155000Y-92075000D03*
X80010000Y-90297000D03*
X77216000Y-99009202D03*
X74295000Y-101210000D03*
X80645000Y-101210000D03*
X78105000Y-88519000D03*
X77735600Y-89779000D03*
X79248000Y-89027000D03*
X89277081Y-86027564D03*
X87233000Y-85659000D03*
X75755500Y-106108500D03*
X108404900Y-98806000D03*
X76835000Y-84210000D03*
X68590000Y-85710002D03*
X66675000Y-82143600D03*
D44*
X82915000Y-99125000D02*
X83693000Y-99903000D01*
X82915000Y-98425000D02*
X82915000Y-99125000D01*
X92568740Y-88582500D02*
X92299107Y-88312867D01*
X93659000Y-88582500D02*
X92568740Y-88582500D01*
X65820983Y-111785400D02*
X65795583Y-111810800D01*
X66598800Y-111785400D02*
X65820983Y-111785400D01*
X66598800Y-111785400D02*
X65151000Y-111785400D01*
X66598800Y-111785400D02*
X68402200Y-111785400D01*
D45*
X98486000Y-103171000D02*
X98886000Y-103171000D01*
D46*
X99885500Y-104095500D02*
X99885500Y-104584500D01*
X101884000Y-84958000D02*
X101884000Y-89128600D01*
X101884000Y-97887000D02*
X99108500Y-100662500D01*
X99108500Y-103318500D02*
X99885500Y-104095500D01*
D44*
X92214700Y-89217500D02*
X92126496Y-89129296D01*
X93659000Y-89217500D02*
X92214700Y-89217500D01*
X91490800Y-86944200D02*
X91490800Y-88493600D01*
X100426800Y-82524600D02*
X95910400Y-82524600D01*
X101884000Y-83981800D02*
X100426800Y-82524600D01*
X101884000Y-84881800D02*
X101884000Y-83981800D01*
X91490800Y-88493600D02*
X92126496Y-89129296D01*
X95910400Y-82524600D02*
X91490800Y-86944200D01*
D46*
X101884000Y-89128600D02*
X101884000Y-97887000D01*
D44*
X99093500Y-100962700D02*
X99108500Y-100977700D01*
X98386900Y-100962700D02*
X99093500Y-100962700D01*
D46*
X99108500Y-100977700D02*
X99108500Y-103318500D01*
X99108500Y-100662500D02*
X99108500Y-100977700D01*
D44*
X83030000Y-80326000D02*
X83030000Y-81026000D01*
X83030000Y-81026000D02*
X83030000Y-81726000D01*
X114738630Y-94095000D02*
X114726630Y-94107000D01*
X115870000Y-94095000D02*
X114738630Y-94095000D01*
X111506000Y-94107000D02*
X109728000Y-92329000D01*
X114726630Y-94107000D02*
X111506000Y-94107000D01*
X109728000Y-91059000D02*
X107950000Y-89281000D01*
X109728000Y-92329000D02*
X109728000Y-91059000D01*
D46*
X87503000Y-104013000D02*
X87528400Y-104038400D01*
D44*
X70866000Y-90424000D02*
X70916800Y-90474800D01*
X67515500Y-90424000D02*
X70866000Y-90424000D01*
X83540600Y-105310700D02*
X83540600Y-105237800D01*
D46*
X84838300Y-104013000D02*
X87503000Y-104013000D01*
X83873100Y-104978200D02*
X84838300Y-104013000D01*
X66675000Y-102298500D02*
X66675000Y-101210000D01*
X67119500Y-102743000D02*
X66675000Y-102298500D01*
X67798002Y-102743000D02*
X67119500Y-102743000D01*
X78644000Y-104648000D02*
X69703002Y-104648000D01*
X83236601Y-105614699D02*
X79610699Y-105614699D01*
X69703002Y-104648000D02*
X67798002Y-102743000D01*
X83873100Y-104978200D02*
X83236601Y-105614699D01*
X79610699Y-105614699D02*
X78644000Y-104648000D01*
X91249500Y-104013000D02*
X93091000Y-102171500D01*
X87503000Y-104013000D02*
X91249500Y-104013000D01*
D44*
X92809000Y-89852500D02*
X93659000Y-89852500D01*
X91849000Y-89852500D02*
X92809000Y-89852500D01*
X89309000Y-87312500D02*
X91849000Y-89852500D01*
X88459000Y-87312500D02*
X89309000Y-87312500D01*
X93659000Y-89852500D02*
X93659000Y-90487500D01*
X94805500Y-89852500D02*
X93659000Y-89852500D01*
X95328500Y-89329500D02*
X94805500Y-89852500D01*
X95328500Y-87172800D02*
X95328500Y-89329500D01*
D46*
X103635000Y-105875000D02*
X103775000Y-105735000D01*
X98740000Y-105875000D02*
X103635000Y-105875000D01*
X103775000Y-102219000D02*
X104140000Y-101854000D01*
X103775000Y-105735000D02*
X103775000Y-102219000D01*
D44*
X81915000Y-84210000D02*
X83176000Y-84210000D01*
X84947000Y-82439000D02*
X86360000Y-82439000D01*
X83176000Y-84210000D02*
X84947000Y-82439000D01*
X70485000Y-84210000D02*
X70485000Y-87874010D01*
X69215000Y-86804500D02*
X69215000Y-84210000D01*
X87718900Y-87947500D02*
X88459000Y-87947500D01*
X87020400Y-87249000D02*
X87718900Y-87947500D01*
X104775000Y-96940000D02*
X104685000Y-96850000D01*
X104775000Y-97663000D02*
X104775000Y-96940000D01*
X78015000Y-111035000D02*
X78041500Y-111061500D01*
X78015000Y-110185000D02*
X78015000Y-111035000D01*
D47*
X78951500Y-110121500D02*
X77951500Y-110121500D01*
X87762700Y-110121500D02*
X78951500Y-110121500D01*
D46*
X90008100Y-107923100D02*
X86069200Y-111862000D01*
X91045700Y-106885500D02*
X90008100Y-107923100D01*
X92274592Y-106885500D02*
X91045700Y-106885500D01*
D44*
X92875100Y-87947500D02*
X92456000Y-87528400D01*
X93659000Y-87947500D02*
X92875100Y-87947500D01*
X90865790Y-86629410D02*
X90865790Y-87510536D01*
X94742000Y-82753200D02*
X90865790Y-86629410D01*
X90865790Y-87510536D02*
X90865790Y-87934800D01*
X94742000Y-81963500D02*
X94742000Y-82753200D01*
X99785000Y-95223516D02*
X99822000Y-95186516D01*
X99785000Y-96850000D02*
X99785000Y-95223516D01*
X77964000Y-106934000D02*
X77951500Y-106921500D01*
X78994000Y-106934000D02*
X77964000Y-106934000D01*
X81356200Y-103174800D02*
X79946500Y-104584500D01*
X90625700Y-103174800D02*
X81356200Y-103174800D01*
X92391000Y-101409500D02*
X90625700Y-103174800D01*
X79375000Y-102870000D02*
X79946500Y-103441500D01*
X79375000Y-101210000D02*
X79375000Y-102870000D01*
X102171500Y-98806000D02*
X106529900Y-98806000D01*
X102696991Y-108666001D02*
X102996990Y-108966000D01*
X101599990Y-107569000D02*
X102696991Y-108666001D01*
X96393000Y-107569000D02*
X101599990Y-107569000D01*
X75830000Y-99695000D02*
X82435002Y-99695000D01*
X82435002Y-99695000D02*
X85051202Y-102311200D01*
X75565000Y-101210000D02*
X75565000Y-99960000D01*
X85051202Y-102311200D02*
X90271600Y-102311200D01*
X75565000Y-99960000D02*
X75830000Y-99695000D01*
X90271600Y-102311200D02*
X91798301Y-100784499D01*
X91798301Y-100784499D02*
X93113699Y-100784499D01*
X93113699Y-100784499D02*
X95123000Y-102793800D01*
X95123000Y-106299000D02*
X96393000Y-107569000D01*
X95123000Y-102793800D02*
X95123000Y-106299000D01*
X84165000Y-97155000D02*
X84709000Y-97699000D01*
X84709000Y-97699000D02*
X84709000Y-100965000D01*
X82915000Y-97155000D02*
X84165000Y-97155000D01*
X91694000Y-97917000D02*
X91694000Y-98297992D01*
X82915000Y-88265000D02*
X84165000Y-88265000D01*
X84165000Y-88265000D02*
X85166200Y-89266200D01*
X85166200Y-89266200D02*
X85166200Y-91389200D01*
X85166200Y-91389200D02*
X91694000Y-97917000D01*
X93009999Y-104109801D02*
X92710000Y-103809802D01*
X93726000Y-104825802D02*
X93009999Y-104109801D01*
X93726000Y-108331000D02*
X93726000Y-104825802D01*
X95250000Y-109855000D02*
X93726000Y-108331000D01*
X78530000Y-81726000D02*
X78341000Y-81915000D01*
X79530000Y-81726000D02*
X78530000Y-81726000D01*
X78341000Y-81915000D02*
X77622500Y-81915000D01*
X77687500Y-80326000D02*
X77622500Y-80391000D01*
X79530000Y-80326000D02*
X77687500Y-80326000D01*
X70866000Y-81508500D02*
X70840500Y-81534000D01*
X70866000Y-80010000D02*
X70866000Y-81508500D01*
X78067000Y-101248000D02*
X78105000Y-101210000D01*
X78067000Y-103251000D02*
X78067000Y-101248000D01*
X80645000Y-89237736D02*
X80645000Y-89662000D01*
X80645000Y-88015000D02*
X80645000Y-89237736D01*
X81665000Y-86995000D02*
X80645000Y-88015000D01*
X82915000Y-86995000D02*
X81665000Y-86995000D01*
X71755000Y-82960000D02*
X71755000Y-84210000D01*
X71755000Y-82769500D02*
X71755000Y-82960000D01*
X72415500Y-82109000D02*
X71755000Y-82769500D01*
X72415500Y-81534000D02*
X72415500Y-82109000D01*
X74295000Y-82960000D02*
X74295000Y-84210000D01*
X76047500Y-80391000D02*
X75510000Y-80391000D01*
D48*
X75078001Y-81083499D02*
X75078001Y-82176999D01*
X75078001Y-82176999D02*
X74295000Y-82960000D01*
X75897500Y-80264000D02*
X75078001Y-81083499D01*
D44*
X76047500Y-81915000D02*
X75565000Y-82397500D01*
X75565000Y-82397500D02*
X75565000Y-84210000D01*
X80010000Y-90297000D02*
X80010000Y-86741000D01*
X80645000Y-86106000D02*
X80645000Y-84210000D01*
X80010000Y-86741000D02*
X80645000Y-86106000D01*
X97536000Y-96647000D02*
X97536000Y-92456000D01*
X96586000Y-103171000D02*
X96586000Y-102396000D01*
X97536000Y-92456000D02*
X97155000Y-92075000D01*
X96586000Y-102396000D02*
X96420990Y-102230990D01*
X96420990Y-97762010D02*
X97536000Y-96647000D01*
X96420990Y-102230990D02*
X96420990Y-97762010D01*
X74295000Y-101210000D02*
X74295000Y-101210000D01*
X75245798Y-99009202D02*
X76791736Y-99009202D01*
X74295000Y-99960000D02*
X75245798Y-99009202D01*
X76791736Y-99009202D02*
X77216000Y-99009202D01*
X74295000Y-101210000D02*
X74295000Y-99960000D01*
X78105000Y-88519000D02*
X78105000Y-84210000D01*
D49*
X78105000Y-89409600D02*
X77735600Y-89779000D01*
X78105000Y-88519000D02*
X78105000Y-89409600D01*
D44*
X79375000Y-84210000D02*
X79375000Y-88900000D01*
X79375000Y-88900000D02*
X79248000Y-89027000D01*
X88459000Y-85588000D02*
X88459000Y-86042500D01*
X87310000Y-84439000D02*
X88459000Y-85588000D01*
X89262145Y-86042500D02*
X89277081Y-86027564D01*
X88459000Y-86042500D02*
X89262145Y-86042500D01*
X85598000Y-84627000D02*
X85410000Y-84439000D01*
X85598000Y-85930500D02*
X85598000Y-84627000D01*
X87233000Y-86301500D02*
X87233000Y-85659000D01*
X87609000Y-86677500D02*
X87233000Y-86301500D01*
X88459000Y-86677500D02*
X87609000Y-86677500D01*
X87545500Y-86614000D02*
X86614000Y-86614000D01*
X87609000Y-86677500D02*
X87545500Y-86614000D01*
X86154237Y-87073763D02*
X86154237Y-87249263D01*
X86154237Y-87249263D02*
X85598000Y-87805500D01*
X86614000Y-86614000D02*
X86154237Y-87073763D01*
X96075500Y-91757500D02*
X94509000Y-91757500D01*
X100584000Y-87249000D02*
X96075500Y-91757500D01*
X94509000Y-91757500D02*
X93659000Y-91757500D01*
X100584000Y-84881800D02*
X100584000Y-87249000D01*
X96367600Y-86100338D02*
X95808990Y-85541728D01*
X95186500Y-91122500D02*
X96367600Y-89941400D01*
X96367600Y-89941400D02*
X96367600Y-86100338D01*
X101234000Y-83981800D02*
X101234000Y-84881800D01*
X96367600Y-83563262D02*
X96367600Y-83337400D01*
X93659000Y-91122500D02*
X95186500Y-91122500D01*
X95808990Y-85541728D02*
X95808990Y-84121872D01*
X95808990Y-84121872D02*
X96367600Y-83563262D01*
X96367600Y-83337400D02*
X96697800Y-83007200D01*
X96697800Y-83007200D02*
X100259400Y-83007200D01*
X100259400Y-83007200D02*
X101234000Y-83981800D01*
X66675000Y-113030000D02*
X71020000Y-113030000D01*
X74219000Y-110185000D02*
X75755500Y-108648500D01*
X71020000Y-113030000D02*
X73115000Y-110935000D01*
X75755500Y-108648500D02*
X75755500Y-106108500D01*
X73115000Y-110935000D02*
X73115000Y-110185000D01*
X73115000Y-110185000D02*
X74219000Y-110185000D01*
X67945000Y-85065002D02*
X68590000Y-85710002D01*
X67945000Y-84210000D02*
X67945000Y-85065002D01*
X66675000Y-84210000D02*
X66675000Y-82960000D01*
X66675000Y-82960000D02*
X66675000Y-82143600D01*
G04 #@! TA.AperFunction,Conductor*
G36*
X70141743Y-79343502D02*
G01*
X70188236Y-79397158D01*
X70198340Y-79467432D01*
X70190837Y-79495725D01*
X70190387Y-79496864D01*
X70190385Y-79496868D01*
X70169737Y-79549229D01*
X70138020Y-79629654D01*
X70128000Y-79713094D01*
X70128000Y-80306905D01*
X70138020Y-80390346D01*
X70175363Y-80485040D01*
X70181746Y-80555749D01*
X70148887Y-80618685D01*
X70134282Y-80631661D01*
X70058290Y-80689287D01*
X70025664Y-80732311D01*
X69968565Y-80774503D01*
X69897719Y-80779128D01*
X69835619Y-80744716D01*
X69827867Y-80736109D01*
X69824750Y-80732311D01*
X69803357Y-80706243D01*
X69790047Y-80695320D01*
X69658625Y-80587464D01*
X69493500Y-80499203D01*
X69493496Y-80499201D01*
X69314334Y-80444853D01*
X69314323Y-80444851D01*
X69128003Y-80426501D01*
X69127997Y-80426501D01*
X68941676Y-80444851D01*
X68941665Y-80444853D01*
X68762503Y-80499201D01*
X68762499Y-80499203D01*
X68597374Y-80587464D01*
X68452643Y-80706243D01*
X68333864Y-80850974D01*
X68245603Y-81016099D01*
X68245601Y-81016103D01*
X68191253Y-81195265D01*
X68191251Y-81195276D01*
X68172901Y-81381596D01*
X68172901Y-81381603D01*
X68191251Y-81567923D01*
X68191253Y-81567934D01*
X68245601Y-81747096D01*
X68245603Y-81747100D01*
X68295664Y-81840757D01*
X68333864Y-81912225D01*
X68452643Y-82056957D01*
X68597375Y-82175736D01*
X68736052Y-82249860D01*
X68762499Y-82263996D01*
X68762503Y-82263998D01*
X68941665Y-82318346D01*
X68941666Y-82318346D01*
X68941669Y-82318347D01*
X68941672Y-82318347D01*
X68941676Y-82318348D01*
X69127997Y-82336699D01*
X69128000Y-82336699D01*
X69128003Y-82336699D01*
X69314323Y-82318348D01*
X69314325Y-82318347D01*
X69314331Y-82318347D01*
X69342449Y-82309817D01*
X69493496Y-82263998D01*
X69493498Y-82263996D01*
X69493501Y-82263996D01*
X69658625Y-82175736D01*
X69733619Y-82114189D01*
X69798963Y-82086436D01*
X69868941Y-82098417D01*
X69921334Y-82146329D01*
X69930766Y-82165364D01*
X69967889Y-82259500D01*
X70058288Y-82378711D01*
X70127864Y-82431471D01*
X70177500Y-82469111D01*
X70316679Y-82523997D01*
X70404140Y-82534500D01*
X70404143Y-82534500D01*
X70976857Y-82534500D01*
X70976860Y-82534500D01*
X71064321Y-82523997D01*
X71179798Y-82478457D01*
X71250505Y-82472075D01*
X71313441Y-82504933D01*
X71348621Y-82566600D01*
X71346187Y-82626479D01*
X71346832Y-82626582D01*
X71345958Y-82632093D01*
X71345857Y-82634601D01*
X71345280Y-82636374D01*
X71341527Y-82660072D01*
X71336914Y-82679286D01*
X71329500Y-82702107D01*
X71329500Y-82702109D01*
X71329500Y-82790407D01*
X71309498Y-82858528D01*
X71255842Y-82905021D01*
X71236579Y-82911987D01*
X71235008Y-82912414D01*
X71170892Y-82940724D01*
X71100496Y-82949942D01*
X71069105Y-82940724D01*
X71004989Y-82912414D01*
X71004990Y-82912414D01*
X70979868Y-82909500D01*
X69990140Y-82909500D01*
X69990133Y-82909501D01*
X69965009Y-82912414D01*
X69965002Y-82912416D01*
X69900892Y-82940724D01*
X69830496Y-82949942D01*
X69799105Y-82940724D01*
X69734989Y-82912414D01*
X69734990Y-82912414D01*
X69709868Y-82909500D01*
X68720140Y-82909500D01*
X68720133Y-82909501D01*
X68695009Y-82912414D01*
X68695002Y-82912416D01*
X68630892Y-82940724D01*
X68560496Y-82949942D01*
X68529105Y-82940724D01*
X68464989Y-82912414D01*
X68464990Y-82912414D01*
X68439868Y-82909500D01*
X67450140Y-82909500D01*
X67450133Y-82909501D01*
X67425009Y-82912414D01*
X67425002Y-82912416D01*
X67360892Y-82940724D01*
X67290496Y-82949942D01*
X67259105Y-82940724D01*
X67243571Y-82933865D01*
X67194991Y-82912415D01*
X67194990Y-82912414D01*
X67194986Y-82912413D01*
X67193413Y-82911985D01*
X67191875Y-82911039D01*
X67186321Y-82908587D01*
X67186655Y-82907829D01*
X67132936Y-82874797D01*
X67102164Y-82810816D01*
X67100500Y-82790407D01*
X67100500Y-82618278D01*
X67120502Y-82550157D01*
X67126538Y-82541574D01*
X67138105Y-82526500D01*
X67199536Y-82446441D01*
X67260044Y-82300362D01*
X67280682Y-82143600D01*
X67280525Y-82142411D01*
X67267658Y-82044674D01*
X67260044Y-81986838D01*
X67199536Y-81840759D01*
X67103282Y-81715318D01*
X66977841Y-81619064D01*
X66906900Y-81589679D01*
X66831760Y-81558555D01*
X66675000Y-81537918D01*
X66518239Y-81558555D01*
X66372160Y-81619063D01*
X66372157Y-81619065D01*
X66246718Y-81715318D01*
X66150465Y-81840757D01*
X66150463Y-81840760D01*
X66089955Y-81986839D01*
X66069318Y-82143599D01*
X66069318Y-82143600D01*
X66089955Y-82300360D01*
X66150463Y-82446439D01*
X66150468Y-82446447D01*
X66223462Y-82541574D01*
X66249063Y-82607794D01*
X66249500Y-82618278D01*
X66249500Y-82633481D01*
X66229498Y-82701602D01*
X66175842Y-82748095D01*
X66105568Y-82758199D01*
X66079468Y-82751537D01*
X65964094Y-82708505D01*
X65903597Y-82702000D01*
X65659000Y-82702000D01*
X65659000Y-85718000D01*
X65903585Y-85718000D01*
X65903597Y-85717999D01*
X65964093Y-85711494D01*
X66100964Y-85660444D01*
X66100965Y-85660444D01*
X66217904Y-85572903D01*
X66226823Y-85560990D01*
X66283658Y-85518443D01*
X66327686Y-85510499D01*
X67169864Y-85510499D01*
X67194991Y-85507585D01*
X67259108Y-85479274D01*
X67329500Y-85470057D01*
X67360890Y-85479273D01*
X67425009Y-85507585D01*
X67425008Y-85507585D01*
X67428664Y-85508009D01*
X67450135Y-85510500D01*
X67736559Y-85510499D01*
X67804679Y-85530501D01*
X67825654Y-85547404D01*
X67953477Y-85675227D01*
X67987503Y-85737539D01*
X67989304Y-85747876D01*
X68004955Y-85866762D01*
X68037710Y-85945838D01*
X68065464Y-86012843D01*
X68161718Y-86138284D01*
X68287159Y-86234538D01*
X68433238Y-86295046D01*
X68590000Y-86315684D01*
X68590002Y-86315683D01*
X68596196Y-86316499D01*
X68661123Y-86345221D01*
X68700215Y-86404486D01*
X68701060Y-86475478D01*
X68693303Y-86493895D01*
X68693625Y-86494029D01*
X68690465Y-86501657D01*
X68690464Y-86501659D01*
X68669571Y-86552100D01*
X68629955Y-86647739D01*
X68609318Y-86804499D01*
X68609318Y-86804500D01*
X68629955Y-86961260D01*
X68682736Y-87088683D01*
X68690464Y-87107341D01*
X68786718Y-87232782D01*
X68912159Y-87329036D01*
X69058238Y-87389544D01*
X69215000Y-87410182D01*
X69371762Y-87389544D01*
X69517841Y-87329036D01*
X69643282Y-87232782D01*
X69739536Y-87107341D01*
X69800044Y-86961262D01*
X69808578Y-86896438D01*
X69837300Y-86831512D01*
X69878887Y-86804080D01*
X69850988Y-86791338D01*
X69812604Y-86731612D01*
X69808578Y-86712560D01*
X69805705Y-86690740D01*
X69800044Y-86647738D01*
X69739536Y-86501659D01*
X69666536Y-86406524D01*
X69640937Y-86340304D01*
X69640500Y-86329821D01*
X69640500Y-85629592D01*
X69660502Y-85561471D01*
X69714158Y-85514978D01*
X69733432Y-85508009D01*
X69734989Y-85507585D01*
X69734991Y-85507585D01*
X69799108Y-85479274D01*
X69869500Y-85470057D01*
X69900890Y-85479273D01*
X69965009Y-85507585D01*
X69965013Y-85507585D01*
X69966576Y-85508011D01*
X69968109Y-85508953D01*
X69973679Y-85511413D01*
X69973343Y-85512171D01*
X70027057Y-85545194D01*
X70057834Y-85609172D01*
X70059500Y-85629592D01*
X70059500Y-86696114D01*
X70039498Y-86764235D01*
X69991006Y-86806253D01*
X70027736Y-86829245D01*
X70057995Y-86893470D01*
X70059500Y-86912885D01*
X70059500Y-87399331D01*
X70039498Y-87467452D01*
X70033466Y-87476030D01*
X70029770Y-87480848D01*
X69960465Y-87571167D01*
X69960463Y-87571170D01*
X69899955Y-87717249D01*
X69879318Y-87874009D01*
X69879318Y-87874010D01*
X69899955Y-88030770D01*
X69959829Y-88175317D01*
X69960464Y-88176851D01*
X70056718Y-88302292D01*
X70182159Y-88398546D01*
X70328238Y-88459054D01*
X70485000Y-88479692D01*
X70641762Y-88459054D01*
X70787841Y-88398546D01*
X70913282Y-88302292D01*
X71009536Y-88176851D01*
X71070044Y-88030772D01*
X71090682Y-87874010D01*
X71088137Y-87854682D01*
X71073699Y-87745009D01*
X71070044Y-87717248D01*
X71009536Y-87571169D01*
X70936536Y-87476034D01*
X70910937Y-87409814D01*
X70910500Y-87399331D01*
X70910500Y-85629592D01*
X70930502Y-85561471D01*
X70984158Y-85514978D01*
X71003432Y-85508009D01*
X71004989Y-85507585D01*
X71004991Y-85507585D01*
X71069108Y-85479274D01*
X71139500Y-85470057D01*
X71170890Y-85479273D01*
X71235009Y-85507585D01*
X71260135Y-85510500D01*
X72249864Y-85510499D01*
X72274991Y-85507585D01*
X72339108Y-85479274D01*
X72409500Y-85470057D01*
X72440890Y-85479273D01*
X72505009Y-85507585D01*
X72530135Y-85510500D01*
X73519864Y-85510499D01*
X73544991Y-85507585D01*
X73609108Y-85479274D01*
X73679500Y-85470057D01*
X73710890Y-85479273D01*
X73775009Y-85507585D01*
X73800135Y-85510500D01*
X74789864Y-85510499D01*
X74814991Y-85507585D01*
X74879108Y-85479274D01*
X74949500Y-85470057D01*
X74980890Y-85479273D01*
X75045009Y-85507585D01*
X75070135Y-85510500D01*
X76059864Y-85510499D01*
X76084991Y-85507585D01*
X76149108Y-85479274D01*
X76219500Y-85470057D01*
X76250890Y-85479273D01*
X76315009Y-85507585D01*
X76340135Y-85510500D01*
X77329864Y-85510499D01*
X77354991Y-85507585D01*
X77419108Y-85479274D01*
X77489500Y-85470057D01*
X77520890Y-85479273D01*
X77585009Y-85507585D01*
X77585013Y-85507585D01*
X77586576Y-85508011D01*
X77588109Y-85508953D01*
X77593679Y-85511413D01*
X77593343Y-85512171D01*
X77647057Y-85545194D01*
X77677834Y-85609172D01*
X77679500Y-85629592D01*
X77679500Y-88044321D01*
X77659498Y-88112442D01*
X77653466Y-88121020D01*
X77627897Y-88154343D01*
X77580465Y-88216157D01*
X77580463Y-88216160D01*
X77519955Y-88362239D01*
X77499318Y-88518999D01*
X77499318Y-88519000D01*
X77519955Y-88675760D01*
X77559627Y-88771535D01*
X77580464Y-88821841D01*
X77653998Y-88917673D01*
X77676723Y-88947288D01*
X77677595Y-88948160D01*
X77678095Y-88949076D01*
X77681746Y-88953834D01*
X77681004Y-88954403D01*
X77711621Y-89010472D01*
X77714500Y-89037255D01*
X77714500Y-89065596D01*
X77694498Y-89133717D01*
X77640842Y-89180210D01*
X77604949Y-89190518D01*
X77578839Y-89193955D01*
X77432760Y-89254463D01*
X77432757Y-89254465D01*
X77307318Y-89350718D01*
X77211065Y-89476157D01*
X77211063Y-89476160D01*
X77150555Y-89622239D01*
X77129918Y-89778999D01*
X77129918Y-89779000D01*
X77150555Y-89935760D01*
X77201772Y-90059407D01*
X77211064Y-90081841D01*
X77307318Y-90207282D01*
X77432759Y-90303536D01*
X77578838Y-90364044D01*
X77735600Y-90384682D01*
X77892362Y-90364044D01*
X78038441Y-90303536D01*
X78163882Y-90207282D01*
X78260136Y-90081841D01*
X78320644Y-89935762D01*
X78341282Y-89779000D01*
X78341282Y-89778999D01*
X78341282Y-89777759D01*
X78341578Y-89776750D01*
X78342360Y-89770812D01*
X78343286Y-89770933D01*
X78361284Y-89709638D01*
X78378185Y-89688665D01*
X78402858Y-89663993D01*
X78402859Y-89663991D01*
X78410036Y-89656814D01*
X78410040Y-89656808D01*
X78424859Y-89641991D01*
X78434484Y-89623098D01*
X78444807Y-89606253D01*
X78457275Y-89589094D01*
X78463828Y-89568922D01*
X78471387Y-89550672D01*
X78481017Y-89531775D01*
X78484335Y-89510823D01*
X78488947Y-89491614D01*
X78495499Y-89471450D01*
X78495499Y-89442933D01*
X78495500Y-89442908D01*
X78495500Y-89403936D01*
X78515502Y-89335815D01*
X78569158Y-89289322D01*
X78639432Y-89279218D01*
X78704012Y-89308712D01*
X78721463Y-89327232D01*
X78723462Y-89329838D01*
X78723464Y-89329841D01*
X78819718Y-89455282D01*
X78945159Y-89551536D01*
X79091238Y-89612044D01*
X79248000Y-89632682D01*
X79404762Y-89612044D01*
X79410284Y-89609756D01*
X79480871Y-89602168D01*
X79544358Y-89633947D01*
X79580586Y-89695005D01*
X79584500Y-89726166D01*
X79584500Y-89822321D01*
X79564498Y-89890442D01*
X79558463Y-89899025D01*
X79485465Y-89994157D01*
X79485463Y-89994160D01*
X79424955Y-90140239D01*
X79404318Y-90296999D01*
X79404318Y-90297000D01*
X79424955Y-90453760D01*
X79424956Y-90453762D01*
X79485464Y-90599841D01*
X79581718Y-90725282D01*
X79707159Y-90821536D01*
X79853238Y-90882044D01*
X80010000Y-90902682D01*
X80166762Y-90882044D01*
X80312841Y-90821536D01*
X80438282Y-90725282D01*
X80534536Y-90599841D01*
X80595044Y-90453762D01*
X80606473Y-90366948D01*
X80635195Y-90302022D01*
X80694460Y-90262930D01*
X80714947Y-90258473D01*
X80801762Y-90247044D01*
X80947841Y-90186536D01*
X81073282Y-90090282D01*
X81169536Y-89964841D01*
X81230044Y-89818762D01*
X81250682Y-89662000D01*
X81230044Y-89505238D01*
X81169536Y-89359159D01*
X81096536Y-89264024D01*
X81070937Y-89197804D01*
X81070500Y-89187321D01*
X81070500Y-88243438D01*
X81090502Y-88175317D01*
X81107405Y-88154343D01*
X81399405Y-87862343D01*
X81461717Y-87828317D01*
X81532532Y-87833382D01*
X81589368Y-87875929D01*
X81614179Y-87942449D01*
X81614500Y-87951438D01*
X81614500Y-88759859D01*
X81614501Y-88759866D01*
X81617414Y-88784990D01*
X81617416Y-88784994D01*
X81645724Y-88849106D01*
X81654942Y-88919502D01*
X81645724Y-88950893D01*
X81617415Y-89015007D01*
X81617414Y-89015009D01*
X81614500Y-89040129D01*
X81614500Y-90029859D01*
X81614501Y-90029866D01*
X81617414Y-90054990D01*
X81617416Y-90054994D01*
X81645724Y-90119106D01*
X81654942Y-90189502D01*
X81645724Y-90220893D01*
X81617415Y-90285007D01*
X81617414Y-90285009D01*
X81614500Y-90310129D01*
X81614500Y-91299859D01*
X81614501Y-91299866D01*
X81617414Y-91324990D01*
X81617416Y-91324994D01*
X81645724Y-91389106D01*
X81654942Y-91459502D01*
X81645724Y-91490893D01*
X81617415Y-91555007D01*
X81617414Y-91555009D01*
X81614500Y-91580129D01*
X81614500Y-92569859D01*
X81614501Y-92569866D01*
X81617414Y-92594990D01*
X81617416Y-92594994D01*
X81645724Y-92659106D01*
X81654942Y-92729502D01*
X81645724Y-92760893D01*
X81617415Y-92825007D01*
X81617414Y-92825009D01*
X81614500Y-92850129D01*
X81614500Y-93839859D01*
X81614501Y-93839866D01*
X81617414Y-93864990D01*
X81617416Y-93864994D01*
X81645724Y-93929106D01*
X81654942Y-93999502D01*
X81645724Y-94030893D01*
X81617415Y-94095007D01*
X81617414Y-94095009D01*
X81614500Y-94120129D01*
X81614500Y-95109859D01*
X81614501Y-95109866D01*
X81617414Y-95134990D01*
X81617416Y-95134994D01*
X81645724Y-95199106D01*
X81654942Y-95269502D01*
X81645724Y-95300893D01*
X81617415Y-95365007D01*
X81617414Y-95365009D01*
X81614500Y-95390129D01*
X81614500Y-96379859D01*
X81614501Y-96379866D01*
X81617414Y-96404990D01*
X81617416Y-96404994D01*
X81645724Y-96469106D01*
X81654942Y-96539502D01*
X81645724Y-96570893D01*
X81617415Y-96635007D01*
X81617414Y-96635009D01*
X81614500Y-96660129D01*
X81614500Y-97502309D01*
X81594498Y-97570430D01*
X81564012Y-97603175D01*
X81552095Y-97612096D01*
X81464555Y-97729034D01*
X81464555Y-97729035D01*
X81413505Y-97865906D01*
X81407000Y-97926402D01*
X81407000Y-98171000D01*
X83043000Y-98171000D01*
X83111121Y-98191002D01*
X83157614Y-98244658D01*
X83169000Y-98297000D01*
X83169000Y-98553000D01*
X83148998Y-98621121D01*
X83095342Y-98667614D01*
X83043000Y-98679000D01*
X81407000Y-98679000D01*
X81407000Y-98923597D01*
X81413505Y-98984092D01*
X81456538Y-99099467D01*
X81461603Y-99170283D01*
X81427578Y-99232595D01*
X81365265Y-99266620D01*
X81338482Y-99269500D01*
X77931089Y-99269500D01*
X77862968Y-99249498D01*
X77816475Y-99195842D01*
X77806167Y-99127054D01*
X77821682Y-99009202D01*
X77821682Y-99009201D01*
X77807789Y-98903674D01*
X77801044Y-98852440D01*
X77740536Y-98706361D01*
X77644282Y-98580920D01*
X77518841Y-98484666D01*
X77446628Y-98454754D01*
X77372760Y-98424157D01*
X77216000Y-98403520D01*
X77059239Y-98424157D01*
X76913160Y-98484665D01*
X76913152Y-98484670D01*
X76818026Y-98557664D01*
X76751806Y-98583265D01*
X76741322Y-98583702D01*
X75313191Y-98583702D01*
X75178405Y-98583702D01*
X75155584Y-98591116D01*
X75136370Y-98595729D01*
X75112672Y-98599482D01*
X75091296Y-98610374D01*
X75073034Y-98617938D01*
X75050219Y-98625351D01*
X75050216Y-98625353D01*
X75030800Y-98639458D01*
X75013954Y-98649781D01*
X74992578Y-98660673D01*
X74985638Y-98667614D01*
X74968603Y-98684649D01*
X74041780Y-99611472D01*
X74002541Y-99650711D01*
X73946471Y-99706780D01*
X73946469Y-99706782D01*
X73935581Y-99728153D01*
X73925254Y-99745006D01*
X73911150Y-99764419D01*
X73911148Y-99764422D01*
X73903736Y-99787235D01*
X73896172Y-99805498D01*
X73880780Y-99835708D01*
X73879290Y-99834949D01*
X73845624Y-99884178D01*
X73780390Y-99911791D01*
X73775009Y-99912415D01*
X73775002Y-99912416D01*
X73710892Y-99940724D01*
X73640496Y-99949942D01*
X73609105Y-99940724D01*
X73544989Y-99912414D01*
X73544990Y-99912414D01*
X73519868Y-99909500D01*
X72530140Y-99909500D01*
X72530133Y-99909501D01*
X72505009Y-99912414D01*
X72505002Y-99912416D01*
X72440892Y-99940724D01*
X72370496Y-99949942D01*
X72339105Y-99940724D01*
X72274989Y-99912414D01*
X72274990Y-99912414D01*
X72249868Y-99909500D01*
X71260140Y-99909500D01*
X71260133Y-99909501D01*
X71235009Y-99912414D01*
X71235002Y-99912416D01*
X71170892Y-99940724D01*
X71100496Y-99949942D01*
X71069105Y-99940724D01*
X71004989Y-99912414D01*
X71004990Y-99912414D01*
X70979868Y-99909500D01*
X69990140Y-99909500D01*
X69990133Y-99909501D01*
X69965009Y-99912414D01*
X69965002Y-99912416D01*
X69900892Y-99940724D01*
X69830496Y-99949942D01*
X69799105Y-99940724D01*
X69734989Y-99912414D01*
X69734990Y-99912414D01*
X69709868Y-99909500D01*
X68720140Y-99909500D01*
X68720133Y-99909501D01*
X68695009Y-99912414D01*
X68695002Y-99912416D01*
X68630892Y-99940724D01*
X68560496Y-99949942D01*
X68529105Y-99940724D01*
X68464989Y-99912414D01*
X68464990Y-99912414D01*
X68439868Y-99909500D01*
X67450140Y-99909500D01*
X67450133Y-99909501D01*
X67425009Y-99912414D01*
X67425002Y-99912416D01*
X67360892Y-99940724D01*
X67290496Y-99949942D01*
X67259105Y-99940724D01*
X67194989Y-99912414D01*
X67194990Y-99912414D01*
X67169870Y-99909500D01*
X66327690Y-99909500D01*
X66259569Y-99889498D01*
X66226821Y-99859008D01*
X66217903Y-99847095D01*
X66100965Y-99759555D01*
X65964093Y-99708505D01*
X65903597Y-99702000D01*
X65659000Y-99702000D01*
X65659000Y-102718000D01*
X65903585Y-102718000D01*
X65903597Y-102717999D01*
X65964093Y-102711494D01*
X66100964Y-102660444D01*
X66100966Y-102660443D01*
X66143772Y-102628399D01*
X66210292Y-102603587D01*
X66279666Y-102618678D01*
X66314506Y-102646753D01*
X66341214Y-102677576D01*
X66343872Y-102680643D01*
X66347751Y-102683135D01*
X66368723Y-102700037D01*
X66520091Y-102851405D01*
X66554117Y-102913717D01*
X66549052Y-102984532D01*
X66506505Y-103041368D01*
X66439985Y-103066179D01*
X66430996Y-103066500D01*
X65730140Y-103066500D01*
X65730133Y-103066501D01*
X65705009Y-103069414D01*
X65705005Y-103069416D01*
X65602234Y-103114793D01*
X65522795Y-103194232D01*
X65522794Y-103194234D01*
X65477414Y-103297009D01*
X65474500Y-103322129D01*
X65474500Y-105211859D01*
X65474501Y-105211866D01*
X65477414Y-105236990D01*
X65477416Y-105236994D01*
X65522793Y-105339765D01*
X65602232Y-105419204D01*
X65602234Y-105419205D01*
X65602235Y-105419206D01*
X65705009Y-105464585D01*
X65730135Y-105467500D01*
X66135351Y-105467499D01*
X66203469Y-105487501D01*
X66249963Y-105541156D01*
X66260067Y-105611430D01*
X66230574Y-105676011D01*
X66180868Y-105710989D01*
X66137606Y-105727749D01*
X66137587Y-105727759D01*
X65948439Y-105844874D01*
X65948438Y-105844875D01*
X65784017Y-105994764D01*
X65649942Y-106172310D01*
X65649938Y-106172315D01*
X65550774Y-106371462D01*
X65550768Y-106371479D01*
X65489885Y-106585460D01*
X65469357Y-106807000D01*
X65489885Y-107028539D01*
X65550768Y-107242520D01*
X65550774Y-107242537D01*
X65649938Y-107441684D01*
X65649942Y-107441689D01*
X65784017Y-107619235D01*
X65948438Y-107769124D01*
X65948439Y-107769125D01*
X66137587Y-107886240D01*
X66137590Y-107886241D01*
X66137599Y-107886247D01*
X66227989Y-107921264D01*
X66345053Y-107966616D01*
X66345056Y-107966616D01*
X66345060Y-107966618D01*
X66563757Y-108007500D01*
X66563760Y-108007500D01*
X66786240Y-108007500D01*
X66786243Y-108007500D01*
X67004940Y-107966618D01*
X67004944Y-107966616D01*
X67004946Y-107966616D01*
X67076883Y-107938747D01*
X67212401Y-107886247D01*
X67401562Y-107769124D01*
X67565981Y-107619236D01*
X67700058Y-107441689D01*
X67700059Y-107441685D01*
X67700061Y-107441684D01*
X67799225Y-107242537D01*
X67799226Y-107242533D01*
X67799229Y-107242528D01*
X67818300Y-107175500D01*
X71793500Y-107175500D01*
X71793500Y-107470097D01*
X71800005Y-107530593D01*
X71851055Y-107667464D01*
X71851055Y-107667465D01*
X71938595Y-107784404D01*
X72055534Y-107871944D01*
X72192406Y-107922994D01*
X72252902Y-107929499D01*
X72252915Y-107929500D01*
X72797500Y-107929500D01*
X72797500Y-107175500D01*
X73305500Y-107175500D01*
X73305500Y-107929500D01*
X73850085Y-107929500D01*
X73850097Y-107929499D01*
X73910593Y-107922994D01*
X74047464Y-107871944D01*
X74047465Y-107871944D01*
X74164404Y-107784404D01*
X74251944Y-107667465D01*
X74251944Y-107667464D01*
X74302994Y-107530593D01*
X74309499Y-107470097D01*
X74309500Y-107470085D01*
X74309500Y-107175500D01*
X73305500Y-107175500D01*
X72797500Y-107175500D01*
X71793500Y-107175500D01*
X67818300Y-107175500D01*
X67860115Y-107028536D01*
X67880643Y-106807000D01*
X67867717Y-106667500D01*
X71793500Y-106667500D01*
X72797500Y-106667500D01*
X72797500Y-105913500D01*
X73305500Y-105913500D01*
X73305500Y-106667500D01*
X74309500Y-106667500D01*
X74309500Y-106372914D01*
X74309499Y-106372902D01*
X74302994Y-106312406D01*
X74251944Y-106175535D01*
X74251944Y-106175534D01*
X74164404Y-106058595D01*
X74047465Y-105971055D01*
X73910593Y-105920005D01*
X73850097Y-105913500D01*
X73305500Y-105913500D01*
X72797500Y-105913500D01*
X72252902Y-105913500D01*
X72192406Y-105920005D01*
X72055535Y-105971055D01*
X72055534Y-105971055D01*
X71938595Y-106058595D01*
X71851055Y-106175534D01*
X71851055Y-106175535D01*
X71800005Y-106312406D01*
X71793500Y-106372902D01*
X71793500Y-106667500D01*
X67867717Y-106667500D01*
X67860115Y-106585464D01*
X67857477Y-106576194D01*
X67799231Y-106371479D01*
X67799225Y-106371462D01*
X67700061Y-106172315D01*
X67700057Y-106172310D01*
X67697779Y-106169294D01*
X67656929Y-106115199D01*
X67565982Y-105994764D01*
X67401561Y-105844875D01*
X67401560Y-105844874D01*
X67212412Y-105727759D01*
X67212405Y-105727755D01*
X67212401Y-105727753D01*
X67169131Y-105710990D01*
X67112836Y-105667731D01*
X67088866Y-105600903D01*
X67104830Y-105531725D01*
X67155661Y-105482159D01*
X67214647Y-105467499D01*
X67619864Y-105467499D01*
X67644991Y-105464585D01*
X67747765Y-105419206D01*
X67827206Y-105339765D01*
X67872585Y-105236991D01*
X67875500Y-105211865D01*
X67875499Y-103832500D01*
X67895501Y-103764380D01*
X67949157Y-103717887D01*
X68019431Y-103707783D01*
X68084011Y-103737276D01*
X68090594Y-103743406D01*
X69301463Y-104954275D01*
X69318364Y-104975246D01*
X69320858Y-104979127D01*
X69360040Y-105013078D01*
X69363319Y-105016131D01*
X69374409Y-105027221D01*
X69386965Y-105036620D01*
X69390458Y-105039435D01*
X69429629Y-105073377D01*
X69433816Y-105075289D01*
X69456977Y-105089031D01*
X69460671Y-105091796D01*
X69460674Y-105091798D01*
X69493911Y-105104193D01*
X69509248Y-105109914D01*
X69513378Y-105111624D01*
X69560545Y-105133165D01*
X69565109Y-105133821D01*
X69591204Y-105140481D01*
X69595519Y-105142091D01*
X69647230Y-105145789D01*
X69651659Y-105146264D01*
X69667203Y-105148500D01*
X69682872Y-105148500D01*
X69687368Y-105148661D01*
X69703549Y-105149817D01*
X69739075Y-105152359D01*
X69743575Y-105151379D01*
X69770360Y-105148500D01*
X78384496Y-105148500D01*
X78452617Y-105168502D01*
X78473591Y-105185405D01*
X79209160Y-105920974D01*
X79226061Y-105941945D01*
X79228555Y-105945826D01*
X79267737Y-105979777D01*
X79271016Y-105982830D01*
X79282106Y-105993920D01*
X79294662Y-106003319D01*
X79298155Y-106006134D01*
X79337326Y-106040076D01*
X79341513Y-106041988D01*
X79364674Y-106055730D01*
X79368368Y-106058495D01*
X79368371Y-106058497D01*
X79400722Y-106070562D01*
X79416945Y-106076613D01*
X79421075Y-106078323D01*
X79468242Y-106099864D01*
X79472806Y-106100520D01*
X79498901Y-106107180D01*
X79503216Y-106108790D01*
X79554927Y-106112488D01*
X79559356Y-106112963D01*
X79574900Y-106115199D01*
X79590569Y-106115199D01*
X79595065Y-106115360D01*
X79611246Y-106116516D01*
X79646772Y-106119058D01*
X79651272Y-106118078D01*
X79678057Y-106115199D01*
X81442701Y-106115199D01*
X81510822Y-106135201D01*
X81557315Y-106188857D01*
X81568701Y-106241199D01*
X81568701Y-106706866D01*
X81571614Y-106731990D01*
X81571616Y-106731994D01*
X81616993Y-106834765D01*
X81696432Y-106914204D01*
X81696434Y-106914205D01*
X81696435Y-106914206D01*
X81799209Y-106959585D01*
X81824335Y-106962500D01*
X85714064Y-106962499D01*
X85739191Y-106959585D01*
X85841965Y-106914206D01*
X85921406Y-106834765D01*
X85966785Y-106731991D01*
X85969700Y-106706865D01*
X85969699Y-104639499D01*
X85989701Y-104571379D01*
X86043357Y-104524886D01*
X86095699Y-104513500D01*
X87347267Y-104513500D01*
X87391298Y-104521444D01*
X87420917Y-104532491D01*
X87564473Y-104542759D01*
X87685735Y-104516379D01*
X87712518Y-104513500D01*
X91182142Y-104513500D01*
X91208926Y-104516379D01*
X91213427Y-104517359D01*
X91249765Y-104514759D01*
X91265134Y-104513661D01*
X91269630Y-104513500D01*
X91285298Y-104513500D01*
X91285299Y-104513500D01*
X91300838Y-104511265D01*
X91305270Y-104510789D01*
X91356983Y-104507091D01*
X91361291Y-104505483D01*
X91387401Y-104498819D01*
X91391957Y-104498165D01*
X91439140Y-104476616D01*
X91443239Y-104474918D01*
X91491831Y-104456796D01*
X91495517Y-104454036D01*
X91518683Y-104440289D01*
X91522873Y-104438377D01*
X91562047Y-104404432D01*
X91565545Y-104401613D01*
X91578093Y-104392221D01*
X91589186Y-104381126D01*
X91592451Y-104378086D01*
X91631643Y-104344128D01*
X91634131Y-104340256D01*
X91651034Y-104319278D01*
X91956117Y-104014195D01*
X92018427Y-103980171D01*
X92089242Y-103985236D01*
X92146078Y-104027783D01*
X92161615Y-104055068D01*
X92185464Y-104112643D01*
X92281718Y-104238084D01*
X92407159Y-104334338D01*
X92553238Y-104394846D01*
X92672127Y-104410497D01*
X92737052Y-104439219D01*
X92744774Y-104446324D01*
X93263595Y-104965145D01*
X93297621Y-105027457D01*
X93300500Y-105054240D01*
X93300500Y-108398393D01*
X93307912Y-108421205D01*
X93312528Y-108440431D01*
X93316280Y-108464125D01*
X93327170Y-108485496D01*
X93334737Y-108503764D01*
X93342150Y-108526580D01*
X93356249Y-108545985D01*
X93366579Y-108562843D01*
X93377470Y-108584218D01*
X93377471Y-108584219D01*
X93377472Y-108584220D01*
X93401446Y-108608194D01*
X94062091Y-109268839D01*
X94697595Y-109904343D01*
X94731621Y-109966655D01*
X94734500Y-109993438D01*
X94734500Y-110495859D01*
X94734501Y-110495866D01*
X94737414Y-110520990D01*
X94737416Y-110520994D01*
X94782793Y-110623765D01*
X94862232Y-110703204D01*
X94862234Y-110703205D01*
X94862235Y-110703206D01*
X94965009Y-110748585D01*
X94990135Y-110751500D01*
X96779864Y-110751499D01*
X96804991Y-110748585D01*
X96907765Y-110703206D01*
X96987206Y-110623765D01*
X97032585Y-110520991D01*
X97035500Y-110495865D01*
X97035499Y-110380302D01*
X97055500Y-110312185D01*
X97109156Y-110265692D01*
X97179430Y-110255587D01*
X97244011Y-110285080D01*
X97266982Y-110311389D01*
X97349674Y-110437957D01*
X97502097Y-110603534D01*
X97679698Y-110741767D01*
X97679699Y-110741768D01*
X97877628Y-110848882D01*
X97877630Y-110848883D01*
X98095098Y-110923539D01*
X98153033Y-110964576D01*
X98179585Y-111030420D01*
X98166324Y-111100167D01*
X98117459Y-111151673D01*
X98099703Y-111160203D01*
X97909985Y-111233700D01*
X97909974Y-111233705D01*
X97728701Y-111345945D01*
X97728699Y-111345946D01*
X97571129Y-111489591D01*
X97528070Y-111546610D01*
X97442634Y-111659745D01*
X97380065Y-111785402D01*
X97347593Y-111850615D01*
X97289243Y-112055693D01*
X97286961Y-112080320D01*
X97260759Y-112146305D01*
X97203041Y-112187648D01*
X97132135Y-112191224D01*
X97070551Y-112155897D01*
X97037843Y-112092884D01*
X97035499Y-112068693D01*
X97035499Y-111373140D01*
X97035499Y-111373136D01*
X97032585Y-111348009D01*
X97016872Y-111312422D01*
X96987206Y-111245234D01*
X96907767Y-111165795D01*
X96907765Y-111165794D01*
X96804989Y-111120414D01*
X96804990Y-111120414D01*
X96779868Y-111117500D01*
X94990140Y-111117500D01*
X94990133Y-111117501D01*
X94965009Y-111120414D01*
X94965005Y-111120416D01*
X94862234Y-111165793D01*
X94782795Y-111245232D01*
X94782794Y-111245234D01*
X94737414Y-111348009D01*
X94734500Y-111373129D01*
X94734500Y-113162859D01*
X94734501Y-113162866D01*
X94737414Y-113187990D01*
X94737416Y-113187994D01*
X94782793Y-113290765D01*
X94862232Y-113370204D01*
X94862234Y-113370205D01*
X94862235Y-113370206D01*
X94965009Y-113415585D01*
X94990135Y-113418500D01*
X96779864Y-113418499D01*
X96804991Y-113415585D01*
X96907765Y-113370206D01*
X96987206Y-113290765D01*
X97032585Y-113187991D01*
X97035500Y-113162865D01*
X97035499Y-112467306D01*
X97055501Y-112399188D01*
X97109157Y-112352695D01*
X97179430Y-112342591D01*
X97244011Y-112372084D01*
X97282395Y-112431811D01*
X97286961Y-112455681D01*
X97289243Y-112480307D01*
X97347593Y-112685384D01*
X97347594Y-112685386D01*
X97347595Y-112685389D01*
X97442634Y-112876255D01*
X97563051Y-113035711D01*
X97571129Y-113046408D01*
X97728699Y-113190053D01*
X97728701Y-113190054D01*
X97909974Y-113302294D01*
X97909975Y-113302294D01*
X97909981Y-113302298D01*
X98108802Y-113379321D01*
X98318390Y-113418500D01*
X98318393Y-113418500D01*
X98531607Y-113418500D01*
X98531610Y-113418500D01*
X98741198Y-113379321D01*
X98940019Y-113302298D01*
X99121302Y-113190052D01*
X99278872Y-113046407D01*
X99330461Y-112978093D01*
X100374500Y-112978093D01*
X100374501Y-112978102D01*
X100385123Y-113066563D01*
X100440638Y-113207340D01*
X100440639Y-113207342D01*
X100532078Y-113327922D01*
X100652658Y-113419361D01*
X100717731Y-113445022D01*
X100792753Y-113474607D01*
X100793436Y-113474876D01*
X100881901Y-113485500D01*
X101968098Y-113485499D01*
X102056564Y-113474876D01*
X102197342Y-113419361D01*
X102317922Y-113327922D01*
X102409361Y-113207342D01*
X102464876Y-113066564D01*
X102475500Y-112978099D01*
X102475500Y-112978093D01*
X107074500Y-112978093D01*
X107074501Y-112978102D01*
X107085123Y-113066563D01*
X107140638Y-113207340D01*
X107140639Y-113207342D01*
X107232078Y-113327922D01*
X107352658Y-113419361D01*
X107417731Y-113445022D01*
X107492753Y-113474607D01*
X107493436Y-113474876D01*
X107581901Y-113485500D01*
X108668098Y-113485499D01*
X108756564Y-113474876D01*
X108897342Y-113419361D01*
X109017922Y-113327922D01*
X109109361Y-113207342D01*
X109164876Y-113066564D01*
X109175500Y-112978099D01*
X109175499Y-110750003D01*
X111024564Y-110750003D01*
X111044286Y-111050915D01*
X111044288Y-111050929D01*
X111103120Y-111346692D01*
X111103121Y-111346696D01*
X111151693Y-111489782D01*
X111200055Y-111632252D01*
X111200058Y-111632258D01*
X111333432Y-111902715D01*
X111500969Y-112153454D01*
X111500974Y-112153460D01*
X111500975Y-112153461D01*
X111699811Y-112380189D01*
X111913506Y-112567595D01*
X111926545Y-112579030D01*
X112085724Y-112685389D01*
X112177282Y-112746566D01*
X112447748Y-112879945D01*
X112733309Y-112976880D01*
X113029080Y-113035713D01*
X113192242Y-113046407D01*
X113329997Y-113055436D01*
X113330000Y-113055436D01*
X113330003Y-113055436D01*
X113442845Y-113048039D01*
X113630920Y-113035713D01*
X113926691Y-112976880D01*
X114212252Y-112879945D01*
X114482718Y-112746566D01*
X114733461Y-112579025D01*
X114960189Y-112380189D01*
X115159025Y-112153461D01*
X115163807Y-112146305D01*
X115232905Y-112042892D01*
X115326566Y-111902718D01*
X115459945Y-111632252D01*
X115556880Y-111346691D01*
X115615713Y-111050920D01*
X115635436Y-110750000D01*
X115635343Y-110748585D01*
X115615713Y-110449084D01*
X115615713Y-110449080D01*
X115556880Y-110153309D01*
X115459945Y-109867748D01*
X115326566Y-109597282D01*
X115255241Y-109490536D01*
X115159030Y-109346545D01*
X115139183Y-109323914D01*
X114960189Y-109119811D01*
X114733461Y-108920975D01*
X114733460Y-108920974D01*
X114733454Y-108920969D01*
X114482715Y-108753432D01*
X114212258Y-108620058D01*
X114212252Y-108620055D01*
X114097515Y-108581107D01*
X113926696Y-108523121D01*
X113926692Y-108523120D01*
X113630929Y-108464288D01*
X113630915Y-108464286D01*
X113330003Y-108444564D01*
X113329997Y-108444564D01*
X113029084Y-108464286D01*
X113029070Y-108464288D01*
X112733307Y-108523120D01*
X112733303Y-108523121D01*
X112482692Y-108608193D01*
X112447748Y-108620055D01*
X112447745Y-108620056D01*
X112447741Y-108620058D01*
X112177284Y-108753432D01*
X111926545Y-108920969D01*
X111699811Y-109119811D01*
X111500969Y-109346545D01*
X111333432Y-109597284D01*
X111200058Y-109867741D01*
X111200054Y-109867751D01*
X111103121Y-110153303D01*
X111103120Y-110153307D01*
X111044288Y-110449070D01*
X111044286Y-110449084D01*
X111024564Y-110749996D01*
X111024564Y-110750003D01*
X109175499Y-110750003D01*
X109175499Y-109991902D01*
X109164876Y-109903436D01*
X109109361Y-109762658D01*
X109017922Y-109642078D01*
X108897342Y-109550639D01*
X108897340Y-109550638D01*
X108756566Y-109495124D01*
X108756561Y-109495123D01*
X108682080Y-109486179D01*
X108668099Y-109484500D01*
X108668098Y-109484500D01*
X107581906Y-109484500D01*
X107581897Y-109484501D01*
X107493436Y-109495123D01*
X107352659Y-109550638D01*
X107232078Y-109642078D01*
X107140638Y-109762659D01*
X107085124Y-109903433D01*
X107085123Y-109903438D01*
X107074500Y-109991899D01*
X107074500Y-112978093D01*
X102475500Y-112978093D01*
X102475499Y-109991902D01*
X102464876Y-109903436D01*
X102409361Y-109762658D01*
X102317922Y-109642078D01*
X102197342Y-109550639D01*
X102197340Y-109550638D01*
X102056566Y-109495124D01*
X102056561Y-109495123D01*
X101982080Y-109486179D01*
X101968099Y-109484500D01*
X101968098Y-109484500D01*
X100881906Y-109484500D01*
X100881897Y-109484501D01*
X100793436Y-109495123D01*
X100652659Y-109550638D01*
X100532078Y-109642078D01*
X100440638Y-109762659D01*
X100385124Y-109903433D01*
X100385123Y-109903438D01*
X100374500Y-109991899D01*
X100374500Y-112978093D01*
X99330461Y-112978093D01*
X99407366Y-112876255D01*
X99502405Y-112685389D01*
X99560756Y-112480310D01*
X99580429Y-112268000D01*
X99560756Y-112055690D01*
X99502405Y-111850611D01*
X99407366Y-111659745D01*
X99278872Y-111489593D01*
X99270991Y-111482408D01*
X99121300Y-111345946D01*
X99121298Y-111345945D01*
X98940025Y-111233705D01*
X98940021Y-111233703D01*
X98940019Y-111233702D01*
X98750296Y-111160203D01*
X98694001Y-111116944D01*
X98670031Y-111050117D01*
X98685995Y-110980938D01*
X98736826Y-110931372D01*
X98754901Y-110923539D01*
X98972369Y-110848883D01*
X98972371Y-110848882D01*
X99170300Y-110741768D01*
X99170301Y-110741767D01*
X99347902Y-110603534D01*
X99500325Y-110437958D01*
X99623419Y-110249548D01*
X99713820Y-110043456D01*
X99713823Y-110043449D01*
X99761544Y-109855000D01*
X98856116Y-109855000D01*
X98884493Y-109810844D01*
X98925000Y-109672889D01*
X98925000Y-109529111D01*
X98884493Y-109391156D01*
X98856116Y-109347000D01*
X99761544Y-109347000D01*
X99761544Y-109346999D01*
X99713823Y-109158550D01*
X99713820Y-109158543D01*
X99623419Y-108952451D01*
X99500325Y-108764041D01*
X99347902Y-108598465D01*
X99170301Y-108460232D01*
X99170300Y-108460231D01*
X98972371Y-108353117D01*
X98972369Y-108353116D01*
X98759516Y-108280044D01*
X98759509Y-108280042D01*
X98548202Y-108244782D01*
X98484303Y-108213840D01*
X98447275Y-108153264D01*
X98448876Y-108082285D01*
X98488596Y-108023440D01*
X98553826Y-107995410D01*
X98568941Y-107994500D01*
X101371552Y-107994500D01*
X101439673Y-108014502D01*
X101460647Y-108031405D01*
X102360467Y-108931225D01*
X102394493Y-108993537D01*
X102396294Y-109003874D01*
X102411945Y-109122760D01*
X102411946Y-109122762D01*
X102472454Y-109268841D01*
X102568708Y-109394282D01*
X102694149Y-109490536D01*
X102840228Y-109551044D01*
X102996990Y-109571682D01*
X103153752Y-109551044D01*
X103299831Y-109490536D01*
X103425272Y-109394282D01*
X103521526Y-109268841D01*
X103582034Y-109122762D01*
X103602672Y-108966000D01*
X103598814Y-108936699D01*
X103582034Y-108809239D01*
X103579448Y-108802994D01*
X103521526Y-108663159D01*
X103425272Y-108537718D01*
X103299831Y-108441464D01*
X103297338Y-108440431D01*
X103153750Y-108380955D01*
X103034864Y-108365304D01*
X102969936Y-108336581D01*
X102962215Y-108329477D01*
X102341333Y-107708595D01*
X102307307Y-107646283D01*
X102312372Y-107575468D01*
X102354919Y-107518632D01*
X102421439Y-107493821D01*
X102430428Y-107493500D01*
X102781031Y-107493500D01*
X102781038Y-107493500D01*
X102858042Y-107483636D01*
X102881945Y-107477410D01*
X102896904Y-107471396D01*
X102967568Y-107464546D01*
X103030720Y-107496987D01*
X103044299Y-107512169D01*
X103132077Y-107627922D01*
X103252654Y-107719358D01*
X103252658Y-107719361D01*
X103393435Y-107774877D01*
X103393434Y-107774877D01*
X103421394Y-107778234D01*
X103481898Y-107785500D01*
X103481901Y-107785500D01*
X104068099Y-107785500D01*
X104068102Y-107785500D01*
X104156564Y-107774877D01*
X104297342Y-107719361D01*
X104417922Y-107627922D01*
X104509361Y-107507342D01*
X104548875Y-107407141D01*
X104592473Y-107351109D01*
X104659444Y-107327541D01*
X104728525Y-107343922D01*
X104777783Y-107395051D01*
X104785695Y-107413733D01*
X104833342Y-107557525D01*
X104926365Y-107708339D01*
X104926370Y-107708345D01*
X105051654Y-107833629D01*
X105051660Y-107833634D01*
X105202474Y-107926657D01*
X105370678Y-107982393D01*
X105370681Y-107982394D01*
X105474483Y-107992999D01*
X105474483Y-107993000D01*
X105521000Y-107993000D01*
X105521000Y-105989000D01*
X106029000Y-105989000D01*
X106029000Y-107993000D01*
X106075517Y-107993000D01*
X106075516Y-107992999D01*
X106179318Y-107982394D01*
X106179321Y-107982393D01*
X106347525Y-107926657D01*
X106498339Y-107833634D01*
X106498345Y-107833629D01*
X106623629Y-107708345D01*
X106623634Y-107708339D01*
X106716657Y-107557525D01*
X106772393Y-107389321D01*
X106772394Y-107389318D01*
X106782999Y-107285516D01*
X106783000Y-107285516D01*
X106783000Y-105989000D01*
X106029000Y-105989000D01*
X105521000Y-105989000D01*
X105521000Y-103477000D01*
X106029000Y-103477000D01*
X106029000Y-105481000D01*
X106783000Y-105481000D01*
X106783000Y-104184483D01*
X106772394Y-104080681D01*
X106772393Y-104080678D01*
X106716657Y-103912474D01*
X106641114Y-103790000D01*
X111924785Y-103790000D01*
X111943603Y-103993084D01*
X111999416Y-104189245D01*
X111999417Y-104189247D01*
X111999418Y-104189250D01*
X112090327Y-104371821D01*
X112090328Y-104371822D01*
X112090329Y-104371824D01*
X112213234Y-104534578D01*
X112363959Y-104671981D01*
X112363960Y-104671982D01*
X112537351Y-104779341D01*
X112537354Y-104779342D01*
X112537363Y-104779348D01*
X112727544Y-104853024D01*
X112928024Y-104890500D01*
X112928026Y-104890500D01*
X113131974Y-104890500D01*
X113131976Y-104890500D01*
X113332456Y-104853024D01*
X113522637Y-104779348D01*
X113696041Y-104671981D01*
X113846764Y-104534579D01*
X113969673Y-104371821D01*
X114060582Y-104189250D01*
X114116397Y-103993083D01*
X114135215Y-103790000D01*
X114116397Y-103586917D01*
X114060582Y-103390750D01*
X113969673Y-103208179D01*
X113941597Y-103171000D01*
X113846765Y-103045421D01*
X113696040Y-102908018D01*
X113696039Y-102908017D01*
X113522648Y-102800658D01*
X113522641Y-102800654D01*
X113522637Y-102800652D01*
X113406133Y-102755518D01*
X113332457Y-102726976D01*
X113217713Y-102705527D01*
X113131976Y-102689500D01*
X112928024Y-102689500D01*
X112842287Y-102705527D01*
X112727542Y-102726976D01*
X112600858Y-102776054D01*
X112537363Y-102800652D01*
X112537362Y-102800652D01*
X112537361Y-102800653D01*
X112537351Y-102800658D01*
X112363960Y-102908017D01*
X112363959Y-102908018D01*
X112213234Y-103045421D01*
X112090329Y-103208175D01*
X111999416Y-103390754D01*
X111943603Y-103586915D01*
X111924785Y-103790000D01*
X106641114Y-103790000D01*
X106623634Y-103761660D01*
X106623629Y-103761654D01*
X106498345Y-103636370D01*
X106498339Y-103636365D01*
X106347525Y-103543342D01*
X106179321Y-103487606D01*
X106179318Y-103487605D01*
X106075516Y-103477000D01*
X106029000Y-103477000D01*
X105521000Y-103477000D01*
X105474483Y-103477000D01*
X105370681Y-103487605D01*
X105370678Y-103487606D01*
X105202474Y-103543342D01*
X105051660Y-103636365D01*
X105051654Y-103636370D01*
X104926370Y-103761654D01*
X104926365Y-103761660D01*
X104833340Y-103912478D01*
X104785694Y-104056266D01*
X104745280Y-104114637D01*
X104679724Y-104141893D01*
X104609839Y-104129380D01*
X104557813Y-104081070D01*
X104548875Y-104062857D01*
X104509361Y-103962658D01*
X104509358Y-103962654D01*
X104417923Y-103842079D01*
X104413381Y-103838635D01*
X104375360Y-103809802D01*
X104325365Y-103771889D01*
X104283173Y-103714790D01*
X104275500Y-103671492D01*
X104275500Y-103130499D01*
X104295502Y-103062378D01*
X104349158Y-103015885D01*
X104401500Y-103004499D01*
X105034860Y-103004499D01*
X105034864Y-103004499D01*
X105059991Y-103001585D01*
X105162765Y-102956206D01*
X105242206Y-102876765D01*
X105287585Y-102773991D01*
X105290500Y-102748865D01*
X105290500Y-102405000D01*
X114764785Y-102405000D01*
X114783603Y-102608084D01*
X114839416Y-102804245D01*
X114839417Y-102804247D01*
X114839418Y-102804250D01*
X114930327Y-102986821D01*
X114930328Y-102986822D01*
X114930329Y-102986824D01*
X115053234Y-103149578D01*
X115203959Y-103286981D01*
X115203960Y-103286982D01*
X115377351Y-103394341D01*
X115377354Y-103394342D01*
X115377363Y-103394348D01*
X115567544Y-103468024D01*
X115768024Y-103505500D01*
X115768026Y-103505500D01*
X115971974Y-103505500D01*
X115971976Y-103505500D01*
X116172456Y-103468024D01*
X116362637Y-103394348D01*
X116536041Y-103286981D01*
X116686764Y-103149579D01*
X116695011Y-103138659D01*
X116747301Y-103069415D01*
X116809673Y-102986821D01*
X116900582Y-102804250D01*
X116956397Y-102608083D01*
X116975215Y-102405000D01*
X116956397Y-102201917D01*
X116900582Y-102005750D01*
X116809673Y-101823179D01*
X116776619Y-101779408D01*
X116686765Y-101660421D01*
X116536040Y-101523018D01*
X116536039Y-101523017D01*
X116362648Y-101415658D01*
X116362641Y-101415654D01*
X116362637Y-101415652D01*
X116246133Y-101370518D01*
X116172457Y-101341976D01*
X116105629Y-101329484D01*
X115971976Y-101304500D01*
X115768024Y-101304500D01*
X115667784Y-101323238D01*
X115567542Y-101341976D01*
X115435107Y-101393282D01*
X115377363Y-101415652D01*
X115377362Y-101415652D01*
X115377361Y-101415653D01*
X115377351Y-101415658D01*
X115203960Y-101523017D01*
X115203959Y-101523018D01*
X115053234Y-101660421D01*
X114930329Y-101823175D01*
X114839416Y-102005754D01*
X114783603Y-102201915D01*
X114764785Y-102405000D01*
X105290500Y-102405000D01*
X105290499Y-101020000D01*
X111924785Y-101020000D01*
X111943603Y-101223084D01*
X111999416Y-101419245D01*
X111999417Y-101419247D01*
X111999418Y-101419250D01*
X112090327Y-101601821D01*
X112090328Y-101601822D01*
X112090329Y-101601824D01*
X112213234Y-101764578D01*
X112363959Y-101901981D01*
X112363960Y-101901982D01*
X112537351Y-102009341D01*
X112537354Y-102009342D01*
X112537363Y-102009348D01*
X112727544Y-102083024D01*
X112928024Y-102120500D01*
X112928026Y-102120500D01*
X113131974Y-102120500D01*
X113131976Y-102120500D01*
X113332456Y-102083024D01*
X113522637Y-102009348D01*
X113696041Y-101901981D01*
X113846764Y-101764579D01*
X113857839Y-101749914D01*
X113906625Y-101685310D01*
X113969673Y-101601821D01*
X114060582Y-101419250D01*
X114116397Y-101223083D01*
X114135215Y-101020000D01*
X114116397Y-100816917D01*
X114060582Y-100620750D01*
X113969673Y-100438179D01*
X113951979Y-100414748D01*
X113846765Y-100275421D01*
X113696040Y-100138018D01*
X113696039Y-100138017D01*
X113522648Y-100030658D01*
X113522641Y-100030654D01*
X113522637Y-100030652D01*
X113350678Y-99964035D01*
X113332457Y-99956976D01*
X113245515Y-99940724D01*
X113131976Y-99919500D01*
X112928024Y-99919500D01*
X112827784Y-99938238D01*
X112727542Y-99956976D01*
X112580190Y-100014060D01*
X112537363Y-100030652D01*
X112537362Y-100030652D01*
X112537361Y-100030653D01*
X112537351Y-100030658D01*
X112363960Y-100138017D01*
X112363959Y-100138018D01*
X112213234Y-100275421D01*
X112090329Y-100438175D01*
X111999416Y-100620754D01*
X111943603Y-100816915D01*
X111924785Y-101020000D01*
X105290499Y-101020000D01*
X105290499Y-100959136D01*
X105287585Y-100934009D01*
X105242945Y-100832908D01*
X105242206Y-100831234D01*
X105162767Y-100751795D01*
X105162765Y-100751794D01*
X105059989Y-100706414D01*
X105059990Y-100706414D01*
X105034868Y-100703500D01*
X103245140Y-100703500D01*
X103245133Y-100703501D01*
X103220009Y-100706414D01*
X103220005Y-100706416D01*
X103117234Y-100751793D01*
X103037795Y-100831232D01*
X103037794Y-100831234D01*
X102992414Y-100934009D01*
X102989500Y-100959129D01*
X102989500Y-101654690D01*
X102969498Y-101722811D01*
X102915842Y-101769304D01*
X102845568Y-101779408D01*
X102780988Y-101749914D01*
X102742604Y-101690188D01*
X102738038Y-101666321D01*
X102735756Y-101641690D01*
X102677405Y-101436611D01*
X102582366Y-101245745D01*
X102453872Y-101075593D01*
X102326123Y-100959133D01*
X102296300Y-100931946D01*
X102296298Y-100931945D01*
X102115025Y-100819705D01*
X102115021Y-100819703D01*
X102115019Y-100819702D01*
X101969464Y-100763314D01*
X101916199Y-100742679D01*
X101863801Y-100732884D01*
X101706610Y-100703500D01*
X101493390Y-100703500D01*
X101367637Y-100727007D01*
X101283800Y-100742679D01*
X101162090Y-100789830D01*
X101084981Y-100819702D01*
X101084980Y-100819702D01*
X101084979Y-100819703D01*
X101084974Y-100819705D01*
X100903701Y-100931945D01*
X100903699Y-100931946D01*
X100746129Y-101075591D01*
X100711264Y-101121760D01*
X100617634Y-101245745D01*
X100569717Y-101341976D01*
X100522593Y-101436615D01*
X100464244Y-101641688D01*
X100444571Y-101854000D01*
X100464244Y-102066311D01*
X100522593Y-102271384D01*
X100522594Y-102271386D01*
X100522595Y-102271389D01*
X100617634Y-102462255D01*
X100744002Y-102629592D01*
X100746129Y-102632408D01*
X100903699Y-102776053D01*
X100903701Y-102776054D01*
X101084974Y-102888294D01*
X101084975Y-102888294D01*
X101084981Y-102888298D01*
X101283802Y-102965321D01*
X101493390Y-103004500D01*
X101493393Y-103004500D01*
X101706607Y-103004500D01*
X101706610Y-103004500D01*
X101916198Y-102965321D01*
X102115019Y-102888298D01*
X102296302Y-102776052D01*
X102453872Y-102632407D01*
X102582366Y-102462255D01*
X102677405Y-102271389D01*
X102735756Y-102066310D01*
X102738038Y-102041679D01*
X102764238Y-101975698D01*
X102821953Y-101934353D01*
X102892860Y-101930774D01*
X102954445Y-101966099D01*
X102987155Y-102029111D01*
X102989500Y-102053306D01*
X102989500Y-102748859D01*
X102989501Y-102748866D01*
X102992414Y-102773990D01*
X102992416Y-102773994D01*
X103037793Y-102876765D01*
X103117232Y-102956204D01*
X103117236Y-102956207D01*
X103148584Y-102970048D01*
X103186578Y-102986824D01*
X103199393Y-102992482D01*
X103253631Y-103038294D01*
X103274490Y-103106157D01*
X103274500Y-103107746D01*
X103274500Y-103671492D01*
X103254498Y-103739613D01*
X103224635Y-103771889D01*
X103132076Y-103842079D01*
X103040641Y-103962654D01*
X103040638Y-103962658D01*
X102985122Y-104103435D01*
X102974500Y-104191894D01*
X102974500Y-104492467D01*
X102954498Y-104560588D01*
X102900842Y-104607081D01*
X102847966Y-104618466D01*
X100604367Y-104608959D01*
X100536332Y-104588668D01*
X100490067Y-104534816D01*
X100479979Y-104499406D01*
X100479815Y-104498164D01*
X100470544Y-104427738D01*
X100435912Y-104344128D01*
X100410037Y-104281660D01*
X100405911Y-104274515D01*
X100407835Y-104273403D01*
X100386436Y-104218041D01*
X100386000Y-104207564D01*
X100386000Y-104162857D01*
X100388879Y-104136076D01*
X100389859Y-104131573D01*
X100386219Y-104080678D01*
X100386161Y-104079863D01*
X100386000Y-104075367D01*
X100386000Y-104059701D01*
X100385506Y-104056266D01*
X100383764Y-104044157D01*
X100383288Y-104039716D01*
X100381377Y-104013000D01*
X100379591Y-103988017D01*
X100377981Y-103983702D01*
X100371321Y-103957607D01*
X100370665Y-103953043D01*
X100349124Y-103905876D01*
X100347410Y-103901737D01*
X100329298Y-103853172D01*
X100329296Y-103853169D01*
X100326531Y-103849475D01*
X100312789Y-103826314D01*
X100310877Y-103822127D01*
X100276935Y-103782956D01*
X100274120Y-103779463D01*
X100264721Y-103766907D01*
X100253631Y-103755817D01*
X100250578Y-103752538D01*
X100240463Y-103740865D01*
X100216628Y-103713357D01*
X100216627Y-103713356D01*
X100212746Y-103710862D01*
X100191775Y-103693961D01*
X99645905Y-103148091D01*
X99611879Y-103085779D01*
X99609000Y-103058996D01*
X99609000Y-100922003D01*
X99629002Y-100853882D01*
X99645900Y-100832913D01*
X101432496Y-99046316D01*
X101494806Y-99012293D01*
X101565621Y-99017357D01*
X101622457Y-99059904D01*
X101637997Y-99087193D01*
X101646964Y-99108841D01*
X101743218Y-99234282D01*
X101868659Y-99330536D01*
X102014738Y-99391044D01*
X102171500Y-99411682D01*
X102328262Y-99391044D01*
X102474341Y-99330536D01*
X102569474Y-99257537D01*
X102635694Y-99231937D01*
X102646178Y-99231500D01*
X105621316Y-99231500D01*
X105689437Y-99251502D01*
X105735930Y-99305158D01*
X105746417Y-99342477D01*
X105752402Y-99392320D01*
X105807289Y-99531500D01*
X105897688Y-99650711D01*
X105971630Y-99706782D01*
X106016900Y-99741111D01*
X106156079Y-99795997D01*
X106243540Y-99806500D01*
X106243543Y-99806500D01*
X106816257Y-99806500D01*
X106816260Y-99806500D01*
X106903721Y-99795997D01*
X107042900Y-99741111D01*
X107162111Y-99650711D01*
X107252511Y-99531500D01*
X107307397Y-99392321D01*
X107317900Y-99304862D01*
X107616900Y-99304862D01*
X107627402Y-99392320D01*
X107682289Y-99531500D01*
X107772688Y-99650711D01*
X107846630Y-99706782D01*
X107891900Y-99741111D01*
X108031079Y-99795997D01*
X108118540Y-99806500D01*
X108118543Y-99806500D01*
X108691257Y-99806500D01*
X108691260Y-99806500D01*
X108778721Y-99795997D01*
X108917900Y-99741111D01*
X109037111Y-99650711D01*
X109049025Y-99635000D01*
X114764785Y-99635000D01*
X114783603Y-99838084D01*
X114839416Y-100034245D01*
X114839417Y-100034247D01*
X114839418Y-100034250D01*
X114930327Y-100216821D01*
X114930328Y-100216822D01*
X114930329Y-100216824D01*
X115053234Y-100379578D01*
X115203959Y-100516981D01*
X115203960Y-100516982D01*
X115377351Y-100624341D01*
X115377354Y-100624342D01*
X115377363Y-100624348D01*
X115567544Y-100698024D01*
X115768024Y-100735500D01*
X115768026Y-100735500D01*
X115971974Y-100735500D01*
X115971976Y-100735500D01*
X116172456Y-100698024D01*
X116362637Y-100624348D01*
X116536041Y-100516981D01*
X116686764Y-100379579D01*
X116694394Y-100369476D01*
X116765420Y-100275421D01*
X116809673Y-100216821D01*
X116900582Y-100034250D01*
X116956397Y-99838083D01*
X116975215Y-99635000D01*
X116956397Y-99431917D01*
X116900582Y-99235750D01*
X116809673Y-99053179D01*
X116782622Y-99017357D01*
X116686765Y-98890421D01*
X116536040Y-98753018D01*
X116536039Y-98753017D01*
X116362648Y-98645658D01*
X116362641Y-98645654D01*
X116362637Y-98645652D01*
X116202725Y-98583702D01*
X116172457Y-98571976D01*
X116095893Y-98557664D01*
X115971976Y-98534500D01*
X115768024Y-98534500D01*
X115669057Y-98553000D01*
X115567542Y-98571976D01*
X115440685Y-98621121D01*
X115377363Y-98645652D01*
X115377362Y-98645652D01*
X115377361Y-98645653D01*
X115377351Y-98645658D01*
X115203960Y-98753017D01*
X115203959Y-98753018D01*
X115053234Y-98890421D01*
X114930329Y-99053175D01*
X114839416Y-99235754D01*
X114783603Y-99431915D01*
X114764785Y-99635000D01*
X109049025Y-99635000D01*
X109127511Y-99531500D01*
X109182397Y-99392321D01*
X109192900Y-99304860D01*
X109192900Y-98307140D01*
X109186038Y-98250000D01*
X111924785Y-98250000D01*
X111943603Y-98453084D01*
X111999416Y-98649245D01*
X111999417Y-98649247D01*
X111999418Y-98649250D01*
X112090327Y-98831821D01*
X112090328Y-98831822D01*
X112090329Y-98831824D01*
X112213234Y-98994578D01*
X112363959Y-99131981D01*
X112363960Y-99131982D01*
X112537351Y-99239341D01*
X112537354Y-99239342D01*
X112537363Y-99239348D01*
X112727544Y-99313024D01*
X112928024Y-99350500D01*
X112928026Y-99350500D01*
X113131974Y-99350500D01*
X113131976Y-99350500D01*
X113332456Y-99313024D01*
X113522637Y-99239348D01*
X113696041Y-99131981D01*
X113846764Y-98994579D01*
X113854684Y-98984092D01*
X113930997Y-98883036D01*
X113969673Y-98831821D01*
X114060582Y-98649250D01*
X114116397Y-98453083D01*
X114135215Y-98250000D01*
X114116397Y-98046917D01*
X114060582Y-97850750D01*
X113969673Y-97668179D01*
X113956449Y-97650668D01*
X113846765Y-97505421D01*
X113696040Y-97368018D01*
X113696039Y-97368017D01*
X113522648Y-97260658D01*
X113522641Y-97260654D01*
X113522637Y-97260652D01*
X113406133Y-97215518D01*
X113332457Y-97186976D01*
X113265629Y-97174484D01*
X113131976Y-97149500D01*
X112928024Y-97149500D01*
X112827784Y-97168238D01*
X112727542Y-97186976D01*
X112580190Y-97244060D01*
X112537363Y-97260652D01*
X112537362Y-97260652D01*
X112537361Y-97260653D01*
X112537351Y-97260658D01*
X112363960Y-97368017D01*
X112363959Y-97368018D01*
X112213234Y-97505421D01*
X112090329Y-97668175D01*
X112090327Y-97668178D01*
X112090327Y-97668179D01*
X112052461Y-97744225D01*
X111999416Y-97850754D01*
X111943603Y-98046915D01*
X111924785Y-98250000D01*
X109186038Y-98250000D01*
X109182397Y-98219679D01*
X109127511Y-98080500D01*
X109075178Y-98011488D01*
X109037111Y-97961288D01*
X108917900Y-97870889D01*
X108778720Y-97816002D01*
X108691262Y-97805500D01*
X108691260Y-97805500D01*
X108118540Y-97805500D01*
X108118537Y-97805500D01*
X108031079Y-97816002D01*
X107891899Y-97870889D01*
X107772688Y-97961288D01*
X107682289Y-98080499D01*
X107627402Y-98219679D01*
X107616900Y-98307137D01*
X107616900Y-99304862D01*
X107317900Y-99304862D01*
X107317900Y-99304860D01*
X107317900Y-98307140D01*
X107307397Y-98219679D01*
X107252511Y-98080500D01*
X107200178Y-98011488D01*
X107162111Y-97961288D01*
X107042900Y-97870889D01*
X106903720Y-97816002D01*
X106816262Y-97805500D01*
X106816260Y-97805500D01*
X106243540Y-97805500D01*
X106243537Y-97805500D01*
X106156079Y-97816002D01*
X106016899Y-97870889D01*
X105897688Y-97961288D01*
X105807289Y-98080499D01*
X105752402Y-98219679D01*
X105746417Y-98269523D01*
X105718436Y-98334773D01*
X105659619Y-98374537D01*
X105621316Y-98380500D01*
X105197550Y-98380500D01*
X105129429Y-98360498D01*
X105082936Y-98306842D01*
X105072832Y-98236568D01*
X105102326Y-98171988D01*
X105120846Y-98154538D01*
X105188377Y-98102719D01*
X105203282Y-98091282D01*
X105299536Y-97965841D01*
X105360044Y-97819762D01*
X105367993Y-97759382D01*
X105396713Y-97694457D01*
X105455978Y-97655364D01*
X105478402Y-97650668D01*
X105479859Y-97650499D01*
X105479864Y-97650499D01*
X105504991Y-97647585D01*
X105607765Y-97602206D01*
X105687206Y-97522765D01*
X105732585Y-97419991D01*
X105735500Y-97394865D01*
X105735500Y-96865000D01*
X114764785Y-96865000D01*
X114783603Y-97068084D01*
X114839416Y-97264245D01*
X114839417Y-97264247D01*
X114839418Y-97264250D01*
X114930327Y-97446821D01*
X114930328Y-97446822D01*
X114930329Y-97446824D01*
X115053234Y-97609578D01*
X115203959Y-97746981D01*
X115203960Y-97746982D01*
X115377351Y-97854341D01*
X115377354Y-97854342D01*
X115377363Y-97854348D01*
X115567544Y-97928024D01*
X115768024Y-97965500D01*
X115768026Y-97965500D01*
X115971974Y-97965500D01*
X115971976Y-97965500D01*
X116172456Y-97928024D01*
X116362637Y-97854348D01*
X116536041Y-97746981D01*
X116686764Y-97609579D01*
X116692334Y-97602204D01*
X116746736Y-97530163D01*
X116809673Y-97446821D01*
X116900582Y-97264250D01*
X116956397Y-97068083D01*
X116975215Y-96865000D01*
X116956397Y-96661917D01*
X116900582Y-96465750D01*
X116809673Y-96283179D01*
X116788287Y-96254859D01*
X116686765Y-96120421D01*
X116536040Y-95983018D01*
X116536039Y-95983017D01*
X116362648Y-95875658D01*
X116362641Y-95875654D01*
X116362637Y-95875652D01*
X116246133Y-95830518D01*
X116172457Y-95801976D01*
X116105629Y-95789484D01*
X115971976Y-95764500D01*
X115768024Y-95764500D01*
X115667784Y-95783238D01*
X115567542Y-95801976D01*
X115420190Y-95859060D01*
X115377363Y-95875652D01*
X115377362Y-95875652D01*
X115377361Y-95875653D01*
X115377351Y-95875658D01*
X115203960Y-95983017D01*
X115203959Y-95983018D01*
X115053234Y-96120421D01*
X114930329Y-96283175D01*
X114839416Y-96465754D01*
X114783603Y-96661915D01*
X114764785Y-96865000D01*
X105735500Y-96865000D01*
X105735499Y-96305136D01*
X105732585Y-96280009D01*
X105687206Y-96177235D01*
X105687206Y-96177234D01*
X105607767Y-96097795D01*
X105607765Y-96097794D01*
X105504989Y-96052414D01*
X105504990Y-96052414D01*
X105479868Y-96049500D01*
X103890140Y-96049500D01*
X103890133Y-96049501D01*
X103865009Y-96052414D01*
X103865005Y-96052416D01*
X103762234Y-96097793D01*
X103682795Y-96177232D01*
X103682794Y-96177234D01*
X103637414Y-96280009D01*
X103634500Y-96305129D01*
X103634500Y-97394859D01*
X103634501Y-97394866D01*
X103637414Y-97419990D01*
X103637416Y-97419994D01*
X103682793Y-97522765D01*
X103762232Y-97602204D01*
X103762234Y-97602205D01*
X103762235Y-97602206D01*
X103865009Y-97647585D01*
X103865008Y-97647585D01*
X103869478Y-97648103D01*
X103890135Y-97650500D01*
X104057173Y-97650499D01*
X104125293Y-97670501D01*
X104171786Y-97724156D01*
X104182095Y-97760052D01*
X104189955Y-97819760D01*
X104237671Y-97934955D01*
X104250464Y-97965841D01*
X104338651Y-98080769D01*
X104346720Y-98091284D01*
X104429154Y-98154538D01*
X104471021Y-98211876D01*
X104475243Y-98282747D01*
X104440479Y-98344649D01*
X104377766Y-98377931D01*
X104352450Y-98380500D01*
X102646178Y-98380500D01*
X102578057Y-98360498D01*
X102569474Y-98354462D01*
X102474347Y-98281468D01*
X102474343Y-98281466D01*
X102474341Y-98281464D01*
X102474338Y-98281462D01*
X102474335Y-98281461D01*
X102410581Y-98255053D01*
X102355300Y-98210505D01*
X102332880Y-98143141D01*
X102340742Y-98094620D01*
X102341987Y-98091282D01*
X102345915Y-98080749D01*
X102347620Y-98076630D01*
X102369165Y-98029457D01*
X102369819Y-98024901D01*
X102376483Y-97998791D01*
X102378091Y-97994483D01*
X102381789Y-97942770D01*
X102382265Y-97938338D01*
X102384500Y-97922799D01*
X102384500Y-97907130D01*
X102384661Y-97902634D01*
X102386931Y-97870889D01*
X102388359Y-97850927D01*
X102387379Y-97846420D01*
X102384500Y-97819640D01*
X102384500Y-94194859D01*
X103634500Y-94194859D01*
X103634501Y-94194866D01*
X103637414Y-94219990D01*
X103637416Y-94219994D01*
X103682793Y-94322765D01*
X103762232Y-94402204D01*
X103762234Y-94402205D01*
X103762235Y-94402206D01*
X103865009Y-94447585D01*
X103890135Y-94450500D01*
X105479864Y-94450499D01*
X105504991Y-94447585D01*
X105607765Y-94402206D01*
X105687206Y-94322765D01*
X105732585Y-94219991D01*
X105735500Y-94194865D01*
X105735499Y-93105136D01*
X105732585Y-93080009D01*
X105715272Y-93040798D01*
X105687206Y-92977234D01*
X105607767Y-92897795D01*
X105607765Y-92897794D01*
X105504989Y-92852414D01*
X105504990Y-92852414D01*
X105479868Y-92849500D01*
X103890140Y-92849500D01*
X103890133Y-92849501D01*
X103865009Y-92852414D01*
X103865005Y-92852416D01*
X103762234Y-92897793D01*
X103682795Y-92977232D01*
X103682794Y-92977234D01*
X103637414Y-93080009D01*
X103634500Y-93105129D01*
X103634500Y-94194859D01*
X102384500Y-94194859D01*
X102384500Y-87639597D01*
X106592000Y-87639597D01*
X106598505Y-87700093D01*
X106649555Y-87836964D01*
X106649555Y-87836965D01*
X106737095Y-87953904D01*
X106854034Y-88041444D01*
X106990906Y-88092494D01*
X107051402Y-88098999D01*
X107051415Y-88099000D01*
X107230684Y-88099000D01*
X107298805Y-88119002D01*
X107345298Y-88172658D01*
X107355402Y-88242932D01*
X107325908Y-88307512D01*
X107297015Y-88332127D01*
X107253701Y-88358945D01*
X107253699Y-88358946D01*
X107096129Y-88502591D01*
X107027235Y-88593821D01*
X106967634Y-88672745D01*
X106893395Y-88821839D01*
X106872593Y-88863615D01*
X106814244Y-89068688D01*
X106794571Y-89281000D01*
X106814244Y-89493311D01*
X106872593Y-89698384D01*
X106872594Y-89698386D01*
X106872595Y-89698389D01*
X106967634Y-89889255D01*
X107096128Y-90059407D01*
X107096129Y-90059408D01*
X107253699Y-90203053D01*
X107253701Y-90203054D01*
X107434974Y-90315294D01*
X107434975Y-90315294D01*
X107434981Y-90315298D01*
X107633802Y-90392321D01*
X107820097Y-90427145D01*
X107883381Y-90459324D01*
X107919223Y-90520609D01*
X107916242Y-90591543D01*
X107875384Y-90649605D01*
X107820098Y-90674854D01*
X107707350Y-90695930D01*
X107633800Y-90709679D01*
X107486770Y-90766639D01*
X107434981Y-90786702D01*
X107434980Y-90786702D01*
X107434979Y-90786703D01*
X107434974Y-90786705D01*
X107253701Y-90898945D01*
X107253699Y-90898946D01*
X107096129Y-91042591D01*
X107070641Y-91076343D01*
X106967634Y-91212745D01*
X106913415Y-91321633D01*
X106872593Y-91403615D01*
X106814244Y-91608688D01*
X106794571Y-91821000D01*
X106814244Y-92033311D01*
X106872593Y-92238384D01*
X106872594Y-92238386D01*
X106872595Y-92238389D01*
X106967634Y-92429255D01*
X107096128Y-92599407D01*
X107096129Y-92599408D01*
X107253699Y-92743053D01*
X107253701Y-92743054D01*
X107434974Y-92855294D01*
X107434975Y-92855294D01*
X107434981Y-92855298D01*
X107633802Y-92932321D01*
X107820097Y-92967145D01*
X107883381Y-92999324D01*
X107919223Y-93060609D01*
X107916242Y-93131543D01*
X107875384Y-93189605D01*
X107820098Y-93214854D01*
X107707350Y-93235930D01*
X107633800Y-93249679D01*
X107479754Y-93309356D01*
X107434981Y-93326702D01*
X107434980Y-93326702D01*
X107434979Y-93326703D01*
X107434974Y-93326705D01*
X107253701Y-93438945D01*
X107253699Y-93438946D01*
X107096129Y-93582591D01*
X107043921Y-93651726D01*
X106967634Y-93752745D01*
X106923430Y-93841520D01*
X106872593Y-93943615D01*
X106814244Y-94148688D01*
X106794571Y-94361000D01*
X106814244Y-94573311D01*
X106872593Y-94778384D01*
X106872594Y-94778386D01*
X106872595Y-94778389D01*
X106967634Y-94969255D01*
X107096128Y-95139407D01*
X107096129Y-95139408D01*
X107253699Y-95283053D01*
X107253701Y-95283054D01*
X107434974Y-95395294D01*
X107434975Y-95395294D01*
X107434981Y-95395298D01*
X107633802Y-95472321D01*
X107843390Y-95511500D01*
X107843393Y-95511500D01*
X108056607Y-95511500D01*
X108056610Y-95511500D01*
X108266198Y-95472321D01*
X108465019Y-95395298D01*
X108646302Y-95283052D01*
X108803872Y-95139407D01*
X108932366Y-94969255D01*
X109027405Y-94778389D01*
X109085756Y-94573310D01*
X109105429Y-94361000D01*
X109085756Y-94148690D01*
X109027405Y-93943611D01*
X108932366Y-93752745D01*
X108803872Y-93582593D01*
X108794882Y-93574397D01*
X108646300Y-93438946D01*
X108646298Y-93438945D01*
X108465025Y-93326705D01*
X108465021Y-93326703D01*
X108465019Y-93326702D01*
X108266198Y-93249679D01*
X108079902Y-93214854D01*
X108016618Y-93182676D01*
X107980776Y-93121391D01*
X107983757Y-93050457D01*
X108024615Y-92992395D01*
X108079901Y-92967145D01*
X108266198Y-92932321D01*
X108465019Y-92855298D01*
X108646302Y-92743052D01*
X108803872Y-92599407D01*
X108932366Y-92429255D01*
X109027405Y-92238389D01*
X109055310Y-92140313D01*
X109093191Y-92080268D01*
X109157521Y-92050234D01*
X109227878Y-92059747D01*
X109281922Y-92105787D01*
X109302496Y-92173738D01*
X109302500Y-92174796D01*
X109302500Y-92396393D01*
X109309912Y-92419205D01*
X109314528Y-92438431D01*
X109318280Y-92462125D01*
X109329170Y-92483496D01*
X109336737Y-92501764D01*
X109344150Y-92524580D01*
X109358249Y-92543985D01*
X109368579Y-92560843D01*
X109379470Y-92582218D01*
X109379471Y-92582219D01*
X109379472Y-92582220D01*
X109403446Y-92606194D01*
X111157472Y-94360220D01*
X111252780Y-94455528D01*
X111274149Y-94466416D01*
X111291006Y-94476746D01*
X111310417Y-94490849D01*
X111310418Y-94490849D01*
X111310419Y-94490850D01*
X111333232Y-94498261D01*
X111351494Y-94505825D01*
X111372874Y-94516719D01*
X111396572Y-94520472D01*
X111415786Y-94525084D01*
X111438607Y-94532500D01*
X111472512Y-94532500D01*
X112113432Y-94532500D01*
X112181553Y-94552502D01*
X112228046Y-94606158D01*
X112238150Y-94676432D01*
X112213982Y-94734432D01*
X112090329Y-94898175D01*
X111999416Y-95080754D01*
X111943603Y-95276915D01*
X111924785Y-95480000D01*
X111943603Y-95683084D01*
X111999416Y-95879245D01*
X111999417Y-95879247D01*
X111999418Y-95879250D01*
X112090327Y-96061821D01*
X112090328Y-96061822D01*
X112090329Y-96061824D01*
X112213234Y-96224578D01*
X112363959Y-96361981D01*
X112363960Y-96361982D01*
X112537351Y-96469341D01*
X112537354Y-96469342D01*
X112537363Y-96469348D01*
X112727544Y-96543024D01*
X112928024Y-96580500D01*
X112928026Y-96580500D01*
X113131974Y-96580500D01*
X113131976Y-96580500D01*
X113332456Y-96543024D01*
X113522637Y-96469348D01*
X113696041Y-96361981D01*
X113846764Y-96224579D01*
X113969673Y-96061821D01*
X114060582Y-95879250D01*
X114116397Y-95683083D01*
X114135215Y-95480000D01*
X114116397Y-95276917D01*
X114060582Y-95080750D01*
X113969673Y-94898179D01*
X113941373Y-94860704D01*
X113846018Y-94734432D01*
X113820928Y-94668016D01*
X113835728Y-94598579D01*
X113885719Y-94548167D01*
X113946568Y-94532500D01*
X114780448Y-94532500D01*
X114848569Y-94552502D01*
X114893238Y-94602336D01*
X114930327Y-94676821D01*
X114930328Y-94676822D01*
X114930329Y-94676824D01*
X115053234Y-94839578D01*
X115203959Y-94976981D01*
X115203960Y-94976982D01*
X115377351Y-95084341D01*
X115377354Y-95084342D01*
X115377363Y-95084348D01*
X115567544Y-95158024D01*
X115768024Y-95195500D01*
X115768026Y-95195500D01*
X115971974Y-95195500D01*
X115971976Y-95195500D01*
X116172456Y-95158024D01*
X116362637Y-95084348D01*
X116536041Y-94976981D01*
X116686764Y-94839579D01*
X116809673Y-94676821D01*
X116900582Y-94494250D01*
X116956397Y-94298083D01*
X116975215Y-94095000D01*
X116956397Y-93891917D01*
X116900582Y-93695750D01*
X116809673Y-93513179D01*
X116804370Y-93506157D01*
X116686765Y-93350421D01*
X116536040Y-93213018D01*
X116536039Y-93213017D01*
X116362648Y-93105658D01*
X116362641Y-93105654D01*
X116362637Y-93105652D01*
X116246133Y-93060518D01*
X116172457Y-93031976D01*
X116105629Y-93019484D01*
X115971976Y-92994500D01*
X115768024Y-92994500D01*
X115667784Y-93013238D01*
X115567542Y-93031976D01*
X115420190Y-93089060D01*
X115377363Y-93105652D01*
X115377362Y-93105652D01*
X115377361Y-93105653D01*
X115377351Y-93105658D01*
X115203960Y-93213017D01*
X115203959Y-93213018D01*
X115053234Y-93350421D01*
X114930329Y-93513175D01*
X114930327Y-93513178D01*
X114930327Y-93513179D01*
X114887262Y-93599664D01*
X114838995Y-93651726D01*
X114774473Y-93669500D01*
X114671236Y-93669500D01*
X114653280Y-93675334D01*
X114614346Y-93681500D01*
X114464000Y-93681500D01*
X114395879Y-93661498D01*
X114349386Y-93607842D01*
X114338000Y-93555500D01*
X114338000Y-92964000D01*
X113461116Y-92964000D01*
X113489493Y-92919844D01*
X113530000Y-92781889D01*
X113530000Y-92638111D01*
X113489493Y-92500156D01*
X113461116Y-92456000D01*
X114338000Y-92456000D01*
X114338000Y-91861414D01*
X114337999Y-91861402D01*
X114331494Y-91800906D01*
X114280444Y-91664035D01*
X114280444Y-91664034D01*
X114192904Y-91547095D01*
X114075965Y-91459555D01*
X113939093Y-91408505D01*
X113878597Y-91402000D01*
X113284000Y-91402000D01*
X113284000Y-92276325D01*
X113172315Y-92225320D01*
X113065763Y-92210000D01*
X112994237Y-92210000D01*
X112887685Y-92225320D01*
X112776000Y-92276325D01*
X112776000Y-91402000D01*
X112181402Y-91402000D01*
X112120906Y-91408505D01*
X111984035Y-91459555D01*
X111984034Y-91459555D01*
X111867095Y-91547095D01*
X111779555Y-91664034D01*
X111779555Y-91664035D01*
X111728505Y-91800906D01*
X111722000Y-91861402D01*
X111722000Y-92456000D01*
X112598884Y-92456000D01*
X112570507Y-92500156D01*
X112530000Y-92638111D01*
X112530000Y-92781889D01*
X112570507Y-92919844D01*
X112598884Y-92964000D01*
X111722000Y-92964000D01*
X111722000Y-93417062D01*
X111701998Y-93485183D01*
X111648342Y-93531676D01*
X111578068Y-93541780D01*
X111513488Y-93512286D01*
X111506905Y-93506157D01*
X110190405Y-92189657D01*
X110156379Y-92127345D01*
X110153500Y-92100562D01*
X110153500Y-90991608D01*
X110146086Y-90968791D01*
X110141472Y-90949572D01*
X110137719Y-90925874D01*
X110126825Y-90904494D01*
X110119260Y-90886228D01*
X110116468Y-90877635D01*
X110111850Y-90863419D01*
X110101737Y-90849500D01*
X110097746Y-90844006D01*
X110087416Y-90827149D01*
X110076528Y-90805780D01*
X109981220Y-90710472D01*
X109066857Y-89796109D01*
X109032831Y-89733797D01*
X109034762Y-89672532D01*
X109043453Y-89641988D01*
X109085756Y-89493310D01*
X109105429Y-89281000D01*
X109085756Y-89068690D01*
X109027405Y-88863611D01*
X108932366Y-88672745D01*
X108803872Y-88502593D01*
X108803731Y-88502464D01*
X108646300Y-88358946D01*
X108646298Y-88358945D01*
X108602985Y-88332127D01*
X108555598Y-88279260D01*
X108544315Y-88209166D01*
X108572719Y-88144099D01*
X108631792Y-88104717D01*
X108669316Y-88099000D01*
X108848585Y-88099000D01*
X108848597Y-88098999D01*
X108909093Y-88092494D01*
X109045964Y-88041444D01*
X109045965Y-88041444D01*
X109162904Y-87953904D01*
X109250444Y-87836965D01*
X109250444Y-87836964D01*
X109301494Y-87700093D01*
X109307999Y-87639597D01*
X109308000Y-87639585D01*
X109308000Y-86995000D01*
X108381116Y-86995000D01*
X108409493Y-86950844D01*
X108450000Y-86812889D01*
X108450000Y-86669111D01*
X108409493Y-86531156D01*
X108381116Y-86487000D01*
X109308000Y-86487000D01*
X109308000Y-85842414D01*
X109307999Y-85842402D01*
X109301494Y-85781906D01*
X109289595Y-85750003D01*
X111024564Y-85750003D01*
X111044286Y-86050915D01*
X111044288Y-86050929D01*
X111103120Y-86346692D01*
X111103121Y-86346696D01*
X111155725Y-86501660D01*
X111200055Y-86632252D01*
X111200058Y-86632258D01*
X111333432Y-86902715D01*
X111500969Y-87153454D01*
X111500974Y-87153460D01*
X111500975Y-87153461D01*
X111699811Y-87380189D01*
X111917131Y-87570774D01*
X111926545Y-87579030D01*
X112028986Y-87647478D01*
X112177282Y-87746566D01*
X112447748Y-87879945D01*
X112733309Y-87976880D01*
X113029080Y-88035713D01*
X113201034Y-88046983D01*
X113329997Y-88055436D01*
X113330000Y-88055436D01*
X113330003Y-88055436D01*
X113442845Y-88048039D01*
X113630920Y-88035713D01*
X113926691Y-87976880D01*
X114212252Y-87879945D01*
X114482718Y-87746566D01*
X114697257Y-87603216D01*
X114733454Y-87579030D01*
X114733455Y-87579028D01*
X114733461Y-87579025D01*
X114960189Y-87380189D01*
X115159025Y-87153461D01*
X115326566Y-86902718D01*
X115459945Y-86632252D01*
X115556880Y-86346691D01*
X115615713Y-86050920D01*
X115633891Y-85773571D01*
X115635436Y-85750003D01*
X115635436Y-85749996D01*
X115622157Y-85547404D01*
X115615713Y-85449080D01*
X115556880Y-85153309D01*
X115556444Y-85152026D01*
X115525805Y-85061765D01*
X115459945Y-84867748D01*
X115326566Y-84597282D01*
X115269812Y-84512344D01*
X115159030Y-84346545D01*
X115150447Y-84336758D01*
X114960189Y-84119811D01*
X114733461Y-83920975D01*
X114733460Y-83920974D01*
X114733454Y-83920969D01*
X114482715Y-83753432D01*
X114212258Y-83620058D01*
X114212252Y-83620055D01*
X114062789Y-83569319D01*
X113926696Y-83523121D01*
X113926692Y-83523120D01*
X113630929Y-83464288D01*
X113630915Y-83464286D01*
X113330003Y-83444564D01*
X113329997Y-83444564D01*
X113029084Y-83464286D01*
X113029070Y-83464288D01*
X112733307Y-83523120D01*
X112733303Y-83523121D01*
X112468749Y-83612926D01*
X112447748Y-83620055D01*
X112447745Y-83620056D01*
X112447741Y-83620058D01*
X112177284Y-83753432D01*
X111926545Y-83920969D01*
X111699811Y-84119811D01*
X111500969Y-84346545D01*
X111333432Y-84597284D01*
X111200058Y-84867741D01*
X111200054Y-84867751D01*
X111103121Y-85153303D01*
X111103120Y-85153307D01*
X111044288Y-85449070D01*
X111044286Y-85449084D01*
X111024564Y-85749996D01*
X111024564Y-85750003D01*
X109289595Y-85750003D01*
X109250444Y-85645035D01*
X109250444Y-85645034D01*
X109162904Y-85528095D01*
X109045965Y-85440555D01*
X108909093Y-85389505D01*
X108848597Y-85383000D01*
X108204000Y-85383000D01*
X108204000Y-86307325D01*
X108092315Y-86256320D01*
X107985763Y-86241000D01*
X107914237Y-86241000D01*
X107807685Y-86256320D01*
X107696000Y-86307325D01*
X107696000Y-85383000D01*
X107051402Y-85383000D01*
X106990906Y-85389505D01*
X106854035Y-85440555D01*
X106854034Y-85440555D01*
X106737095Y-85528095D01*
X106649555Y-85645034D01*
X106649555Y-85645035D01*
X106598505Y-85781906D01*
X106592000Y-85842402D01*
X106592000Y-86487000D01*
X107518884Y-86487000D01*
X107490507Y-86531156D01*
X107450000Y-86669111D01*
X107450000Y-86812889D01*
X107490507Y-86950844D01*
X107518884Y-86995000D01*
X106592000Y-86995000D01*
X106592000Y-87639597D01*
X102384500Y-87639597D01*
X102384500Y-85678388D01*
X102395236Y-85627493D01*
X102406585Y-85601791D01*
X102409500Y-85576665D01*
X102409499Y-84406935D01*
X102429501Y-84338815D01*
X102483157Y-84292322D01*
X102553431Y-84282218D01*
X102608588Y-84307407D01*
X102609799Y-84305654D01*
X102648059Y-84332063D01*
X102654051Y-84336758D01*
X102680564Y-84360245D01*
X102683148Y-84362534D01*
X102705891Y-84374470D01*
X102717564Y-84380597D01*
X102724080Y-84384537D01*
X102742313Y-84397122D01*
X102756070Y-84406618D01*
X102756071Y-84406618D01*
X102756072Y-84406619D01*
X102764054Y-84409645D01*
X102792425Y-84420405D01*
X102799352Y-84423523D01*
X102833775Y-84441590D01*
X102871526Y-84450894D01*
X102878785Y-84453157D01*
X102915128Y-84466940D01*
X102953726Y-84471626D01*
X102961187Y-84472993D01*
X102980157Y-84477669D01*
X103041509Y-84513392D01*
X103072761Y-84574562D01*
X103075999Y-84577800D01*
X103884000Y-84577800D01*
X103884000Y-85085800D01*
X103076000Y-85085800D01*
X103076000Y-85162173D01*
X103090910Y-85327851D01*
X103090911Y-85327853D01*
X103149953Y-85541787D01*
X103149958Y-85541801D01*
X103246250Y-85741754D01*
X103246254Y-85741761D01*
X103376710Y-85921318D01*
X103376711Y-85921319D01*
X103537130Y-86074695D01*
X103722353Y-86196960D01*
X103926433Y-86284190D01*
X103926446Y-86284194D01*
X104055000Y-86313535D01*
X104055000Y-85453841D01*
X104056077Y-85454918D01*
X104176031Y-85516038D01*
X104309000Y-85537098D01*
X104441969Y-85516038D01*
X104561923Y-85454918D01*
X104563000Y-85453841D01*
X104563000Y-86316653D01*
X104584481Y-86313743D01*
X104795553Y-86245163D01*
X104991003Y-86139986D01*
X105164526Y-86001606D01*
X105310551Y-85834468D01*
X105424378Y-85643953D01*
X105424386Y-85643937D01*
X105502371Y-85436147D01*
X105542000Y-85217775D01*
X105542000Y-85085800D01*
X104734000Y-85085800D01*
X104734000Y-84577800D01*
X105542000Y-84577800D01*
X105542000Y-84501429D01*
X105541999Y-84501426D01*
X105527089Y-84335748D01*
X105527088Y-84335746D01*
X105468046Y-84121812D01*
X105468041Y-84121798D01*
X105371749Y-83921845D01*
X105371745Y-83921838D01*
X105241289Y-83742281D01*
X105241288Y-83742280D01*
X105080869Y-83588904D01*
X104895645Y-83466638D01*
X104691556Y-83379406D01*
X104691558Y-83379406D01*
X104563000Y-83350064D01*
X104563000Y-84209759D01*
X104561923Y-84208682D01*
X104441969Y-84147562D01*
X104309000Y-84126502D01*
X104176031Y-84147562D01*
X104056077Y-84208682D01*
X104055000Y-84209759D01*
X104055000Y-83346945D01*
X104033520Y-83349855D01*
X103822445Y-83418436D01*
X103817237Y-83420663D01*
X103816390Y-83418683D01*
X103756102Y-83431375D01*
X103689750Y-83406117D01*
X103670523Y-83385999D01*
X103669787Y-83386652D01*
X103638958Y-83351851D01*
X103634263Y-83345859D01*
X103612184Y-83313873D01*
X103612183Y-83313871D01*
X103583088Y-83288095D01*
X103577703Y-83282710D01*
X103551930Y-83253618D01*
X103551926Y-83253615D01*
X103519926Y-83231526D01*
X103513952Y-83226845D01*
X103484852Y-83201066D01*
X103462811Y-83189498D01*
X103450437Y-83183003D01*
X103443926Y-83179067D01*
X103411930Y-83156982D01*
X103411926Y-83156980D01*
X103411924Y-83156979D01*
X103375580Y-83143195D01*
X103368640Y-83140071D01*
X103345236Y-83127789D01*
X103334225Y-83122010D01*
X103315229Y-83117327D01*
X103296484Y-83112707D01*
X103289217Y-83110443D01*
X103252873Y-83096660D01*
X103252867Y-83096658D01*
X103214290Y-83091974D01*
X103206802Y-83090602D01*
X103169063Y-83081301D01*
X103169057Y-83081300D01*
X103169056Y-83081300D01*
X102998944Y-83081300D01*
X102998938Y-83081300D01*
X102961200Y-83090602D01*
X102953711Y-83091974D01*
X102915132Y-83096658D01*
X102878785Y-83110442D01*
X102871519Y-83112706D01*
X102864688Y-83114390D01*
X102833775Y-83122010D01*
X102833774Y-83122010D01*
X102833772Y-83122011D01*
X102833768Y-83122012D01*
X102799358Y-83140072D01*
X102792417Y-83143196D01*
X102756074Y-83156979D01*
X102756064Y-83156985D01*
X102724071Y-83179068D01*
X102717561Y-83183003D01*
X102705188Y-83189498D01*
X102683149Y-83201065D01*
X102683143Y-83201069D01*
X102654050Y-83226841D01*
X102648061Y-83231533D01*
X102616073Y-83253615D01*
X102616072Y-83253615D01*
X102590293Y-83282712D01*
X102584912Y-83288093D01*
X102555815Y-83313872D01*
X102555815Y-83313873D01*
X102533733Y-83345861D01*
X102529041Y-83351850D01*
X102503269Y-83380943D01*
X102503265Y-83380949D01*
X102485207Y-83415356D01*
X102481268Y-83421871D01*
X102459185Y-83453864D01*
X102459179Y-83453874D01*
X102445396Y-83490217D01*
X102442272Y-83497158D01*
X102424212Y-83531568D01*
X102424211Y-83531572D01*
X102414906Y-83569319D01*
X102412642Y-83576585D01*
X102398857Y-83612935D01*
X102397034Y-83620333D01*
X102394291Y-83619656D01*
X102371420Y-83672739D01*
X102312536Y-83712402D01*
X102241556Y-83713934D01*
X102185343Y-83681395D01*
X101444672Y-82940724D01*
X100703994Y-82200046D01*
X100680020Y-82176072D01*
X100680019Y-82176071D01*
X100680018Y-82176070D01*
X100658643Y-82165179D01*
X100641785Y-82154849D01*
X100626302Y-82143600D01*
X100622381Y-82140751D01*
X100622379Y-82140750D01*
X100622380Y-82140750D01*
X100599564Y-82133337D01*
X100581298Y-82125771D01*
X100573634Y-82121866D01*
X100559925Y-82114880D01*
X100536231Y-82111128D01*
X100517005Y-82106512D01*
X100494193Y-82099100D01*
X100460288Y-82099100D01*
X97750069Y-82099100D01*
X97681948Y-82079098D01*
X97635455Y-82025442D01*
X97625351Y-81955168D01*
X97644071Y-81904980D01*
X97675985Y-81855319D01*
X97752857Y-81663300D01*
X97791999Y-81460218D01*
X97792000Y-81460209D01*
X97792000Y-81408386D01*
X103376000Y-81408386D01*
X103376001Y-81408407D01*
X103390732Y-81562680D01*
X103390735Y-81562695D01*
X103449004Y-81761143D01*
X103543778Y-81944977D01*
X103543781Y-81944982D01*
X103671628Y-82107552D01*
X103827942Y-82242998D01*
X103827943Y-82242999D01*
X104007058Y-82346411D01*
X104007063Y-82346414D01*
X104202508Y-82414057D01*
X104202511Y-82414058D01*
X104205000Y-82414415D01*
X104205000Y-81471650D01*
X104260736Y-81555064D01*
X104351700Y-81615845D01*
X104459000Y-81637188D01*
X104566300Y-81615845D01*
X104657264Y-81555064D01*
X104713000Y-81471650D01*
X104713000Y-82409592D01*
X104814819Y-82384892D01*
X104814827Y-82384889D01*
X105002963Y-82298971D01*
X105171439Y-82178999D01*
X105171443Y-82178996D01*
X105314169Y-82029308D01*
X105425986Y-81855316D01*
X105502857Y-81663300D01*
X105541999Y-81460218D01*
X105542000Y-81460209D01*
X105542000Y-81285800D01*
X104734000Y-81285800D01*
X104734000Y-80777800D01*
X105542000Y-80777800D01*
X105542000Y-80655213D01*
X105541998Y-80655192D01*
X105527267Y-80500919D01*
X105527264Y-80500904D01*
X105468995Y-80302456D01*
X105374221Y-80118622D01*
X105374218Y-80118617D01*
X105246371Y-79956047D01*
X105090057Y-79820601D01*
X105090056Y-79820600D01*
X104910941Y-79717188D01*
X104910939Y-79717187D01*
X104715488Y-79649541D01*
X104715484Y-79649540D01*
X104713001Y-79649182D01*
X104713000Y-79649183D01*
X104713000Y-80591949D01*
X104657264Y-80508536D01*
X104566300Y-80447755D01*
X104459000Y-80426412D01*
X104351700Y-80447755D01*
X104260736Y-80508536D01*
X104205000Y-80591949D01*
X104205000Y-79654006D01*
X104204999Y-79654006D01*
X104103177Y-79678708D01*
X104103171Y-79678710D01*
X103915036Y-79764628D01*
X103746560Y-79884600D01*
X103746556Y-79884603D01*
X103603830Y-80034291D01*
X103492013Y-80208283D01*
X103415142Y-80400299D01*
X103376000Y-80603381D01*
X103376000Y-80777800D01*
X104184000Y-80777800D01*
X104184000Y-81285800D01*
X103376000Y-81285800D01*
X103376000Y-81408386D01*
X97792000Y-81408386D01*
X97792000Y-81285800D01*
X96984000Y-81285800D01*
X96984000Y-80777800D01*
X97792000Y-80777800D01*
X97792000Y-80655213D01*
X97791998Y-80655192D01*
X97777267Y-80500919D01*
X97777264Y-80500904D01*
X97718995Y-80302456D01*
X97624221Y-80118622D01*
X97624218Y-80118617D01*
X97496371Y-79956047D01*
X97340057Y-79820601D01*
X97340056Y-79820600D01*
X97160941Y-79717188D01*
X97160939Y-79717187D01*
X96965488Y-79649541D01*
X96965484Y-79649540D01*
X96963001Y-79649182D01*
X96963000Y-79649183D01*
X96963000Y-80591949D01*
X96907264Y-80508536D01*
X96816300Y-80447755D01*
X96709000Y-80426412D01*
X96601700Y-80447755D01*
X96510736Y-80508536D01*
X96455000Y-80591949D01*
X96455000Y-79654006D01*
X96454999Y-79654006D01*
X96353177Y-79678708D01*
X96353171Y-79678710D01*
X96165036Y-79764628D01*
X95996560Y-79884600D01*
X95996550Y-79884608D01*
X95959690Y-79923267D01*
X95898205Y-79958765D01*
X95827289Y-79955387D01*
X95769457Y-79914205D01*
X95743071Y-79848294D01*
X95742500Y-79836317D01*
X95742500Y-79802143D01*
X95742500Y-79802140D01*
X95731997Y-79714679D01*
X95677111Y-79575500D01*
X95641406Y-79528415D01*
X95639296Y-79525633D01*
X95614073Y-79459268D01*
X95628734Y-79389801D01*
X95678624Y-79339289D01*
X95739694Y-79323500D01*
X120448500Y-79323500D01*
X120516621Y-79343502D01*
X120563114Y-79397158D01*
X120574500Y-79449500D01*
X120574500Y-114008441D01*
X120554498Y-114076562D01*
X120532811Y-114102077D01*
X120463490Y-114164493D01*
X120457629Y-114172561D01*
X120401406Y-114215915D01*
X120355693Y-114224500D01*
X92062159Y-114224500D01*
X91994038Y-114204498D01*
X91947545Y-114150842D01*
X91937441Y-114080568D01*
X91966935Y-114015988D01*
X92000492Y-113988622D01*
X92018240Y-113978660D01*
X92082777Y-113942441D01*
X92297177Y-113776888D01*
X92485186Y-113581881D01*
X92642799Y-113361579D01*
X92660104Y-113327922D01*
X92766656Y-113120675D01*
X92766657Y-113120672D01*
X92783571Y-113071093D01*
X92854118Y-112864305D01*
X92903319Y-112597933D01*
X92913212Y-112327235D01*
X92889970Y-112116000D01*
X92883587Y-112057985D01*
X92829372Y-111850611D01*
X92815072Y-111795912D01*
X92810604Y-111785399D01*
X92709130Y-111546610D01*
X92674448Y-111489782D01*
X92568018Y-111315390D01*
X92394745Y-111107180D01*
X92394741Y-111107177D01*
X92394740Y-111107175D01*
X92193012Y-110926427D01*
X92193002Y-110926418D01*
X91967090Y-110776956D01*
X91721824Y-110661980D01*
X91550712Y-110610500D01*
X91462425Y-110583938D01*
X91194442Y-110544500D01*
X91194439Y-110544500D01*
X90991369Y-110544500D01*
X90991367Y-110544500D01*
X90788839Y-110559323D01*
X90788838Y-110559323D01*
X90524456Y-110618217D01*
X90524441Y-110618222D01*
X90271441Y-110714986D01*
X90035229Y-110847555D01*
X90035225Y-110847557D01*
X89901971Y-110950452D01*
X89843430Y-110995656D01*
X89820818Y-111013116D01*
X89632815Y-111208117D01*
X89632810Y-111208123D01*
X89475203Y-111428417D01*
X89475196Y-111428427D01*
X89351343Y-111669324D01*
X89351342Y-111669327D01*
X89263883Y-111925689D01*
X89263880Y-111925702D01*
X89214681Y-112192058D01*
X89214680Y-112192069D01*
X89204788Y-112462765D01*
X89234412Y-112732014D01*
X89302928Y-112994090D01*
X89408869Y-113243389D01*
X89433178Y-113283220D01*
X89549982Y-113474610D01*
X89723255Y-113682820D01*
X89723257Y-113682822D01*
X89723259Y-113682824D01*
X89828236Y-113776883D01*
X89924998Y-113863582D01*
X90121243Y-113993417D01*
X90167019Y-114047685D01*
X90176188Y-114118087D01*
X90145840Y-114182270D01*
X90085609Y-114219857D01*
X90051720Y-114224500D01*
X63791559Y-114224500D01*
X63723438Y-114204498D01*
X63697924Y-114182812D01*
X63688694Y-114172561D01*
X63677682Y-114160332D01*
X63673554Y-114155233D01*
X63654260Y-114128677D01*
X63654259Y-114128676D01*
X63654257Y-114128673D01*
X63645285Y-114120594D01*
X63627435Y-114107625D01*
X63584083Y-114051401D01*
X63575500Y-114005692D01*
X63575500Y-111785402D01*
X65535681Y-111785402D01*
X65556107Y-111992797D01*
X65616606Y-112192238D01*
X65691894Y-112333093D01*
X66220972Y-111804014D01*
X66219914Y-111816795D01*
X66250637Y-111938119D01*
X66319089Y-112042892D01*
X66417852Y-112119763D01*
X66536224Y-112160400D01*
X66583010Y-112160400D01*
X66572756Y-112170654D01*
X66510443Y-112204678D01*
X66509859Y-112204804D01*
X66334532Y-112242071D01*
X66171207Y-112314788D01*
X66026567Y-112419875D01*
X65906940Y-112552734D01*
X65906939Y-112552736D01*
X65817551Y-112707562D01*
X65817547Y-112707570D01*
X65762304Y-112877591D01*
X65762303Y-112877595D01*
X65762303Y-112877597D01*
X65743615Y-113055400D01*
X65760306Y-113214206D01*
X65762304Y-113233208D01*
X65817547Y-113403229D01*
X65817551Y-113403237D01*
X65906939Y-113558063D01*
X65906940Y-113558065D01*
X66026567Y-113690924D01*
X66026570Y-113690926D01*
X66171207Y-113796012D01*
X66334533Y-113868729D01*
X66509409Y-113905900D01*
X66688191Y-113905900D01*
X66863067Y-113868729D01*
X67026393Y-113796012D01*
X67171030Y-113690926D01*
X67269215Y-113581881D01*
X67290653Y-113558072D01*
X67290654Y-113558070D01*
X67290659Y-113558065D01*
X67313502Y-113518500D01*
X67364885Y-113469506D01*
X67422621Y-113455500D01*
X71087394Y-113455500D01*
X71110202Y-113448088D01*
X71129428Y-113443471D01*
X71153126Y-113439719D01*
X71174500Y-113428827D01*
X71192773Y-113421259D01*
X71215579Y-113413850D01*
X71215579Y-113413849D01*
X71215581Y-113413849D01*
X71234981Y-113399752D01*
X71251848Y-113389417D01*
X71259775Y-113385377D01*
X71273220Y-113378528D01*
X71368528Y-113283220D01*
X72535748Y-112116000D01*
X80211200Y-112116000D01*
X80211200Y-113010597D01*
X80217705Y-113071093D01*
X80268755Y-113207964D01*
X80268755Y-113207965D01*
X80356295Y-113324904D01*
X80473234Y-113412444D01*
X80610106Y-113463494D01*
X80670602Y-113469999D01*
X80670615Y-113470000D01*
X81215200Y-113470000D01*
X81215200Y-112116000D01*
X80211200Y-112116000D01*
X72535748Y-112116000D01*
X73439553Y-111212195D01*
X73463528Y-111188220D01*
X73474429Y-111166824D01*
X73484744Y-111149993D01*
X73498849Y-111130581D01*
X73506260Y-111107767D01*
X73513827Y-111089500D01*
X73524719Y-111068126D01*
X73528471Y-111044428D01*
X73533086Y-111025207D01*
X73538335Y-111009054D01*
X73578413Y-110950452D01*
X73643811Y-110922819D01*
X73658166Y-110921999D01*
X73846360Y-110921999D01*
X73846364Y-110921999D01*
X73871491Y-110919085D01*
X73974265Y-110873706D01*
X74053706Y-110794265D01*
X74099085Y-110691491D01*
X74099085Y-110691490D01*
X74101683Y-110685607D01*
X74117941Y-110666359D01*
X76901000Y-110666359D01*
X76901001Y-110666366D01*
X76903914Y-110691490D01*
X76903916Y-110691494D01*
X76949293Y-110794265D01*
X77028732Y-110873704D01*
X77028734Y-110873705D01*
X77028735Y-110873706D01*
X77131509Y-110919085D01*
X77131508Y-110919085D01*
X77135978Y-110919603D01*
X77156635Y-110922000D01*
X77310508Y-110921999D01*
X77378628Y-110942001D01*
X77425121Y-110995656D01*
X77433753Y-111053242D01*
X77435818Y-111053242D01*
X77435818Y-111061501D01*
X77456455Y-111218260D01*
X77509654Y-111346692D01*
X77516964Y-111364341D01*
X77613218Y-111489782D01*
X77738659Y-111586036D01*
X77884738Y-111646544D01*
X78041500Y-111667182D01*
X78198262Y-111646544D01*
X78344341Y-111586036D01*
X78469782Y-111489782D01*
X78566036Y-111364341D01*
X78626544Y-111218262D01*
X78647182Y-111061500D01*
X78647182Y-111053241D01*
X78648699Y-111053241D01*
X78658222Y-110992150D01*
X78705347Y-110939049D01*
X78757694Y-110920685D01*
X78771491Y-110919085D01*
X78874265Y-110873706D01*
X78953706Y-110794265D01*
X78999085Y-110691491D01*
X79000015Y-110683477D01*
X79027735Y-110618116D01*
X79086392Y-110578117D01*
X79125175Y-110572000D01*
X80086130Y-110572000D01*
X80154251Y-110592002D01*
X80200744Y-110645658D01*
X80211176Y-110710025D01*
X80211381Y-110710036D01*
X80211330Y-110710976D01*
X80211409Y-110711460D01*
X80211201Y-110713395D01*
X80211200Y-110713414D01*
X80211200Y-111608000D01*
X81597200Y-111608000D01*
X81665321Y-111628002D01*
X81711814Y-111681658D01*
X81723200Y-111734000D01*
X81723200Y-113470000D01*
X82267785Y-113470000D01*
X82267797Y-113469999D01*
X82328293Y-113463494D01*
X82465164Y-113412444D01*
X82465165Y-113412444D01*
X82582104Y-113324904D01*
X82655516Y-113226837D01*
X82712351Y-113184290D01*
X82783167Y-113179225D01*
X82836352Y-113208266D01*
X82836803Y-113207608D01*
X82843311Y-113212066D01*
X82845479Y-113213250D01*
X82845479Y-113213251D01*
X82846432Y-113214204D01*
X82846434Y-113214205D01*
X82846435Y-113214206D01*
X82949209Y-113259585D01*
X82974335Y-113262500D01*
X84564064Y-113262499D01*
X84589191Y-113259585D01*
X84691965Y-113214206D01*
X84771406Y-113134765D01*
X84803936Y-113061089D01*
X84849747Y-113006855D01*
X84917610Y-112985995D01*
X84985977Y-113005136D01*
X85033143Y-113058201D01*
X85034463Y-113061090D01*
X85066994Y-113134766D01*
X85146432Y-113214204D01*
X85146434Y-113214205D01*
X85146435Y-113214206D01*
X85249209Y-113259585D01*
X85274335Y-113262500D01*
X86864064Y-113262499D01*
X86889191Y-113259585D01*
X86991965Y-113214206D01*
X87071406Y-113134765D01*
X87116785Y-113031991D01*
X87119700Y-113006865D01*
X87119699Y-111571502D01*
X87139701Y-111503382D01*
X87156599Y-111482413D01*
X90387321Y-108251693D01*
X91216109Y-107422905D01*
X91278421Y-107388879D01*
X91305204Y-107386000D01*
X91897656Y-107386000D01*
X91965777Y-107406002D01*
X91970416Y-107409264D01*
X91971747Y-107410033D01*
X91971751Y-107410036D01*
X92117830Y-107470544D01*
X92274592Y-107491182D01*
X92431354Y-107470544D01*
X92577433Y-107410036D01*
X92702874Y-107313782D01*
X92799128Y-107188341D01*
X92859636Y-107042262D01*
X92880274Y-106885500D01*
X92859636Y-106728738D01*
X92799128Y-106582659D01*
X92702874Y-106457218D01*
X92577433Y-106360964D01*
X92552862Y-106350786D01*
X92431352Y-106300455D01*
X92274592Y-106279818D01*
X92117831Y-106300455D01*
X91971752Y-106360963D01*
X91964597Y-106365095D01*
X91963483Y-106363165D01*
X91908148Y-106384562D01*
X91897656Y-106385000D01*
X91113058Y-106385000D01*
X91086273Y-106382120D01*
X91081773Y-106381141D01*
X91081772Y-106381141D01*
X91030066Y-106384839D01*
X91025570Y-106385000D01*
X91009901Y-106385000D01*
X90994390Y-106387229D01*
X90989923Y-106387709D01*
X90938216Y-106391409D01*
X90938212Y-106391409D01*
X90933886Y-106393023D01*
X90907817Y-106399676D01*
X90903248Y-106400333D01*
X90903244Y-106400334D01*
X90856089Y-106421869D01*
X90851939Y-106423587D01*
X90845562Y-106425966D01*
X90803370Y-106441702D01*
X90799675Y-106444469D01*
X90776519Y-106458207D01*
X90775669Y-106458596D01*
X90772325Y-106460123D01*
X90733154Y-106494064D01*
X90729655Y-106496884D01*
X90717111Y-106506275D01*
X90717108Y-106506278D01*
X90706017Y-106517366D01*
X90702731Y-106520425D01*
X90663559Y-106554368D01*
X90663556Y-106554373D01*
X90661061Y-106558255D01*
X90644166Y-106579218D01*
X90446147Y-106777238D01*
X89679507Y-107543879D01*
X88629116Y-108594270D01*
X87589291Y-109634095D01*
X87526979Y-109668121D01*
X87500196Y-109671000D01*
X79125174Y-109671000D01*
X79057053Y-109650998D01*
X79010560Y-109597342D01*
X79000013Y-109559518D01*
X78999085Y-109551509D01*
X78953706Y-109448735D01*
X78953706Y-109448734D01*
X78874267Y-109369295D01*
X78874265Y-109369294D01*
X78771489Y-109323914D01*
X78771490Y-109323914D01*
X78746368Y-109321000D01*
X77156640Y-109321000D01*
X77156633Y-109321001D01*
X77131509Y-109323914D01*
X77131505Y-109323916D01*
X77028734Y-109369293D01*
X76949295Y-109448732D01*
X76949294Y-109448734D01*
X76903914Y-109551509D01*
X76901000Y-109576629D01*
X76901000Y-110666359D01*
X74117941Y-110666359D01*
X74147496Y-110631369D01*
X74215359Y-110610510D01*
X74216947Y-110610500D01*
X74286394Y-110610500D01*
X74309202Y-110603088D01*
X74328428Y-110598471D01*
X74352126Y-110594719D01*
X74373500Y-110583827D01*
X74391773Y-110576259D01*
X74414579Y-110568850D01*
X74414579Y-110568849D01*
X74414581Y-110568849D01*
X74433981Y-110554752D01*
X74450848Y-110544417D01*
X74458775Y-110540377D01*
X74472220Y-110533528D01*
X74567528Y-110438220D01*
X74585248Y-110420500D01*
X74585250Y-110420496D01*
X75990995Y-109014750D01*
X75991002Y-109014746D01*
X76104026Y-108901722D01*
X76104028Y-108901720D01*
X76114919Y-108880344D01*
X76125248Y-108863486D01*
X76139349Y-108844081D01*
X76146759Y-108821272D01*
X76154327Y-108803000D01*
X76165219Y-108781626D01*
X76168971Y-108757928D01*
X76173588Y-108738702D01*
X76181000Y-108715893D01*
X76181000Y-107466359D01*
X76901000Y-107466359D01*
X76901001Y-107466366D01*
X76903914Y-107491490D01*
X76903916Y-107491494D01*
X76949293Y-107594265D01*
X77028732Y-107673704D01*
X77028734Y-107673705D01*
X77028735Y-107673706D01*
X77131509Y-107719085D01*
X77156635Y-107722000D01*
X78746364Y-107721999D01*
X78771491Y-107719085D01*
X78874265Y-107673706D01*
X78953706Y-107594265D01*
X78953708Y-107594258D01*
X78959034Y-107586485D01*
X79014030Y-107541586D01*
X79046538Y-107532765D01*
X79150762Y-107519044D01*
X79296841Y-107458536D01*
X79422282Y-107362282D01*
X79518536Y-107236841D01*
X79579044Y-107090762D01*
X79599682Y-106934000D01*
X79579044Y-106777238D01*
X79518536Y-106631159D01*
X79422282Y-106505718D01*
X79296841Y-106409464D01*
X79294348Y-106408431D01*
X79150760Y-106348955D01*
X79058738Y-106336840D01*
X78993811Y-106308117D01*
X78959920Y-106262809D01*
X78953707Y-106248737D01*
X78953706Y-106248736D01*
X78953706Y-106248735D01*
X78874265Y-106169294D01*
X78874264Y-106169293D01*
X78771489Y-106123914D01*
X78771490Y-106123914D01*
X78746368Y-106121000D01*
X77156640Y-106121000D01*
X77156633Y-106121001D01*
X77131509Y-106123914D01*
X77131505Y-106123916D01*
X77028734Y-106169293D01*
X76949295Y-106248732D01*
X76949294Y-106248734D01*
X76903914Y-106351509D01*
X76901000Y-106376629D01*
X76901000Y-107466359D01*
X76181000Y-107466359D01*
X76181000Y-106583178D01*
X76201002Y-106515057D01*
X76207038Y-106506474D01*
X76216165Y-106494580D01*
X76280036Y-106411341D01*
X76340544Y-106265262D01*
X76361182Y-106108500D01*
X76359713Y-106097345D01*
X76347705Y-106006135D01*
X76340544Y-105951738D01*
X76280036Y-105805659D01*
X76183782Y-105680218D01*
X76058341Y-105583964D01*
X75932226Y-105531725D01*
X75912260Y-105523455D01*
X75755500Y-105502818D01*
X75598739Y-105523455D01*
X75452660Y-105583963D01*
X75452657Y-105583965D01*
X75327218Y-105680218D01*
X75230965Y-105805657D01*
X75230963Y-105805660D01*
X75170455Y-105951739D01*
X75149818Y-106108499D01*
X75149818Y-106108500D01*
X75170455Y-106265260D01*
X75230963Y-106411339D01*
X75230968Y-106411347D01*
X75303962Y-106506474D01*
X75329563Y-106572694D01*
X75330000Y-106583178D01*
X75330000Y-108420062D01*
X75309998Y-108488183D01*
X75293095Y-108509157D01*
X74275601Y-109526650D01*
X74213289Y-109560676D01*
X74142473Y-109555611D01*
X74085638Y-109513064D01*
X74071242Y-109488450D01*
X74053705Y-109448733D01*
X73974267Y-109369295D01*
X73974265Y-109369294D01*
X73871489Y-109323914D01*
X73871490Y-109323914D01*
X73846368Y-109321000D01*
X72256640Y-109321000D01*
X72256633Y-109321001D01*
X72231509Y-109323914D01*
X72231505Y-109323916D01*
X72128734Y-109369293D01*
X72049295Y-109448732D01*
X72049294Y-109448734D01*
X72003914Y-109551509D01*
X72001000Y-109576629D01*
X72001000Y-110666359D01*
X72001001Y-110666366D01*
X72003914Y-110691490D01*
X72003916Y-110691494D01*
X72049293Y-110794265D01*
X72128732Y-110873704D01*
X72128734Y-110873705D01*
X72128735Y-110873706D01*
X72231509Y-110919085D01*
X72231508Y-110919085D01*
X72239420Y-110920003D01*
X72304781Y-110947722D01*
X72344780Y-111006379D01*
X72346718Y-111077349D01*
X72313993Y-111134258D01*
X70880657Y-112567595D01*
X70818345Y-112601620D01*
X70791562Y-112604500D01*
X67561660Y-112604500D01*
X67493539Y-112584498D01*
X67447046Y-112530842D01*
X67436942Y-112460568D01*
X67464261Y-112398566D01*
X67482752Y-112376034D01*
X67580993Y-112192238D01*
X67641492Y-111992797D01*
X67661919Y-111785402D01*
X67661919Y-111785397D01*
X67641492Y-111578002D01*
X67580993Y-111378561D01*
X67505703Y-111237705D01*
X66976627Y-111766782D01*
X66977686Y-111754005D01*
X66946963Y-111632681D01*
X66878511Y-111527908D01*
X66779748Y-111451037D01*
X66661376Y-111410400D01*
X66614588Y-111410400D01*
X66624840Y-111400148D01*
X66687152Y-111366122D01*
X66687741Y-111365995D01*
X66688188Y-111365900D01*
X66688191Y-111365900D01*
X66863067Y-111328729D01*
X67026393Y-111256012D01*
X67171030Y-111150926D01*
X67198502Y-111120416D01*
X67290659Y-111018065D01*
X67290660Y-111018063D01*
X67293516Y-111013116D01*
X67380050Y-110863235D01*
X67435297Y-110693203D01*
X67453985Y-110515400D01*
X67435297Y-110337597D01*
X67380050Y-110167565D01*
X67363076Y-110138166D01*
X67346338Y-110069172D01*
X67369557Y-110002080D01*
X67383095Y-109986075D01*
X67401006Y-109968165D01*
X67446385Y-109865391D01*
X67449300Y-109840265D01*
X67449299Y-108650536D01*
X67446385Y-108625409D01*
X67407666Y-108537718D01*
X67401006Y-108522634D01*
X67321567Y-108443195D01*
X67321565Y-108443194D01*
X67218789Y-108397814D01*
X67218790Y-108397814D01*
X67193668Y-108394900D01*
X66003940Y-108394900D01*
X66003933Y-108394901D01*
X65978809Y-108397814D01*
X65978805Y-108397816D01*
X65876034Y-108443193D01*
X65796595Y-108522632D01*
X65796594Y-108522634D01*
X65751214Y-108625409D01*
X65748300Y-108650529D01*
X65748300Y-109840259D01*
X65748301Y-109840266D01*
X65751214Y-109865390D01*
X65751216Y-109865394D01*
X65796593Y-109968165D01*
X65814498Y-109986070D01*
X65848524Y-110048382D01*
X65843459Y-110119197D01*
X65834525Y-110138160D01*
X65817551Y-110167561D01*
X65817547Y-110167570D01*
X65762304Y-110337591D01*
X65762303Y-110337595D01*
X65762303Y-110337597D01*
X65743615Y-110515400D01*
X65762123Y-110691494D01*
X65762304Y-110693208D01*
X65817547Y-110863229D01*
X65817551Y-110863237D01*
X65906939Y-111018063D01*
X65906940Y-111018065D01*
X66026567Y-111150924D01*
X66077900Y-111188220D01*
X66171207Y-111256012D01*
X66334533Y-111328729D01*
X66509409Y-111365900D01*
X66509411Y-111365900D01*
X66509858Y-111365995D01*
X66572332Y-111399723D01*
X66572758Y-111400147D01*
X66583011Y-111410400D01*
X66567727Y-111410400D01*
X66475354Y-111425814D01*
X66365286Y-111485381D01*
X66280522Y-111577459D01*
X66230249Y-111692070D01*
X66223822Y-111769632D01*
X65691894Y-111237705D01*
X65616606Y-111378561D01*
X65556107Y-111578002D01*
X65535681Y-111785397D01*
X65535681Y-111785402D01*
X63575500Y-111785402D01*
X63575500Y-101464000D01*
X64447000Y-101464000D01*
X64447000Y-102258597D01*
X64453505Y-102319093D01*
X64504555Y-102455964D01*
X64504555Y-102455965D01*
X64592095Y-102572904D01*
X64709034Y-102660444D01*
X64845906Y-102711494D01*
X64906402Y-102717999D01*
X64906415Y-102718000D01*
X65151000Y-102718000D01*
X65151000Y-101464000D01*
X64447000Y-101464000D01*
X63575500Y-101464000D01*
X63575500Y-100956000D01*
X64447000Y-100956000D01*
X65151000Y-100956000D01*
X65151000Y-99702000D01*
X64906402Y-99702000D01*
X64845906Y-99708505D01*
X64709035Y-99759555D01*
X64709034Y-99759555D01*
X64592095Y-99847095D01*
X64504555Y-99964034D01*
X64504555Y-99964035D01*
X64453505Y-100100906D01*
X64447000Y-100161402D01*
X64447000Y-100956000D01*
X63575500Y-100956000D01*
X63575500Y-96601259D01*
X76879100Y-96601259D01*
X76879101Y-96601266D01*
X76882014Y-96626390D01*
X76882016Y-96626394D01*
X76927393Y-96729165D01*
X77006832Y-96808604D01*
X77006834Y-96808605D01*
X77006835Y-96808606D01*
X77109609Y-96853985D01*
X77134735Y-96856900D01*
X79024464Y-96856899D01*
X79049591Y-96853985D01*
X79152365Y-96808606D01*
X79231806Y-96729165D01*
X79277185Y-96626391D01*
X79280100Y-96601265D01*
X79280099Y-94711536D01*
X79277185Y-94686409D01*
X79239228Y-94600444D01*
X79231806Y-94583634D01*
X79152367Y-94504195D01*
X79152365Y-94504194D01*
X79049589Y-94458814D01*
X79049590Y-94458814D01*
X79024468Y-94455900D01*
X77134740Y-94455900D01*
X77134733Y-94455901D01*
X77109609Y-94458814D01*
X77109605Y-94458816D01*
X77006834Y-94504193D01*
X76927395Y-94583632D01*
X76927394Y-94583634D01*
X76882014Y-94686409D01*
X76879100Y-94711529D01*
X76879100Y-96601259D01*
X63575500Y-96601259D01*
X63575500Y-90424000D01*
X66909818Y-90424000D01*
X66930455Y-90580760D01*
X66969431Y-90674855D01*
X66990964Y-90726841D01*
X67087218Y-90852282D01*
X67212659Y-90948536D01*
X67358738Y-91009044D01*
X67515500Y-91029682D01*
X67672262Y-91009044D01*
X67818341Y-90948536D01*
X67913474Y-90875537D01*
X67979694Y-90849937D01*
X67990178Y-90849500D01*
X70042356Y-90849500D01*
X70110477Y-90869502D01*
X70156970Y-90923158D01*
X70167074Y-90993432D01*
X70154627Y-91025281D01*
X70157510Y-91026554D01*
X70107414Y-91140009D01*
X70104500Y-91165129D01*
X70104500Y-96254859D01*
X70104501Y-96254866D01*
X70107414Y-96279990D01*
X70107416Y-96279994D01*
X70152793Y-96382765D01*
X70232232Y-96462204D01*
X70232234Y-96462205D01*
X70232235Y-96462206D01*
X70335009Y-96507585D01*
X70360135Y-96510500D01*
X75449864Y-96510499D01*
X75474991Y-96507585D01*
X75577765Y-96462206D01*
X75657206Y-96382765D01*
X75702585Y-96279991D01*
X75705500Y-96254865D01*
X75705499Y-91165136D01*
X75702585Y-91140009D01*
X75674474Y-91076343D01*
X75657206Y-91037234D01*
X75577767Y-90957795D01*
X75577765Y-90957794D01*
X75474989Y-90912414D01*
X75474990Y-90912414D01*
X75449870Y-90909500D01*
X75449865Y-90909500D01*
X71575290Y-90909500D01*
X71507169Y-90889498D01*
X71460676Y-90835842D01*
X71450572Y-90765568D01*
X71458879Y-90735287D01*
X71501844Y-90631562D01*
X71522482Y-90474800D01*
X71516781Y-90431500D01*
X71501844Y-90318039D01*
X71498573Y-90310140D01*
X71441336Y-90171959D01*
X71345082Y-90046518D01*
X71219641Y-89950264D01*
X71184631Y-89935762D01*
X71073560Y-89889755D01*
X70916800Y-89869118D01*
X70760039Y-89889755D01*
X70613960Y-89950263D01*
X70613952Y-89950268D01*
X70585028Y-89972463D01*
X70518808Y-89998063D01*
X70508325Y-89998500D01*
X67990178Y-89998500D01*
X67922057Y-89978498D01*
X67913474Y-89972462D01*
X67903543Y-89964842D01*
X67865643Y-89935760D01*
X67818347Y-89899468D01*
X67818339Y-89899463D01*
X67672260Y-89838955D01*
X67515500Y-89818318D01*
X67358739Y-89838955D01*
X67212660Y-89899463D01*
X67212657Y-89899465D01*
X67087218Y-89995718D01*
X66990965Y-90121157D01*
X66990963Y-90121160D01*
X66930455Y-90267239D01*
X66909818Y-90423999D01*
X66909818Y-90424000D01*
X63575500Y-90424000D01*
X63575500Y-84464000D01*
X64447000Y-84464000D01*
X64447000Y-85258597D01*
X64453505Y-85319093D01*
X64504555Y-85455964D01*
X64504555Y-85455965D01*
X64592095Y-85572904D01*
X64709034Y-85660444D01*
X64845906Y-85711494D01*
X64906402Y-85717999D01*
X64906415Y-85718000D01*
X65151000Y-85718000D01*
X65151000Y-84464000D01*
X64447000Y-84464000D01*
X63575500Y-84464000D01*
X63575500Y-83956000D01*
X64447000Y-83956000D01*
X65151000Y-83956000D01*
X65151000Y-82702000D01*
X64906402Y-82702000D01*
X64845906Y-82708505D01*
X64709035Y-82759555D01*
X64709034Y-82759555D01*
X64592095Y-82847095D01*
X64504555Y-82964034D01*
X64504555Y-82964035D01*
X64453505Y-83100906D01*
X64447000Y-83161402D01*
X64447000Y-83956000D01*
X63575500Y-83956000D01*
X63575500Y-79539558D01*
X63595502Y-79471437D01*
X63617181Y-79445929D01*
X63639669Y-79425680D01*
X63644758Y-79421559D01*
X63671323Y-79402260D01*
X63671324Y-79402257D01*
X63679405Y-79393282D01*
X63686506Y-79383509D01*
X63686509Y-79383507D01*
X63686510Y-79383503D01*
X63692373Y-79375436D01*
X63748597Y-79332084D01*
X63794307Y-79323500D01*
X70073622Y-79323500D01*
X70141743Y-79343502D01*
G37*
G04 #@! TD.AperFunction*
G04 #@! TA.AperFunction,Conductor*
G36*
X101325621Y-85852301D02*
G01*
X101372114Y-85905957D01*
X101383500Y-85958299D01*
X101383500Y-97627494D01*
X101363498Y-97695615D01*
X101346595Y-97716589D01*
X99747287Y-99315896D01*
X99684975Y-99349922D01*
X99614159Y-99344857D01*
X99609247Y-99341700D01*
X97178901Y-99341700D01*
X97178901Y-99381547D01*
X97189417Y-99484502D01*
X97244693Y-99651312D01*
X97336951Y-99800886D01*
X97336956Y-99800892D01*
X97461207Y-99925143D01*
X97461213Y-99925148D01*
X97610786Y-100017405D01*
X97623069Y-100021476D01*
X97681440Y-100061890D01*
X97708695Y-100127447D01*
X97696181Y-100197332D01*
X97659570Y-100241476D01*
X97600835Y-100286016D01*
X97542187Y-100330490D01*
X97451789Y-100449699D01*
X97396902Y-100588879D01*
X97386400Y-100676337D01*
X97386400Y-101249062D01*
X97396902Y-101336520D01*
X97451789Y-101475700D01*
X97542188Y-101594911D01*
X97621020Y-101654690D01*
X97661400Y-101685311D01*
X97800579Y-101740197D01*
X97888040Y-101750700D01*
X98482000Y-101750700D01*
X98550121Y-101770702D01*
X98596614Y-101824358D01*
X98608000Y-101876700D01*
X98608000Y-102219500D01*
X98587998Y-102287621D01*
X98534342Y-102334114D01*
X98482000Y-102345500D01*
X98308690Y-102345500D01*
X98240569Y-102325498D01*
X98207821Y-102295008D01*
X98198903Y-102283095D01*
X98081965Y-102195555D01*
X97945093Y-102144505D01*
X97884597Y-102138000D01*
X97790000Y-102138000D01*
X97790000Y-104204000D01*
X97884585Y-104204000D01*
X97884597Y-104203999D01*
X97945093Y-104197494D01*
X98081964Y-104146444D01*
X98081965Y-104146444D01*
X98198904Y-104058903D01*
X98207823Y-104046990D01*
X98264658Y-104004443D01*
X98308686Y-103996499D01*
X98830864Y-103996499D01*
X98855991Y-103993585D01*
X98868602Y-103988017D01*
X98886371Y-103980171D01*
X98929495Y-103961129D01*
X98999889Y-103951911D01*
X99064094Y-103982215D01*
X99069484Y-103987298D01*
X99302276Y-104220090D01*
X99336302Y-104282402D01*
X99331237Y-104353217D01*
X99329594Y-104357391D01*
X99305532Y-104415484D01*
X99300456Y-104427738D01*
X99291822Y-104493315D01*
X99263099Y-104558242D01*
X99203833Y-104597333D01*
X99166366Y-104602866D01*
X97712735Y-104596708D01*
X97712000Y-104596708D01*
X97711998Y-104596708D01*
X97707294Y-104596762D01*
X97704941Y-104596790D01*
X97595088Y-104619964D01*
X97595087Y-104619964D01*
X97595084Y-104619965D01*
X97560441Y-104634315D01*
X97547537Y-104640012D01*
X97547531Y-104640015D01*
X97456401Y-104705583D01*
X97395108Y-104799647D01*
X97380756Y-104834297D01*
X97378129Y-104840850D01*
X97357501Y-104951197D01*
X97357500Y-104951212D01*
X97357500Y-105088338D01*
X97337498Y-105156459D01*
X97283842Y-105202952D01*
X97213568Y-105213056D01*
X97148988Y-105183562D01*
X97142405Y-105177433D01*
X97058767Y-105093795D01*
X97058765Y-105093794D01*
X96955989Y-105048414D01*
X96955990Y-105048414D01*
X96930868Y-105045500D01*
X96241140Y-105045500D01*
X96241133Y-105045501D01*
X96216009Y-105048414D01*
X96216005Y-105048416D01*
X96113234Y-105093793D01*
X96033795Y-105173232D01*
X96033794Y-105173234D01*
X95988414Y-105276009D01*
X95985500Y-105301129D01*
X95985500Y-106255562D01*
X95965498Y-106323683D01*
X95911842Y-106370176D01*
X95841568Y-106380280D01*
X95776988Y-106350786D01*
X95770405Y-106344657D01*
X95585405Y-106159657D01*
X95551379Y-106097345D01*
X95548500Y-106070562D01*
X95548500Y-102726408D01*
X95547772Y-102724168D01*
X95541084Y-102703586D01*
X95536472Y-102684372D01*
X95532719Y-102660674D01*
X95521825Y-102639294D01*
X95514260Y-102621028D01*
X95511331Y-102612014D01*
X95506850Y-102598219D01*
X95505613Y-102596517D01*
X95492746Y-102578806D01*
X95482416Y-102561949D01*
X95471528Y-102540580D01*
X95376220Y-102445272D01*
X93390893Y-100459945D01*
X93366919Y-100435971D01*
X93366918Y-100435970D01*
X93366917Y-100435969D01*
X93345542Y-100425078D01*
X93328684Y-100414748D01*
X93324942Y-100412030D01*
X93309280Y-100400650D01*
X93309278Y-100400649D01*
X93309279Y-100400649D01*
X93286463Y-100393236D01*
X93268197Y-100385670D01*
X93260533Y-100381765D01*
X93246824Y-100374779D01*
X93223130Y-100371027D01*
X93203904Y-100366411D01*
X93181092Y-100358999D01*
X93147187Y-100358999D01*
X91865694Y-100358999D01*
X91730908Y-100358999D01*
X91708087Y-100366413D01*
X91688873Y-100371026D01*
X91665175Y-100374779D01*
X91643799Y-100385671D01*
X91625537Y-100393235D01*
X91602722Y-100400648D01*
X91602719Y-100400650D01*
X91583303Y-100414755D01*
X91566457Y-100425078D01*
X91545081Y-100435970D01*
X91533094Y-100447957D01*
X91521107Y-100459945D01*
X91521106Y-100459946D01*
X90757969Y-101223083D01*
X90132257Y-101848795D01*
X90069945Y-101882821D01*
X90043162Y-101885700D01*
X85279640Y-101885700D01*
X85211519Y-101865698D01*
X85190545Y-101848795D01*
X85011272Y-101669522D01*
X84977246Y-101607210D01*
X84982311Y-101536395D01*
X85023661Y-101480465D01*
X85137282Y-101393282D01*
X85233536Y-101267841D01*
X85294044Y-101121762D01*
X85314682Y-100965000D01*
X85310601Y-100934005D01*
X85295553Y-100819702D01*
X85294044Y-100808238D01*
X85233536Y-100662159D01*
X85160536Y-100567024D01*
X85134937Y-100500804D01*
X85134500Y-100490321D01*
X85134500Y-97631608D01*
X85134499Y-97631605D01*
X85127341Y-97609578D01*
X85127086Y-97608792D01*
X85122471Y-97589572D01*
X85118719Y-97565874D01*
X85107828Y-97544500D01*
X85100261Y-97526234D01*
X85092849Y-97503419D01*
X85078747Y-97484010D01*
X85068422Y-97467161D01*
X85057528Y-97445780D01*
X85057526Y-97445778D01*
X85057525Y-97445776D01*
X84955041Y-97343292D01*
X84955034Y-97343286D01*
X84700397Y-97088649D01*
X84442194Y-96830446D01*
X84418220Y-96806472D01*
X84418219Y-96806471D01*
X84418218Y-96806470D01*
X84396843Y-96795579D01*
X84379985Y-96785249D01*
X84372934Y-96780126D01*
X84360581Y-96771151D01*
X84360579Y-96771150D01*
X84360580Y-96771150D01*
X84337764Y-96763737D01*
X84319498Y-96756171D01*
X84298126Y-96745281D01*
X84289289Y-96740778D01*
X84290048Y-96739288D01*
X84240827Y-96705631D01*
X84213208Y-96640384D01*
X84212585Y-96635009D01*
X84184274Y-96570892D01*
X84175057Y-96500498D01*
X84184272Y-96469113D01*
X84212585Y-96404991D01*
X84215500Y-96379865D01*
X84215499Y-95390136D01*
X84212585Y-95365009D01*
X84184274Y-95300892D01*
X84175057Y-95230498D01*
X84184272Y-95199113D01*
X84212585Y-95134991D01*
X84215500Y-95109865D01*
X84215499Y-94120136D01*
X84212585Y-94095009D01*
X84184274Y-94030892D01*
X84175057Y-93960498D01*
X84184272Y-93929113D01*
X84212585Y-93864991D01*
X84215500Y-93839865D01*
X84215499Y-92850136D01*
X84212585Y-92825009D01*
X84184274Y-92760892D01*
X84175057Y-92690498D01*
X84184272Y-92659113D01*
X84212585Y-92594991D01*
X84215500Y-92569865D01*
X84215499Y-91580136D01*
X84212585Y-91555009D01*
X84184274Y-91490892D01*
X84175057Y-91420498D01*
X84184272Y-91389113D01*
X84212585Y-91324991D01*
X84215500Y-91299865D01*
X84215499Y-90310136D01*
X84212585Y-90285009D01*
X84184274Y-90220892D01*
X84175057Y-90150498D01*
X84184272Y-90119113D01*
X84212585Y-90054991D01*
X84215500Y-90029865D01*
X84215499Y-89221436D01*
X84235501Y-89153316D01*
X84289157Y-89106823D01*
X84359431Y-89096719D01*
X84424011Y-89126212D01*
X84430594Y-89132342D01*
X84703795Y-89405543D01*
X84737821Y-89467855D01*
X84740700Y-89494638D01*
X84740700Y-91456593D01*
X84748112Y-91479405D01*
X84752728Y-91498631D01*
X84756480Y-91522325D01*
X84767370Y-91543696D01*
X84774937Y-91561964D01*
X84782350Y-91584780D01*
X84796449Y-91604185D01*
X84806779Y-91621043D01*
X84817670Y-91642418D01*
X84817671Y-91642419D01*
X84817672Y-91642420D01*
X84841646Y-91666394D01*
X85093490Y-91918238D01*
X85260902Y-92085650D01*
X85294928Y-92147962D01*
X85289863Y-92218777D01*
X85247316Y-92275613D01*
X85231204Y-92285867D01*
X85142316Y-92333378D01*
X84993780Y-92455280D01*
X84871877Y-92603818D01*
X84781295Y-92773285D01*
X84725513Y-92957175D01*
X84706680Y-93148397D01*
X84706680Y-93148402D01*
X84725513Y-93339624D01*
X84725514Y-93339630D01*
X84725515Y-93339631D01*
X84776030Y-93506157D01*
X84781295Y-93523514D01*
X84871877Y-93692981D01*
X84992422Y-93839866D01*
X84993780Y-93841520D01*
X85125356Y-93949502D01*
X85165324Y-94008178D01*
X85167225Y-94079149D01*
X85130454Y-94139881D01*
X85066686Y-94171093D01*
X85045424Y-94172900D01*
X84967041Y-94172900D01*
X84967033Y-94172901D01*
X84941909Y-94175814D01*
X84941905Y-94175816D01*
X84839134Y-94221193D01*
X84759695Y-94300632D01*
X84759694Y-94300634D01*
X84714314Y-94403409D01*
X84711400Y-94428529D01*
X84711400Y-95868259D01*
X84711401Y-95868266D01*
X84714314Y-95893390D01*
X84714316Y-95893394D01*
X84759693Y-95996165D01*
X84839132Y-96075604D01*
X84839134Y-96075605D01*
X84839135Y-96075606D01*
X84941909Y-96120985D01*
X84967035Y-96123900D01*
X86406764Y-96123899D01*
X86431891Y-96120985D01*
X86534665Y-96075606D01*
X86614106Y-95996165D01*
X86659485Y-95893391D01*
X86662400Y-95868265D01*
X86662399Y-94428536D01*
X86659485Y-94403409D01*
X86623878Y-94322767D01*
X86614106Y-94300634D01*
X86534667Y-94221195D01*
X86534665Y-94221194D01*
X86431889Y-94175814D01*
X86431890Y-94175814D01*
X86406770Y-94172900D01*
X86328378Y-94172900D01*
X86260257Y-94152898D01*
X86213764Y-94099242D01*
X86203660Y-94028968D01*
X86233154Y-93964388D01*
X86248438Y-93949506D01*
X86380020Y-93841520D01*
X86501923Y-93692981D01*
X86549434Y-93604093D01*
X86599183Y-93553448D01*
X86668420Y-93537738D01*
X86735159Y-93561953D01*
X86749649Y-93574397D01*
X91110207Y-97934955D01*
X91144233Y-97997267D01*
X91139168Y-98068082D01*
X91137521Y-98072268D01*
X91108955Y-98141231D01*
X91088318Y-98297991D01*
X91088318Y-98297992D01*
X91108955Y-98454752D01*
X91165439Y-98591115D01*
X91169464Y-98600833D01*
X91265718Y-98726274D01*
X91391159Y-98822528D01*
X91537238Y-98883036D01*
X91694000Y-98903674D01*
X91850762Y-98883036D01*
X91996841Y-98822528D01*
X92122282Y-98726274D01*
X92218536Y-98600833D01*
X92279044Y-98454754D01*
X92299682Y-98297992D01*
X92299551Y-98297000D01*
X92279391Y-98143864D01*
X92279044Y-98141230D01*
X92218536Y-97995151D01*
X92218023Y-97994483D01*
X92141967Y-97895364D01*
X92122097Y-97857599D01*
X92112087Y-97826794D01*
X92107471Y-97807572D01*
X92103719Y-97783874D01*
X92092827Y-97762498D01*
X92085260Y-97744231D01*
X92077849Y-97721419D01*
X92063746Y-97702008D01*
X92053421Y-97685158D01*
X92042528Y-97663780D01*
X91947220Y-97568472D01*
X85628605Y-91249857D01*
X85594579Y-91187545D01*
X85591700Y-91160762D01*
X85591700Y-89466097D01*
X87351000Y-89466097D01*
X87357505Y-89526593D01*
X87408555Y-89663464D01*
X87408555Y-89663465D01*
X87496095Y-89780403D01*
X87508008Y-89789321D01*
X87550555Y-89846156D01*
X87558500Y-89890189D01*
X87558500Y-90097360D01*
X87558501Y-90097366D01*
X87561415Y-90122493D01*
X87563904Y-90131642D01*
X87561642Y-90132257D01*
X87569138Y-90189502D01*
X87563622Y-90208287D01*
X87563903Y-90208364D01*
X87561414Y-90217508D01*
X87558500Y-90242630D01*
X87558500Y-90732359D01*
X87558501Y-90732366D01*
X87561415Y-90757493D01*
X87563904Y-90766642D01*
X87561642Y-90767257D01*
X87569138Y-90824502D01*
X87563622Y-90843287D01*
X87563903Y-90843364D01*
X87561414Y-90852508D01*
X87558500Y-90877630D01*
X87558500Y-91367359D01*
X87558501Y-91367366D01*
X87561415Y-91392493D01*
X87563904Y-91401642D01*
X87561642Y-91402257D01*
X87569138Y-91459502D01*
X87563622Y-91478287D01*
X87563903Y-91478364D01*
X87561414Y-91487508D01*
X87558500Y-91512630D01*
X87558500Y-92002359D01*
X87558501Y-92002366D01*
X87561414Y-92027490D01*
X87561416Y-92027494D01*
X87606793Y-92130265D01*
X87686232Y-92209704D01*
X87686234Y-92209705D01*
X87686235Y-92209706D01*
X87789009Y-92255085D01*
X87814135Y-92258000D01*
X89103864Y-92257999D01*
X89128991Y-92255085D01*
X89231765Y-92209706D01*
X89311206Y-92130265D01*
X89356585Y-92027491D01*
X89359500Y-92002365D01*
X89359499Y-91512636D01*
X89356585Y-91487509D01*
X89356583Y-91487504D01*
X89354097Y-91478364D01*
X89356359Y-91477748D01*
X89348860Y-91420507D01*
X89354378Y-91401715D01*
X89354096Y-91401639D01*
X89356584Y-91392493D01*
X89356585Y-91392491D01*
X89359500Y-91367365D01*
X89359499Y-90877636D01*
X89356585Y-90852509D01*
X89356583Y-90852504D01*
X89354097Y-90843364D01*
X89356359Y-90842748D01*
X89348860Y-90785507D01*
X89354378Y-90766715D01*
X89354096Y-90766639D01*
X89356584Y-90757493D01*
X89356585Y-90757491D01*
X89359500Y-90732365D01*
X89359499Y-90242636D01*
X89356585Y-90217509D01*
X89356583Y-90217504D01*
X89354097Y-90208364D01*
X89356359Y-90207748D01*
X89348860Y-90150507D01*
X89354378Y-90131715D01*
X89354096Y-90131639D01*
X89356584Y-90122493D01*
X89356585Y-90122491D01*
X89359500Y-90097365D01*
X89359499Y-89890189D01*
X89379501Y-89822070D01*
X89409994Y-89789319D01*
X89421904Y-89780403D01*
X89509444Y-89663465D01*
X89509444Y-89663464D01*
X89560494Y-89526593D01*
X89566999Y-89466097D01*
X89567000Y-89466085D01*
X89567000Y-89417500D01*
X89295900Y-89417500D01*
X89243698Y-89402172D01*
X89242446Y-89405010D01*
X89128989Y-89354914D01*
X89128990Y-89354914D01*
X89103868Y-89352000D01*
X87814140Y-89352000D01*
X87814133Y-89352001D01*
X87789009Y-89354914D01*
X87789005Y-89354916D01*
X87675554Y-89405010D01*
X87674096Y-89401708D01*
X87625816Y-89417445D01*
X87622100Y-89417500D01*
X87351000Y-89417500D01*
X87351000Y-89466097D01*
X85591700Y-89466097D01*
X85591700Y-89198808D01*
X85591374Y-89197804D01*
X85584284Y-89175986D01*
X85579672Y-89156772D01*
X85575919Y-89133074D01*
X85565025Y-89111694D01*
X85557460Y-89093428D01*
X85557256Y-89092801D01*
X85550050Y-89070619D01*
X85535946Y-89051206D01*
X85525616Y-89034349D01*
X85525077Y-89033291D01*
X85514728Y-89012980D01*
X85419420Y-88917672D01*
X85310343Y-88808595D01*
X85276317Y-88746283D01*
X85281382Y-88675468D01*
X85323929Y-88618632D01*
X85390449Y-88593821D01*
X85399438Y-88593500D01*
X86096857Y-88593500D01*
X86096860Y-88593500D01*
X86184321Y-88582997D01*
X86323500Y-88528111D01*
X86442711Y-88437711D01*
X86533111Y-88318500D01*
X86587997Y-88179321D01*
X86598500Y-88091860D01*
X86598500Y-87912792D01*
X86618502Y-87844671D01*
X86672158Y-87798178D01*
X86742432Y-87788074D01*
X86772713Y-87796381D01*
X86863638Y-87834044D01*
X86982525Y-87849695D01*
X87047451Y-87878417D01*
X87055173Y-87885521D01*
X87363186Y-88193533D01*
X87363199Y-88193548D01*
X87465676Y-88296025D01*
X87465678Y-88296026D01*
X87465680Y-88296028D01*
X87487061Y-88306922D01*
X87503910Y-88317247D01*
X87506564Y-88319176D01*
X87549916Y-88375399D01*
X87558500Y-88421109D01*
X87558500Y-88544809D01*
X87538498Y-88612930D01*
X87508012Y-88645675D01*
X87496095Y-88654596D01*
X87408555Y-88771534D01*
X87408555Y-88771535D01*
X87357505Y-88908406D01*
X87351000Y-88968902D01*
X87351000Y-89017500D01*
X87622100Y-89017500D01*
X87674301Y-89032827D01*
X87675554Y-89029990D01*
X87686235Y-89034706D01*
X87789009Y-89080085D01*
X87814135Y-89083000D01*
X89103864Y-89082999D01*
X89128991Y-89080085D01*
X89231765Y-89034706D01*
X89231764Y-89034706D01*
X89242446Y-89029990D01*
X89243903Y-89033291D01*
X89292184Y-89017555D01*
X89295900Y-89017500D01*
X89567000Y-89017500D01*
X89567000Y-88968914D01*
X89566999Y-88968902D01*
X89560494Y-88908406D01*
X89509444Y-88771535D01*
X89509444Y-88771534D01*
X89421904Y-88654595D01*
X89409987Y-88645674D01*
X89367442Y-88588837D01*
X89359499Y-88544808D01*
X89359499Y-88337640D01*
X89359499Y-88337636D01*
X89356585Y-88312509D01*
X89356583Y-88312504D01*
X89354097Y-88303364D01*
X89356359Y-88302748D01*
X89348860Y-88245507D01*
X89354330Y-88226878D01*
X89354052Y-88226803D01*
X89354180Y-88226330D01*
X89354778Y-88225354D01*
X89358086Y-88214090D01*
X89360420Y-88208806D01*
X89363962Y-88210370D01*
X89391282Y-88165799D01*
X89455219Y-88134936D01*
X89525692Y-88143540D01*
X89564900Y-88170148D01*
X91500472Y-90105720D01*
X91595780Y-90201028D01*
X91617158Y-90211921D01*
X91634008Y-90222246D01*
X91653419Y-90236349D01*
X91676231Y-90243760D01*
X91694498Y-90251327D01*
X91715874Y-90262219D01*
X91739572Y-90265971D01*
X91758792Y-90270586D01*
X91781607Y-90278000D01*
X91815512Y-90278000D01*
X92632500Y-90278000D01*
X92700621Y-90298002D01*
X92747114Y-90351658D01*
X92758500Y-90404000D01*
X92758500Y-90732359D01*
X92758501Y-90732366D01*
X92761415Y-90757493D01*
X92763904Y-90766642D01*
X92761642Y-90767257D01*
X92769138Y-90824502D01*
X92763622Y-90843287D01*
X92763903Y-90843364D01*
X92761414Y-90852508D01*
X92758500Y-90877630D01*
X92758500Y-91367359D01*
X92758501Y-91367366D01*
X92761415Y-91392493D01*
X92763904Y-91401642D01*
X92761642Y-91402257D01*
X92769138Y-91459502D01*
X92763622Y-91478287D01*
X92763903Y-91478364D01*
X92761414Y-91487508D01*
X92758500Y-91512630D01*
X92758500Y-92002359D01*
X92758501Y-92002366D01*
X92761414Y-92027490D01*
X92761416Y-92027494D01*
X92806793Y-92130265D01*
X92886232Y-92209704D01*
X92886234Y-92209705D01*
X92886235Y-92209706D01*
X92989009Y-92255085D01*
X93014135Y-92258000D01*
X94303864Y-92257999D01*
X94328991Y-92255085D01*
X94431765Y-92209706D01*
X94431767Y-92209703D01*
X94438562Y-92205050D01*
X94506066Y-92183054D01*
X94509769Y-92183000D01*
X96142894Y-92183000D01*
X96165702Y-92175588D01*
X96184928Y-92170971D01*
X96208626Y-92167219D01*
X96230000Y-92156327D01*
X96248273Y-92148759D01*
X96271079Y-92141350D01*
X96271079Y-92141349D01*
X96271081Y-92141349D01*
X96290481Y-92127252D01*
X96307348Y-92116917D01*
X96321365Y-92109775D01*
X96328720Y-92106028D01*
X96346596Y-92088151D01*
X96408905Y-92054127D01*
X96479721Y-92059190D01*
X96536558Y-92101736D01*
X96560613Y-92160799D01*
X96568247Y-92218777D01*
X96569956Y-92231762D01*
X96630464Y-92377841D01*
X96726718Y-92503282D01*
X96852159Y-92599536D01*
X96998238Y-92660044D01*
X97000943Y-92660400D01*
X97003060Y-92661336D01*
X97006216Y-92662182D01*
X97006084Y-92662674D01*
X97065869Y-92689119D01*
X97104964Y-92748382D01*
X97110500Y-92785322D01*
X97110500Y-96418562D01*
X97090498Y-96486683D01*
X97073595Y-96507657D01*
X96167770Y-97413482D01*
X96135476Y-97445776D01*
X96072461Y-97508790D01*
X96072459Y-97508792D01*
X96061571Y-97530163D01*
X96051244Y-97547016D01*
X96037140Y-97566429D01*
X96037138Y-97566432D01*
X96029726Y-97589245D01*
X96022162Y-97607508D01*
X96011270Y-97628884D01*
X96007517Y-97652582D01*
X96002904Y-97671796D01*
X95995490Y-97694617D01*
X95995490Y-97694619D01*
X95995490Y-102298383D01*
X96002902Y-102321195D01*
X96007518Y-102340421D01*
X96011270Y-102364114D01*
X96011270Y-102364115D01*
X96011271Y-102364116D01*
X96021972Y-102385118D01*
X96035078Y-102454893D01*
X96024971Y-102493217D01*
X95988414Y-102576009D01*
X95985500Y-102601129D01*
X95985500Y-103740859D01*
X95985501Y-103740866D01*
X95988414Y-103765990D01*
X95988416Y-103765994D01*
X96033793Y-103868765D01*
X96113232Y-103948204D01*
X96113234Y-103948205D01*
X96113235Y-103948206D01*
X96216009Y-103993585D01*
X96216008Y-103993585D01*
X96220478Y-103994103D01*
X96241135Y-103996500D01*
X96763309Y-103996499D01*
X96831430Y-104016501D01*
X96864177Y-104046990D01*
X96873095Y-104058904D01*
X96990034Y-104146444D01*
X97126906Y-104197494D01*
X97187402Y-104203999D01*
X97187415Y-104204000D01*
X97282000Y-104204000D01*
X97282000Y-102138000D01*
X97187402Y-102138000D01*
X97126904Y-102144505D01*
X97063913Y-102167999D01*
X96993097Y-102173063D01*
X96930787Y-102139038D01*
X96883395Y-102091646D01*
X96849369Y-102029334D01*
X96846490Y-102002551D01*
X96846490Y-98833700D01*
X97178900Y-98833700D01*
X98132900Y-98833700D01*
X98132900Y-98092200D01*
X98640900Y-98092200D01*
X98640900Y-98833700D01*
X99594899Y-98833700D01*
X99594899Y-98793852D01*
X99584382Y-98690897D01*
X99529106Y-98524087D01*
X99436848Y-98374513D01*
X99436843Y-98374507D01*
X99312592Y-98250256D01*
X99312586Y-98250251D01*
X99163012Y-98157993D01*
X98996208Y-98102719D01*
X98996196Y-98102717D01*
X98893255Y-98092200D01*
X98640900Y-98092200D01*
X98132900Y-98092200D01*
X97880552Y-98092200D01*
X97777597Y-98102717D01*
X97610787Y-98157993D01*
X97461213Y-98250251D01*
X97461207Y-98250256D01*
X97336956Y-98374507D01*
X97336951Y-98374513D01*
X97244693Y-98524087D01*
X97189419Y-98690891D01*
X97189417Y-98690903D01*
X97178900Y-98793844D01*
X97178900Y-98833700D01*
X96846490Y-98833700D01*
X96846490Y-97990448D01*
X96866492Y-97922327D01*
X96883395Y-97901353D01*
X97371266Y-97413482D01*
X97860553Y-96924195D01*
X97884528Y-96900220D01*
X97895429Y-96878824D01*
X97905744Y-96861993D01*
X97919849Y-96842581D01*
X97927260Y-96819767D01*
X97934827Y-96801500D01*
X97945719Y-96780126D01*
X97949471Y-96756428D01*
X97954088Y-96737202D01*
X97961500Y-96714393D01*
X97961500Y-93904000D01*
X98527000Y-93904000D01*
X98527000Y-94198597D01*
X98533505Y-94259093D01*
X98584555Y-94395964D01*
X98584555Y-94395965D01*
X98672095Y-94512904D01*
X98789034Y-94600444D01*
X98925906Y-94651494D01*
X98986402Y-94657999D01*
X98986415Y-94658000D01*
X99215128Y-94658000D01*
X99283249Y-94678002D01*
X99329742Y-94731658D01*
X99339846Y-94801932D01*
X99315090Y-94860704D01*
X99297468Y-94883668D01*
X99297463Y-94883676D01*
X99236955Y-95029755D01*
X99216318Y-95186515D01*
X99216318Y-95186516D01*
X99236955Y-95343276D01*
X99297463Y-95489355D01*
X99297468Y-95489363D01*
X99333462Y-95536271D01*
X99359063Y-95602491D01*
X99359500Y-95612975D01*
X99359500Y-95923500D01*
X99339498Y-95991621D01*
X99285842Y-96038114D01*
X99233501Y-96049500D01*
X98990139Y-96049500D01*
X98990133Y-96049501D01*
X98965010Y-96052414D01*
X98965005Y-96052416D01*
X98862234Y-96097793D01*
X98782795Y-96177232D01*
X98782794Y-96177234D01*
X98737414Y-96280009D01*
X98734500Y-96305129D01*
X98734500Y-97394859D01*
X98734501Y-97394866D01*
X98737414Y-97419990D01*
X98737416Y-97419994D01*
X98782793Y-97522765D01*
X98862232Y-97602204D01*
X98862234Y-97602205D01*
X98862235Y-97602206D01*
X98965009Y-97647585D01*
X98990135Y-97650500D01*
X100579864Y-97650499D01*
X100604991Y-97647585D01*
X100707765Y-97602206D01*
X100787206Y-97522765D01*
X100832585Y-97419991D01*
X100835500Y-97394865D01*
X100835499Y-96305136D01*
X100832585Y-96280009D01*
X100787206Y-96177235D01*
X100787206Y-96177234D01*
X100707767Y-96097795D01*
X100707765Y-96097794D01*
X100604989Y-96052414D01*
X100604990Y-96052414D01*
X100579870Y-96049500D01*
X100579865Y-96049500D01*
X100336500Y-96049500D01*
X100268379Y-96029498D01*
X100221886Y-95975842D01*
X100210500Y-95923500D01*
X100210500Y-95706771D01*
X100230502Y-95638650D01*
X100247405Y-95617676D01*
X100250276Y-95614804D01*
X100250278Y-95614800D01*
X100250282Y-95614798D01*
X100346536Y-95489357D01*
X100407044Y-95343278D01*
X100427682Y-95186516D01*
X100407044Y-95029754D01*
X100346536Y-94883675D01*
X100328910Y-94860704D01*
X100303309Y-94794484D01*
X100317573Y-94724935D01*
X100367174Y-94674139D01*
X100428872Y-94658000D01*
X100583585Y-94658000D01*
X100583597Y-94657999D01*
X100644093Y-94651494D01*
X100780964Y-94600444D01*
X100780965Y-94600444D01*
X100897904Y-94512904D01*
X100985444Y-94395965D01*
X100985444Y-94395964D01*
X101036494Y-94259093D01*
X101042999Y-94198597D01*
X101043000Y-94198585D01*
X101043000Y-93904000D01*
X98527000Y-93904000D01*
X97961500Y-93904000D01*
X97961500Y-93396000D01*
X98527000Y-93396000D01*
X99531000Y-93396000D01*
X99531000Y-92642000D01*
X100039000Y-92642000D01*
X100039000Y-93396000D01*
X101043000Y-93396000D01*
X101043000Y-93101414D01*
X101042999Y-93101402D01*
X101036494Y-93040906D01*
X100985444Y-92904035D01*
X100985444Y-92904034D01*
X100897904Y-92787095D01*
X100780965Y-92699555D01*
X100644093Y-92648505D01*
X100583597Y-92642000D01*
X100039000Y-92642000D01*
X99531000Y-92642000D01*
X98986402Y-92642000D01*
X98925906Y-92648505D01*
X98789035Y-92699555D01*
X98789034Y-92699555D01*
X98672095Y-92787095D01*
X98584555Y-92904034D01*
X98584555Y-92904035D01*
X98533505Y-93040906D01*
X98527000Y-93101402D01*
X98527000Y-93396000D01*
X97961500Y-93396000D01*
X97961500Y-92388608D01*
X97961499Y-92388605D01*
X97958001Y-92377841D01*
X97954086Y-92365792D01*
X97949471Y-92346572D01*
X97945719Y-92322874D01*
X97934827Y-92301498D01*
X97927260Y-92283231D01*
X97919849Y-92260419D01*
X97905746Y-92241008D01*
X97895421Y-92224158D01*
X97884528Y-92202780D01*
X97791520Y-92109772D01*
X97757497Y-92047463D01*
X97755697Y-92037141D01*
X97740044Y-91918238D01*
X97679536Y-91772159D01*
X97583282Y-91646718D01*
X97457841Y-91550464D01*
X97366517Y-91512636D01*
X97311760Y-91489955D01*
X97240798Y-91480613D01*
X97175871Y-91451890D01*
X97136780Y-91392625D01*
X97135935Y-91321633D01*
X97168148Y-91266598D01*
X100908554Y-87526194D01*
X100932528Y-87502220D01*
X100943417Y-87480848D01*
X100953753Y-87463981D01*
X100963346Y-87450778D01*
X100967849Y-87444581D01*
X100975259Y-87421772D01*
X100982827Y-87403500D01*
X100993719Y-87382126D01*
X100997471Y-87358428D01*
X101002088Y-87339202D01*
X101009500Y-87316393D01*
X101009500Y-85958299D01*
X101029502Y-85890178D01*
X101083158Y-85843685D01*
X101135500Y-85832299D01*
X101257500Y-85832299D01*
X101325621Y-85852301D01*
G37*
G04 #@! TD.AperFunction*
G04 #@! TA.AperFunction,Conductor*
G36*
X84246595Y-99372119D02*
G01*
X84280620Y-99434431D01*
X84283500Y-99461215D01*
X84283500Y-100490321D01*
X84263498Y-100558442D01*
X84257462Y-100567026D01*
X84193534Y-100650337D01*
X84136195Y-100692204D01*
X84065324Y-100696425D01*
X84004477Y-100662727D01*
X82939845Y-99598095D01*
X82905819Y-99535783D01*
X82910884Y-99464968D01*
X82953431Y-99408132D01*
X83019951Y-99383321D01*
X83028940Y-99383000D01*
X83963585Y-99383000D01*
X83963597Y-99382999D01*
X84024096Y-99376494D01*
X84113467Y-99343160D01*
X84184282Y-99338094D01*
X84246595Y-99372119D01*
G37*
G04 #@! TD.AperFunction*
G04 #@! TA.AperFunction,Conductor*
G36*
X100099083Y-83452702D02*
G01*
X100120057Y-83469605D01*
X100369702Y-83719250D01*
X100403728Y-83781562D01*
X100398663Y-83852377D01*
X100356116Y-83909213D01*
X100295124Y-83933505D01*
X100289009Y-83934215D01*
X100289008Y-83934215D01*
X100279596Y-83935307D01*
X100279373Y-83933385D01*
X100238626Y-83933382D01*
X100238403Y-83935307D01*
X100203870Y-83931300D01*
X99981690Y-83931300D01*
X99913569Y-83911298D01*
X99880821Y-83880808D01*
X99871903Y-83868895D01*
X99754965Y-83781355D01*
X99618093Y-83730305D01*
X99557597Y-83723800D01*
X99509000Y-83723800D01*
X99509000Y-83954638D01*
X99488998Y-84022759D01*
X99472095Y-84043733D01*
X99456795Y-84059032D01*
X99456794Y-84059034D01*
X99411414Y-84161809D01*
X99408500Y-84186929D01*
X99408500Y-85576659D01*
X99408501Y-85576666D01*
X99411414Y-85601790D01*
X99411416Y-85601794D01*
X99456793Y-85704564D01*
X99456794Y-85704565D01*
X99472095Y-85719866D01*
X99506120Y-85782175D01*
X99509000Y-85808961D01*
X99509000Y-86039800D01*
X99557585Y-86039800D01*
X99557597Y-86039799D01*
X99618093Y-86033294D01*
X99754964Y-85982244D01*
X99754965Y-85982244D01*
X99871904Y-85894703D01*
X99880823Y-85882790D01*
X99937658Y-85840243D01*
X99981689Y-85832299D01*
X100032500Y-85832299D01*
X100100621Y-85852301D01*
X100147114Y-85905957D01*
X100158500Y-85958299D01*
X100158500Y-87020562D01*
X100138498Y-87088683D01*
X100121595Y-87109657D01*
X96957557Y-90273694D01*
X96895245Y-90307720D01*
X96824429Y-90302655D01*
X96767594Y-90260108D01*
X96742783Y-90193588D01*
X96748627Y-90145667D01*
X96751448Y-90136983D01*
X96751450Y-90136981D01*
X96758866Y-90114153D01*
X96766430Y-90095894D01*
X96777319Y-90074526D01*
X96781072Y-90050822D01*
X96785682Y-90031621D01*
X96793100Y-90008793D01*
X96793100Y-89874007D01*
X96793100Y-86066850D01*
X96793100Y-86032945D01*
X96785686Y-86010130D01*
X96781071Y-85990910D01*
X96777319Y-85967212D01*
X96766428Y-85945838D01*
X96758861Y-85927572D01*
X96751449Y-85904757D01*
X96740856Y-85890178D01*
X96737350Y-85885352D01*
X96727019Y-85868494D01*
X96716128Y-85847118D01*
X96716127Y-85847117D01*
X96716126Y-85847115D01*
X96641905Y-85772894D01*
X96607879Y-85710582D01*
X96605000Y-85683799D01*
X96605000Y-85453841D01*
X96606077Y-85454918D01*
X96726031Y-85516038D01*
X96859000Y-85537098D01*
X96991969Y-85516038D01*
X97111923Y-85454918D01*
X97113000Y-85453841D01*
X97113000Y-86316653D01*
X97134481Y-86313743D01*
X97345553Y-86245163D01*
X97541003Y-86139986D01*
X97714526Y-86001606D01*
X97860551Y-85834468D01*
X97974378Y-85643953D01*
X97974386Y-85643937D01*
X98052371Y-85436147D01*
X98092000Y-85217775D01*
X98092000Y-85106800D01*
X98551000Y-85106800D01*
X98551000Y-85580397D01*
X98557505Y-85640893D01*
X98608555Y-85777764D01*
X98608555Y-85777765D01*
X98696095Y-85894704D01*
X98813034Y-85982244D01*
X98949906Y-86033294D01*
X99010402Y-86039799D01*
X99010415Y-86039800D01*
X99059000Y-86039800D01*
X99059000Y-85106800D01*
X98551000Y-85106800D01*
X98092000Y-85106800D01*
X98092000Y-85085800D01*
X97284000Y-85085800D01*
X97284000Y-84577800D01*
X98092001Y-84577800D01*
X98101230Y-84568570D01*
X98112002Y-84531885D01*
X98165658Y-84485392D01*
X98187839Y-84477670D01*
X98206808Y-84472994D01*
X98214275Y-84471625D01*
X98252872Y-84466940D01*
X98289214Y-84453156D01*
X98296480Y-84450892D01*
X98334225Y-84441590D01*
X98368642Y-84423526D01*
X98375584Y-84420402D01*
X98380320Y-84418606D01*
X98451106Y-84413152D01*
X98513605Y-84446834D01*
X98547972Y-84508959D01*
X98551000Y-84536418D01*
X98551000Y-84656800D01*
X99059000Y-84656800D01*
X99059000Y-83723800D01*
X99010402Y-83723800D01*
X98949903Y-83730305D01*
X98940437Y-83733836D01*
X98869621Y-83738897D01*
X98807311Y-83704869D01*
X98773289Y-83642555D01*
X98771331Y-83630974D01*
X98769140Y-83612928D01*
X98765519Y-83603380D01*
X98760065Y-83532593D01*
X98793748Y-83470095D01*
X98855872Y-83435728D01*
X98883331Y-83432700D01*
X100030962Y-83432700D01*
X100099083Y-83452702D01*
G37*
G04 #@! TD.AperFunction*
G04 #@! TA.AperFunction,Conductor*
G36*
X92119002Y-88026727D02*
G01*
X92153159Y-88052936D01*
X92299238Y-88113444D01*
X92418127Y-88129095D01*
X92483052Y-88157817D01*
X92490774Y-88164922D01*
X92518930Y-88193078D01*
X92552956Y-88255390D01*
X92555113Y-88295639D01*
X92551001Y-88333892D01*
X92551000Y-88333914D01*
X92551000Y-88466582D01*
X92530998Y-88534703D01*
X92477342Y-88581196D01*
X92407068Y-88591300D01*
X92376782Y-88582991D01*
X92283256Y-88544251D01*
X92164370Y-88528600D01*
X92099442Y-88499877D01*
X92091721Y-88492773D01*
X91953205Y-88354257D01*
X91919179Y-88291945D01*
X91916300Y-88265162D01*
X91916300Y-88126690D01*
X91936302Y-88058569D01*
X91989958Y-88012076D01*
X92060232Y-88001972D01*
X92119002Y-88026727D01*
G37*
G04 #@! TD.AperFunction*
G04 #@! TA.AperFunction,Conductor*
G36*
X82144913Y-79343502D02*
G01*
X82191406Y-79397158D01*
X82201510Y-79467432D01*
X82172016Y-79532012D01*
X82127686Y-79564764D01*
X82107234Y-79573794D01*
X82107232Y-79573795D01*
X82027795Y-79653232D01*
X82027794Y-79653234D01*
X81982414Y-79756009D01*
X81979500Y-79781129D01*
X81979500Y-80870859D01*
X81979501Y-80870866D01*
X81982414Y-80895990D01*
X81982416Y-80895994D01*
X82017347Y-80975106D01*
X82026565Y-81045502D01*
X82017347Y-81076893D01*
X81982415Y-81156007D01*
X81982414Y-81156009D01*
X81979500Y-81181129D01*
X81979500Y-82270859D01*
X81979501Y-82270866D01*
X81982414Y-82295990D01*
X81982416Y-82295994D01*
X82027793Y-82398765D01*
X82107232Y-82478204D01*
X82107234Y-82478205D01*
X82107235Y-82478206D01*
X82210009Y-82523585D01*
X82235135Y-82526500D01*
X83824864Y-82526499D01*
X83849991Y-82523585D01*
X83952765Y-82478206D01*
X83952764Y-82478206D01*
X83963446Y-82473490D01*
X83963952Y-82474636D01*
X84015144Y-82457953D01*
X84025712Y-82409376D01*
X84032169Y-82398848D01*
X84032206Y-82398765D01*
X84077585Y-82295991D01*
X84080500Y-82270865D01*
X84080499Y-81181136D01*
X84077585Y-81156009D01*
X84042652Y-81076893D01*
X84033434Y-81006498D01*
X84042649Y-80975112D01*
X84077585Y-80895991D01*
X84080500Y-80870865D01*
X84080499Y-79781136D01*
X84077585Y-79756009D01*
X84058636Y-79713094D01*
X84032206Y-79653234D01*
X83952767Y-79573795D01*
X83952765Y-79573794D01*
X83932314Y-79564764D01*
X83878077Y-79518951D01*
X83857218Y-79451088D01*
X83876360Y-79382721D01*
X83929425Y-79335555D01*
X83983208Y-79323500D01*
X89866695Y-79323500D01*
X89934816Y-79343502D01*
X89981309Y-79397158D01*
X89991413Y-79467432D01*
X89961919Y-79532012D01*
X89943709Y-79549222D01*
X89839547Y-79629654D01*
X89820818Y-79644116D01*
X89632815Y-79839117D01*
X89632810Y-79839123D01*
X89475203Y-80059417D01*
X89475196Y-80059427D01*
X89351343Y-80300324D01*
X89351342Y-80300327D01*
X89263883Y-80556689D01*
X89263880Y-80556702D01*
X89214681Y-80823058D01*
X89214680Y-80823069D01*
X89204788Y-81093765D01*
X89234412Y-81363014D01*
X89302928Y-81625090D01*
X89408869Y-81874389D01*
X89451438Y-81944140D01*
X89549982Y-82105610D01*
X89723255Y-82313820D01*
X89723257Y-82313822D01*
X89723259Y-82313824D01*
X89835526Y-82414415D01*
X89924998Y-82494582D01*
X90150910Y-82644044D01*
X90396176Y-82759020D01*
X90655569Y-82837060D01*
X90655572Y-82837060D01*
X90655574Y-82837061D01*
X90923557Y-82876500D01*
X90923561Y-82876500D01*
X91126633Y-82876500D01*
X91161363Y-82873957D01*
X91329156Y-82861677D01*
X91329160Y-82861676D01*
X91329161Y-82861676D01*
X91445133Y-82835842D01*
X91593553Y-82802780D01*
X91846558Y-82706014D01*
X92082777Y-82573441D01*
X92297177Y-82407888D01*
X92485186Y-82212881D01*
X92642799Y-81992579D01*
X92645751Y-81986839D01*
X92766656Y-81751675D01*
X92766657Y-81751672D01*
X92792085Y-81677137D01*
X92854118Y-81495305D01*
X92887145Y-81316499D01*
X92903318Y-81228941D01*
X92903319Y-81228930D01*
X92904888Y-81186002D01*
X92913212Y-80958235D01*
X92896737Y-80808500D01*
X92883587Y-80688985D01*
X92834089Y-80499652D01*
X92815072Y-80426912D01*
X92814897Y-80426501D01*
X92709130Y-80177610D01*
X92673127Y-80118617D01*
X92568018Y-79946390D01*
X92394745Y-79738180D01*
X92394741Y-79738177D01*
X92394740Y-79738175D01*
X92193012Y-79557427D01*
X92193002Y-79557418D01*
X92192994Y-79557413D01*
X92192992Y-79557411D01*
X92188716Y-79554582D01*
X92142941Y-79500313D01*
X92133773Y-79429911D01*
X92164123Y-79365728D01*
X92224354Y-79328142D01*
X92258241Y-79323500D01*
X93744306Y-79323500D01*
X93812427Y-79343502D01*
X93858920Y-79397158D01*
X93869024Y-79467432D01*
X93844704Y-79525633D01*
X93806889Y-79575499D01*
X93752002Y-79714679D01*
X93741500Y-79802137D01*
X93741500Y-80374862D01*
X93752002Y-80462320D01*
X93806889Y-80601500D01*
X93897288Y-80720711D01*
X93974324Y-80779128D01*
X94016500Y-80811111D01*
X94155679Y-80865997D01*
X94243140Y-80876500D01*
X94243143Y-80876500D01*
X95240857Y-80876500D01*
X95240860Y-80876500D01*
X95328321Y-80865997D01*
X95467500Y-80811111D01*
X95489046Y-80794771D01*
X95555405Y-80769549D01*
X95594508Y-80777800D01*
X96434000Y-80777800D01*
X96434000Y-81285800D01*
X95573809Y-81285800D01*
X95573809Y-81283184D01*
X95527714Y-81279877D01*
X95495644Y-81262231D01*
X95491313Y-81258947D01*
X95467500Y-81240889D01*
X95396014Y-81212698D01*
X95328320Y-81186002D01*
X95240862Y-81175500D01*
X95240860Y-81175500D01*
X94243140Y-81175500D01*
X94243137Y-81175500D01*
X94155679Y-81186002D01*
X94016499Y-81240889D01*
X93897288Y-81331288D01*
X93806889Y-81450499D01*
X93752002Y-81589679D01*
X93741500Y-81677137D01*
X93741500Y-82249862D01*
X93752002Y-82337320D01*
X93806889Y-82476500D01*
X93897288Y-82595711D01*
X93961025Y-82644043D01*
X94009894Y-82681102D01*
X94052087Y-82738200D01*
X94056713Y-82809045D01*
X94022856Y-82870594D01*
X92315652Y-84577800D01*
X90612570Y-86280882D01*
X90580967Y-86312485D01*
X90517261Y-86376190D01*
X90517259Y-86376192D01*
X90506371Y-86397563D01*
X90496044Y-86414416D01*
X90481940Y-86433829D01*
X90481938Y-86433832D01*
X90474526Y-86456645D01*
X90466962Y-86474908D01*
X90456070Y-86496284D01*
X90452317Y-86519982D01*
X90447704Y-86539196D01*
X90440290Y-86562017D01*
X90440290Y-86562019D01*
X90440290Y-87460121D01*
X90420288Y-87528242D01*
X90414252Y-87536826D01*
X90380503Y-87580808D01*
X90323165Y-87622675D01*
X90252294Y-87626896D01*
X90191446Y-87593198D01*
X89890747Y-87292499D01*
X89586194Y-86987946D01*
X89562220Y-86963972D01*
X89562219Y-86963971D01*
X89562218Y-86963970D01*
X89540843Y-86953079D01*
X89523985Y-86942749D01*
X89520243Y-86940031D01*
X89504581Y-86928651D01*
X89504579Y-86928650D01*
X89504580Y-86928650D01*
X89481764Y-86921237D01*
X89463498Y-86913671D01*
X89442126Y-86902781D01*
X89433289Y-86898278D01*
X89434472Y-86895955D01*
X89387957Y-86864148D01*
X89360320Y-86798751D01*
X89359499Y-86784399D01*
X89359499Y-86727590D01*
X89379501Y-86659471D01*
X89433157Y-86612978D01*
X89437236Y-86611202D01*
X89579922Y-86552100D01*
X89705363Y-86455846D01*
X89801617Y-86330405D01*
X89862125Y-86184326D01*
X89882763Y-86027564D01*
X89874744Y-85966657D01*
X89868776Y-85921319D01*
X89862125Y-85870802D01*
X89801617Y-85724723D01*
X89705363Y-85599282D01*
X89579922Y-85503028D01*
X89556442Y-85493302D01*
X89433841Y-85442519D01*
X89277081Y-85421882D01*
X89120318Y-85442520D01*
X89016039Y-85485713D01*
X88945449Y-85493302D01*
X88881962Y-85461522D01*
X88847988Y-85408236D01*
X88842849Y-85392419D01*
X88828746Y-85373008D01*
X88818421Y-85356158D01*
X88807528Y-85334780D01*
X88712220Y-85239472D01*
X88047404Y-84574656D01*
X88013378Y-84512344D01*
X88010499Y-84485561D01*
X88010499Y-83944140D01*
X88010499Y-83944136D01*
X88007585Y-83919009D01*
X87972901Y-83840456D01*
X87962206Y-83816234D01*
X87882767Y-83736795D01*
X87882765Y-83736794D01*
X87779989Y-83691414D01*
X87779990Y-83691414D01*
X87754868Y-83688500D01*
X86865140Y-83688500D01*
X86865133Y-83688501D01*
X86840009Y-83691414D01*
X86840005Y-83691416D01*
X86737234Y-83736793D01*
X86657795Y-83816232D01*
X86657794Y-83816234D01*
X86612414Y-83919009D01*
X86609500Y-83944129D01*
X86609500Y-84933859D01*
X86609501Y-84933866D01*
X86612414Y-84958990D01*
X86612416Y-84958994D01*
X86657793Y-85061765D01*
X86736147Y-85140119D01*
X86770173Y-85202431D01*
X86765108Y-85273246D01*
X86747015Y-85305917D01*
X86708461Y-85356161D01*
X86707425Y-85357957D01*
X86706154Y-85359167D01*
X86703437Y-85362710D01*
X86702884Y-85362285D01*
X86656039Y-85406947D01*
X86586325Y-85420379D01*
X86520416Y-85393988D01*
X86497912Y-85371083D01*
X86442711Y-85298288D01*
X86323500Y-85207889D01*
X86184316Y-85153001D01*
X86182883Y-85152639D01*
X86181845Y-85152026D01*
X86176805Y-85150039D01*
X86177120Y-85149238D01*
X86121739Y-85116556D01*
X86089810Y-85053144D01*
X86097233Y-84982537D01*
X86098466Y-84979642D01*
X86107585Y-84958991D01*
X86110500Y-84933865D01*
X86110499Y-83944136D01*
X86107585Y-83919009D01*
X86072901Y-83840456D01*
X86062206Y-83816234D01*
X85982767Y-83736795D01*
X85982765Y-83736794D01*
X85879989Y-83691414D01*
X85879990Y-83691414D01*
X85854868Y-83688500D01*
X84965140Y-83688500D01*
X84965133Y-83688501D01*
X84940009Y-83691414D01*
X84940005Y-83691416D01*
X84837234Y-83736793D01*
X84757795Y-83816232D01*
X84757794Y-83816234D01*
X84712414Y-83919009D01*
X84709500Y-83944129D01*
X84709500Y-84933859D01*
X84709501Y-84933866D01*
X84712414Y-84958990D01*
X84712416Y-84958994D01*
X84757793Y-85061765D01*
X84788188Y-85092160D01*
X84822214Y-85154472D01*
X84817149Y-85225287D01*
X84775228Y-85281652D01*
X84753288Y-85298289D01*
X84662889Y-85417499D01*
X84608002Y-85556679D01*
X84597500Y-85644137D01*
X84597500Y-86216862D01*
X84608002Y-86304320D01*
X84662889Y-86443500D01*
X84753288Y-86562711D01*
X84817167Y-86611151D01*
X84872500Y-86653111D01*
X85011679Y-86707997D01*
X85099140Y-86718500D01*
X85648847Y-86718500D01*
X85716968Y-86738502D01*
X85763461Y-86792158D01*
X85773565Y-86862432D01*
X85768679Y-86883439D01*
X85762973Y-86900999D01*
X85755408Y-86919262D01*
X85740408Y-86948702D01*
X85691661Y-87000317D01*
X85628141Y-87017500D01*
X85099137Y-87017500D01*
X85011679Y-87028002D01*
X84872499Y-87082889D01*
X84753288Y-87173288D01*
X84662889Y-87292499D01*
X84608002Y-87431679D01*
X84597500Y-87519137D01*
X84597500Y-87802206D01*
X84577498Y-87870327D01*
X84523842Y-87916820D01*
X84453568Y-87926924D01*
X84414299Y-87914473D01*
X84396845Y-87905580D01*
X84379985Y-87895249D01*
X84376243Y-87892531D01*
X84360581Y-87881151D01*
X84360579Y-87881150D01*
X84360580Y-87881150D01*
X84337764Y-87873737D01*
X84319498Y-87866171D01*
X84298126Y-87855281D01*
X84289289Y-87850778D01*
X84290048Y-87849288D01*
X84240827Y-87815631D01*
X84213208Y-87750384D01*
X84212585Y-87745009D01*
X84184274Y-87680892D01*
X84175057Y-87610498D01*
X84184272Y-87579113D01*
X84212585Y-87514991D01*
X84215500Y-87489865D01*
X84215499Y-86500136D01*
X84212585Y-86475009D01*
X84182781Y-86407509D01*
X84167206Y-86372234D01*
X84087767Y-86292795D01*
X84087765Y-86292794D01*
X83984989Y-86247414D01*
X83984990Y-86247414D01*
X83959868Y-86244500D01*
X81870140Y-86244500D01*
X81870133Y-86244501D01*
X81845009Y-86247414D01*
X81845005Y-86247416D01*
X81742234Y-86292793D01*
X81662795Y-86372232D01*
X81662794Y-86372234D01*
X81617414Y-86475010D01*
X81617413Y-86475013D01*
X81616788Y-86480403D01*
X81589064Y-86545762D01*
X81539953Y-86579299D01*
X81540708Y-86580780D01*
X81510498Y-86596172D01*
X81492235Y-86603736D01*
X81469422Y-86611148D01*
X81469419Y-86611150D01*
X81450006Y-86625254D01*
X81433153Y-86635581D01*
X81411782Y-86646469D01*
X81411781Y-86646470D01*
X81405142Y-86653110D01*
X81387806Y-86670446D01*
X81015743Y-87042509D01*
X80650595Y-87407657D01*
X80588283Y-87441683D01*
X80517468Y-87436618D01*
X80460632Y-87394071D01*
X80435821Y-87327551D01*
X80435500Y-87318562D01*
X80435500Y-86969438D01*
X80455502Y-86901317D01*
X80472405Y-86880343D01*
X80720500Y-86632248D01*
X80969554Y-86383194D01*
X80993528Y-86359220D01*
X81004422Y-86337838D01*
X81014737Y-86321004D01*
X81028850Y-86301581D01*
X81036263Y-86278762D01*
X81043830Y-86260494D01*
X81054719Y-86239126D01*
X81058472Y-86215422D01*
X81063082Y-86196221D01*
X81070500Y-86173393D01*
X81070500Y-86038607D01*
X81070500Y-85629592D01*
X81090502Y-85561471D01*
X81144158Y-85514978D01*
X81163432Y-85508009D01*
X81164989Y-85507585D01*
X81164991Y-85507585D01*
X81229108Y-85479274D01*
X81299500Y-85470057D01*
X81330890Y-85479273D01*
X81395009Y-85507585D01*
X81420135Y-85510500D01*
X82409864Y-85510499D01*
X82434991Y-85507585D01*
X82537765Y-85462206D01*
X82617206Y-85382765D01*
X82662585Y-85279991D01*
X82665500Y-85254865D01*
X82665500Y-84761500D01*
X82685502Y-84693379D01*
X82739158Y-84646886D01*
X82791500Y-84635500D01*
X83243394Y-84635500D01*
X83266202Y-84628088D01*
X83285428Y-84623471D01*
X83309126Y-84619719D01*
X83330500Y-84608827D01*
X83348773Y-84601259D01*
X83371579Y-84593850D01*
X83371579Y-84593849D01*
X83371581Y-84593849D01*
X83390981Y-84579752D01*
X83407848Y-84569417D01*
X83415775Y-84565377D01*
X83429220Y-84558528D01*
X83524528Y-84463220D01*
X83542248Y-84445500D01*
X83542250Y-84445497D01*
X85086342Y-82901405D01*
X85148654Y-82867379D01*
X85175437Y-82864500D01*
X85540407Y-82864500D01*
X85608528Y-82884502D01*
X85655021Y-82938158D01*
X85661987Y-82957421D01*
X85662413Y-82958988D01*
X85707793Y-83061765D01*
X85787232Y-83141204D01*
X85787234Y-83141205D01*
X85787235Y-83141206D01*
X85890009Y-83186585D01*
X85915135Y-83189500D01*
X86804864Y-83189499D01*
X86829991Y-83186585D01*
X86932765Y-83141206D01*
X87012206Y-83061765D01*
X87057585Y-82958991D01*
X87060500Y-82933865D01*
X87060499Y-81944136D01*
X87057585Y-81919009D01*
X87023035Y-81840760D01*
X87012206Y-81816234D01*
X86932767Y-81736795D01*
X86932765Y-81736794D01*
X86829989Y-81691414D01*
X86829990Y-81691414D01*
X86804868Y-81688500D01*
X85915140Y-81688500D01*
X85915133Y-81688501D01*
X85890009Y-81691414D01*
X85890005Y-81691416D01*
X85787234Y-81736793D01*
X85707795Y-81816232D01*
X85707794Y-81816234D01*
X85662415Y-81919008D01*
X85661989Y-81920576D01*
X85661045Y-81922109D01*
X85658587Y-81927679D01*
X85657828Y-81927343D01*
X85624806Y-81981057D01*
X85560828Y-82011834D01*
X85540408Y-82013500D01*
X85014393Y-82013500D01*
X84879607Y-82013500D01*
X84856786Y-82020914D01*
X84837572Y-82025527D01*
X84813874Y-82029280D01*
X84792498Y-82040172D01*
X84774236Y-82047736D01*
X84751422Y-82055149D01*
X84751420Y-82055150D01*
X84732014Y-82069249D01*
X84715162Y-82079576D01*
X84693781Y-82090470D01*
X84669372Y-82114880D01*
X84598472Y-82185780D01*
X84598471Y-82185781D01*
X84405541Y-82378711D01*
X84225394Y-82558858D01*
X84163082Y-82592883D01*
X84148129Y-82591813D01*
X84148954Y-82596550D01*
X84121375Y-82661971D01*
X84112857Y-82671394D01*
X83036657Y-83747595D01*
X82974345Y-83781620D01*
X82947562Y-83784500D01*
X82791499Y-83784500D01*
X82723378Y-83764498D01*
X82676885Y-83710842D01*
X82665499Y-83658500D01*
X82665499Y-83165140D01*
X82665499Y-83165136D01*
X82662585Y-83140009D01*
X82617206Y-83037235D01*
X82617206Y-83037234D01*
X82537767Y-82957795D01*
X82537765Y-82957794D01*
X82434989Y-82912414D01*
X82434990Y-82912414D01*
X82409868Y-82909500D01*
X81420140Y-82909500D01*
X81420133Y-82909501D01*
X81395009Y-82912414D01*
X81395002Y-82912416D01*
X81330892Y-82940724D01*
X81260496Y-82949942D01*
X81229105Y-82940724D01*
X81164989Y-82912414D01*
X81164990Y-82912414D01*
X81139868Y-82909500D01*
X80150140Y-82909500D01*
X80150133Y-82909501D01*
X80125009Y-82912414D01*
X80125002Y-82912416D01*
X80060892Y-82940724D01*
X79990496Y-82949942D01*
X79959105Y-82940724D01*
X79894989Y-82912414D01*
X79894990Y-82912414D01*
X79869868Y-82909500D01*
X78880140Y-82909500D01*
X78880133Y-82909501D01*
X78855009Y-82912414D01*
X78855002Y-82912416D01*
X78790892Y-82940724D01*
X78720496Y-82949942D01*
X78689105Y-82940724D01*
X78624990Y-82912414D01*
X78608972Y-82910556D01*
X78543611Y-82882835D01*
X78503614Y-82824177D01*
X78501678Y-82753207D01*
X78506278Y-82739181D01*
X78549997Y-82628321D01*
X78549997Y-82628320D01*
X78549998Y-82628318D01*
X78551976Y-82620492D01*
X78553577Y-82620896D01*
X78577818Y-82564358D01*
X78636632Y-82524590D01*
X78700525Y-82523097D01*
X78700596Y-82522493D01*
X78704920Y-82522994D01*
X78707609Y-82522932D01*
X78708031Y-82523046D01*
X78710000Y-82523581D01*
X78710009Y-82523585D01*
X78735135Y-82526500D01*
X80324864Y-82526499D01*
X80349991Y-82523585D01*
X80452765Y-82478206D01*
X80532206Y-82398765D01*
X80577585Y-82295991D01*
X80580500Y-82270865D01*
X80580499Y-81181136D01*
X80577585Y-81156009D01*
X80542652Y-81076893D01*
X80533434Y-81006498D01*
X80542649Y-80975112D01*
X80577585Y-80895991D01*
X80580500Y-80870865D01*
X80580499Y-79781136D01*
X80577585Y-79756009D01*
X80558636Y-79713094D01*
X80532206Y-79653234D01*
X80452767Y-79573795D01*
X80452765Y-79573794D01*
X80432314Y-79564764D01*
X80378077Y-79518951D01*
X80357218Y-79451088D01*
X80376360Y-79382721D01*
X80429425Y-79335555D01*
X80483208Y-79323500D01*
X82076792Y-79323500D01*
X82144913Y-79343502D01*
G37*
G04 #@! TD.AperFunction*
G04 #@! TA.AperFunction,Conductor*
G36*
X99482873Y-104909711D02*
G01*
X99517457Y-104924209D01*
X99519692Y-104926620D01*
X99554372Y-104966643D01*
X99675447Y-105044453D01*
X99752285Y-105067014D01*
X99813534Y-105084999D01*
X99813537Y-105084999D01*
X99813539Y-105085000D01*
X99813540Y-105085000D01*
X99957460Y-105085000D01*
X99957461Y-105085000D01*
X99957463Y-105084999D01*
X99957465Y-105084999D01*
X99980295Y-105078295D01*
X100095553Y-105044453D01*
X100216628Y-104966643D01*
X100248359Y-104930022D01*
X100281893Y-104913237D01*
X100285578Y-104913112D01*
X103608608Y-104927193D01*
X103643195Y-104941692D01*
X103657400Y-104976193D01*
X103657400Y-106676650D01*
X103643048Y-106711298D01*
X103632303Y-106719424D01*
X102804941Y-107181774D01*
X102781038Y-107188000D01*
X98064296Y-107188000D01*
X98029648Y-107173648D01*
X97677352Y-106821352D01*
X97663000Y-106786704D01*
X97663000Y-104951208D01*
X97677352Y-104916560D01*
X97712000Y-104902208D01*
X97712088Y-104902208D01*
X99482873Y-104909711D01*
G37*
G04 #@! TD.AperFunction*
M02*
