G04 #@! TF.GenerationSoftware,KiCad,Pcbnew,7.0.9*
G04 #@! TF.CreationDate,2023-12-15T21:40:49-05:00*
G04 #@! TF.ProjectId,MainBoard,4d61696e-426f-4617-9264-2e6b69636164,rev?*
G04 #@! TF.SameCoordinates,Original*
G04 #@! TF.FileFunction,Paste,Top*
G04 #@! TF.FilePolarity,Positive*
%FSLAX46Y46*%
G04 Gerber Fmt 4.6, Leading zero omitted, Abs format (unit mm)*
G04 Created by KiCad (PCBNEW 7.0.9) date 2023-12-15 21:40:49*
%MOMM*%
%LPD*%
G01*
G04 APERTURE LIST*
G04 Aperture macros list*
%AMRoundRect*
0 Rectangle with rounded corners*
0 $1 Rounding radius*
0 $2 $3 $4 $5 $6 $7 $8 $9 X,Y pos of 4 corners*
0 Add a 4 corners polygon primitive as box body*
4,1,4,$2,$3,$4,$5,$6,$7,$8,$9,$2,$3,0*
0 Add four circle primitives for the rounded corners*
1,1,$1+$1,$2,$3*
1,1,$1+$1,$4,$5*
1,1,$1+$1,$6,$7*
1,1,$1+$1,$8,$9*
0 Add four rect primitives between the rounded corners*
20,1,$1+$1,$2,$3,$4,$5,0*
20,1,$1+$1,$4,$5,$6,$7,0*
20,1,$1+$1,$6,$7,$8,$9,0*
20,1,$1+$1,$8,$9,$2,$3,0*%
G04 Aperture macros list end*
%ADD10RoundRect,0.243750X0.243750X0.456250X-0.243750X0.456250X-0.243750X-0.456250X0.243750X-0.456250X0*%
%ADD11RoundRect,0.243750X-0.243750X-0.456250X0.243750X-0.456250X0.243750X0.456250X-0.243750X0.456250X0*%
%ADD12R,0.600000X1.050000*%
%ADD13R,0.450000X1.300000*%
%ADD14RoundRect,0.243750X0.456250X-0.243750X0.456250X0.243750X-0.456250X0.243750X-0.456250X-0.243750X0*%
%ADD15R,1.200000X0.400000*%
%ADD16R,0.800000X0.900000*%
%ADD17RoundRect,0.243750X-0.456250X0.243750X-0.456250X-0.243750X0.456250X-0.243750X0.456250X0.243750X0*%
%ADD18R,1.500000X2.200000*%
%ADD19R,3.800000X2.200000*%
%ADD20RoundRect,0.218750X-0.218750X-0.256250X0.218750X-0.256250X0.218750X0.256250X-0.218750X0.256250X0*%
%ADD21R,1.500000X1.000000*%
%ADD22RoundRect,0.250000X-0.250000X-1.500000X0.250000X-1.500000X0.250000X1.500000X-0.250000X1.500000X0*%
%ADD23RoundRect,0.250001X-0.499999X-1.449999X0.499999X-1.449999X0.499999X1.449999X-0.499999X1.449999X0*%
%ADD24R,5.000000X5.000000*%
%ADD25R,0.900000X2.000000*%
%ADD26R,2.000000X0.900000*%
G04 APERTURE END LIST*
D10*
X106529900Y-98806000D03*
X108404900Y-98806000D03*
X75897500Y-82042000D03*
X77772500Y-82042000D03*
X77772500Y-80264000D03*
X75897500Y-80264000D03*
D11*
X72565500Y-81534000D03*
X70690500Y-81534000D03*
X76342000Y-103378000D03*
X78217000Y-103378000D03*
D12*
X98486000Y-105871000D03*
X96586000Y-105871000D03*
X96586000Y-103171000D03*
X97536000Y-103171000D03*
X98486000Y-103171000D03*
D13*
X101884000Y-84881800D03*
X101234000Y-84881800D03*
X100584000Y-84881800D03*
X99934000Y-84881800D03*
X99284000Y-84881800D03*
D14*
X94742000Y-81963500D03*
X94742000Y-80088500D03*
D15*
X88459000Y-86042500D03*
X88459000Y-86677500D03*
X88459000Y-87312500D03*
X88459000Y-87947500D03*
X88459000Y-88582500D03*
X88459000Y-89217500D03*
X88459000Y-89852500D03*
X88459000Y-90487500D03*
X88459000Y-91122500D03*
X88459000Y-91757500D03*
X93659000Y-91757500D03*
X93659000Y-91122500D03*
X93659000Y-90487500D03*
X93659000Y-89852500D03*
X93659000Y-89217500D03*
X93659000Y-88582500D03*
X93659000Y-87947500D03*
X93659000Y-87312500D03*
X93659000Y-86677500D03*
X93659000Y-86042500D03*
D16*
X86360000Y-82439000D03*
X87310000Y-84439000D03*
X85410000Y-84439000D03*
D17*
X85598000Y-85930500D03*
X85598000Y-87805500D03*
D18*
X86069200Y-111862000D03*
X83769200Y-111862000D03*
X81469200Y-111862000D03*
D19*
X83769200Y-105562000D03*
D14*
X98386900Y-100962700D03*
X98386900Y-99087700D03*
D20*
X70866000Y-80010000D03*
X72441000Y-80010000D03*
D21*
X83030000Y-81726000D03*
X83030000Y-80326000D03*
X79530000Y-81726000D03*
X79530000Y-80326000D03*
D22*
X103775000Y-105735000D03*
X105775000Y-105735000D03*
D23*
X101425000Y-111485000D03*
X108125000Y-111485000D03*
D21*
X99785000Y-93650000D03*
X99785000Y-96850000D03*
X104685000Y-93650000D03*
X104685000Y-96850000D03*
X73051500Y-106921500D03*
X73051500Y-110121500D03*
X77951500Y-106921500D03*
X77951500Y-110121500D03*
D24*
X72905000Y-93710000D03*
D25*
X65405000Y-101210000D03*
X66675000Y-101210000D03*
X67945000Y-101210000D03*
X69215000Y-101210000D03*
X70485000Y-101210000D03*
X71755000Y-101210000D03*
X73025000Y-101210000D03*
X74295000Y-101210000D03*
X75565000Y-101210000D03*
X76835000Y-101210000D03*
X78105000Y-101210000D03*
X79375000Y-101210000D03*
X80645000Y-101210000D03*
X81915000Y-101210000D03*
D26*
X82915000Y-98425000D03*
X82915000Y-97155000D03*
X82915000Y-95885000D03*
X82915000Y-94615000D03*
X82915000Y-93345000D03*
X82915000Y-92075000D03*
X82915000Y-90805000D03*
X82915000Y-89535000D03*
X82915000Y-88265000D03*
X82915000Y-86995000D03*
D25*
X81915000Y-84210000D03*
X80645000Y-84210000D03*
X79375000Y-84210000D03*
X78105000Y-84210000D03*
X76835000Y-84210000D03*
X75565000Y-84210000D03*
X74295000Y-84210000D03*
X73025000Y-84210000D03*
X71755000Y-84210000D03*
X70485000Y-84210000D03*
X69215000Y-84210000D03*
X67945000Y-84210000D03*
X66675000Y-84210000D03*
X65405000Y-84210000D03*
M02*
