G04 #@! TF.GenerationSoftware,KiCad,Pcbnew,7.0.9*
G04 #@! TF.CreationDate,2023-12-15T21:40:49-05:00*
G04 #@! TF.ProjectId,MainBoard,4d61696e-426f-4617-9264-2e6b69636164,rev?*
G04 #@! TF.SameCoordinates,Original*
G04 #@! TF.FileFunction,Legend,Top*
G04 #@! TF.FilePolarity,Positive*
%FSLAX46Y46*%
G04 Gerber Fmt 4.6, Leading zero omitted, Abs format (unit mm)*
G04 Created by KiCad (PCBNEW 7.0.9) date 2023-12-15 21:40:49*
%MOMM*%
%LPD*%
G01*
G04 APERTURE LIST*
%ADD10C,0.180000*%
%ADD11C,0.300000*%
%ADD12C,0.250000*%
%ADD13C,0.150000*%
%ADD14C,0.120000*%
%ADD15C,0.100000*%
%ADD16C,0.010000*%
G04 APERTURE END LIST*
D10*
X108817399Y-80606897D02*
X108341209Y-80606897D01*
X108341209Y-80606897D02*
X108341209Y-79706897D01*
X109055495Y-79706897D02*
X109722161Y-79706897D01*
X109722161Y-79706897D02*
X109055495Y-80606897D01*
X109055495Y-80606897D02*
X109722161Y-80606897D01*
X110674542Y-80606897D02*
X110341209Y-80178325D01*
X110103114Y-80606897D02*
X110103114Y-79706897D01*
X110103114Y-79706897D02*
X110484066Y-79706897D01*
X110484066Y-79706897D02*
X110579304Y-79749754D01*
X110579304Y-79749754D02*
X110626923Y-79792611D01*
X110626923Y-79792611D02*
X110674542Y-79878325D01*
X110674542Y-79878325D02*
X110674542Y-80006897D01*
X110674542Y-80006897D02*
X110626923Y-80092611D01*
X110626923Y-80092611D02*
X110579304Y-80135468D01*
X110579304Y-80135468D02*
X110484066Y-80178325D01*
X110484066Y-80178325D02*
X110103114Y-80178325D01*
X110960257Y-79706897D02*
X111531685Y-79706897D01*
X111245971Y-80606897D02*
X111245971Y-79706897D01*
X112293590Y-80606897D02*
X112293590Y-80135468D01*
X112293590Y-80135468D02*
X112245971Y-80049754D01*
X112245971Y-80049754D02*
X112150733Y-80006897D01*
X112150733Y-80006897D02*
X111960257Y-80006897D01*
X111960257Y-80006897D02*
X111865019Y-80049754D01*
X112293590Y-80564040D02*
X112198352Y-80606897D01*
X112198352Y-80606897D02*
X111960257Y-80606897D01*
X111960257Y-80606897D02*
X111865019Y-80564040D01*
X111865019Y-80564040D02*
X111817400Y-80478325D01*
X111817400Y-80478325D02*
X111817400Y-80392611D01*
X111817400Y-80392611D02*
X111865019Y-80306897D01*
X111865019Y-80306897D02*
X111960257Y-80264040D01*
X111960257Y-80264040D02*
X112198352Y-80264040D01*
X112198352Y-80264040D02*
X112293590Y-80221182D01*
X113198352Y-80006897D02*
X113198352Y-80735468D01*
X113198352Y-80735468D02*
X113150733Y-80821182D01*
X113150733Y-80821182D02*
X113103114Y-80864040D01*
X113103114Y-80864040D02*
X113007876Y-80906897D01*
X113007876Y-80906897D02*
X112865019Y-80906897D01*
X112865019Y-80906897D02*
X112769781Y-80864040D01*
X113198352Y-80564040D02*
X113103114Y-80606897D01*
X113103114Y-80606897D02*
X112912638Y-80606897D01*
X112912638Y-80606897D02*
X112817400Y-80564040D01*
X112817400Y-80564040D02*
X112769781Y-80521182D01*
X112769781Y-80521182D02*
X112722162Y-80435468D01*
X112722162Y-80435468D02*
X112722162Y-80178325D01*
X112722162Y-80178325D02*
X112769781Y-80092611D01*
X112769781Y-80092611D02*
X112817400Y-80049754D01*
X112817400Y-80049754D02*
X112912638Y-80006897D01*
X112912638Y-80006897D02*
X113103114Y-80006897D01*
X113103114Y-80006897D02*
X113198352Y-80049754D01*
X114436448Y-80606897D02*
X114436448Y-79706897D01*
X114436448Y-80135468D02*
X115007876Y-80135468D01*
X115007876Y-80606897D02*
X115007876Y-79706897D01*
X115388829Y-79706897D02*
X115626924Y-80606897D01*
X115626924Y-80606897D02*
X115817400Y-79964040D01*
X115817400Y-79964040D02*
X116007876Y-80606897D01*
X116007876Y-80606897D02*
X116245972Y-79706897D01*
X117293591Y-79706897D02*
X117912638Y-79706897D01*
X117912638Y-79706897D02*
X117579305Y-80049754D01*
X117579305Y-80049754D02*
X117722162Y-80049754D01*
X117722162Y-80049754D02*
X117817400Y-80092611D01*
X117817400Y-80092611D02*
X117865019Y-80135468D01*
X117865019Y-80135468D02*
X117912638Y-80221182D01*
X117912638Y-80221182D02*
X117912638Y-80435468D01*
X117912638Y-80435468D02*
X117865019Y-80521182D01*
X117865019Y-80521182D02*
X117817400Y-80564040D01*
X117817400Y-80564040D02*
X117722162Y-80606897D01*
X117722162Y-80606897D02*
X117436448Y-80606897D01*
X117436448Y-80606897D02*
X117341210Y-80564040D01*
X117341210Y-80564040D02*
X117293591Y-80521182D01*
X118341210Y-80521182D02*
X118388829Y-80564040D01*
X118388829Y-80564040D02*
X118341210Y-80606897D01*
X118341210Y-80606897D02*
X118293591Y-80564040D01*
X118293591Y-80564040D02*
X118341210Y-80521182D01*
X118341210Y-80521182D02*
X118341210Y-80606897D01*
X118769781Y-79792611D02*
X118817400Y-79749754D01*
X118817400Y-79749754D02*
X118912638Y-79706897D01*
X118912638Y-79706897D02*
X119150733Y-79706897D01*
X119150733Y-79706897D02*
X119245971Y-79749754D01*
X119245971Y-79749754D02*
X119293590Y-79792611D01*
X119293590Y-79792611D02*
X119341209Y-79878325D01*
X119341209Y-79878325D02*
X119341209Y-79964040D01*
X119341209Y-79964040D02*
X119293590Y-80092611D01*
X119293590Y-80092611D02*
X118722162Y-80606897D01*
X118722162Y-80606897D02*
X119341209Y-80606897D01*
X109674543Y-81155897D02*
X110293590Y-81155897D01*
X110293590Y-81155897D02*
X109960257Y-81498754D01*
X109960257Y-81498754D02*
X110103114Y-81498754D01*
X110103114Y-81498754D02*
X110198352Y-81541611D01*
X110198352Y-81541611D02*
X110245971Y-81584468D01*
X110245971Y-81584468D02*
X110293590Y-81670182D01*
X110293590Y-81670182D02*
X110293590Y-81884468D01*
X110293590Y-81884468D02*
X110245971Y-81970182D01*
X110245971Y-81970182D02*
X110198352Y-82013040D01*
X110198352Y-82013040D02*
X110103114Y-82055897D01*
X110103114Y-82055897D02*
X109817400Y-82055897D01*
X109817400Y-82055897D02*
X109722162Y-82013040D01*
X109722162Y-82013040D02*
X109674543Y-81970182D01*
X110912638Y-81155897D02*
X111007876Y-81155897D01*
X111007876Y-81155897D02*
X111103114Y-81198754D01*
X111103114Y-81198754D02*
X111150733Y-81241611D01*
X111150733Y-81241611D02*
X111198352Y-81327325D01*
X111198352Y-81327325D02*
X111245971Y-81498754D01*
X111245971Y-81498754D02*
X111245971Y-81713040D01*
X111245971Y-81713040D02*
X111198352Y-81884468D01*
X111198352Y-81884468D02*
X111150733Y-81970182D01*
X111150733Y-81970182D02*
X111103114Y-82013040D01*
X111103114Y-82013040D02*
X111007876Y-82055897D01*
X111007876Y-82055897D02*
X110912638Y-82055897D01*
X110912638Y-82055897D02*
X110817400Y-82013040D01*
X110817400Y-82013040D02*
X110769781Y-81970182D01*
X110769781Y-81970182D02*
X110722162Y-81884468D01*
X110722162Y-81884468D02*
X110674543Y-81713040D01*
X110674543Y-81713040D02*
X110674543Y-81498754D01*
X110674543Y-81498754D02*
X110722162Y-81327325D01*
X110722162Y-81327325D02*
X110769781Y-81241611D01*
X110769781Y-81241611D02*
X110817400Y-81198754D01*
X110817400Y-81198754D02*
X110912638Y-81155897D01*
X111674543Y-81970182D02*
X111722162Y-82013040D01*
X111722162Y-82013040D02*
X111674543Y-82055897D01*
X111674543Y-82055897D02*
X111626924Y-82013040D01*
X111626924Y-82013040D02*
X111674543Y-81970182D01*
X111674543Y-81970182D02*
X111674543Y-82055897D01*
X112341209Y-81155897D02*
X112436447Y-81155897D01*
X112436447Y-81155897D02*
X112531685Y-81198754D01*
X112531685Y-81198754D02*
X112579304Y-81241611D01*
X112579304Y-81241611D02*
X112626923Y-81327325D01*
X112626923Y-81327325D02*
X112674542Y-81498754D01*
X112674542Y-81498754D02*
X112674542Y-81713040D01*
X112674542Y-81713040D02*
X112626923Y-81884468D01*
X112626923Y-81884468D02*
X112579304Y-81970182D01*
X112579304Y-81970182D02*
X112531685Y-82013040D01*
X112531685Y-82013040D02*
X112436447Y-82055897D01*
X112436447Y-82055897D02*
X112341209Y-82055897D01*
X112341209Y-82055897D02*
X112245971Y-82013040D01*
X112245971Y-82013040D02*
X112198352Y-81970182D01*
X112198352Y-81970182D02*
X112150733Y-81884468D01*
X112150733Y-81884468D02*
X112103114Y-81713040D01*
X112103114Y-81713040D02*
X112103114Y-81498754D01*
X112103114Y-81498754D02*
X112150733Y-81327325D01*
X112150733Y-81327325D02*
X112198352Y-81241611D01*
X112198352Y-81241611D02*
X112245971Y-81198754D01*
X112245971Y-81198754D02*
X112341209Y-81155897D01*
X113245971Y-81541611D02*
X113150733Y-81498754D01*
X113150733Y-81498754D02*
X113103114Y-81455897D01*
X113103114Y-81455897D02*
X113055495Y-81370182D01*
X113055495Y-81370182D02*
X113055495Y-81327325D01*
X113055495Y-81327325D02*
X113103114Y-81241611D01*
X113103114Y-81241611D02*
X113150733Y-81198754D01*
X113150733Y-81198754D02*
X113245971Y-81155897D01*
X113245971Y-81155897D02*
X113436447Y-81155897D01*
X113436447Y-81155897D02*
X113531685Y-81198754D01*
X113531685Y-81198754D02*
X113579304Y-81241611D01*
X113579304Y-81241611D02*
X113626923Y-81327325D01*
X113626923Y-81327325D02*
X113626923Y-81370182D01*
X113626923Y-81370182D02*
X113579304Y-81455897D01*
X113579304Y-81455897D02*
X113531685Y-81498754D01*
X113531685Y-81498754D02*
X113436447Y-81541611D01*
X113436447Y-81541611D02*
X113245971Y-81541611D01*
X113245971Y-81541611D02*
X113150733Y-81584468D01*
X113150733Y-81584468D02*
X113103114Y-81627325D01*
X113103114Y-81627325D02*
X113055495Y-81713040D01*
X113055495Y-81713040D02*
X113055495Y-81884468D01*
X113055495Y-81884468D02*
X113103114Y-81970182D01*
X113103114Y-81970182D02*
X113150733Y-82013040D01*
X113150733Y-82013040D02*
X113245971Y-82055897D01*
X113245971Y-82055897D02*
X113436447Y-82055897D01*
X113436447Y-82055897D02*
X113531685Y-82013040D01*
X113531685Y-82013040D02*
X113579304Y-81970182D01*
X113579304Y-81970182D02*
X113626923Y-81884468D01*
X113626923Y-81884468D02*
X113626923Y-81713040D01*
X113626923Y-81713040D02*
X113579304Y-81627325D01*
X113579304Y-81627325D02*
X113531685Y-81584468D01*
X113531685Y-81584468D02*
X113436447Y-81541611D01*
X114055495Y-81970182D02*
X114103114Y-82013040D01*
X114103114Y-82013040D02*
X114055495Y-82055897D01*
X114055495Y-82055897D02*
X114007876Y-82013040D01*
X114007876Y-82013040D02*
X114055495Y-81970182D01*
X114055495Y-81970182D02*
X114055495Y-82055897D01*
X114484066Y-81241611D02*
X114531685Y-81198754D01*
X114531685Y-81198754D02*
X114626923Y-81155897D01*
X114626923Y-81155897D02*
X114865018Y-81155897D01*
X114865018Y-81155897D02*
X114960256Y-81198754D01*
X114960256Y-81198754D02*
X115007875Y-81241611D01*
X115007875Y-81241611D02*
X115055494Y-81327325D01*
X115055494Y-81327325D02*
X115055494Y-81413040D01*
X115055494Y-81413040D02*
X115007875Y-81541611D01*
X115007875Y-81541611D02*
X114436447Y-82055897D01*
X114436447Y-82055897D02*
X115055494Y-82055897D01*
X115674542Y-81155897D02*
X115769780Y-81155897D01*
X115769780Y-81155897D02*
X115865018Y-81198754D01*
X115865018Y-81198754D02*
X115912637Y-81241611D01*
X115912637Y-81241611D02*
X115960256Y-81327325D01*
X115960256Y-81327325D02*
X116007875Y-81498754D01*
X116007875Y-81498754D02*
X116007875Y-81713040D01*
X116007875Y-81713040D02*
X115960256Y-81884468D01*
X115960256Y-81884468D02*
X115912637Y-81970182D01*
X115912637Y-81970182D02*
X115865018Y-82013040D01*
X115865018Y-82013040D02*
X115769780Y-82055897D01*
X115769780Y-82055897D02*
X115674542Y-82055897D01*
X115674542Y-82055897D02*
X115579304Y-82013040D01*
X115579304Y-82013040D02*
X115531685Y-81970182D01*
X115531685Y-81970182D02*
X115484066Y-81884468D01*
X115484066Y-81884468D02*
X115436447Y-81713040D01*
X115436447Y-81713040D02*
X115436447Y-81498754D01*
X115436447Y-81498754D02*
X115484066Y-81327325D01*
X115484066Y-81327325D02*
X115531685Y-81241611D01*
X115531685Y-81241611D02*
X115579304Y-81198754D01*
X115579304Y-81198754D02*
X115674542Y-81155897D01*
X116960256Y-82055897D02*
X116388828Y-82055897D01*
X116674542Y-82055897D02*
X116674542Y-81155897D01*
X116674542Y-81155897D02*
X116579304Y-81284468D01*
X116579304Y-81284468D02*
X116484066Y-81370182D01*
X116484066Y-81370182D02*
X116388828Y-81413040D01*
X117436447Y-82055897D02*
X117626923Y-82055897D01*
X117626923Y-82055897D02*
X117722161Y-82013040D01*
X117722161Y-82013040D02*
X117769780Y-81970182D01*
X117769780Y-81970182D02*
X117865018Y-81841611D01*
X117865018Y-81841611D02*
X117912637Y-81670182D01*
X117912637Y-81670182D02*
X117912637Y-81327325D01*
X117912637Y-81327325D02*
X117865018Y-81241611D01*
X117865018Y-81241611D02*
X117817399Y-81198754D01*
X117817399Y-81198754D02*
X117722161Y-81155897D01*
X117722161Y-81155897D02*
X117531685Y-81155897D01*
X117531685Y-81155897D02*
X117436447Y-81198754D01*
X117436447Y-81198754D02*
X117388828Y-81241611D01*
X117388828Y-81241611D02*
X117341209Y-81327325D01*
X117341209Y-81327325D02*
X117341209Y-81541611D01*
X117341209Y-81541611D02*
X117388828Y-81627325D01*
X117388828Y-81627325D02*
X117436447Y-81670182D01*
X117436447Y-81670182D02*
X117531685Y-81713040D01*
X117531685Y-81713040D02*
X117722161Y-81713040D01*
X117722161Y-81713040D02*
X117817399Y-81670182D01*
X117817399Y-81670182D02*
X117865018Y-81627325D01*
X117865018Y-81627325D02*
X117912637Y-81541611D01*
D11*
X103857571Y-91090542D02*
X103857571Y-89890542D01*
X104371857Y-90004828D02*
X104429000Y-89947685D01*
X104429000Y-89947685D02*
X104543286Y-89890542D01*
X104543286Y-89890542D02*
X104829000Y-89890542D01*
X104829000Y-89890542D02*
X104943286Y-89947685D01*
X104943286Y-89947685D02*
X105000428Y-90004828D01*
X105000428Y-90004828D02*
X105057571Y-90119114D01*
X105057571Y-90119114D02*
X105057571Y-90233400D01*
X105057571Y-90233400D02*
X105000428Y-90404828D01*
X105000428Y-90404828D02*
X104314714Y-91090542D01*
X104314714Y-91090542D02*
X105057571Y-91090542D01*
X106257571Y-90976257D02*
X106200428Y-91033400D01*
X106200428Y-91033400D02*
X106029000Y-91090542D01*
X106029000Y-91090542D02*
X105914714Y-91090542D01*
X105914714Y-91090542D02*
X105743285Y-91033400D01*
X105743285Y-91033400D02*
X105629000Y-90919114D01*
X105629000Y-90919114D02*
X105571857Y-90804828D01*
X105571857Y-90804828D02*
X105514714Y-90576257D01*
X105514714Y-90576257D02*
X105514714Y-90404828D01*
X105514714Y-90404828D02*
X105571857Y-90176257D01*
X105571857Y-90176257D02*
X105629000Y-90061971D01*
X105629000Y-90061971D02*
X105743285Y-89947685D01*
X105743285Y-89947685D02*
X105914714Y-89890542D01*
X105914714Y-89890542D02*
X106029000Y-89890542D01*
X106029000Y-89890542D02*
X106200428Y-89947685D01*
X106200428Y-89947685D02*
X106257571Y-90004828D01*
D12*
X94191619Y-85488304D02*
X95001142Y-85488304D01*
X95001142Y-85488304D02*
X95096380Y-85440685D01*
X95096380Y-85440685D02*
X95144000Y-85393066D01*
X95144000Y-85393066D02*
X95191619Y-85297828D01*
X95191619Y-85297828D02*
X95191619Y-85107352D01*
X95191619Y-85107352D02*
X95144000Y-85012114D01*
X95144000Y-85012114D02*
X95096380Y-84964495D01*
X95096380Y-84964495D02*
X95001142Y-84916876D01*
X95001142Y-84916876D02*
X94191619Y-84916876D01*
X95144000Y-84488304D02*
X95191619Y-84345447D01*
X95191619Y-84345447D02*
X95191619Y-84107352D01*
X95191619Y-84107352D02*
X95144000Y-84012114D01*
X95144000Y-84012114D02*
X95096380Y-83964495D01*
X95096380Y-83964495D02*
X95001142Y-83916876D01*
X95001142Y-83916876D02*
X94905904Y-83916876D01*
X94905904Y-83916876D02*
X94810666Y-83964495D01*
X94810666Y-83964495D02*
X94763047Y-84012114D01*
X94763047Y-84012114D02*
X94715428Y-84107352D01*
X94715428Y-84107352D02*
X94667809Y-84297828D01*
X94667809Y-84297828D02*
X94620190Y-84393066D01*
X94620190Y-84393066D02*
X94572571Y-84440685D01*
X94572571Y-84440685D02*
X94477333Y-84488304D01*
X94477333Y-84488304D02*
X94382095Y-84488304D01*
X94382095Y-84488304D02*
X94286857Y-84440685D01*
X94286857Y-84440685D02*
X94239238Y-84393066D01*
X94239238Y-84393066D02*
X94191619Y-84297828D01*
X94191619Y-84297828D02*
X94191619Y-84059733D01*
X94191619Y-84059733D02*
X94239238Y-83916876D01*
X94667809Y-83154971D02*
X94715428Y-83012114D01*
X94715428Y-83012114D02*
X94763047Y-82964495D01*
X94763047Y-82964495D02*
X94858285Y-82916876D01*
X94858285Y-82916876D02*
X95001142Y-82916876D01*
X95001142Y-82916876D02*
X95096380Y-82964495D01*
X95096380Y-82964495D02*
X95144000Y-83012114D01*
X95144000Y-83012114D02*
X95191619Y-83107352D01*
X95191619Y-83107352D02*
X95191619Y-83488304D01*
X95191619Y-83488304D02*
X94191619Y-83488304D01*
X94191619Y-83488304D02*
X94191619Y-83154971D01*
X94191619Y-83154971D02*
X94239238Y-83059733D01*
X94239238Y-83059733D02*
X94286857Y-83012114D01*
X94286857Y-83012114D02*
X94382095Y-82964495D01*
X94382095Y-82964495D02*
X94477333Y-82964495D01*
X94477333Y-82964495D02*
X94572571Y-83012114D01*
X94572571Y-83012114D02*
X94620190Y-83059733D01*
X94620190Y-83059733D02*
X94667809Y-83154971D01*
X94667809Y-83154971D02*
X94667809Y-83488304D01*
D13*
X84417819Y-97742333D02*
X85132104Y-97742333D01*
X85132104Y-97742333D02*
X85274961Y-97789952D01*
X85274961Y-97789952D02*
X85370200Y-97885190D01*
X85370200Y-97885190D02*
X85417819Y-98028047D01*
X85417819Y-98028047D02*
X85417819Y-98123285D01*
X84417819Y-96789952D02*
X84417819Y-97266142D01*
X84417819Y-97266142D02*
X84894009Y-97313761D01*
X84894009Y-97313761D02*
X84846390Y-97266142D01*
X84846390Y-97266142D02*
X84798771Y-97170904D01*
X84798771Y-97170904D02*
X84798771Y-96932809D01*
X84798771Y-96932809D02*
X84846390Y-96837571D01*
X84846390Y-96837571D02*
X84894009Y-96789952D01*
X84894009Y-96789952D02*
X84989247Y-96742333D01*
X84989247Y-96742333D02*
X85227342Y-96742333D01*
X85227342Y-96742333D02*
X85322580Y-96789952D01*
X85322580Y-96789952D02*
X85370200Y-96837571D01*
X85370200Y-96837571D02*
X85417819Y-96932809D01*
X85417819Y-96932809D02*
X85417819Y-97170904D01*
X85417819Y-97170904D02*
X85370200Y-97266142D01*
X85370200Y-97266142D02*
X85322580Y-97313761D01*
X107300733Y-100861019D02*
X106967400Y-100384828D01*
X106729305Y-100861019D02*
X106729305Y-99861019D01*
X106729305Y-99861019D02*
X107110257Y-99861019D01*
X107110257Y-99861019D02*
X107205495Y-99908638D01*
X107205495Y-99908638D02*
X107253114Y-99956257D01*
X107253114Y-99956257D02*
X107300733Y-100051495D01*
X107300733Y-100051495D02*
X107300733Y-100194352D01*
X107300733Y-100194352D02*
X107253114Y-100289590D01*
X107253114Y-100289590D02*
X107205495Y-100337209D01*
X107205495Y-100337209D02*
X107110257Y-100384828D01*
X107110257Y-100384828D02*
X106729305Y-100384828D01*
X108253114Y-100861019D02*
X107681686Y-100861019D01*
X107967400Y-100861019D02*
X107967400Y-99861019D01*
X107967400Y-99861019D02*
X107872162Y-100003876D01*
X107872162Y-100003876D02*
X107776924Y-100099114D01*
X107776924Y-100099114D02*
X107681686Y-100146733D01*
X69111019Y-111888494D02*
X68111019Y-111888494D01*
X68111019Y-111888494D02*
X68111019Y-111650399D01*
X68111019Y-111650399D02*
X68158638Y-111507542D01*
X68158638Y-111507542D02*
X68253876Y-111412304D01*
X68253876Y-111412304D02*
X68349114Y-111364685D01*
X68349114Y-111364685D02*
X68539590Y-111317066D01*
X68539590Y-111317066D02*
X68682447Y-111317066D01*
X68682447Y-111317066D02*
X68872923Y-111364685D01*
X68872923Y-111364685D02*
X68968161Y-111412304D01*
X68968161Y-111412304D02*
X69063400Y-111507542D01*
X69063400Y-111507542D02*
X69111019Y-111650399D01*
X69111019Y-111650399D02*
X69111019Y-111888494D01*
X69111019Y-110364685D02*
X69111019Y-110936113D01*
X69111019Y-110650399D02*
X68111019Y-110650399D01*
X68111019Y-110650399D02*
X68253876Y-110745637D01*
X68253876Y-110745637D02*
X68349114Y-110840875D01*
X68349114Y-110840875D02*
X68396733Y-110936113D01*
X73975933Y-83004819D02*
X73642600Y-82528628D01*
X73404505Y-83004819D02*
X73404505Y-82004819D01*
X73404505Y-82004819D02*
X73785457Y-82004819D01*
X73785457Y-82004819D02*
X73880695Y-82052438D01*
X73880695Y-82052438D02*
X73928314Y-82100057D01*
X73928314Y-82100057D02*
X73975933Y-82195295D01*
X73975933Y-82195295D02*
X73975933Y-82338152D01*
X73975933Y-82338152D02*
X73928314Y-82433390D01*
X73928314Y-82433390D02*
X73880695Y-82481009D01*
X73880695Y-82481009D02*
X73785457Y-82528628D01*
X73785457Y-82528628D02*
X73404505Y-82528628D01*
X74356886Y-82100057D02*
X74404505Y-82052438D01*
X74404505Y-82052438D02*
X74499743Y-82004819D01*
X74499743Y-82004819D02*
X74737838Y-82004819D01*
X74737838Y-82004819D02*
X74833076Y-82052438D01*
X74833076Y-82052438D02*
X74880695Y-82100057D01*
X74880695Y-82100057D02*
X74928314Y-82195295D01*
X74928314Y-82195295D02*
X74928314Y-82290533D01*
X74928314Y-82290533D02*
X74880695Y-82433390D01*
X74880695Y-82433390D02*
X74309267Y-83004819D01*
X74309267Y-83004819D02*
X74928314Y-83004819D01*
X74077533Y-80439419D02*
X73744200Y-79963228D01*
X73506105Y-80439419D02*
X73506105Y-79439419D01*
X73506105Y-79439419D02*
X73887057Y-79439419D01*
X73887057Y-79439419D02*
X73982295Y-79487038D01*
X73982295Y-79487038D02*
X74029914Y-79534657D01*
X74029914Y-79534657D02*
X74077533Y-79629895D01*
X74077533Y-79629895D02*
X74077533Y-79772752D01*
X74077533Y-79772752D02*
X74029914Y-79867990D01*
X74029914Y-79867990D02*
X73982295Y-79915609D01*
X73982295Y-79915609D02*
X73887057Y-79963228D01*
X73887057Y-79963228D02*
X73506105Y-79963228D01*
X74410867Y-79439419D02*
X75029914Y-79439419D01*
X75029914Y-79439419D02*
X74696581Y-79820371D01*
X74696581Y-79820371D02*
X74839438Y-79820371D01*
X74839438Y-79820371D02*
X74934676Y-79867990D01*
X74934676Y-79867990D02*
X74982295Y-79915609D01*
X74982295Y-79915609D02*
X75029914Y-80010847D01*
X75029914Y-80010847D02*
X75029914Y-80248942D01*
X75029914Y-80248942D02*
X74982295Y-80344180D01*
X74982295Y-80344180D02*
X74934676Y-80391800D01*
X74934676Y-80391800D02*
X74839438Y-80439419D01*
X74839438Y-80439419D02*
X74553724Y-80439419D01*
X74553724Y-80439419D02*
X74458486Y-80391800D01*
X74458486Y-80391800D02*
X74410867Y-80344180D01*
X67117933Y-81988819D02*
X66784600Y-81512628D01*
X66546505Y-81988819D02*
X66546505Y-80988819D01*
X66546505Y-80988819D02*
X66927457Y-80988819D01*
X66927457Y-80988819D02*
X67022695Y-81036438D01*
X67022695Y-81036438D02*
X67070314Y-81084057D01*
X67070314Y-81084057D02*
X67117933Y-81179295D01*
X67117933Y-81179295D02*
X67117933Y-81322152D01*
X67117933Y-81322152D02*
X67070314Y-81417390D01*
X67070314Y-81417390D02*
X67022695Y-81465009D01*
X67022695Y-81465009D02*
X66927457Y-81512628D01*
X66927457Y-81512628D02*
X66546505Y-81512628D01*
X67975076Y-81322152D02*
X67975076Y-81988819D01*
X67736981Y-80941200D02*
X67498886Y-81655485D01*
X67498886Y-81655485D02*
X68117933Y-81655485D01*
X73550542Y-103832819D02*
X73217209Y-103356628D01*
X72979114Y-103832819D02*
X72979114Y-102832819D01*
X72979114Y-102832819D02*
X73360066Y-102832819D01*
X73360066Y-102832819D02*
X73455304Y-102880438D01*
X73455304Y-102880438D02*
X73502923Y-102928057D01*
X73502923Y-102928057D02*
X73550542Y-103023295D01*
X73550542Y-103023295D02*
X73550542Y-103166152D01*
X73550542Y-103166152D02*
X73502923Y-103261390D01*
X73502923Y-103261390D02*
X73455304Y-103309009D01*
X73455304Y-103309009D02*
X73360066Y-103356628D01*
X73360066Y-103356628D02*
X72979114Y-103356628D01*
X73883876Y-102832819D02*
X74502923Y-102832819D01*
X74502923Y-102832819D02*
X74169590Y-103213771D01*
X74169590Y-103213771D02*
X74312447Y-103213771D01*
X74312447Y-103213771D02*
X74407685Y-103261390D01*
X74407685Y-103261390D02*
X74455304Y-103309009D01*
X74455304Y-103309009D02*
X74502923Y-103404247D01*
X74502923Y-103404247D02*
X74502923Y-103642342D01*
X74502923Y-103642342D02*
X74455304Y-103737580D01*
X74455304Y-103737580D02*
X74407685Y-103785200D01*
X74407685Y-103785200D02*
X74312447Y-103832819D01*
X74312447Y-103832819D02*
X74026733Y-103832819D01*
X74026733Y-103832819D02*
X73931495Y-103785200D01*
X73931495Y-103785200D02*
X73883876Y-103737580D01*
X75121971Y-102832819D02*
X75217209Y-102832819D01*
X75217209Y-102832819D02*
X75312447Y-102880438D01*
X75312447Y-102880438D02*
X75360066Y-102928057D01*
X75360066Y-102928057D02*
X75407685Y-103023295D01*
X75407685Y-103023295D02*
X75455304Y-103213771D01*
X75455304Y-103213771D02*
X75455304Y-103451866D01*
X75455304Y-103451866D02*
X75407685Y-103642342D01*
X75407685Y-103642342D02*
X75360066Y-103737580D01*
X75360066Y-103737580D02*
X75312447Y-103785200D01*
X75312447Y-103785200D02*
X75217209Y-103832819D01*
X75217209Y-103832819D02*
X75121971Y-103832819D01*
X75121971Y-103832819D02*
X75026733Y-103785200D01*
X75026733Y-103785200D02*
X74979114Y-103737580D01*
X74979114Y-103737580D02*
X74931495Y-103642342D01*
X74931495Y-103642342D02*
X74883876Y-103451866D01*
X74883876Y-103451866D02*
X74883876Y-103213771D01*
X74883876Y-103213771D02*
X74931495Y-103023295D01*
X74931495Y-103023295D02*
X74979114Y-102928057D01*
X74979114Y-102928057D02*
X75026733Y-102880438D01*
X75026733Y-102880438D02*
X75121971Y-102832819D01*
X94654019Y-105282904D02*
X95463542Y-105282904D01*
X95463542Y-105282904D02*
X95558780Y-105235285D01*
X95558780Y-105235285D02*
X95606400Y-105187666D01*
X95606400Y-105187666D02*
X95654019Y-105092428D01*
X95654019Y-105092428D02*
X95654019Y-104901952D01*
X95654019Y-104901952D02*
X95606400Y-104806714D01*
X95606400Y-104806714D02*
X95558780Y-104759095D01*
X95558780Y-104759095D02*
X95463542Y-104711476D01*
X95463542Y-104711476D02*
X94654019Y-104711476D01*
X94987352Y-103806714D02*
X95654019Y-103806714D01*
X94606400Y-104044809D02*
X95320685Y-104282904D01*
X95320685Y-104282904D02*
X95320685Y-103663857D01*
X100250666Y-85936619D02*
X100250666Y-86650904D01*
X100250666Y-86650904D02*
X100203047Y-86793761D01*
X100203047Y-86793761D02*
X100107809Y-86889000D01*
X100107809Y-86889000D02*
X99964952Y-86936619D01*
X99964952Y-86936619D02*
X99869714Y-86936619D01*
X100631619Y-85936619D02*
X101250666Y-85936619D01*
X101250666Y-85936619D02*
X100917333Y-86317571D01*
X100917333Y-86317571D02*
X101060190Y-86317571D01*
X101060190Y-86317571D02*
X101155428Y-86365190D01*
X101155428Y-86365190D02*
X101203047Y-86412809D01*
X101203047Y-86412809D02*
X101250666Y-86508047D01*
X101250666Y-86508047D02*
X101250666Y-86746142D01*
X101250666Y-86746142D02*
X101203047Y-86841380D01*
X101203047Y-86841380D02*
X101155428Y-86889000D01*
X101155428Y-86889000D02*
X101060190Y-86936619D01*
X101060190Y-86936619D02*
X100774476Y-86936619D01*
X100774476Y-86936619D02*
X100679238Y-86889000D01*
X100679238Y-86889000D02*
X100631619Y-86841380D01*
X93580105Y-92418819D02*
X93580105Y-93228342D01*
X93580105Y-93228342D02*
X93627724Y-93323580D01*
X93627724Y-93323580D02*
X93675343Y-93371200D01*
X93675343Y-93371200D02*
X93770581Y-93418819D01*
X93770581Y-93418819D02*
X93961057Y-93418819D01*
X93961057Y-93418819D02*
X94056295Y-93371200D01*
X94056295Y-93371200D02*
X94103914Y-93323580D01*
X94103914Y-93323580D02*
X94151533Y-93228342D01*
X94151533Y-93228342D02*
X94151533Y-92418819D01*
X95151533Y-93418819D02*
X94580105Y-93418819D01*
X94865819Y-93418819D02*
X94865819Y-92418819D01*
X94865819Y-92418819D02*
X94770581Y-92561676D01*
X94770581Y-92561676D02*
X94675343Y-92656914D01*
X94675343Y-92656914D02*
X94580105Y-92704533D01*
X95484867Y-92418819D02*
X96103914Y-92418819D01*
X96103914Y-92418819D02*
X95770581Y-92799771D01*
X95770581Y-92799771D02*
X95913438Y-92799771D01*
X95913438Y-92799771D02*
X96008676Y-92847390D01*
X96008676Y-92847390D02*
X96056295Y-92895009D01*
X96056295Y-92895009D02*
X96103914Y-92990247D01*
X96103914Y-92990247D02*
X96103914Y-93228342D01*
X96103914Y-93228342D02*
X96056295Y-93323580D01*
X96056295Y-93323580D02*
X96008676Y-93371200D01*
X96008676Y-93371200D02*
X95913438Y-93418819D01*
X95913438Y-93418819D02*
X95627724Y-93418819D01*
X95627724Y-93418819D02*
X95532486Y-93371200D01*
X95532486Y-93371200D02*
X95484867Y-93323580D01*
X87966561Y-82363457D02*
X87871323Y-82315838D01*
X87871323Y-82315838D02*
X87776085Y-82220600D01*
X87776085Y-82220600D02*
X87633228Y-82077742D01*
X87633228Y-82077742D02*
X87537990Y-82030123D01*
X87537990Y-82030123D02*
X87442752Y-82030123D01*
X87490371Y-82268219D02*
X87395133Y-82220600D01*
X87395133Y-82220600D02*
X87299895Y-82125361D01*
X87299895Y-82125361D02*
X87252276Y-81934885D01*
X87252276Y-81934885D02*
X87252276Y-81601552D01*
X87252276Y-81601552D02*
X87299895Y-81411076D01*
X87299895Y-81411076D02*
X87395133Y-81315838D01*
X87395133Y-81315838D02*
X87490371Y-81268219D01*
X87490371Y-81268219D02*
X87680847Y-81268219D01*
X87680847Y-81268219D02*
X87776085Y-81315838D01*
X87776085Y-81315838D02*
X87871323Y-81411076D01*
X87871323Y-81411076D02*
X87918942Y-81601552D01*
X87918942Y-81601552D02*
X87918942Y-81934885D01*
X87918942Y-81934885D02*
X87871323Y-82125361D01*
X87871323Y-82125361D02*
X87776085Y-82220600D01*
X87776085Y-82220600D02*
X87680847Y-82268219D01*
X87680847Y-82268219D02*
X87490371Y-82268219D01*
X88823704Y-81268219D02*
X88347514Y-81268219D01*
X88347514Y-81268219D02*
X88299895Y-81744409D01*
X88299895Y-81744409D02*
X88347514Y-81696790D01*
X88347514Y-81696790D02*
X88442752Y-81649171D01*
X88442752Y-81649171D02*
X88680847Y-81649171D01*
X88680847Y-81649171D02*
X88776085Y-81696790D01*
X88776085Y-81696790D02*
X88823704Y-81744409D01*
X88823704Y-81744409D02*
X88871323Y-81839647D01*
X88871323Y-81839647D02*
X88871323Y-82077742D01*
X88871323Y-82077742D02*
X88823704Y-82172980D01*
X88823704Y-82172980D02*
X88776085Y-82220600D01*
X88776085Y-82220600D02*
X88680847Y-82268219D01*
X88680847Y-82268219D02*
X88442752Y-82268219D01*
X88442752Y-82268219D02*
X88347514Y-82220600D01*
X88347514Y-82220600D02*
X88299895Y-82172980D01*
X86052819Y-90635057D02*
X85576628Y-90968390D01*
X86052819Y-91206485D02*
X85052819Y-91206485D01*
X85052819Y-91206485D02*
X85052819Y-90825533D01*
X85052819Y-90825533D02*
X85100438Y-90730295D01*
X85100438Y-90730295D02*
X85148057Y-90682676D01*
X85148057Y-90682676D02*
X85243295Y-90635057D01*
X85243295Y-90635057D02*
X85386152Y-90635057D01*
X85386152Y-90635057D02*
X85481390Y-90682676D01*
X85481390Y-90682676D02*
X85529009Y-90730295D01*
X85529009Y-90730295D02*
X85576628Y-90825533D01*
X85576628Y-90825533D02*
X85576628Y-91206485D01*
X86052819Y-89682676D02*
X86052819Y-90254104D01*
X86052819Y-89968390D02*
X85052819Y-89968390D01*
X85052819Y-89968390D02*
X85195676Y-90063628D01*
X85195676Y-90063628D02*
X85290914Y-90158866D01*
X85290914Y-90158866D02*
X85338533Y-90254104D01*
X85052819Y-89349342D02*
X85052819Y-88730295D01*
X85052819Y-88730295D02*
X85433771Y-89063628D01*
X85433771Y-89063628D02*
X85433771Y-88920771D01*
X85433771Y-88920771D02*
X85481390Y-88825533D01*
X85481390Y-88825533D02*
X85529009Y-88777914D01*
X85529009Y-88777914D02*
X85624247Y-88730295D01*
X85624247Y-88730295D02*
X85862342Y-88730295D01*
X85862342Y-88730295D02*
X85957580Y-88777914D01*
X85957580Y-88777914D02*
X86005200Y-88825533D01*
X86005200Y-88825533D02*
X86052819Y-88920771D01*
X86052819Y-88920771D02*
X86052819Y-89206485D01*
X86052819Y-89206485D02*
X86005200Y-89301723D01*
X86005200Y-89301723D02*
X85957580Y-89349342D01*
X87364219Y-109924694D02*
X88173742Y-109924694D01*
X88173742Y-109924694D02*
X88268980Y-109877075D01*
X88268980Y-109877075D02*
X88316600Y-109829456D01*
X88316600Y-109829456D02*
X88364219Y-109734218D01*
X88364219Y-109734218D02*
X88364219Y-109543742D01*
X88364219Y-109543742D02*
X88316600Y-109448504D01*
X88316600Y-109448504D02*
X88268980Y-109400885D01*
X88268980Y-109400885D02*
X88173742Y-109353266D01*
X88173742Y-109353266D02*
X87364219Y-109353266D01*
X87364219Y-108400885D02*
X87364219Y-108877075D01*
X87364219Y-108877075D02*
X87840409Y-108924694D01*
X87840409Y-108924694D02*
X87792790Y-108877075D01*
X87792790Y-108877075D02*
X87745171Y-108781837D01*
X87745171Y-108781837D02*
X87745171Y-108543742D01*
X87745171Y-108543742D02*
X87792790Y-108448504D01*
X87792790Y-108448504D02*
X87840409Y-108400885D01*
X87840409Y-108400885D02*
X87935647Y-108353266D01*
X87935647Y-108353266D02*
X88173742Y-108353266D01*
X88173742Y-108353266D02*
X88268980Y-108400885D01*
X88268980Y-108400885D02*
X88316600Y-108448504D01*
X88316600Y-108448504D02*
X88364219Y-108543742D01*
X88364219Y-108543742D02*
X88364219Y-108781837D01*
X88364219Y-108781837D02*
X88316600Y-108877075D01*
X88316600Y-108877075D02*
X88268980Y-108924694D01*
X87364219Y-107734218D02*
X87364219Y-107638980D01*
X87364219Y-107638980D02*
X87411838Y-107543742D01*
X87411838Y-107543742D02*
X87459457Y-107496123D01*
X87459457Y-107496123D02*
X87554695Y-107448504D01*
X87554695Y-107448504D02*
X87745171Y-107400885D01*
X87745171Y-107400885D02*
X87983266Y-107400885D01*
X87983266Y-107400885D02*
X88173742Y-107448504D01*
X88173742Y-107448504D02*
X88268980Y-107496123D01*
X88268980Y-107496123D02*
X88316600Y-107543742D01*
X88316600Y-107543742D02*
X88364219Y-107638980D01*
X88364219Y-107638980D02*
X88364219Y-107734218D01*
X88364219Y-107734218D02*
X88316600Y-107829456D01*
X88316600Y-107829456D02*
X88268980Y-107877075D01*
X88268980Y-107877075D02*
X88173742Y-107924694D01*
X88173742Y-107924694D02*
X87983266Y-107972313D01*
X87983266Y-107972313D02*
X87745171Y-107972313D01*
X87745171Y-107972313D02*
X87554695Y-107924694D01*
X87554695Y-107924694D02*
X87459457Y-107877075D01*
X87459457Y-107877075D02*
X87411838Y-107829456D01*
X87411838Y-107829456D02*
X87364219Y-107734218D01*
X97298680Y-100655357D02*
X97346300Y-100702976D01*
X97346300Y-100702976D02*
X97393919Y-100845833D01*
X97393919Y-100845833D02*
X97393919Y-100941071D01*
X97393919Y-100941071D02*
X97346300Y-101083928D01*
X97346300Y-101083928D02*
X97251061Y-101179166D01*
X97251061Y-101179166D02*
X97155823Y-101226785D01*
X97155823Y-101226785D02*
X96965347Y-101274404D01*
X96965347Y-101274404D02*
X96822490Y-101274404D01*
X96822490Y-101274404D02*
X96632014Y-101226785D01*
X96632014Y-101226785D02*
X96536776Y-101179166D01*
X96536776Y-101179166D02*
X96441538Y-101083928D01*
X96441538Y-101083928D02*
X96393919Y-100941071D01*
X96393919Y-100941071D02*
X96393919Y-100845833D01*
X96393919Y-100845833D02*
X96441538Y-100702976D01*
X96441538Y-100702976D02*
X96489157Y-100655357D01*
X96393919Y-99750595D02*
X96393919Y-100226785D01*
X96393919Y-100226785D02*
X96870109Y-100274404D01*
X96870109Y-100274404D02*
X96822490Y-100226785D01*
X96822490Y-100226785D02*
X96774871Y-100131547D01*
X96774871Y-100131547D02*
X96774871Y-99893452D01*
X96774871Y-99893452D02*
X96822490Y-99798214D01*
X96822490Y-99798214D02*
X96870109Y-99750595D01*
X96870109Y-99750595D02*
X96965347Y-99702976D01*
X96965347Y-99702976D02*
X97203442Y-99702976D01*
X97203442Y-99702976D02*
X97298680Y-99750595D01*
X97298680Y-99750595D02*
X97346300Y-99798214D01*
X97346300Y-99798214D02*
X97393919Y-99893452D01*
X97393919Y-99893452D02*
X97393919Y-100131547D01*
X97393919Y-100131547D02*
X97346300Y-100226785D01*
X97346300Y-100226785D02*
X97298680Y-100274404D01*
X96727252Y-98845833D02*
X97393919Y-98845833D01*
X96346300Y-99083928D02*
X97060585Y-99322023D01*
X97060585Y-99322023D02*
X97060585Y-98702976D01*
X107616666Y-83425819D02*
X107616666Y-84140104D01*
X107616666Y-84140104D02*
X107569047Y-84282961D01*
X107569047Y-84282961D02*
X107473809Y-84378200D01*
X107473809Y-84378200D02*
X107330952Y-84425819D01*
X107330952Y-84425819D02*
X107235714Y-84425819D01*
X108616666Y-84425819D02*
X108045238Y-84425819D01*
X108330952Y-84425819D02*
X108330952Y-83425819D01*
X108330952Y-83425819D02*
X108235714Y-83568676D01*
X108235714Y-83568676D02*
X108140476Y-83663914D01*
X108140476Y-83663914D02*
X108045238Y-83711533D01*
X66571905Y-80566419D02*
X66571905Y-79566419D01*
X66571905Y-79566419D02*
X66810000Y-79566419D01*
X66810000Y-79566419D02*
X66952857Y-79614038D01*
X66952857Y-79614038D02*
X67048095Y-79709276D01*
X67048095Y-79709276D02*
X67095714Y-79804514D01*
X67095714Y-79804514D02*
X67143333Y-79994990D01*
X67143333Y-79994990D02*
X67143333Y-80137847D01*
X67143333Y-80137847D02*
X67095714Y-80328323D01*
X67095714Y-80328323D02*
X67048095Y-80423561D01*
X67048095Y-80423561D02*
X66952857Y-80518800D01*
X66952857Y-80518800D02*
X66810000Y-80566419D01*
X66810000Y-80566419D02*
X66571905Y-80566419D01*
X67476667Y-79566419D02*
X68143333Y-79566419D01*
X68143333Y-79566419D02*
X67714762Y-80566419D01*
X85392419Y-81027494D02*
X84392419Y-81027494D01*
X84392419Y-81027494D02*
X84392419Y-80789399D01*
X84392419Y-80789399D02*
X84440038Y-80646542D01*
X84440038Y-80646542D02*
X84535276Y-80551304D01*
X84535276Y-80551304D02*
X84630514Y-80503685D01*
X84630514Y-80503685D02*
X84820990Y-80456066D01*
X84820990Y-80456066D02*
X84963847Y-80456066D01*
X84963847Y-80456066D02*
X85154323Y-80503685D01*
X85154323Y-80503685D02*
X85249561Y-80551304D01*
X85249561Y-80551304D02*
X85344800Y-80646542D01*
X85344800Y-80646542D02*
X85392419Y-80789399D01*
X85392419Y-80789399D02*
X85392419Y-81027494D01*
X84392419Y-79598923D02*
X84392419Y-79789399D01*
X84392419Y-79789399D02*
X84440038Y-79884637D01*
X84440038Y-79884637D02*
X84487657Y-79932256D01*
X84487657Y-79932256D02*
X84630514Y-80027494D01*
X84630514Y-80027494D02*
X84820990Y-80075113D01*
X84820990Y-80075113D02*
X85201942Y-80075113D01*
X85201942Y-80075113D02*
X85297180Y-80027494D01*
X85297180Y-80027494D02*
X85344800Y-79979875D01*
X85344800Y-79979875D02*
X85392419Y-79884637D01*
X85392419Y-79884637D02*
X85392419Y-79694161D01*
X85392419Y-79694161D02*
X85344800Y-79598923D01*
X85344800Y-79598923D02*
X85297180Y-79551304D01*
X85297180Y-79551304D02*
X85201942Y-79503685D01*
X85201942Y-79503685D02*
X84963847Y-79503685D01*
X84963847Y-79503685D02*
X84868609Y-79551304D01*
X84868609Y-79551304D02*
X84820990Y-79598923D01*
X84820990Y-79598923D02*
X84773371Y-79694161D01*
X84773371Y-79694161D02*
X84773371Y-79884637D01*
X84773371Y-79884637D02*
X84820990Y-79979875D01*
X84820990Y-79979875D02*
X84868609Y-80027494D01*
X84868609Y-80027494D02*
X84963847Y-80075113D01*
X99660438Y-100203800D02*
X99803295Y-100251419D01*
X99803295Y-100251419D02*
X100041390Y-100251419D01*
X100041390Y-100251419D02*
X100136628Y-100203800D01*
X100136628Y-100203800D02*
X100184247Y-100156180D01*
X100184247Y-100156180D02*
X100231866Y-100060942D01*
X100231866Y-100060942D02*
X100231866Y-99965704D01*
X100231866Y-99965704D02*
X100184247Y-99870466D01*
X100184247Y-99870466D02*
X100136628Y-99822847D01*
X100136628Y-99822847D02*
X100041390Y-99775228D01*
X100041390Y-99775228D02*
X99850914Y-99727609D01*
X99850914Y-99727609D02*
X99755676Y-99679990D01*
X99755676Y-99679990D02*
X99708057Y-99632371D01*
X99708057Y-99632371D02*
X99660438Y-99537133D01*
X99660438Y-99537133D02*
X99660438Y-99441895D01*
X99660438Y-99441895D02*
X99708057Y-99346657D01*
X99708057Y-99346657D02*
X99755676Y-99299038D01*
X99755676Y-99299038D02*
X99850914Y-99251419D01*
X99850914Y-99251419D02*
X100089009Y-99251419D01*
X100089009Y-99251419D02*
X100231866Y-99299038D01*
X100565200Y-99251419D02*
X100803295Y-100251419D01*
X100803295Y-100251419D02*
X100993771Y-99537133D01*
X100993771Y-99537133D02*
X101184247Y-100251419D01*
X101184247Y-100251419D02*
X101422343Y-99251419D01*
X101803295Y-100251419D02*
X101803295Y-99251419D01*
X101803295Y-99251419D02*
X102184247Y-99251419D01*
X102184247Y-99251419D02*
X102279485Y-99299038D01*
X102279485Y-99299038D02*
X102327104Y-99346657D01*
X102327104Y-99346657D02*
X102374723Y-99441895D01*
X102374723Y-99441895D02*
X102374723Y-99584752D01*
X102374723Y-99584752D02*
X102327104Y-99679990D01*
X102327104Y-99679990D02*
X102279485Y-99727609D01*
X102279485Y-99727609D02*
X102184247Y-99775228D01*
X102184247Y-99775228D02*
X101803295Y-99775228D01*
X102708057Y-99251419D02*
X102946152Y-100251419D01*
X102946152Y-100251419D02*
X103136628Y-99537133D01*
X103136628Y-99537133D02*
X103327104Y-100251419D01*
X103327104Y-100251419D02*
X103565200Y-99251419D01*
X104517580Y-100251419D02*
X104184247Y-99775228D01*
X103946152Y-100251419D02*
X103946152Y-99251419D01*
X103946152Y-99251419D02*
X104327104Y-99251419D01*
X104327104Y-99251419D02*
X104422342Y-99299038D01*
X104422342Y-99299038D02*
X104469961Y-99346657D01*
X104469961Y-99346657D02*
X104517580Y-99441895D01*
X104517580Y-99441895D02*
X104517580Y-99584752D01*
X104517580Y-99584752D02*
X104469961Y-99679990D01*
X104469961Y-99679990D02*
X104422342Y-99727609D01*
X104422342Y-99727609D02*
X104327104Y-99775228D01*
X104327104Y-99775228D02*
X103946152Y-99775228D01*
X105469961Y-100251419D02*
X104898533Y-100251419D01*
X105184247Y-100251419D02*
X105184247Y-99251419D01*
X105184247Y-99251419D02*
X105089009Y-99394276D01*
X105089009Y-99394276D02*
X104993771Y-99489514D01*
X104993771Y-99489514D02*
X104898533Y-99537133D01*
X119186366Y-83224019D02*
X119186366Y-83938304D01*
X119186366Y-83938304D02*
X119138747Y-84081161D01*
X119138747Y-84081161D02*
X119043509Y-84176400D01*
X119043509Y-84176400D02*
X118900652Y-84224019D01*
X118900652Y-84224019D02*
X118805414Y-84224019D01*
X119614938Y-83319257D02*
X119662557Y-83271638D01*
X119662557Y-83271638D02*
X119757795Y-83224019D01*
X119757795Y-83224019D02*
X119995890Y-83224019D01*
X119995890Y-83224019D02*
X120091128Y-83271638D01*
X120091128Y-83271638D02*
X120138747Y-83319257D01*
X120138747Y-83319257D02*
X120186366Y-83414495D01*
X120186366Y-83414495D02*
X120186366Y-83509733D01*
X120186366Y-83509733D02*
X120138747Y-83652590D01*
X120138747Y-83652590D02*
X119567319Y-84224019D01*
X119567319Y-84224019D02*
X120186366Y-84224019D01*
X107291285Y-103944009D02*
X107434142Y-103991628D01*
X107434142Y-103991628D02*
X107481761Y-104039247D01*
X107481761Y-104039247D02*
X107529380Y-104134485D01*
X107529380Y-104134485D02*
X107529380Y-104277342D01*
X107529380Y-104277342D02*
X107481761Y-104372580D01*
X107481761Y-104372580D02*
X107434142Y-104420200D01*
X107434142Y-104420200D02*
X107338904Y-104467819D01*
X107338904Y-104467819D02*
X106957952Y-104467819D01*
X106957952Y-104467819D02*
X106957952Y-103467819D01*
X106957952Y-103467819D02*
X107291285Y-103467819D01*
X107291285Y-103467819D02*
X107386523Y-103515438D01*
X107386523Y-103515438D02*
X107434142Y-103563057D01*
X107434142Y-103563057D02*
X107481761Y-103658295D01*
X107481761Y-103658295D02*
X107481761Y-103753533D01*
X107481761Y-103753533D02*
X107434142Y-103848771D01*
X107434142Y-103848771D02*
X107386523Y-103896390D01*
X107386523Y-103896390D02*
X107291285Y-103944009D01*
X107291285Y-103944009D02*
X106957952Y-103944009D01*
X107815095Y-103467819D02*
X108386523Y-103467819D01*
X108100809Y-104467819D02*
X108100809Y-103467819D01*
X109243666Y-104467819D02*
X108672238Y-104467819D01*
X108957952Y-104467819D02*
X108957952Y-103467819D01*
X108957952Y-103467819D02*
X108862714Y-103610676D01*
X108862714Y-103610676D02*
X108767476Y-103705914D01*
X108767476Y-103705914D02*
X108672238Y-103753533D01*
X98575905Y-92275819D02*
X98575905Y-91275819D01*
X98575905Y-91275819D02*
X98814000Y-91275819D01*
X98814000Y-91275819D02*
X98956857Y-91323438D01*
X98956857Y-91323438D02*
X99052095Y-91418676D01*
X99052095Y-91418676D02*
X99099714Y-91513914D01*
X99099714Y-91513914D02*
X99147333Y-91704390D01*
X99147333Y-91704390D02*
X99147333Y-91847247D01*
X99147333Y-91847247D02*
X99099714Y-92037723D01*
X99099714Y-92037723D02*
X99052095Y-92132961D01*
X99052095Y-92132961D02*
X98956857Y-92228200D01*
X98956857Y-92228200D02*
X98814000Y-92275819D01*
X98814000Y-92275819D02*
X98575905Y-92275819D01*
X100052095Y-91275819D02*
X99575905Y-91275819D01*
X99575905Y-91275819D02*
X99528286Y-91752009D01*
X99528286Y-91752009D02*
X99575905Y-91704390D01*
X99575905Y-91704390D02*
X99671143Y-91656771D01*
X99671143Y-91656771D02*
X99909238Y-91656771D01*
X99909238Y-91656771D02*
X100004476Y-91704390D01*
X100004476Y-91704390D02*
X100052095Y-91752009D01*
X100052095Y-91752009D02*
X100099714Y-91847247D01*
X100099714Y-91847247D02*
X100099714Y-92085342D01*
X100099714Y-92085342D02*
X100052095Y-92180580D01*
X100052095Y-92180580D02*
X100004476Y-92228200D01*
X100004476Y-92228200D02*
X99909238Y-92275819D01*
X99909238Y-92275819D02*
X99671143Y-92275819D01*
X99671143Y-92275819D02*
X99575905Y-92228200D01*
X99575905Y-92228200D02*
X99528286Y-92180580D01*
X106670714Y-97304819D02*
X106099286Y-97304819D01*
X106385000Y-97304819D02*
X106385000Y-96304819D01*
X106385000Y-96304819D02*
X106289762Y-96447676D01*
X106289762Y-96447676D02*
X106194524Y-96542914D01*
X106194524Y-96542914D02*
X106099286Y-96590533D01*
X71905905Y-105483819D02*
X71905905Y-104483819D01*
X71905905Y-104483819D02*
X72144000Y-104483819D01*
X72144000Y-104483819D02*
X72286857Y-104531438D01*
X72286857Y-104531438D02*
X72382095Y-104626676D01*
X72382095Y-104626676D02*
X72429714Y-104721914D01*
X72429714Y-104721914D02*
X72477333Y-104912390D01*
X72477333Y-104912390D02*
X72477333Y-105055247D01*
X72477333Y-105055247D02*
X72429714Y-105245723D01*
X72429714Y-105245723D02*
X72382095Y-105340961D01*
X72382095Y-105340961D02*
X72286857Y-105436200D01*
X72286857Y-105436200D02*
X72144000Y-105483819D01*
X72144000Y-105483819D02*
X71905905Y-105483819D01*
X72858286Y-104579057D02*
X72905905Y-104531438D01*
X72905905Y-104531438D02*
X73001143Y-104483819D01*
X73001143Y-104483819D02*
X73239238Y-104483819D01*
X73239238Y-104483819D02*
X73334476Y-104531438D01*
X73334476Y-104531438D02*
X73382095Y-104579057D01*
X73382095Y-104579057D02*
X73429714Y-104674295D01*
X73429714Y-104674295D02*
X73429714Y-104769533D01*
X73429714Y-104769533D02*
X73382095Y-104912390D01*
X73382095Y-104912390D02*
X72810667Y-105483819D01*
X72810667Y-105483819D02*
X73429714Y-105483819D01*
X79937214Y-110576319D02*
X79365786Y-110576319D01*
X79651500Y-110576319D02*
X79651500Y-109576319D01*
X79651500Y-109576319D02*
X79556262Y-109719176D01*
X79556262Y-109719176D02*
X79461024Y-109814414D01*
X79461024Y-109814414D02*
X79365786Y-109862033D01*
X70050819Y-106751285D02*
X69050819Y-106751285D01*
X69050819Y-106751285D02*
X69050819Y-106513190D01*
X69050819Y-106513190D02*
X69098438Y-106370333D01*
X69098438Y-106370333D02*
X69193676Y-106275095D01*
X69193676Y-106275095D02*
X69288914Y-106227476D01*
X69288914Y-106227476D02*
X69479390Y-106179857D01*
X69479390Y-106179857D02*
X69622247Y-106179857D01*
X69622247Y-106179857D02*
X69812723Y-106227476D01*
X69812723Y-106227476D02*
X69907961Y-106275095D01*
X69907961Y-106275095D02*
X70003200Y-106370333D01*
X70003200Y-106370333D02*
X70050819Y-106513190D01*
X70050819Y-106513190D02*
X70050819Y-106751285D01*
X69050819Y-105846523D02*
X69050819Y-105227476D01*
X69050819Y-105227476D02*
X69431771Y-105560809D01*
X69431771Y-105560809D02*
X69431771Y-105417952D01*
X69431771Y-105417952D02*
X69479390Y-105322714D01*
X69479390Y-105322714D02*
X69527009Y-105275095D01*
X69527009Y-105275095D02*
X69622247Y-105227476D01*
X69622247Y-105227476D02*
X69860342Y-105227476D01*
X69860342Y-105227476D02*
X69955580Y-105275095D01*
X69955580Y-105275095D02*
X70003200Y-105322714D01*
X70003200Y-105322714D02*
X70050819Y-105417952D01*
X70050819Y-105417952D02*
X70050819Y-105703666D01*
X70050819Y-105703666D02*
X70003200Y-105798904D01*
X70003200Y-105798904D02*
X69955580Y-105846523D01*
X69050819Y-104608428D02*
X69050819Y-104513190D01*
X69050819Y-104513190D02*
X69098438Y-104417952D01*
X69098438Y-104417952D02*
X69146057Y-104370333D01*
X69146057Y-104370333D02*
X69241295Y-104322714D01*
X69241295Y-104322714D02*
X69431771Y-104275095D01*
X69431771Y-104275095D02*
X69669866Y-104275095D01*
X69669866Y-104275095D02*
X69860342Y-104322714D01*
X69860342Y-104322714D02*
X69955580Y-104370333D01*
X69955580Y-104370333D02*
X70003200Y-104417952D01*
X70003200Y-104417952D02*
X70050819Y-104513190D01*
X70050819Y-104513190D02*
X70050819Y-104608428D01*
X70050819Y-104608428D02*
X70003200Y-104703666D01*
X70003200Y-104703666D02*
X69955580Y-104751285D01*
X69955580Y-104751285D02*
X69860342Y-104798904D01*
X69860342Y-104798904D02*
X69669866Y-104846523D01*
X69669866Y-104846523D02*
X69431771Y-104846523D01*
X69431771Y-104846523D02*
X69241295Y-104798904D01*
X69241295Y-104798904D02*
X69146057Y-104751285D01*
X69146057Y-104751285D02*
X69098438Y-104703666D01*
X69098438Y-104703666D02*
X69050819Y-104608428D01*
X81328095Y-102774819D02*
X81328095Y-103584342D01*
X81328095Y-103584342D02*
X81375714Y-103679580D01*
X81375714Y-103679580D02*
X81423333Y-103727200D01*
X81423333Y-103727200D02*
X81518571Y-103774819D01*
X81518571Y-103774819D02*
X81709047Y-103774819D01*
X81709047Y-103774819D02*
X81804285Y-103727200D01*
X81804285Y-103727200D02*
X81851904Y-103679580D01*
X81851904Y-103679580D02*
X81899523Y-103584342D01*
X81899523Y-103584342D02*
X81899523Y-102774819D01*
X82899523Y-103774819D02*
X82328095Y-103774819D01*
X82613809Y-103774819D02*
X82613809Y-102774819D01*
X82613809Y-102774819D02*
X82518571Y-102917676D01*
X82518571Y-102917676D02*
X82423333Y-103012914D01*
X82423333Y-103012914D02*
X82328095Y-103060533D01*
D14*
X86746900Y-92088400D02*
X84626900Y-92088400D01*
X86746900Y-94148400D02*
X86746900Y-92088400D01*
X84626900Y-94148400D02*
X84626900Y-92088400D01*
X86746900Y-94148400D02*
X84626900Y-94148400D01*
X86746900Y-95148400D02*
X86746900Y-96208400D01*
X86746900Y-96208400D02*
X85686900Y-96208400D01*
X107725978Y-98096000D02*
X107208822Y-98096000D01*
X107725978Y-99516000D02*
X107208822Y-99516000D01*
D15*
X63498800Y-110750400D02*
X63498800Y-111450400D01*
X69698800Y-110750400D02*
X69698800Y-111550400D01*
X66298800Y-114250400D02*
X66898800Y-114250400D01*
X66998800Y-108050400D02*
X66298800Y-108050400D01*
D14*
X77093578Y-81332000D02*
X76576422Y-81332000D01*
X77093578Y-82752000D02*
X76576422Y-82752000D01*
X77093578Y-80974000D02*
X76576422Y-80974000D01*
X77093578Y-79554000D02*
X76576422Y-79554000D01*
X71369422Y-82244000D02*
X71886578Y-82244000D01*
X71369422Y-80824000D02*
X71886578Y-80824000D01*
X77020922Y-102668000D02*
X77538078Y-102668000D01*
X77020922Y-104088000D02*
X77538078Y-104088000D01*
D15*
X98861000Y-105521000D02*
X99186000Y-105521000D01*
X99186000Y-105521000D02*
X99186000Y-105221000D01*
X96211000Y-103521000D02*
X95886000Y-103521000D01*
X95886000Y-103521000D02*
X95886000Y-103821000D01*
X96186000Y-105521000D02*
X95886000Y-105521000D01*
X95886000Y-105521000D02*
X95886000Y-105196000D01*
X99186000Y-103846000D02*
X98961000Y-103521000D01*
X98961000Y-103521000D02*
X98861000Y-103521000D01*
X98861000Y-103521000D02*
X98861000Y-102996000D01*
X99186000Y-103846000D02*
X99186000Y-104221000D01*
D13*
X104734000Y-83631800D02*
X104734000Y-82231800D01*
X104734000Y-79831800D02*
X104734000Y-79681800D01*
X104734000Y-79681800D02*
X104434000Y-79681800D01*
X104434000Y-79681800D02*
X104434000Y-79231800D01*
X96734000Y-79231800D02*
X96734000Y-79681800D01*
X96734000Y-79681800D02*
X96434000Y-79681800D01*
X96434000Y-79681800D02*
X96434000Y-79831800D01*
X96434000Y-82231800D02*
X96434000Y-83631800D01*
X101659000Y-85806800D02*
X102384000Y-85806800D01*
X102384000Y-85806800D02*
X102384000Y-85381800D01*
X102384000Y-85381800D02*
X103384000Y-85381800D01*
X98784000Y-85381800D02*
X97784000Y-85381800D01*
D14*
X93782000Y-80026000D02*
X93782000Y-82711000D01*
X93782000Y-82711000D02*
X95702000Y-82711000D01*
X95702000Y-82711000D02*
X95702000Y-80026000D01*
D13*
X88984000Y-85535000D02*
X88984000Y-84425000D01*
X93134000Y-84425000D02*
X93134000Y-85535000D01*
X93134000Y-93375000D02*
X93134000Y-92265000D01*
X88984000Y-93375000D02*
X88984000Y-92265000D01*
X88984000Y-84425000D02*
X93134000Y-84425000D01*
X88984000Y-93375000D02*
X93134000Y-93375000D01*
X88984000Y-85535000D02*
X87859000Y-85535000D01*
D14*
X87940000Y-82679000D02*
X87940000Y-84139000D01*
X84780000Y-82679000D02*
X84780000Y-84839000D01*
X84780000Y-82679000D02*
X85710000Y-82679000D01*
X87940000Y-82679000D02*
X87010000Y-82679000D01*
X86308000Y-86609422D02*
X86308000Y-87126578D01*
X84888000Y-86609422D02*
X84888000Y-87126578D01*
D15*
X80494200Y-109687000D02*
X80494200Y-110162000D01*
X80494200Y-110162000D02*
X80794200Y-110487000D01*
X80794200Y-110487000D02*
X80794200Y-110682000D01*
X87044200Y-110012000D02*
X87044200Y-110487000D01*
X87044200Y-110487000D02*
X86594200Y-110487000D01*
X80994200Y-106937000D02*
X80494200Y-106937000D01*
X80494200Y-106937000D02*
X80494200Y-107337000D01*
X86669200Y-106937000D02*
X87044200Y-106937000D01*
X87044200Y-106937000D02*
X87044200Y-107237000D01*
D14*
X97676900Y-100283778D02*
X97676900Y-99766622D01*
X99096900Y-100283778D02*
X99096900Y-99766622D01*
D16*
X93344307Y-100144310D02*
X93349483Y-100185191D01*
X93320763Y-100258418D01*
X93238729Y-100321122D01*
X93125365Y-100364217D01*
X92941603Y-100394640D01*
X92778645Y-100376305D01*
X92669659Y-100334325D01*
X92578306Y-100274402D01*
X92541965Y-100220569D01*
X92556019Y-100182938D01*
X92615851Y-100171623D01*
X92716842Y-100196736D01*
X92730044Y-100202064D01*
X92864033Y-100241294D01*
X92989987Y-100236912D01*
X93128872Y-100187563D01*
X93155367Y-100174558D01*
X93255947Y-100129337D01*
X93316131Y-100119101D01*
X93344307Y-100144310D01*
G36*
X93344307Y-100144310D02*
G01*
X93349483Y-100185191D01*
X93320763Y-100258418D01*
X93238729Y-100321122D01*
X93125365Y-100364217D01*
X92941603Y-100394640D01*
X92778645Y-100376305D01*
X92669659Y-100334325D01*
X92578306Y-100274402D01*
X92541965Y-100220569D01*
X92556019Y-100182938D01*
X92615851Y-100171623D01*
X92716842Y-100196736D01*
X92730044Y-100202064D01*
X92864033Y-100241294D01*
X92989987Y-100236912D01*
X93128872Y-100187563D01*
X93155367Y-100174558D01*
X93255947Y-100129337D01*
X93316131Y-100119101D01*
X93344307Y-100144310D01*
G37*
X89867856Y-97640332D02*
X89960775Y-97710308D01*
X90046285Y-97808725D01*
X90116399Y-97925922D01*
X90163129Y-98052238D01*
X90178487Y-98178011D01*
X90176248Y-98210375D01*
X90152692Y-98268909D01*
X90110535Y-98301019D01*
X90068623Y-98297776D01*
X90049721Y-98270326D01*
X90036860Y-98216371D01*
X90021008Y-98133365D01*
X90017755Y-98114337D01*
X89977458Y-97977607D01*
X89901323Y-97871718D01*
X89777529Y-97780364D01*
X89774302Y-97778466D01*
X89686579Y-97721584D01*
X89649884Y-97680167D01*
X89660125Y-97646579D01*
X89691743Y-97624350D01*
X89775516Y-97608459D01*
X89867856Y-97640332D01*
G36*
X89867856Y-97640332D02*
G01*
X89960775Y-97710308D01*
X90046285Y-97808725D01*
X90116399Y-97925922D01*
X90163129Y-98052238D01*
X90178487Y-98178011D01*
X90176248Y-98210375D01*
X90152692Y-98268909D01*
X90110535Y-98301019D01*
X90068623Y-98297776D01*
X90049721Y-98270326D01*
X90036860Y-98216371D01*
X90021008Y-98133365D01*
X90017755Y-98114337D01*
X89977458Y-97977607D01*
X89901323Y-97871718D01*
X89777529Y-97780364D01*
X89774302Y-97778466D01*
X89686579Y-97721584D01*
X89649884Y-97680167D01*
X89660125Y-97646579D01*
X89691743Y-97624350D01*
X89775516Y-97608459D01*
X89867856Y-97640332D01*
G37*
X91180800Y-95193743D02*
X91360495Y-95198349D01*
X91500135Y-95207122D01*
X91541600Y-95211849D01*
X91624353Y-95228124D01*
X91745918Y-95258155D01*
X91894001Y-95298265D01*
X92056305Y-95344779D01*
X92220537Y-95394022D01*
X92374400Y-95442319D01*
X92505599Y-95485995D01*
X92601839Y-95521373D01*
X92647247Y-95542346D01*
X92715532Y-95576068D01*
X92805783Y-95610704D01*
X92820825Y-95615625D01*
X92933945Y-95660719D01*
X93079462Y-95732187D01*
X93245564Y-95822815D01*
X93420437Y-95925387D01*
X93592270Y-96032688D01*
X93749251Y-96137503D01*
X93879566Y-96232616D01*
X93971405Y-96310812D01*
X93989114Y-96329250D01*
X94043648Y-96376063D01*
X94085464Y-96393000D01*
X94123905Y-96417253D01*
X94167599Y-96476934D01*
X94174730Y-96490118D01*
X94210502Y-96548910D01*
X94274474Y-96643605D01*
X94358561Y-96762617D01*
X94454679Y-96894358D01*
X94488007Y-96939115D01*
X94684203Y-97216360D01*
X94865470Y-97501914D01*
X95022812Y-97780592D01*
X95147232Y-98037208D01*
X95169175Y-98088908D01*
X95243555Y-98280668D01*
X95311590Y-98476890D01*
X95368360Y-98661830D01*
X95408949Y-98819747D01*
X95425666Y-98909892D01*
X95441850Y-98996231D01*
X95461278Y-99054748D01*
X95470337Y-99066981D01*
X95510183Y-99068270D01*
X95590907Y-99056754D01*
X95695604Y-99034897D01*
X95703532Y-99033010D01*
X95844339Y-99004610D01*
X95936901Y-99000777D01*
X95988164Y-99023147D01*
X96005073Y-99073354D01*
X96003543Y-99103644D01*
X95971982Y-99170590D01*
X95897636Y-99253556D01*
X95791575Y-99342644D01*
X95664868Y-99427960D01*
X95599365Y-99464984D01*
X95503483Y-99515737D01*
X95489012Y-100068545D01*
X95483367Y-100253379D01*
X95476618Y-100425660D01*
X95469358Y-100573212D01*
X95462174Y-100683858D01*
X95456409Y-100740883D01*
X95377096Y-101170895D01*
X95277411Y-101547379D01*
X95156411Y-101873325D01*
X95013157Y-102151722D01*
X95011353Y-102154698D01*
X94952627Y-102255337D01*
X94903878Y-102345919D01*
X94878340Y-102400558D01*
X94845793Y-102464991D01*
X94786849Y-102564248D01*
X94710387Y-102684911D01*
X94625288Y-102813561D01*
X94540433Y-102936780D01*
X94464700Y-103041149D01*
X94406971Y-103113252D01*
X94405864Y-103114493D01*
X94354526Y-103165862D01*
X94266404Y-103247789D01*
X94150459Y-103352369D01*
X94015651Y-103471699D01*
X93870943Y-103597876D01*
X93725295Y-103722997D01*
X93587669Y-103839159D01*
X93528777Y-103888022D01*
X93430727Y-103959872D01*
X93292184Y-104049505D01*
X93126715Y-104149228D01*
X92947888Y-104251344D01*
X92769270Y-104348158D01*
X92604430Y-104431977D01*
X92466935Y-104495104D01*
X92436532Y-104507496D01*
X92213909Y-104580310D01*
X91990486Y-104619742D01*
X91924743Y-104625915D01*
X91783034Y-104639003D01*
X91643971Y-104654859D01*
X91533076Y-104670509D01*
X91513990Y-104673812D01*
X91207448Y-104712022D01*
X90865891Y-104723948D01*
X90506475Y-104710964D01*
X90146356Y-104674443D01*
X89802688Y-104615758D01*
X89492626Y-104536284D01*
X89396501Y-104504269D01*
X89359507Y-104492156D01*
X89787355Y-104492156D01*
X89793483Y-104493179D01*
X89842860Y-104498937D01*
X89933642Y-104512032D01*
X90048296Y-104529904D01*
X90077365Y-104534611D01*
X90179162Y-104546842D01*
X90317927Y-104557446D01*
X90482052Y-104566174D01*
X90659930Y-104572780D01*
X90839953Y-104577015D01*
X91010515Y-104578631D01*
X91160008Y-104577381D01*
X91276823Y-104573017D01*
X91349355Y-104565291D01*
X91361425Y-104562027D01*
X91354025Y-104547940D01*
X91295322Y-104523109D01*
X91192304Y-104489990D01*
X91051957Y-104451039D01*
X91027693Y-104444735D01*
X90858231Y-104397215D01*
X90696007Y-104345566D01*
X91569976Y-104345566D01*
X91591840Y-104360087D01*
X91646189Y-104372768D01*
X91738688Y-104386463D01*
X91841755Y-104394631D01*
X91942074Y-104397366D01*
X92026324Y-104394764D01*
X92081189Y-104386919D01*
X92093351Y-104373925D01*
X92087727Y-104369628D01*
X92023211Y-104348209D01*
X91922429Y-104330905D01*
X91806814Y-104319540D01*
X91697800Y-104315940D01*
X91616818Y-104321931D01*
X91596250Y-104327777D01*
X91569976Y-104345566D01*
X90696007Y-104345566D01*
X90685456Y-104342207D01*
X90530424Y-104286773D01*
X90421012Y-104241212D01*
X90196894Y-104136242D01*
X90062424Y-104267181D01*
X89974564Y-104346069D01*
X89888075Y-104413077D01*
X89838306Y-104444435D01*
X89790911Y-104475083D01*
X89787355Y-104492156D01*
X89359507Y-104492156D01*
X89282902Y-104467074D01*
X89214933Y-104453973D01*
X89184165Y-104463584D01*
X89181426Y-104468973D01*
X89166633Y-104517352D01*
X89142168Y-104600886D01*
X89125010Y-104660594D01*
X89080585Y-104797747D01*
X89038724Y-104891818D01*
X89002674Y-104935968D01*
X88993078Y-104938445D01*
X88952008Y-104924159D01*
X88920600Y-104907736D01*
X88869485Y-104846007D01*
X88832607Y-104732533D01*
X88811607Y-104573989D01*
X88807237Y-104446294D01*
X88806908Y-104296883D01*
X89204231Y-104296883D01*
X89297151Y-104331962D01*
X89379113Y-104358823D01*
X89437073Y-104360403D01*
X89461701Y-104343422D01*
X89644071Y-104343422D01*
X89666364Y-104355014D01*
X89723394Y-104339013D01*
X89800386Y-104301296D01*
X89880330Y-104249404D01*
X89961079Y-104178025D01*
X90028688Y-104101469D01*
X90091061Y-104017105D01*
X89986337Y-103952382D01*
X89894456Y-103910477D01*
X89828043Y-103910121D01*
X89795430Y-103950539D01*
X89793483Y-103970370D01*
X89780633Y-104023284D01*
X89747631Y-104106734D01*
X89718777Y-104167998D01*
X89677504Y-104254643D01*
X89650373Y-104320177D01*
X89644071Y-104343422D01*
X89461701Y-104343422D01*
X89482622Y-104328998D01*
X89527353Y-104256905D01*
X89579336Y-104144421D01*
X89623861Y-104040034D01*
X89655531Y-103959232D01*
X89669276Y-103915212D01*
X89668983Y-103910982D01*
X89657192Y-103904099D01*
X90302364Y-103904099D01*
X90321277Y-103960066D01*
X90392478Y-104007860D01*
X90475475Y-104039704D01*
X90465970Y-104021558D01*
X90430036Y-103972919D01*
X90423181Y-103964147D01*
X90379939Y-103895644D01*
X90360832Y-103838654D01*
X90360790Y-103837147D01*
X90357087Y-103811918D01*
X90508885Y-103811918D01*
X90520021Y-103860137D01*
X90541663Y-103887790D01*
X90591398Y-103927393D01*
X90658140Y-103946950D01*
X90762116Y-103952072D01*
X90773294Y-103952021D01*
X90943953Y-103950807D01*
X90840494Y-103862374D01*
X90760257Y-103810201D01*
X90675661Y-103780032D01*
X90598022Y-103770903D01*
X90538658Y-103781853D01*
X90508885Y-103811918D01*
X90357087Y-103811918D01*
X90356098Y-103805185D01*
X90335602Y-103827221D01*
X90331365Y-103833706D01*
X90302364Y-103904099D01*
X89657192Y-103904099D01*
X89639353Y-103893686D01*
X89573799Y-103857113D01*
X89517277Y-103826034D01*
X89375542Y-103748497D01*
X89289886Y-104022690D01*
X89204231Y-104296883D01*
X88806908Y-104296883D01*
X88806776Y-104237118D01*
X88530659Y-104090923D01*
X88278903Y-103946397D01*
X88018880Y-103776966D01*
X87763152Y-103592185D01*
X87524284Y-103401608D01*
X87314840Y-103214788D01*
X87147384Y-103041281D01*
X87141708Y-103034720D01*
X87058459Y-102934684D01*
X86972961Y-102826459D01*
X86893597Y-102721364D01*
X86857279Y-102670596D01*
X87344897Y-102670596D01*
X87362361Y-102912219D01*
X87381168Y-103111320D01*
X87590858Y-103283825D01*
X87939338Y-103555207D01*
X88275885Y-103786992D01*
X88508542Y-103927294D01*
X88636697Y-103998697D01*
X88721912Y-104043286D01*
X88772951Y-104064220D01*
X88798576Y-104064657D01*
X88807553Y-104047757D01*
X88808494Y-104035412D01*
X88817877Y-103924682D01*
X88838902Y-103773575D01*
X88868557Y-103599654D01*
X88903832Y-103420482D01*
X88941716Y-103253623D01*
X88944323Y-103243115D01*
X88960534Y-103164554D01*
X88967692Y-103084410D01*
X88965598Y-102987658D01*
X88954055Y-102859272D01*
X88937441Y-102720174D01*
X88913309Y-102467739D01*
X88902921Y-102215126D01*
X88905251Y-102041872D01*
X89036678Y-102041872D01*
X89037937Y-102200206D01*
X89044898Y-102379465D01*
X89056524Y-102560481D01*
X89071779Y-102724089D01*
X89089627Y-102851122D01*
X89093321Y-102870000D01*
X89114608Y-102936613D01*
X89154625Y-102962988D01*
X89215472Y-102967118D01*
X89358033Y-102991282D01*
X89504234Y-103056964D01*
X89577768Y-103107965D01*
X89645936Y-103163017D01*
X89552120Y-103350759D01*
X89503992Y-103449550D01*
X89480898Y-103509604D01*
X89480461Y-103545288D01*
X89500302Y-103570973D01*
X89513834Y-103582020D01*
X89589064Y-103638622D01*
X89633268Y-103658572D01*
X89653394Y-103635883D01*
X89656391Y-103564562D01*
X89650835Y-103463918D01*
X89644994Y-103349820D01*
X89648806Y-103275719D01*
X89667200Y-103222034D01*
X89705104Y-103169184D01*
X89733214Y-103136611D01*
X89794626Y-103072629D01*
X89842666Y-103033086D01*
X89857281Y-103026883D01*
X89894706Y-103049124D01*
X89901153Y-103102094D01*
X89876208Y-103165163D01*
X89860462Y-103185285D01*
X89801973Y-103267385D01*
X89776537Y-103359124D01*
X89781068Y-103478065D01*
X89794752Y-103559096D01*
X89816495Y-103657902D01*
X89842612Y-103717529D01*
X89888167Y-103757601D01*
X89968227Y-103797740D01*
X89983215Y-103804558D01*
X90070116Y-103844421D01*
X90132940Y-103874025D01*
X90153471Y-103884407D01*
X90178136Y-103870308D01*
X90206216Y-103810244D01*
X90234325Y-103717627D01*
X90259079Y-103605868D01*
X90277092Y-103488378D01*
X90284977Y-103378569D01*
X90285075Y-103363059D01*
X90286415Y-103249803D01*
X90293645Y-103184060D01*
X90309652Y-103153656D01*
X90336457Y-103146412D01*
X90382729Y-103173395D01*
X90416485Y-103244071D01*
X90434091Y-103343034D01*
X90431910Y-103454875D01*
X90422349Y-103510444D01*
X90399077Y-103618963D01*
X90392985Y-103678998D01*
X90405679Y-103699767D01*
X90438762Y-103690486D01*
X90452470Y-103683451D01*
X90565163Y-103650561D01*
X90690932Y-103656270D01*
X90815889Y-103694144D01*
X90926145Y-103757750D01*
X91007811Y-103840653D01*
X91046998Y-103936421D01*
X91048542Y-103959566D01*
X91024182Y-104035398D01*
X90950307Y-104081621D01*
X90825718Y-104098734D01*
X90724641Y-104095119D01*
X90644762Y-104091709D01*
X90603377Y-104096113D01*
X90605111Y-104104212D01*
X90652394Y-104122505D01*
X90741743Y-104151270D01*
X90858508Y-104186356D01*
X90988044Y-104223612D01*
X91115701Y-104258890D01*
X91226832Y-104288039D01*
X91306789Y-104306909D01*
X91337903Y-104311824D01*
X91388053Y-104295111D01*
X91457742Y-104253957D01*
X91470856Y-104244589D01*
X91534653Y-104206232D01*
X91606202Y-104187099D01*
X91707161Y-104182582D01*
X91757012Y-104183716D01*
X91879036Y-104193645D01*
X92004859Y-104213574D01*
X92120528Y-104240019D01*
X92212084Y-104269499D01*
X92265574Y-104298530D01*
X92273718Y-104312659D01*
X92278223Y-104332646D01*
X92298098Y-104337553D01*
X92342887Y-104324602D01*
X92422132Y-104291015D01*
X92545375Y-104234014D01*
X92547813Y-104232870D01*
X92779738Y-104124034D01*
X92718892Y-104038583D01*
X92671311Y-103943153D01*
X92672999Y-103924636D01*
X92803891Y-103924636D01*
X92830967Y-103958126D01*
X92895769Y-104005740D01*
X92952656Y-104005374D01*
X92976126Y-103982838D01*
X93012669Y-103950732D01*
X93080952Y-103907625D01*
X93104890Y-103894512D01*
X93215012Y-103836348D01*
X93074477Y-103835027D01*
X92971326Y-103841679D01*
X92880812Y-103859940D01*
X92857624Y-103868479D01*
X92806091Y-103896814D01*
X92803891Y-103924636D01*
X92672999Y-103924636D01*
X92678711Y-103861987D01*
X92742936Y-103789068D01*
X92808020Y-103747594D01*
X92880831Y-103710693D01*
X92943049Y-103691998D01*
X93015822Y-103688860D01*
X93120294Y-103698628D01*
X93159741Y-103703523D01*
X93380571Y-103731521D01*
X93561029Y-103580908D01*
X93741488Y-103430294D01*
X93358721Y-103410986D01*
X92942005Y-103382550D01*
X92548081Y-103341014D01*
X92183709Y-103287598D01*
X91855653Y-103223517D01*
X91570678Y-103149990D01*
X91335544Y-103068233D01*
X91254277Y-103032214D01*
X91147817Y-102984680D01*
X91078407Y-102964420D01*
X91031749Y-102968128D01*
X91014387Y-102976721D01*
X90965752Y-102994574D01*
X90930876Y-102972844D01*
X90905789Y-102905082D01*
X90889336Y-102802409D01*
X91155778Y-102802409D01*
X91179972Y-102842049D01*
X91206159Y-102860788D01*
X91324535Y-102922276D01*
X91490651Y-102985932D01*
X91692746Y-103048297D01*
X91919060Y-103105911D01*
X92157834Y-103155315D01*
X92276309Y-103175556D01*
X92464052Y-103202244D01*
X92672271Y-103226804D01*
X92887314Y-103248107D01*
X93095532Y-103265022D01*
X93283272Y-103276419D01*
X93436883Y-103281168D01*
X93528777Y-103279245D01*
X93652188Y-103272245D01*
X93770161Y-103267480D01*
X93837659Y-103266154D01*
X93902849Y-103260447D01*
X93960024Y-103237393D01*
X94024697Y-103187677D01*
X94112379Y-103101985D01*
X94114254Y-103100065D01*
X94215188Y-102991007D01*
X94318647Y-102870230D01*
X94395105Y-102773235D01*
X94466910Y-102667217D01*
X94555515Y-102523340D01*
X94651870Y-102357629D01*
X94746928Y-102186112D01*
X94831638Y-102024815D01*
X94896953Y-101889763D01*
X94907836Y-101865130D01*
X94964273Y-101734319D01*
X94896466Y-101777610D01*
X94684763Y-101907706D01*
X94496075Y-102011174D01*
X94307660Y-102099837D01*
X94156306Y-102162368D01*
X94018446Y-102215540D01*
X93912372Y-102251078D01*
X93818261Y-102272808D01*
X93716290Y-102284562D01*
X93586635Y-102290166D01*
X93483953Y-102292226D01*
X93247109Y-102292218D01*
X93048246Y-102281386D01*
X92866113Y-102256874D01*
X92679460Y-102215826D01*
X92467953Y-102155666D01*
X92288420Y-102093257D01*
X92078964Y-102008638D01*
X91859792Y-101910943D01*
X91651111Y-101809304D01*
X91473127Y-101712854D01*
X91426843Y-101685126D01*
X91318674Y-101618274D01*
X91357804Y-101732402D01*
X91397986Y-101927391D01*
X91398449Y-102146726D01*
X91360584Y-102371373D01*
X91297587Y-102556236D01*
X91262494Y-102626212D01*
X91234091Y-102665319D01*
X91228094Y-102668294D01*
X91202079Y-102692304D01*
X91173603Y-102742793D01*
X91155778Y-102802409D01*
X90889336Y-102802409D01*
X90886520Y-102784840D01*
X90884280Y-102765412D01*
X90874789Y-102662499D01*
X90876734Y-102605719D01*
X90892011Y-102582204D01*
X90911777Y-102578647D01*
X90958040Y-102603301D01*
X90996211Y-102657736D01*
X91032246Y-102736824D01*
X91064678Y-102605441D01*
X91081574Y-102497932D01*
X91070322Y-102396676D01*
X91052356Y-102332666D01*
X91030558Y-102246954D01*
X91024717Y-102185555D01*
X91029505Y-102169370D01*
X91071036Y-102162566D01*
X91121752Y-102199049D01*
X91168215Y-102266793D01*
X91185889Y-102309338D01*
X91208491Y-102372085D01*
X91222037Y-102382457D01*
X91235421Y-102345087D01*
X91237776Y-102336355D01*
X91253671Y-102253325D01*
X91247404Y-102180981D01*
X91213863Y-102101092D01*
X91147942Y-101995430D01*
X91138189Y-101981000D01*
X91078994Y-101889667D01*
X91036244Y-101815765D01*
X91018717Y-101774533D01*
X91018659Y-101773463D01*
X91038726Y-101743195D01*
X91087230Y-101746053D01*
X91146630Y-101776983D01*
X91194514Y-101824118D01*
X91237939Y-101873828D01*
X91256047Y-101874976D01*
X91249961Y-101832603D01*
X91220800Y-101751745D01*
X91169687Y-101637442D01*
X91139090Y-101574976D01*
X91077884Y-101433715D01*
X91011872Y-101248646D01*
X90988979Y-101175004D01*
X91194505Y-101175004D01*
X91197224Y-101201687D01*
X91198483Y-101204059D01*
X91266916Y-101297105D01*
X91374845Y-101394298D01*
X91527030Y-101499005D01*
X91728229Y-101614590D01*
X91915130Y-101710928D01*
X92068794Y-101786156D01*
X92192226Y-101842581D01*
X92306169Y-101888400D01*
X92431368Y-101931807D01*
X92588568Y-101980997D01*
X92632306Y-101994255D01*
X92954188Y-102063705D01*
X93298744Y-102087397D01*
X93649611Y-102064832D01*
X93844663Y-102031398D01*
X93989700Y-101993090D01*
X94146533Y-101940444D01*
X94250313Y-101898323D01*
X94377481Y-101836231D01*
X94528100Y-101755924D01*
X94687021Y-101666194D01*
X94839092Y-101575834D01*
X94969162Y-101493637D01*
X95062081Y-101428394D01*
X95067718Y-101423962D01*
X95134750Y-101370553D01*
X95184029Y-101331245D01*
X95189209Y-101327106D01*
X95213768Y-101280209D01*
X95239789Y-101183748D01*
X95266075Y-101047865D01*
X95291427Y-100882699D01*
X95314648Y-100698393D01*
X95334539Y-100505088D01*
X95349903Y-100312926D01*
X95359541Y-100132046D01*
X95362256Y-99972591D01*
X95359677Y-99884073D01*
X95343698Y-99595028D01*
X95220649Y-99655653D01*
X95127747Y-99716837D01*
X95048807Y-99794070D01*
X95033509Y-99815035D01*
X94994244Y-99878999D01*
X94987312Y-99909999D01*
X95011622Y-99924616D01*
X95026038Y-99928599D01*
X95072822Y-99954572D01*
X95082659Y-99974742D01*
X95060199Y-100004783D01*
X94999565Y-100061085D01*
X94910872Y-100134700D01*
X94836130Y-100192787D01*
X94732521Y-100272814D01*
X94648243Y-100340848D01*
X94593890Y-100388166D01*
X94579288Y-100404362D01*
X94542937Y-100437978D01*
X94465823Y-100482950D01*
X94364031Y-100532196D01*
X94253649Y-100578635D01*
X94150762Y-100615184D01*
X94071457Y-100634762D01*
X94052464Y-100636294D01*
X93975062Y-100646445D01*
X93947131Y-100674863D01*
X93947130Y-100675142D01*
X93927568Y-100739560D01*
X93871002Y-100758864D01*
X93780614Y-100732176D01*
X93766048Y-100725029D01*
X93715331Y-100702268D01*
X93660816Y-100687213D01*
X93590692Y-100678966D01*
X93493145Y-100676629D01*
X93356363Y-100679304D01*
X93225055Y-100683902D01*
X93034340Y-100689417D01*
X92890830Y-100688906D01*
X92782209Y-100681745D01*
X92696163Y-100667310D01*
X92649745Y-100654743D01*
X92561774Y-100629558D01*
X92505640Y-100626105D01*
X92456140Y-100648267D01*
X92395745Y-100693865D01*
X92273090Y-100777815D01*
X92116957Y-100865666D01*
X91941195Y-100951501D01*
X91759651Y-101029402D01*
X91586173Y-101093453D01*
X91434610Y-101137737D01*
X91318810Y-101156337D01*
X91312984Y-101156513D01*
X91229426Y-101161467D01*
X91194505Y-101175004D01*
X90988979Y-101175004D01*
X90945459Y-101035012D01*
X90883049Y-100808054D01*
X90829047Y-100583015D01*
X90787859Y-100375139D01*
X90781843Y-100338826D01*
X90748805Y-100206472D01*
X90699690Y-100101516D01*
X90641145Y-100033707D01*
X90579815Y-100012795D01*
X90562402Y-100016916D01*
X90537898Y-100056538D01*
X90528237Y-100144405D01*
X90532604Y-100271085D01*
X90550181Y-100427147D01*
X90580154Y-100603158D01*
X90621706Y-100789688D01*
X90633108Y-100834201D01*
X90685701Y-101068650D01*
X90708213Y-101264692D01*
X90701170Y-101435251D01*
X90665099Y-101593253D01*
X90664130Y-101596236D01*
X90642922Y-101692785D01*
X90638150Y-101783398D01*
X90638158Y-101783501D01*
X90631880Y-101856529D01*
X90596542Y-101878508D01*
X90531258Y-101849522D01*
X90468015Y-101799611D01*
X90403834Y-101737284D01*
X90382092Y-101695608D01*
X90395287Y-101662227D01*
X90442848Y-101633025D01*
X90468333Y-101634177D01*
X90509938Y-101624465D01*
X90540521Y-101566124D01*
X90559520Y-101469364D01*
X90566371Y-101344399D01*
X90560512Y-101201440D01*
X90541378Y-101050699D01*
X90508638Y-100903215D01*
X90478398Y-100771943D01*
X90449644Y-100608188D01*
X90426892Y-100439154D01*
X90419704Y-100367353D01*
X90406995Y-100227384D01*
X90394698Y-100133133D01*
X90378100Y-100070775D01*
X90352484Y-100026483D01*
X90313138Y-99986432D01*
X90280097Y-99957936D01*
X90266336Y-99949000D01*
X90779600Y-99949000D01*
X90790534Y-99973597D01*
X90799522Y-99968922D01*
X90803098Y-99933459D01*
X90799522Y-99929079D01*
X90781757Y-99933181D01*
X90779600Y-99949000D01*
X90266336Y-99949000D01*
X90177275Y-99891171D01*
X90048369Y-99836311D01*
X89912525Y-99798710D01*
X89788892Y-99783719D01*
X89699401Y-99795594D01*
X89631174Y-99847441D01*
X89575143Y-99948419D01*
X89529885Y-100101999D01*
X89496968Y-100289644D01*
X89473970Y-100495757D01*
X89465044Y-100675443D01*
X89469747Y-100821671D01*
X89487639Y-100927415D01*
X89518279Y-100985645D01*
X89541204Y-100994883D01*
X89591822Y-101014862D01*
X89599552Y-101063460D01*
X89570907Y-101112708D01*
X89539785Y-101154348D01*
X89557502Y-101174703D01*
X89593034Y-101184888D01*
X89668733Y-101233146D01*
X89723413Y-101328604D01*
X89753519Y-101461302D01*
X89755491Y-101621284D01*
X89754221Y-101636112D01*
X89727310Y-101806427D01*
X89679290Y-101931408D01*
X89603993Y-102023590D01*
X89540840Y-102069808D01*
X89420898Y-102118183D01*
X89315234Y-102110740D01*
X89229446Y-102050793D01*
X89169132Y-101941655D01*
X89157370Y-101890393D01*
X89405012Y-101890393D01*
X89409108Y-101957943D01*
X89430297Y-101976271D01*
X89481935Y-101951274D01*
X89506756Y-101935292D01*
X89557483Y-101880636D01*
X89596113Y-101785441D01*
X89614533Y-101710435D01*
X89635205Y-101592401D01*
X89634452Y-101527043D01*
X89610810Y-101510706D01*
X89562818Y-101539733D01*
X89550483Y-101550380D01*
X89473024Y-101651133D01*
X89420563Y-101780958D01*
X89405012Y-101890393D01*
X89157370Y-101890393D01*
X89144738Y-101835344D01*
X89126088Y-101750825D01*
X89102893Y-101722615D01*
X89078552Y-101747787D01*
X89056465Y-101823416D01*
X89042156Y-101923629D01*
X89036678Y-102041872D01*
X88905251Y-102041872D01*
X88905266Y-102040765D01*
X88921883Y-101835289D01*
X88950689Y-101694628D01*
X89257959Y-101694628D01*
X89263454Y-101733386D01*
X89273654Y-101733848D01*
X89280788Y-101693854D01*
X89276013Y-101676574D01*
X89262745Y-101665255D01*
X89257959Y-101694628D01*
X88950689Y-101694628D01*
X88955498Y-101671150D01*
X88963195Y-101652294D01*
X89106189Y-101652294D01*
X89117122Y-101676891D01*
X89126110Y-101672216D01*
X89129686Y-101636753D01*
X89126110Y-101632373D01*
X89108345Y-101636475D01*
X89106189Y-101652294D01*
X88963195Y-101652294D01*
X88988588Y-101590093D01*
X89285483Y-101590093D01*
X89304451Y-101586112D01*
X89354281Y-101547391D01*
X89424362Y-101482219D01*
X89427424Y-101479191D01*
X89494690Y-101407265D01*
X89535818Y-101352682D01*
X89542126Y-101327009D01*
X89541774Y-101326842D01*
X89508787Y-101340684D01*
X89453031Y-101386638D01*
X89388851Y-101449970D01*
X89330589Y-101515948D01*
X89292590Y-101569837D01*
X89285483Y-101590093D01*
X88988588Y-101590093D01*
X89012787Y-101530819D01*
X89100425Y-101396764D01*
X89192078Y-101287580D01*
X89330306Y-101133836D01*
X89333968Y-100758065D01*
X89337082Y-100601649D01*
X89342832Y-100455666D01*
X89350388Y-100336715D01*
X89358678Y-100262765D01*
X89393776Y-100079920D01*
X89427315Y-99944014D01*
X89462875Y-99842441D01*
X89497684Y-99773138D01*
X89557175Y-99671981D01*
X89430069Y-99692306D01*
X89324670Y-99715494D01*
X89215459Y-99754228D01*
X89092298Y-99813537D01*
X88945050Y-99898447D01*
X88763576Y-100013984D01*
X88710065Y-100049309D01*
X88355026Y-100308429D01*
X88056611Y-100578763D01*
X87812850Y-100864494D01*
X87621773Y-101169808D01*
X87481409Y-101498891D01*
X87389788Y-101855926D01*
X87344941Y-102245100D01*
X87344897Y-102670596D01*
X86857279Y-102670596D01*
X86828750Y-102630717D01*
X86786802Y-102565837D01*
X86775365Y-102540092D01*
X86760617Y-102509087D01*
X86721083Y-102439710D01*
X86663829Y-102344158D01*
X86630319Y-102289661D01*
X86506228Y-102084184D01*
X86408167Y-101906364D01*
X86330038Y-101740838D01*
X86265745Y-101572248D01*
X86209193Y-101385231D01*
X86154284Y-101164427D01*
X86116451Y-100994883D01*
X86065522Y-100745674D01*
X86029274Y-100528256D01*
X86005435Y-100321393D01*
X85991731Y-100103845D01*
X85985891Y-99854375D01*
X85985330Y-99769706D01*
X85988537Y-99562382D01*
X86189108Y-99562382D01*
X86195246Y-99881483D01*
X86221510Y-100228446D01*
X86267920Y-100596160D01*
X86286028Y-100711000D01*
X86334202Y-100982147D01*
X86384905Y-101214851D01*
X86443215Y-101421749D01*
X86514211Y-101615478D01*
X86602971Y-101808675D01*
X86714576Y-102013978D01*
X86854103Y-102244023D01*
X86982593Y-102444177D01*
X87119012Y-102653353D01*
X87137784Y-102279824D01*
X87148358Y-102113721D01*
X87162717Y-101948168D01*
X87178861Y-101803829D01*
X87192716Y-101712059D01*
X87281391Y-101393640D01*
X87427412Y-101077090D01*
X87628397Y-100766342D01*
X87881963Y-100465328D01*
X88047852Y-100300786D01*
X88152051Y-100209820D01*
X88281976Y-100105728D01*
X88426881Y-99996127D01*
X88576019Y-99888634D01*
X88718642Y-99790868D01*
X88844004Y-99710447D01*
X88941359Y-99654989D01*
X88986858Y-99635173D01*
X89028109Y-99606867D01*
X89018891Y-99576522D01*
X88965538Y-99560680D01*
X88958276Y-99560530D01*
X88869988Y-99541276D01*
X88753995Y-99489911D01*
X88625404Y-99416028D01*
X88499317Y-99329218D01*
X88390841Y-99239077D01*
X88315080Y-99155195D01*
X88311258Y-99149605D01*
X88271736Y-99083796D01*
X88216483Y-98983722D01*
X88156130Y-98868752D01*
X88143807Y-98844536D01*
X88082927Y-98715322D01*
X88057198Y-98631497D01*
X88069119Y-98588394D01*
X88121189Y-98581347D01*
X88215906Y-98605688D01*
X88262974Y-98621971D01*
X88368734Y-98668529D01*
X88431717Y-98713702D01*
X88448683Y-98751722D01*
X88416393Y-98776824D01*
X88353850Y-98783727D01*
X88254542Y-98783865D01*
X88350841Y-98874124D01*
X88478293Y-98956925D01*
X88583809Y-98989915D01*
X88682547Y-99011350D01*
X88732777Y-99033576D01*
X88745339Y-99064427D01*
X88735854Y-99099804D01*
X88711233Y-99130563D01*
X88659359Y-99138332D01*
X88590221Y-99130961D01*
X88463718Y-99112266D01*
X88551737Y-99190578D01*
X88601614Y-99230984D01*
X88648872Y-99252537D01*
X88711997Y-99258811D01*
X88809471Y-99253380D01*
X88855632Y-99249329D01*
X88984210Y-99241687D01*
X89061474Y-99247454D01*
X89093413Y-99265211D01*
X89091043Y-99307688D01*
X89046289Y-99348608D01*
X88975670Y-99376295D01*
X88928654Y-99381693D01*
X88879682Y-99386250D01*
X88884595Y-99402416D01*
X88897012Y-99411118D01*
X88950757Y-99427404D01*
X89040632Y-99438119D01*
X89108171Y-99440543D01*
X89219611Y-99443414D01*
X89329229Y-99452740D01*
X89445694Y-99470537D01*
X89577674Y-99498824D01*
X89733839Y-99539618D01*
X89922857Y-99594937D01*
X90153396Y-99666798D01*
X90346306Y-99728732D01*
X90495713Y-99775432D01*
X90601031Y-99803446D01*
X90674182Y-99814933D01*
X90727087Y-99812051D01*
X90757189Y-99803139D01*
X90816102Y-99766959D01*
X90839365Y-99727610D01*
X90812621Y-99692254D01*
X90739187Y-99643293D01*
X90629261Y-99585441D01*
X90493043Y-99523412D01*
X90340730Y-99461919D01*
X90182520Y-99405676D01*
X90063691Y-99369081D01*
X89877259Y-99311109D01*
X89732824Y-99252268D01*
X89613183Y-99183501D01*
X89501133Y-99095753D01*
X89442968Y-99042301D01*
X89366164Y-98975380D01*
X89299986Y-98928616D01*
X89268406Y-98914672D01*
X89207093Y-98890928D01*
X89195846Y-98851653D01*
X89230359Y-98806125D01*
X89306328Y-98763625D01*
X89344627Y-98750362D01*
X89430076Y-98729993D01*
X89480314Y-98734491D01*
X89503089Y-98750701D01*
X89521313Y-98787657D01*
X89488092Y-98825572D01*
X89486761Y-98826560D01*
X89459649Y-98852885D01*
X89462822Y-98881502D01*
X89502201Y-98926155D01*
X89547825Y-98968307D01*
X89694136Y-99078146D01*
X89870239Y-99166499D01*
X90089097Y-99239508D01*
X90158747Y-99257773D01*
X90298868Y-99300266D01*
X90460162Y-99360359D01*
X90611709Y-99426358D01*
X90636910Y-99438630D01*
X90884531Y-99561876D01*
X91018831Y-99515868D01*
X91138240Y-99455261D01*
X91264544Y-99360247D01*
X91376525Y-99249125D01*
X91451825Y-99142425D01*
X91474962Y-99088164D01*
X91472798Y-99043081D01*
X91440685Y-98985107D01*
X91409329Y-98940779D01*
X91283802Y-98799497D01*
X91105637Y-98650631D01*
X90884189Y-98499447D01*
X90740870Y-98411996D01*
X90637584Y-98357538D01*
X90566522Y-98333244D01*
X90519882Y-98336281D01*
X90493876Y-98357867D01*
X90450684Y-98388616D01*
X90411832Y-98363660D01*
X90381886Y-98287057D01*
X90374902Y-98252129D01*
X90312822Y-97987827D01*
X90221012Y-97770541D01*
X90095766Y-97593483D01*
X89938999Y-97453878D01*
X89803033Y-97365985D01*
X89631140Y-97269141D01*
X89443842Y-97174020D01*
X89261662Y-97091295D01*
X89173961Y-97056034D01*
X89017615Y-96996797D01*
X88954713Y-97098575D01*
X88897005Y-97166995D01*
X88813020Y-97239165D01*
X88721280Y-97301828D01*
X88640305Y-97341732D01*
X88604469Y-97349236D01*
X88581578Y-97338597D01*
X88545797Y-97302146D01*
X88491620Y-97233078D01*
X88413543Y-97124589D01*
X88355998Y-97042163D01*
X88320130Y-97036636D01*
X88251604Y-97053795D01*
X88221527Y-97065441D01*
X88105130Y-97114780D01*
X88291244Y-97199987D01*
X88398755Y-97254114D01*
X88467784Y-97305510D01*
X88516606Y-97370161D01*
X88542880Y-97420059D01*
X88580590Y-97507244D01*
X88589114Y-97561333D01*
X88571228Y-97599715D01*
X88518369Y-97630113D01*
X88470130Y-97611924D01*
X88448779Y-97553658D01*
X88448777Y-97552916D01*
X88421655Y-97477106D01*
X88348633Y-97399051D01*
X88242224Y-97329143D01*
X88118831Y-97278912D01*
X87943772Y-97197687D01*
X87780043Y-97064295D01*
X87636718Y-96886291D01*
X87624505Y-96867352D01*
X87541864Y-96736647D01*
X87518528Y-96823532D01*
X87510528Y-96934569D01*
X87531773Y-97076192D01*
X87578071Y-97229449D01*
X87637424Y-97361158D01*
X87705740Y-97466621D01*
X87797094Y-97578648D01*
X87899210Y-97685035D01*
X87999810Y-97773579D01*
X88086616Y-97832077D01*
X88126871Y-97847656D01*
X88208868Y-97878377D01*
X88254839Y-97923172D01*
X88254889Y-97970724D01*
X88245269Y-97983049D01*
X88182504Y-98005652D01*
X88090660Y-97983587D01*
X87976280Y-97920172D01*
X87845905Y-97818727D01*
X87757030Y-97735315D01*
X87549769Y-97528053D01*
X87334391Y-97687770D01*
X87200392Y-97796252D01*
X87051669Y-97931899D01*
X86896349Y-98085705D01*
X86742564Y-98248663D01*
X86598443Y-98411767D01*
X86472116Y-98566010D01*
X86371713Y-98702387D01*
X86305364Y-98811892D01*
X86291244Y-98843353D01*
X86237126Y-99036207D01*
X86203074Y-99278253D01*
X86189108Y-99562382D01*
X85988537Y-99562382D01*
X85989835Y-99478549D01*
X86005207Y-99224367D01*
X86030768Y-99012497D01*
X86065841Y-98848274D01*
X86109751Y-98737033D01*
X86118012Y-98723824D01*
X86161428Y-98648340D01*
X86185939Y-98589353D01*
X86227896Y-98467867D01*
X86292389Y-98309461D01*
X86363098Y-98150397D01*
X86505873Y-98150397D01*
X86511697Y-98161829D01*
X86541163Y-98143290D01*
X86599122Y-98091108D01*
X86690423Y-98001612D01*
X86766437Y-97925235D01*
X86892270Y-97802873D01*
X87022764Y-97683912D01*
X87143092Y-97581408D01*
X87238430Y-97508419D01*
X87244159Y-97504498D01*
X87335720Y-97440729D01*
X87406543Y-97387990D01*
X87442955Y-97356521D01*
X87444476Y-97354482D01*
X87445374Y-97313662D01*
X87430611Y-97237096D01*
X87416446Y-97185235D01*
X87390047Y-97075861D01*
X87374640Y-96970140D01*
X87373012Y-96936443D01*
X87371137Y-96868182D01*
X87358092Y-96851294D01*
X87322750Y-96877390D01*
X87309955Y-96888898D01*
X87227261Y-96977214D01*
X87124937Y-97107395D01*
X87010380Y-97268004D01*
X86890985Y-97447601D01*
X86774147Y-97634746D01*
X86667261Y-97818000D01*
X86577722Y-97985923D01*
X86518842Y-98112666D01*
X86505873Y-98150397D01*
X86363098Y-98150397D01*
X86372511Y-98129223D01*
X86461355Y-97942242D01*
X86552012Y-97763608D01*
X86625295Y-97629673D01*
X86814930Y-97319107D01*
X87008936Y-97047135D01*
X87222711Y-96793612D01*
X87413601Y-96595707D01*
X87604749Y-96595707D01*
X87702540Y-96740883D01*
X87767735Y-96833824D01*
X87829716Y-96915973D01*
X87859879Y-96952291D01*
X87919427Y-97018523D01*
X88001675Y-96959958D01*
X88082125Y-96910011D01*
X88154233Y-96875383D01*
X88183654Y-96861636D01*
X88192863Y-96842721D01*
X88176847Y-96810121D01*
X88130591Y-96755316D01*
X88049078Y-96669787D01*
X88008987Y-96628657D01*
X87793431Y-96407942D01*
X87699090Y-96501824D01*
X87604749Y-96595707D01*
X87413601Y-96595707D01*
X87424001Y-96584925D01*
X87699107Y-96313674D01*
X87562182Y-96178450D01*
X88194777Y-96178450D01*
X88344189Y-96282271D01*
X88432089Y-96348508D01*
X88545322Y-96441040D01*
X88665932Y-96544962D01*
X88730010Y-96602584D01*
X88873987Y-96724645D01*
X89012692Y-96824456D01*
X89129915Y-96890387D01*
X89133422Y-96891935D01*
X89257168Y-96945908D01*
X89387657Y-97002797D01*
X89449836Y-97029894D01*
X89562898Y-97083181D01*
X89690946Y-97149288D01*
X89763600Y-97189559D01*
X89868411Y-97248521D01*
X89929740Y-97277590D01*
X89955205Y-97277870D01*
X89952423Y-97250466D01*
X89937457Y-97214765D01*
X89900256Y-97159683D01*
X89866315Y-97140059D01*
X89831898Y-97114764D01*
X89799059Y-97053438D01*
X89797471Y-97049009D01*
X89759721Y-96964858D01*
X89713166Y-96892454D01*
X89668216Y-96844756D01*
X89635281Y-96834723D01*
X89629749Y-96840234D01*
X89590235Y-96869897D01*
X89547578Y-96842359D01*
X89517743Y-96788942D01*
X89422179Y-96629344D01*
X89288488Y-96488731D01*
X89176634Y-96410219D01*
X89039653Y-96333659D01*
X89117744Y-96436042D01*
X89174233Y-96525164D01*
X89194297Y-96592241D01*
X89176156Y-96628311D01*
X89156712Y-96632059D01*
X89116762Y-96612526D01*
X89049571Y-96561307D01*
X88969656Y-96489472D01*
X88969334Y-96489162D01*
X88784055Y-96340790D01*
X88587348Y-96245914D01*
X88373274Y-96199062D01*
X88194777Y-96178450D01*
X87562182Y-96178450D01*
X87536059Y-96152652D01*
X87439582Y-96050488D01*
X87388348Y-95975879D01*
X87379471Y-95920951D01*
X87410066Y-95877824D01*
X87430210Y-95863656D01*
X87486913Y-95844594D01*
X87562781Y-95851578D01*
X87666637Y-95887070D01*
X87807305Y-95953533D01*
X87870643Y-95986570D01*
X88070164Y-96092516D01*
X88137467Y-96052358D01*
X88396133Y-96052358D01*
X88534038Y-96084354D01*
X88623279Y-96101041D01*
X88674164Y-96097114D01*
X88704195Y-96072243D01*
X88727048Y-96054483D01*
X88764900Y-96055465D01*
X88828915Y-96078324D01*
X88930254Y-96126196D01*
X88973611Y-96147927D01*
X89097755Y-96213004D01*
X89216084Y-96279070D01*
X89307380Y-96334178D01*
X89324163Y-96345300D01*
X89397652Y-96391879D01*
X89451784Y-96419557D01*
X89464409Y-96422883D01*
X89499784Y-96444852D01*
X89537384Y-96488720D01*
X89578669Y-96539823D01*
X89649091Y-96619449D01*
X89735980Y-96713413D01*
X89770931Y-96750190D01*
X89892835Y-96890632D01*
X89993094Y-97039820D01*
X90088087Y-97222247D01*
X90091598Y-97229706D01*
X90157086Y-97364104D01*
X90223640Y-97492109D01*
X90281322Y-97594962D01*
X90306284Y-97634938D01*
X90359337Y-97732056D01*
X90411070Y-97855796D01*
X90440280Y-97945273D01*
X90472724Y-98050616D01*
X90504368Y-98114205D01*
X90546615Y-98152789D01*
X90598858Y-98178223D01*
X90751471Y-98253365D01*
X90930357Y-98360776D01*
X91119654Y-98490340D01*
X91278532Y-98611650D01*
X91438438Y-98749390D01*
X91546474Y-98863842D01*
X91604712Y-98957455D01*
X91616962Y-99012319D01*
X91628203Y-99020204D01*
X91656435Y-98981916D01*
X91682167Y-98933000D01*
X91706894Y-98876158D01*
X91724289Y-98817889D01*
X91735518Y-98746687D01*
X91741753Y-98651046D01*
X91744160Y-98519460D01*
X91743910Y-98340422D01*
X91743825Y-98326086D01*
X91740591Y-98149923D01*
X91733627Y-97981895D01*
X91723826Y-97836974D01*
X91712081Y-97730130D01*
X91706420Y-97698557D01*
X91661656Y-97499415D01*
X91626330Y-97348079D01*
X91597598Y-97233864D01*
X91572614Y-97146086D01*
X91548534Y-97074062D01*
X91522512Y-97007108D01*
X91521887Y-97005589D01*
X91392353Y-96744520D01*
X91224026Y-96486652D01*
X91029783Y-96248962D01*
X90822503Y-96048428D01*
X90754723Y-95994272D01*
X90592943Y-95882379D01*
X90392961Y-95760281D01*
X90172684Y-95638361D01*
X89950017Y-95527000D01*
X89943744Y-95524051D01*
X89802491Y-95457781D01*
X90295660Y-95457781D01*
X90316140Y-95480260D01*
X90375406Y-95517742D01*
X90479649Y-95576231D01*
X90510659Y-95593298D01*
X90779369Y-95753944D01*
X91002904Y-95919373D01*
X91194649Y-96102629D01*
X91367988Y-96316754D01*
X91536307Y-96574789D01*
X91561381Y-96617118D01*
X91708299Y-96918571D01*
X91822739Y-97262847D01*
X91902586Y-97641293D01*
X91945724Y-98045253D01*
X91952322Y-98216868D01*
X91959953Y-98621323D01*
X92130203Y-98484420D01*
X92273994Y-98386107D01*
X92430520Y-98306323D01*
X92488791Y-98284042D01*
X92634078Y-98240053D01*
X92760682Y-98211050D01*
X92856834Y-98199104D01*
X92910764Y-98206285D01*
X92914492Y-98209147D01*
X92953357Y-98218965D01*
X93028460Y-98221271D01*
X93059788Y-98219937D01*
X93160035Y-98222742D01*
X93253509Y-98239984D01*
X93322546Y-98266866D01*
X93349483Y-98298591D01*
X93327002Y-98329676D01*
X93270251Y-98380872D01*
X93195267Y-98440025D01*
X93118085Y-98494981D01*
X93054741Y-98533586D01*
X93024992Y-98544530D01*
X92996756Y-98521698D01*
X92993709Y-98469980D01*
X93015543Y-98414543D01*
X93026753Y-98401094D01*
X93047317Y-98371525D01*
X93025793Y-98365236D01*
X92936736Y-98386253D01*
X92833537Y-98440421D01*
X92739627Y-98514410D01*
X92712512Y-98543443D01*
X92638634Y-98609917D01*
X92581800Y-98625755D01*
X92550351Y-98599447D01*
X92552628Y-98539484D01*
X92596971Y-98454359D01*
X92609133Y-98438200D01*
X92650035Y-98383819D01*
X92654169Y-98366045D01*
X92622716Y-98375318D01*
X92616603Y-98377796D01*
X92545879Y-98404361D01*
X92512777Y-98415220D01*
X92478709Y-98446884D01*
X92429326Y-98518551D01*
X92374266Y-98615918D01*
X92364055Y-98635948D01*
X92296577Y-98758308D01*
X92243055Y-98826030D01*
X92200568Y-98841805D01*
X92169943Y-98814786D01*
X92169093Y-98771014D01*
X92189274Y-98698729D01*
X92196537Y-98680316D01*
X92221829Y-98613100D01*
X92230132Y-98576600D01*
X92228579Y-98574412D01*
X92194418Y-98596998D01*
X92140641Y-98654441D01*
X92079863Y-98731271D01*
X92024699Y-98812014D01*
X92000366Y-98854312D01*
X91943506Y-98939888D01*
X91849071Y-99055130D01*
X91725345Y-99191378D01*
X91580611Y-99339975D01*
X91423154Y-99492262D01*
X91261258Y-99639579D01*
X91190483Y-99700823D01*
X91076327Y-99799590D01*
X91000977Y-99870798D01*
X90956566Y-99924217D01*
X90935231Y-99969623D01*
X90929106Y-100016787D01*
X90929012Y-100025735D01*
X90937385Y-100094043D01*
X90957923Y-100127590D01*
X90961760Y-100128294D01*
X91011425Y-100110206D01*
X91095450Y-100061296D01*
X91202785Y-99989600D01*
X91322382Y-99903153D01*
X91443191Y-99809991D01*
X91554162Y-99718147D01*
X91644246Y-99635659D01*
X91657350Y-99622465D01*
X91841754Y-99454278D01*
X92024499Y-99333761D01*
X92220690Y-99251217D01*
X92249733Y-99242245D01*
X92345303Y-99208321D01*
X92420739Y-99171764D01*
X92445920Y-99153538D01*
X92496092Y-99126383D01*
X92532193Y-99151604D01*
X92549311Y-99222520D01*
X92547735Y-99292065D01*
X92526071Y-99384540D01*
X92487635Y-99432895D01*
X92440048Y-99431301D01*
X92407044Y-99399665D01*
X92347686Y-99365809D01*
X92255797Y-99374665D01*
X92137333Y-99423228D01*
X91998252Y-99508489D01*
X91844512Y-99627441D01*
X91705953Y-99753576D01*
X91590721Y-99859974D01*
X91469275Y-99962783D01*
X91360701Y-100046187D01*
X91317483Y-100075496D01*
X91223160Y-100138988D01*
X91144211Y-100199011D01*
X91104089Y-100235985D01*
X91051643Y-100338382D01*
X91032816Y-100475209D01*
X91046498Y-100632257D01*
X91091581Y-100795315D01*
X91158737Y-100936564D01*
X91199953Y-100994622D01*
X91246273Y-101016520D01*
X91323231Y-101013418D01*
X91332092Y-101012348D01*
X91442050Y-100993993D01*
X91548641Y-100969161D01*
X91556542Y-100966897D01*
X91641415Y-100935059D01*
X91760858Y-100881548D01*
X91897862Y-100814878D01*
X92035414Y-100743561D01*
X92156505Y-100676111D01*
X92235127Y-100627269D01*
X92298715Y-100574509D01*
X92317875Y-100524993D01*
X92313121Y-100490866D01*
X92306259Y-100443824D01*
X92328543Y-100428384D01*
X92394522Y-100434826D01*
X92396535Y-100435134D01*
X92488650Y-100456219D01*
X92597353Y-100490321D01*
X92632306Y-100503308D01*
X92757221Y-100536729D01*
X92912381Y-100555503D01*
X92979881Y-100557940D01*
X93089001Y-100556177D01*
X93176478Y-100544849D01*
X93263194Y-100518449D01*
X93273155Y-100514069D01*
X93642272Y-100514069D01*
X93655175Y-100530957D01*
X93681149Y-100542218D01*
X93735980Y-100554286D01*
X93759058Y-100527689D01*
X93762816Y-100510196D01*
X93784778Y-100467822D01*
X93837522Y-100469817D01*
X93959477Y-100499668D01*
X94049189Y-100506243D01*
X94129322Y-100489869D01*
X94169507Y-100474594D01*
X94239407Y-100440868D01*
X94261374Y-100413306D01*
X94246267Y-100382672D01*
X94216790Y-100321719D01*
X94239875Y-100280947D01*
X94310225Y-100265557D01*
X94361952Y-100269070D01*
X94436762Y-100273367D01*
X94500862Y-100257791D01*
X94575834Y-100214790D01*
X94632823Y-100174293D01*
X94711121Y-100115927D01*
X94765703Y-100073538D01*
X94783836Y-100057336D01*
X94757985Y-100053273D01*
X94701659Y-100052411D01*
X94639665Y-100042239D01*
X94619738Y-100002337D01*
X94619483Y-99993824D01*
X94644071Y-99940036D01*
X94683597Y-99924919D01*
X94755442Y-99895616D01*
X94795136Y-99863376D01*
X94811470Y-99839841D01*
X94798014Y-99832906D01*
X94746666Y-99843504D01*
X94649325Y-99872568D01*
X94611492Y-99884535D01*
X94382689Y-99979725D01*
X94201130Y-100098971D01*
X94081985Y-100189233D01*
X93942870Y-100289751D01*
X93815620Y-100377601D01*
X93716136Y-100445175D01*
X93660472Y-100488070D01*
X93642272Y-100514069D01*
X93273155Y-100514069D01*
X93370036Y-100471469D01*
X93443058Y-100435798D01*
X93591269Y-100354915D01*
X93753494Y-100255062D01*
X93898108Y-100155864D01*
X93917247Y-100141555D01*
X94043421Y-100045783D01*
X94128762Y-99978508D01*
X94179436Y-99931304D01*
X94201607Y-99895749D01*
X94201441Y-99863419D01*
X94185102Y-99825889D01*
X94169706Y-99796608D01*
X94139904Y-99709798D01*
X94121172Y-99598872D01*
X94115207Y-99486361D01*
X94123706Y-99394797D01*
X94136736Y-99358824D01*
X94179310Y-99334541D01*
X94255200Y-99321958D01*
X94273864Y-99321471D01*
X94378870Y-99316248D01*
X94477153Y-99303598D01*
X94481277Y-99302794D01*
X94542349Y-99284462D01*
X94568726Y-99249083D01*
X94574643Y-99176190D01*
X94574659Y-99168521D01*
X94574659Y-99056152D01*
X94767331Y-99056152D01*
X94767350Y-99099259D01*
X94773893Y-99201186D01*
X94799029Y-99253014D01*
X94854735Y-99264043D01*
X94952986Y-99243572D01*
X94953144Y-99243529D01*
X95007302Y-99204366D01*
X95041355Y-99138278D01*
X95192734Y-99138278D01*
X95205047Y-99170006D01*
X95258931Y-99161564D01*
X95294202Y-99147547D01*
X95323973Y-99120927D01*
X95324342Y-99067746D01*
X95314910Y-99026841D01*
X95295511Y-98962360D01*
X95277995Y-98945087D01*
X95254426Y-98977852D01*
X95217684Y-99061535D01*
X95192734Y-99138278D01*
X95041355Y-99138278D01*
X95053751Y-99114223D01*
X95065203Y-99081440D01*
X95092271Y-98995648D01*
X95109404Y-98935505D01*
X95112542Y-98919915D01*
X95086327Y-98908904D01*
X95021682Y-98904190D01*
X94939606Y-98905737D01*
X94861095Y-98913508D01*
X94827115Y-98920403D01*
X94791176Y-98938554D01*
X94773010Y-98978530D01*
X94767331Y-99056152D01*
X94574659Y-99056152D01*
X94574659Y-99052924D01*
X94439506Y-99156089D01*
X94344065Y-99218359D01*
X94248122Y-99264533D01*
X94202051Y-99278446D01*
X94094260Y-99284356D01*
X94003554Y-99263941D01*
X93945346Y-99222568D01*
X93932189Y-99184510D01*
X93939595Y-99150767D01*
X93971590Y-99135708D01*
X94042834Y-99134658D01*
X94081600Y-99136852D01*
X94159793Y-99139082D01*
X94220616Y-99128884D01*
X94281787Y-99098845D01*
X94361026Y-99041552D01*
X94418596Y-98995842D01*
X94558076Y-98895510D01*
X94693436Y-98827691D01*
X94845962Y-98784095D01*
X95031982Y-98756947D01*
X95205422Y-98738765D01*
X95080283Y-98657878D01*
X94907242Y-98576474D01*
X94705050Y-98530720D01*
X94495588Y-98525158D01*
X94458617Y-98528798D01*
X94315450Y-98554207D01*
X94172355Y-98593693D01*
X94044793Y-98641595D01*
X93948227Y-98692254D01*
X93902721Y-98732300D01*
X93853058Y-98770045D01*
X93801028Y-98768813D01*
X93769735Y-98731563D01*
X93767836Y-98715029D01*
X93794780Y-98657995D01*
X93866934Y-98594016D01*
X93971283Y-98529618D01*
X94094810Y-98471327D01*
X94224498Y-98425668D01*
X94347330Y-98399166D01*
X94405974Y-98395118D01*
X94503511Y-98395118D01*
X94479192Y-98163530D01*
X94429334Y-97846720D01*
X94344787Y-97501118D01*
X94242705Y-97180266D01*
X94213299Y-97102024D01*
X94441155Y-97102024D01*
X94456299Y-97154024D01*
X94471750Y-97199824D01*
X94526450Y-97378419D01*
X94579589Y-97584687D01*
X94626507Y-97797531D01*
X94662547Y-97995853D01*
X94682817Y-98155728D01*
X94702317Y-98389551D01*
X94825253Y-98409116D01*
X94935502Y-98436646D01*
X95042163Y-98478027D01*
X95052777Y-98483371D01*
X95137487Y-98525401D01*
X95180145Y-98538003D01*
X95190340Y-98521831D01*
X95182794Y-98492236D01*
X95094779Y-98258384D01*
X94982686Y-98004600D01*
X94854761Y-97746749D01*
X94719245Y-97500693D01*
X94584383Y-97282299D01*
X94472422Y-97125118D01*
X94446507Y-97094892D01*
X94441155Y-97102024D01*
X94213299Y-97102024D01*
X94159816Y-96959726D01*
X94081827Y-96786725D01*
X94002319Y-96650121D01*
X93914875Y-96538769D01*
X93821122Y-96448382D01*
X93729641Y-96375219D01*
X93619535Y-96295136D01*
X93503196Y-96216174D01*
X93393018Y-96146373D01*
X93301394Y-96093774D01*
X93240715Y-96066418D01*
X93229143Y-96064294D01*
X93191327Y-96050871D01*
X93114544Y-96014871D01*
X93012094Y-95962702D01*
X92953258Y-95931401D01*
X92782370Y-95847287D01*
X92575169Y-95757883D01*
X92348112Y-95669204D01*
X92117655Y-95587260D01*
X91900255Y-95518065D01*
X91712370Y-95467632D01*
X91644105Y-95453089D01*
X91529111Y-95437495D01*
X91373929Y-95425122D01*
X91192274Y-95416173D01*
X90997860Y-95410851D01*
X90804399Y-95409360D01*
X90625607Y-95411905D01*
X90475197Y-95418688D01*
X90366882Y-95429914D01*
X90346306Y-95433805D01*
X90307778Y-95444297D01*
X90295660Y-95457781D01*
X89802491Y-95457781D01*
X89750358Y-95433323D01*
X89484145Y-95528550D01*
X89293563Y-95601374D01*
X89090228Y-95686962D01*
X88890239Y-95777907D01*
X88709697Y-95866802D01*
X88564699Y-95946241D01*
X88529620Y-95967703D01*
X88396133Y-96052358D01*
X88137467Y-96052358D01*
X88252000Y-95984020D01*
X88349922Y-95924030D01*
X88431598Y-95871200D01*
X88479198Y-95837080D01*
X88530203Y-95805416D01*
X88625426Y-95756404D01*
X88753660Y-95695050D01*
X88903695Y-95626360D01*
X89064323Y-95555338D01*
X89224337Y-95486990D01*
X89372526Y-95426322D01*
X89497683Y-95378339D01*
X89539483Y-95363582D01*
X89690371Y-95318283D01*
X89865207Y-95274759D01*
X90028578Y-95241742D01*
X90043367Y-95239283D01*
X90170186Y-95224260D01*
X90340722Y-95211869D01*
X90541013Y-95202366D01*
X90757098Y-95196007D01*
X90975014Y-95193047D01*
X91180800Y-95193743D01*
G36*
X91180800Y-95193743D02*
G01*
X91360495Y-95198349D01*
X91500135Y-95207122D01*
X91541600Y-95211849D01*
X91624353Y-95228124D01*
X91745918Y-95258155D01*
X91894001Y-95298265D01*
X92056305Y-95344779D01*
X92220537Y-95394022D01*
X92374400Y-95442319D01*
X92505599Y-95485995D01*
X92601839Y-95521373D01*
X92647247Y-95542346D01*
X92715532Y-95576068D01*
X92805783Y-95610704D01*
X92820825Y-95615625D01*
X92933945Y-95660719D01*
X93079462Y-95732187D01*
X93245564Y-95822815D01*
X93420437Y-95925387D01*
X93592270Y-96032688D01*
X93749251Y-96137503D01*
X93879566Y-96232616D01*
X93971405Y-96310812D01*
X93989114Y-96329250D01*
X94043648Y-96376063D01*
X94085464Y-96393000D01*
X94123905Y-96417253D01*
X94167599Y-96476934D01*
X94174730Y-96490118D01*
X94210502Y-96548910D01*
X94274474Y-96643605D01*
X94358561Y-96762617D01*
X94454679Y-96894358D01*
X94488007Y-96939115D01*
X94684203Y-97216360D01*
X94865470Y-97501914D01*
X95022812Y-97780592D01*
X95147232Y-98037208D01*
X95169175Y-98088908D01*
X95243555Y-98280668D01*
X95311590Y-98476890D01*
X95368360Y-98661830D01*
X95408949Y-98819747D01*
X95425666Y-98909892D01*
X95441850Y-98996231D01*
X95461278Y-99054748D01*
X95470337Y-99066981D01*
X95510183Y-99068270D01*
X95590907Y-99056754D01*
X95695604Y-99034897D01*
X95703532Y-99033010D01*
X95844339Y-99004610D01*
X95936901Y-99000777D01*
X95988164Y-99023147D01*
X96005073Y-99073354D01*
X96003543Y-99103644D01*
X95971982Y-99170590D01*
X95897636Y-99253556D01*
X95791575Y-99342644D01*
X95664868Y-99427960D01*
X95599365Y-99464984D01*
X95503483Y-99515737D01*
X95489012Y-100068545D01*
X95483367Y-100253379D01*
X95476618Y-100425660D01*
X95469358Y-100573212D01*
X95462174Y-100683858D01*
X95456409Y-100740883D01*
X95377096Y-101170895D01*
X95277411Y-101547379D01*
X95156411Y-101873325D01*
X95013157Y-102151722D01*
X95011353Y-102154698D01*
X94952627Y-102255337D01*
X94903878Y-102345919D01*
X94878340Y-102400558D01*
X94845793Y-102464991D01*
X94786849Y-102564248D01*
X94710387Y-102684911D01*
X94625288Y-102813561D01*
X94540433Y-102936780D01*
X94464700Y-103041149D01*
X94406971Y-103113252D01*
X94405864Y-103114493D01*
X94354526Y-103165862D01*
X94266404Y-103247789D01*
X94150459Y-103352369D01*
X94015651Y-103471699D01*
X93870943Y-103597876D01*
X93725295Y-103722997D01*
X93587669Y-103839159D01*
X93528777Y-103888022D01*
X93430727Y-103959872D01*
X93292184Y-104049505D01*
X93126715Y-104149228D01*
X92947888Y-104251344D01*
X92769270Y-104348158D01*
X92604430Y-104431977D01*
X92466935Y-104495104D01*
X92436532Y-104507496D01*
X92213909Y-104580310D01*
X91990486Y-104619742D01*
X91924743Y-104625915D01*
X91783034Y-104639003D01*
X91643971Y-104654859D01*
X91533076Y-104670509D01*
X91513990Y-104673812D01*
X91207448Y-104712022D01*
X90865891Y-104723948D01*
X90506475Y-104710964D01*
X90146356Y-104674443D01*
X89802688Y-104615758D01*
X89492626Y-104536284D01*
X89396501Y-104504269D01*
X89359507Y-104492156D01*
X89787355Y-104492156D01*
X89793483Y-104493179D01*
X89842860Y-104498937D01*
X89933642Y-104512032D01*
X90048296Y-104529904D01*
X90077365Y-104534611D01*
X90179162Y-104546842D01*
X90317927Y-104557446D01*
X90482052Y-104566174D01*
X90659930Y-104572780D01*
X90839953Y-104577015D01*
X91010515Y-104578631D01*
X91160008Y-104577381D01*
X91276823Y-104573017D01*
X91349355Y-104565291D01*
X91361425Y-104562027D01*
X91354025Y-104547940D01*
X91295322Y-104523109D01*
X91192304Y-104489990D01*
X91051957Y-104451039D01*
X91027693Y-104444735D01*
X90858231Y-104397215D01*
X90696007Y-104345566D01*
X91569976Y-104345566D01*
X91591840Y-104360087D01*
X91646189Y-104372768D01*
X91738688Y-104386463D01*
X91841755Y-104394631D01*
X91942074Y-104397366D01*
X92026324Y-104394764D01*
X92081189Y-104386919D01*
X92093351Y-104373925D01*
X92087727Y-104369628D01*
X92023211Y-104348209D01*
X91922429Y-104330905D01*
X91806814Y-104319540D01*
X91697800Y-104315940D01*
X91616818Y-104321931D01*
X91596250Y-104327777D01*
X91569976Y-104345566D01*
X90696007Y-104345566D01*
X90685456Y-104342207D01*
X90530424Y-104286773D01*
X90421012Y-104241212D01*
X90196894Y-104136242D01*
X90062424Y-104267181D01*
X89974564Y-104346069D01*
X89888075Y-104413077D01*
X89838306Y-104444435D01*
X89790911Y-104475083D01*
X89787355Y-104492156D01*
X89359507Y-104492156D01*
X89282902Y-104467074D01*
X89214933Y-104453973D01*
X89184165Y-104463584D01*
X89181426Y-104468973D01*
X89166633Y-104517352D01*
X89142168Y-104600886D01*
X89125010Y-104660594D01*
X89080585Y-104797747D01*
X89038724Y-104891818D01*
X89002674Y-104935968D01*
X88993078Y-104938445D01*
X88952008Y-104924159D01*
X88920600Y-104907736D01*
X88869485Y-104846007D01*
X88832607Y-104732533D01*
X88811607Y-104573989D01*
X88807237Y-104446294D01*
X88806908Y-104296883D01*
X89204231Y-104296883D01*
X89297151Y-104331962D01*
X89379113Y-104358823D01*
X89437073Y-104360403D01*
X89461701Y-104343422D01*
X89644071Y-104343422D01*
X89666364Y-104355014D01*
X89723394Y-104339013D01*
X89800386Y-104301296D01*
X89880330Y-104249404D01*
X89961079Y-104178025D01*
X90028688Y-104101469D01*
X90091061Y-104017105D01*
X89986337Y-103952382D01*
X89894456Y-103910477D01*
X89828043Y-103910121D01*
X89795430Y-103950539D01*
X89793483Y-103970370D01*
X89780633Y-104023284D01*
X89747631Y-104106734D01*
X89718777Y-104167998D01*
X89677504Y-104254643D01*
X89650373Y-104320177D01*
X89644071Y-104343422D01*
X89461701Y-104343422D01*
X89482622Y-104328998D01*
X89527353Y-104256905D01*
X89579336Y-104144421D01*
X89623861Y-104040034D01*
X89655531Y-103959232D01*
X89669276Y-103915212D01*
X89668983Y-103910982D01*
X89657192Y-103904099D01*
X90302364Y-103904099D01*
X90321277Y-103960066D01*
X90392478Y-104007860D01*
X90475475Y-104039704D01*
X90465970Y-104021558D01*
X90430036Y-103972919D01*
X90423181Y-103964147D01*
X90379939Y-103895644D01*
X90360832Y-103838654D01*
X90360790Y-103837147D01*
X90357087Y-103811918D01*
X90508885Y-103811918D01*
X90520021Y-103860137D01*
X90541663Y-103887790D01*
X90591398Y-103927393D01*
X90658140Y-103946950D01*
X90762116Y-103952072D01*
X90773294Y-103952021D01*
X90943953Y-103950807D01*
X90840494Y-103862374D01*
X90760257Y-103810201D01*
X90675661Y-103780032D01*
X90598022Y-103770903D01*
X90538658Y-103781853D01*
X90508885Y-103811918D01*
X90357087Y-103811918D01*
X90356098Y-103805185D01*
X90335602Y-103827221D01*
X90331365Y-103833706D01*
X90302364Y-103904099D01*
X89657192Y-103904099D01*
X89639353Y-103893686D01*
X89573799Y-103857113D01*
X89517277Y-103826034D01*
X89375542Y-103748497D01*
X89289886Y-104022690D01*
X89204231Y-104296883D01*
X88806908Y-104296883D01*
X88806776Y-104237118D01*
X88530659Y-104090923D01*
X88278903Y-103946397D01*
X88018880Y-103776966D01*
X87763152Y-103592185D01*
X87524284Y-103401608D01*
X87314840Y-103214788D01*
X87147384Y-103041281D01*
X87141708Y-103034720D01*
X87058459Y-102934684D01*
X86972961Y-102826459D01*
X86893597Y-102721364D01*
X86857279Y-102670596D01*
X87344897Y-102670596D01*
X87362361Y-102912219D01*
X87381168Y-103111320D01*
X87590858Y-103283825D01*
X87939338Y-103555207D01*
X88275885Y-103786992D01*
X88508542Y-103927294D01*
X88636697Y-103998697D01*
X88721912Y-104043286D01*
X88772951Y-104064220D01*
X88798576Y-104064657D01*
X88807553Y-104047757D01*
X88808494Y-104035412D01*
X88817877Y-103924682D01*
X88838902Y-103773575D01*
X88868557Y-103599654D01*
X88903832Y-103420482D01*
X88941716Y-103253623D01*
X88944323Y-103243115D01*
X88960534Y-103164554D01*
X88967692Y-103084410D01*
X88965598Y-102987658D01*
X88954055Y-102859272D01*
X88937441Y-102720174D01*
X88913309Y-102467739D01*
X88902921Y-102215126D01*
X88905251Y-102041872D01*
X89036678Y-102041872D01*
X89037937Y-102200206D01*
X89044898Y-102379465D01*
X89056524Y-102560481D01*
X89071779Y-102724089D01*
X89089627Y-102851122D01*
X89093321Y-102870000D01*
X89114608Y-102936613D01*
X89154625Y-102962988D01*
X89215472Y-102967118D01*
X89358033Y-102991282D01*
X89504234Y-103056964D01*
X89577768Y-103107965D01*
X89645936Y-103163017D01*
X89552120Y-103350759D01*
X89503992Y-103449550D01*
X89480898Y-103509604D01*
X89480461Y-103545288D01*
X89500302Y-103570973D01*
X89513834Y-103582020D01*
X89589064Y-103638622D01*
X89633268Y-103658572D01*
X89653394Y-103635883D01*
X89656391Y-103564562D01*
X89650835Y-103463918D01*
X89644994Y-103349820D01*
X89648806Y-103275719D01*
X89667200Y-103222034D01*
X89705104Y-103169184D01*
X89733214Y-103136611D01*
X89794626Y-103072629D01*
X89842666Y-103033086D01*
X89857281Y-103026883D01*
X89894706Y-103049124D01*
X89901153Y-103102094D01*
X89876208Y-103165163D01*
X89860462Y-103185285D01*
X89801973Y-103267385D01*
X89776537Y-103359124D01*
X89781068Y-103478065D01*
X89794752Y-103559096D01*
X89816495Y-103657902D01*
X89842612Y-103717529D01*
X89888167Y-103757601D01*
X89968227Y-103797740D01*
X89983215Y-103804558D01*
X90070116Y-103844421D01*
X90132940Y-103874025D01*
X90153471Y-103884407D01*
X90178136Y-103870308D01*
X90206216Y-103810244D01*
X90234325Y-103717627D01*
X90259079Y-103605868D01*
X90277092Y-103488378D01*
X90284977Y-103378569D01*
X90285075Y-103363059D01*
X90286415Y-103249803D01*
X90293645Y-103184060D01*
X90309652Y-103153656D01*
X90336457Y-103146412D01*
X90382729Y-103173395D01*
X90416485Y-103244071D01*
X90434091Y-103343034D01*
X90431910Y-103454875D01*
X90422349Y-103510444D01*
X90399077Y-103618963D01*
X90392985Y-103678998D01*
X90405679Y-103699767D01*
X90438762Y-103690486D01*
X90452470Y-103683451D01*
X90565163Y-103650561D01*
X90690932Y-103656270D01*
X90815889Y-103694144D01*
X90926145Y-103757750D01*
X91007811Y-103840653D01*
X91046998Y-103936421D01*
X91048542Y-103959566D01*
X91024182Y-104035398D01*
X90950307Y-104081621D01*
X90825718Y-104098734D01*
X90724641Y-104095119D01*
X90644762Y-104091709D01*
X90603377Y-104096113D01*
X90605111Y-104104212D01*
X90652394Y-104122505D01*
X90741743Y-104151270D01*
X90858508Y-104186356D01*
X90988044Y-104223612D01*
X91115701Y-104258890D01*
X91226832Y-104288039D01*
X91306789Y-104306909D01*
X91337903Y-104311824D01*
X91388053Y-104295111D01*
X91457742Y-104253957D01*
X91470856Y-104244589D01*
X91534653Y-104206232D01*
X91606202Y-104187099D01*
X91707161Y-104182582D01*
X91757012Y-104183716D01*
X91879036Y-104193645D01*
X92004859Y-104213574D01*
X92120528Y-104240019D01*
X92212084Y-104269499D01*
X92265574Y-104298530D01*
X92273718Y-104312659D01*
X92278223Y-104332646D01*
X92298098Y-104337553D01*
X92342887Y-104324602D01*
X92422132Y-104291015D01*
X92545375Y-104234014D01*
X92547813Y-104232870D01*
X92779738Y-104124034D01*
X92718892Y-104038583D01*
X92671311Y-103943153D01*
X92672999Y-103924636D01*
X92803891Y-103924636D01*
X92830967Y-103958126D01*
X92895769Y-104005740D01*
X92952656Y-104005374D01*
X92976126Y-103982838D01*
X93012669Y-103950732D01*
X93080952Y-103907625D01*
X93104890Y-103894512D01*
X93215012Y-103836348D01*
X93074477Y-103835027D01*
X92971326Y-103841679D01*
X92880812Y-103859940D01*
X92857624Y-103868479D01*
X92806091Y-103896814D01*
X92803891Y-103924636D01*
X92672999Y-103924636D01*
X92678711Y-103861987D01*
X92742936Y-103789068D01*
X92808020Y-103747594D01*
X92880831Y-103710693D01*
X92943049Y-103691998D01*
X93015822Y-103688860D01*
X93120294Y-103698628D01*
X93159741Y-103703523D01*
X93380571Y-103731521D01*
X93561029Y-103580908D01*
X93741488Y-103430294D01*
X93358721Y-103410986D01*
X92942005Y-103382550D01*
X92548081Y-103341014D01*
X92183709Y-103287598D01*
X91855653Y-103223517D01*
X91570678Y-103149990D01*
X91335544Y-103068233D01*
X91254277Y-103032214D01*
X91147817Y-102984680D01*
X91078407Y-102964420D01*
X91031749Y-102968128D01*
X91014387Y-102976721D01*
X90965752Y-102994574D01*
X90930876Y-102972844D01*
X90905789Y-102905082D01*
X90889336Y-102802409D01*
X91155778Y-102802409D01*
X91179972Y-102842049D01*
X91206159Y-102860788D01*
X91324535Y-102922276D01*
X91490651Y-102985932D01*
X91692746Y-103048297D01*
X91919060Y-103105911D01*
X92157834Y-103155315D01*
X92276309Y-103175556D01*
X92464052Y-103202244D01*
X92672271Y-103226804D01*
X92887314Y-103248107D01*
X93095532Y-103265022D01*
X93283272Y-103276419D01*
X93436883Y-103281168D01*
X93528777Y-103279245D01*
X93652188Y-103272245D01*
X93770161Y-103267480D01*
X93837659Y-103266154D01*
X93902849Y-103260447D01*
X93960024Y-103237393D01*
X94024697Y-103187677D01*
X94112379Y-103101985D01*
X94114254Y-103100065D01*
X94215188Y-102991007D01*
X94318647Y-102870230D01*
X94395105Y-102773235D01*
X94466910Y-102667217D01*
X94555515Y-102523340D01*
X94651870Y-102357629D01*
X94746928Y-102186112D01*
X94831638Y-102024815D01*
X94896953Y-101889763D01*
X94907836Y-101865130D01*
X94964273Y-101734319D01*
X94896466Y-101777610D01*
X94684763Y-101907706D01*
X94496075Y-102011174D01*
X94307660Y-102099837D01*
X94156306Y-102162368D01*
X94018446Y-102215540D01*
X93912372Y-102251078D01*
X93818261Y-102272808D01*
X93716290Y-102284562D01*
X93586635Y-102290166D01*
X93483953Y-102292226D01*
X93247109Y-102292218D01*
X93048246Y-102281386D01*
X92866113Y-102256874D01*
X92679460Y-102215826D01*
X92467953Y-102155666D01*
X92288420Y-102093257D01*
X92078964Y-102008638D01*
X91859792Y-101910943D01*
X91651111Y-101809304D01*
X91473127Y-101712854D01*
X91426843Y-101685126D01*
X91318674Y-101618274D01*
X91357804Y-101732402D01*
X91397986Y-101927391D01*
X91398449Y-102146726D01*
X91360584Y-102371373D01*
X91297587Y-102556236D01*
X91262494Y-102626212D01*
X91234091Y-102665319D01*
X91228094Y-102668294D01*
X91202079Y-102692304D01*
X91173603Y-102742793D01*
X91155778Y-102802409D01*
X90889336Y-102802409D01*
X90886520Y-102784840D01*
X90884280Y-102765412D01*
X90874789Y-102662499D01*
X90876734Y-102605719D01*
X90892011Y-102582204D01*
X90911777Y-102578647D01*
X90958040Y-102603301D01*
X90996211Y-102657736D01*
X91032246Y-102736824D01*
X91064678Y-102605441D01*
X91081574Y-102497932D01*
X91070322Y-102396676D01*
X91052356Y-102332666D01*
X91030558Y-102246954D01*
X91024717Y-102185555D01*
X91029505Y-102169370D01*
X91071036Y-102162566D01*
X91121752Y-102199049D01*
X91168215Y-102266793D01*
X91185889Y-102309338D01*
X91208491Y-102372085D01*
X91222037Y-102382457D01*
X91235421Y-102345087D01*
X91237776Y-102336355D01*
X91253671Y-102253325D01*
X91247404Y-102180981D01*
X91213863Y-102101092D01*
X91147942Y-101995430D01*
X91138189Y-101981000D01*
X91078994Y-101889667D01*
X91036244Y-101815765D01*
X91018717Y-101774533D01*
X91018659Y-101773463D01*
X91038726Y-101743195D01*
X91087230Y-101746053D01*
X91146630Y-101776983D01*
X91194514Y-101824118D01*
X91237939Y-101873828D01*
X91256047Y-101874976D01*
X91249961Y-101832603D01*
X91220800Y-101751745D01*
X91169687Y-101637442D01*
X91139090Y-101574976D01*
X91077884Y-101433715D01*
X91011872Y-101248646D01*
X90988979Y-101175004D01*
X91194505Y-101175004D01*
X91197224Y-101201687D01*
X91198483Y-101204059D01*
X91266916Y-101297105D01*
X91374845Y-101394298D01*
X91527030Y-101499005D01*
X91728229Y-101614590D01*
X91915130Y-101710928D01*
X92068794Y-101786156D01*
X92192226Y-101842581D01*
X92306169Y-101888400D01*
X92431368Y-101931807D01*
X92588568Y-101980997D01*
X92632306Y-101994255D01*
X92954188Y-102063705D01*
X93298744Y-102087397D01*
X93649611Y-102064832D01*
X93844663Y-102031398D01*
X93989700Y-101993090D01*
X94146533Y-101940444D01*
X94250313Y-101898323D01*
X94377481Y-101836231D01*
X94528100Y-101755924D01*
X94687021Y-101666194D01*
X94839092Y-101575834D01*
X94969162Y-101493637D01*
X95062081Y-101428394D01*
X95067718Y-101423962D01*
X95134750Y-101370553D01*
X95184029Y-101331245D01*
X95189209Y-101327106D01*
X95213768Y-101280209D01*
X95239789Y-101183748D01*
X95266075Y-101047865D01*
X95291427Y-100882699D01*
X95314648Y-100698393D01*
X95334539Y-100505088D01*
X95349903Y-100312926D01*
X95359541Y-100132046D01*
X95362256Y-99972591D01*
X95359677Y-99884073D01*
X95343698Y-99595028D01*
X95220649Y-99655653D01*
X95127747Y-99716837D01*
X95048807Y-99794070D01*
X95033509Y-99815035D01*
X94994244Y-99878999D01*
X94987312Y-99909999D01*
X95011622Y-99924616D01*
X95026038Y-99928599D01*
X95072822Y-99954572D01*
X95082659Y-99974742D01*
X95060199Y-100004783D01*
X94999565Y-100061085D01*
X94910872Y-100134700D01*
X94836130Y-100192787D01*
X94732521Y-100272814D01*
X94648243Y-100340848D01*
X94593890Y-100388166D01*
X94579288Y-100404362D01*
X94542937Y-100437978D01*
X94465823Y-100482950D01*
X94364031Y-100532196D01*
X94253649Y-100578635D01*
X94150762Y-100615184D01*
X94071457Y-100634762D01*
X94052464Y-100636294D01*
X93975062Y-100646445D01*
X93947131Y-100674863D01*
X93947130Y-100675142D01*
X93927568Y-100739560D01*
X93871002Y-100758864D01*
X93780614Y-100732176D01*
X93766048Y-100725029D01*
X93715331Y-100702268D01*
X93660816Y-100687213D01*
X93590692Y-100678966D01*
X93493145Y-100676629D01*
X93356363Y-100679304D01*
X93225055Y-100683902D01*
X93034340Y-100689417D01*
X92890830Y-100688906D01*
X92782209Y-100681745D01*
X92696163Y-100667310D01*
X92649745Y-100654743D01*
X92561774Y-100629558D01*
X92505640Y-100626105D01*
X92456140Y-100648267D01*
X92395745Y-100693865D01*
X92273090Y-100777815D01*
X92116957Y-100865666D01*
X91941195Y-100951501D01*
X91759651Y-101029402D01*
X91586173Y-101093453D01*
X91434610Y-101137737D01*
X91318810Y-101156337D01*
X91312984Y-101156513D01*
X91229426Y-101161467D01*
X91194505Y-101175004D01*
X90988979Y-101175004D01*
X90945459Y-101035012D01*
X90883049Y-100808054D01*
X90829047Y-100583015D01*
X90787859Y-100375139D01*
X90781843Y-100338826D01*
X90748805Y-100206472D01*
X90699690Y-100101516D01*
X90641145Y-100033707D01*
X90579815Y-100012795D01*
X90562402Y-100016916D01*
X90537898Y-100056538D01*
X90528237Y-100144405D01*
X90532604Y-100271085D01*
X90550181Y-100427147D01*
X90580154Y-100603158D01*
X90621706Y-100789688D01*
X90633108Y-100834201D01*
X90685701Y-101068650D01*
X90708213Y-101264692D01*
X90701170Y-101435251D01*
X90665099Y-101593253D01*
X90664130Y-101596236D01*
X90642922Y-101692785D01*
X90638150Y-101783398D01*
X90638158Y-101783501D01*
X90631880Y-101856529D01*
X90596542Y-101878508D01*
X90531258Y-101849522D01*
X90468015Y-101799611D01*
X90403834Y-101737284D01*
X90382092Y-101695608D01*
X90395287Y-101662227D01*
X90442848Y-101633025D01*
X90468333Y-101634177D01*
X90509938Y-101624465D01*
X90540521Y-101566124D01*
X90559520Y-101469364D01*
X90566371Y-101344399D01*
X90560512Y-101201440D01*
X90541378Y-101050699D01*
X90508638Y-100903215D01*
X90478398Y-100771943D01*
X90449644Y-100608188D01*
X90426892Y-100439154D01*
X90419704Y-100367353D01*
X90406995Y-100227384D01*
X90394698Y-100133133D01*
X90378100Y-100070775D01*
X90352484Y-100026483D01*
X90313138Y-99986432D01*
X90280097Y-99957936D01*
X90266336Y-99949000D01*
X90779600Y-99949000D01*
X90790534Y-99973597D01*
X90799522Y-99968922D01*
X90803098Y-99933459D01*
X90799522Y-99929079D01*
X90781757Y-99933181D01*
X90779600Y-99949000D01*
X90266336Y-99949000D01*
X90177275Y-99891171D01*
X90048369Y-99836311D01*
X89912525Y-99798710D01*
X89788892Y-99783719D01*
X89699401Y-99795594D01*
X89631174Y-99847441D01*
X89575143Y-99948419D01*
X89529885Y-100101999D01*
X89496968Y-100289644D01*
X89473970Y-100495757D01*
X89465044Y-100675443D01*
X89469747Y-100821671D01*
X89487639Y-100927415D01*
X89518279Y-100985645D01*
X89541204Y-100994883D01*
X89591822Y-101014862D01*
X89599552Y-101063460D01*
X89570907Y-101112708D01*
X89539785Y-101154348D01*
X89557502Y-101174703D01*
X89593034Y-101184888D01*
X89668733Y-101233146D01*
X89723413Y-101328604D01*
X89753519Y-101461302D01*
X89755491Y-101621284D01*
X89754221Y-101636112D01*
X89727310Y-101806427D01*
X89679290Y-101931408D01*
X89603993Y-102023590D01*
X89540840Y-102069808D01*
X89420898Y-102118183D01*
X89315234Y-102110740D01*
X89229446Y-102050793D01*
X89169132Y-101941655D01*
X89157370Y-101890393D01*
X89405012Y-101890393D01*
X89409108Y-101957943D01*
X89430297Y-101976271D01*
X89481935Y-101951274D01*
X89506756Y-101935292D01*
X89557483Y-101880636D01*
X89596113Y-101785441D01*
X89614533Y-101710435D01*
X89635205Y-101592401D01*
X89634452Y-101527043D01*
X89610810Y-101510706D01*
X89562818Y-101539733D01*
X89550483Y-101550380D01*
X89473024Y-101651133D01*
X89420563Y-101780958D01*
X89405012Y-101890393D01*
X89157370Y-101890393D01*
X89144738Y-101835344D01*
X89126088Y-101750825D01*
X89102893Y-101722615D01*
X89078552Y-101747787D01*
X89056465Y-101823416D01*
X89042156Y-101923629D01*
X89036678Y-102041872D01*
X88905251Y-102041872D01*
X88905266Y-102040765D01*
X88921883Y-101835289D01*
X88950689Y-101694628D01*
X89257959Y-101694628D01*
X89263454Y-101733386D01*
X89273654Y-101733848D01*
X89280788Y-101693854D01*
X89276013Y-101676574D01*
X89262745Y-101665255D01*
X89257959Y-101694628D01*
X88950689Y-101694628D01*
X88955498Y-101671150D01*
X88963195Y-101652294D01*
X89106189Y-101652294D01*
X89117122Y-101676891D01*
X89126110Y-101672216D01*
X89129686Y-101636753D01*
X89126110Y-101632373D01*
X89108345Y-101636475D01*
X89106189Y-101652294D01*
X88963195Y-101652294D01*
X88988588Y-101590093D01*
X89285483Y-101590093D01*
X89304451Y-101586112D01*
X89354281Y-101547391D01*
X89424362Y-101482219D01*
X89427424Y-101479191D01*
X89494690Y-101407265D01*
X89535818Y-101352682D01*
X89542126Y-101327009D01*
X89541774Y-101326842D01*
X89508787Y-101340684D01*
X89453031Y-101386638D01*
X89388851Y-101449970D01*
X89330589Y-101515948D01*
X89292590Y-101569837D01*
X89285483Y-101590093D01*
X88988588Y-101590093D01*
X89012787Y-101530819D01*
X89100425Y-101396764D01*
X89192078Y-101287580D01*
X89330306Y-101133836D01*
X89333968Y-100758065D01*
X89337082Y-100601649D01*
X89342832Y-100455666D01*
X89350388Y-100336715D01*
X89358678Y-100262765D01*
X89393776Y-100079920D01*
X89427315Y-99944014D01*
X89462875Y-99842441D01*
X89497684Y-99773138D01*
X89557175Y-99671981D01*
X89430069Y-99692306D01*
X89324670Y-99715494D01*
X89215459Y-99754228D01*
X89092298Y-99813537D01*
X88945050Y-99898447D01*
X88763576Y-100013984D01*
X88710065Y-100049309D01*
X88355026Y-100308429D01*
X88056611Y-100578763D01*
X87812850Y-100864494D01*
X87621773Y-101169808D01*
X87481409Y-101498891D01*
X87389788Y-101855926D01*
X87344941Y-102245100D01*
X87344897Y-102670596D01*
X86857279Y-102670596D01*
X86828750Y-102630717D01*
X86786802Y-102565837D01*
X86775365Y-102540092D01*
X86760617Y-102509087D01*
X86721083Y-102439710D01*
X86663829Y-102344158D01*
X86630319Y-102289661D01*
X86506228Y-102084184D01*
X86408167Y-101906364D01*
X86330038Y-101740838D01*
X86265745Y-101572248D01*
X86209193Y-101385231D01*
X86154284Y-101164427D01*
X86116451Y-100994883D01*
X86065522Y-100745674D01*
X86029274Y-100528256D01*
X86005435Y-100321393D01*
X85991731Y-100103845D01*
X85985891Y-99854375D01*
X85985330Y-99769706D01*
X85988537Y-99562382D01*
X86189108Y-99562382D01*
X86195246Y-99881483D01*
X86221510Y-100228446D01*
X86267920Y-100596160D01*
X86286028Y-100711000D01*
X86334202Y-100982147D01*
X86384905Y-101214851D01*
X86443215Y-101421749D01*
X86514211Y-101615478D01*
X86602971Y-101808675D01*
X86714576Y-102013978D01*
X86854103Y-102244023D01*
X86982593Y-102444177D01*
X87119012Y-102653353D01*
X87137784Y-102279824D01*
X87148358Y-102113721D01*
X87162717Y-101948168D01*
X87178861Y-101803829D01*
X87192716Y-101712059D01*
X87281391Y-101393640D01*
X87427412Y-101077090D01*
X87628397Y-100766342D01*
X87881963Y-100465328D01*
X88047852Y-100300786D01*
X88152051Y-100209820D01*
X88281976Y-100105728D01*
X88426881Y-99996127D01*
X88576019Y-99888634D01*
X88718642Y-99790868D01*
X88844004Y-99710447D01*
X88941359Y-99654989D01*
X88986858Y-99635173D01*
X89028109Y-99606867D01*
X89018891Y-99576522D01*
X88965538Y-99560680D01*
X88958276Y-99560530D01*
X88869988Y-99541276D01*
X88753995Y-99489911D01*
X88625404Y-99416028D01*
X88499317Y-99329218D01*
X88390841Y-99239077D01*
X88315080Y-99155195D01*
X88311258Y-99149605D01*
X88271736Y-99083796D01*
X88216483Y-98983722D01*
X88156130Y-98868752D01*
X88143807Y-98844536D01*
X88082927Y-98715322D01*
X88057198Y-98631497D01*
X88069119Y-98588394D01*
X88121189Y-98581347D01*
X88215906Y-98605688D01*
X88262974Y-98621971D01*
X88368734Y-98668529D01*
X88431717Y-98713702D01*
X88448683Y-98751722D01*
X88416393Y-98776824D01*
X88353850Y-98783727D01*
X88254542Y-98783865D01*
X88350841Y-98874124D01*
X88478293Y-98956925D01*
X88583809Y-98989915D01*
X88682547Y-99011350D01*
X88732777Y-99033576D01*
X88745339Y-99064427D01*
X88735854Y-99099804D01*
X88711233Y-99130563D01*
X88659359Y-99138332D01*
X88590221Y-99130961D01*
X88463718Y-99112266D01*
X88551737Y-99190578D01*
X88601614Y-99230984D01*
X88648872Y-99252537D01*
X88711997Y-99258811D01*
X88809471Y-99253380D01*
X88855632Y-99249329D01*
X88984210Y-99241687D01*
X89061474Y-99247454D01*
X89093413Y-99265211D01*
X89091043Y-99307688D01*
X89046289Y-99348608D01*
X88975670Y-99376295D01*
X88928654Y-99381693D01*
X88879682Y-99386250D01*
X88884595Y-99402416D01*
X88897012Y-99411118D01*
X88950757Y-99427404D01*
X89040632Y-99438119D01*
X89108171Y-99440543D01*
X89219611Y-99443414D01*
X89329229Y-99452740D01*
X89445694Y-99470537D01*
X89577674Y-99498824D01*
X89733839Y-99539618D01*
X89922857Y-99594937D01*
X90153396Y-99666798D01*
X90346306Y-99728732D01*
X90495713Y-99775432D01*
X90601031Y-99803446D01*
X90674182Y-99814933D01*
X90727087Y-99812051D01*
X90757189Y-99803139D01*
X90816102Y-99766959D01*
X90839365Y-99727610D01*
X90812621Y-99692254D01*
X90739187Y-99643293D01*
X90629261Y-99585441D01*
X90493043Y-99523412D01*
X90340730Y-99461919D01*
X90182520Y-99405676D01*
X90063691Y-99369081D01*
X89877259Y-99311109D01*
X89732824Y-99252268D01*
X89613183Y-99183501D01*
X89501133Y-99095753D01*
X89442968Y-99042301D01*
X89366164Y-98975380D01*
X89299986Y-98928616D01*
X89268406Y-98914672D01*
X89207093Y-98890928D01*
X89195846Y-98851653D01*
X89230359Y-98806125D01*
X89306328Y-98763625D01*
X89344627Y-98750362D01*
X89430076Y-98729993D01*
X89480314Y-98734491D01*
X89503089Y-98750701D01*
X89521313Y-98787657D01*
X89488092Y-98825572D01*
X89486761Y-98826560D01*
X89459649Y-98852885D01*
X89462822Y-98881502D01*
X89502201Y-98926155D01*
X89547825Y-98968307D01*
X89694136Y-99078146D01*
X89870239Y-99166499D01*
X90089097Y-99239508D01*
X90158747Y-99257773D01*
X90298868Y-99300266D01*
X90460162Y-99360359D01*
X90611709Y-99426358D01*
X90636910Y-99438630D01*
X90884531Y-99561876D01*
X91018831Y-99515868D01*
X91138240Y-99455261D01*
X91264544Y-99360247D01*
X91376525Y-99249125D01*
X91451825Y-99142425D01*
X91474962Y-99088164D01*
X91472798Y-99043081D01*
X91440685Y-98985107D01*
X91409329Y-98940779D01*
X91283802Y-98799497D01*
X91105637Y-98650631D01*
X90884189Y-98499447D01*
X90740870Y-98411996D01*
X90637584Y-98357538D01*
X90566522Y-98333244D01*
X90519882Y-98336281D01*
X90493876Y-98357867D01*
X90450684Y-98388616D01*
X90411832Y-98363660D01*
X90381886Y-98287057D01*
X90374902Y-98252129D01*
X90312822Y-97987827D01*
X90221012Y-97770541D01*
X90095766Y-97593483D01*
X89938999Y-97453878D01*
X89803033Y-97365985D01*
X89631140Y-97269141D01*
X89443842Y-97174020D01*
X89261662Y-97091295D01*
X89173961Y-97056034D01*
X89017615Y-96996797D01*
X88954713Y-97098575D01*
X88897005Y-97166995D01*
X88813020Y-97239165D01*
X88721280Y-97301828D01*
X88640305Y-97341732D01*
X88604469Y-97349236D01*
X88581578Y-97338597D01*
X88545797Y-97302146D01*
X88491620Y-97233078D01*
X88413543Y-97124589D01*
X88355998Y-97042163D01*
X88320130Y-97036636D01*
X88251604Y-97053795D01*
X88221527Y-97065441D01*
X88105130Y-97114780D01*
X88291244Y-97199987D01*
X88398755Y-97254114D01*
X88467784Y-97305510D01*
X88516606Y-97370161D01*
X88542880Y-97420059D01*
X88580590Y-97507244D01*
X88589114Y-97561333D01*
X88571228Y-97599715D01*
X88518369Y-97630113D01*
X88470130Y-97611924D01*
X88448779Y-97553658D01*
X88448777Y-97552916D01*
X88421655Y-97477106D01*
X88348633Y-97399051D01*
X88242224Y-97329143D01*
X88118831Y-97278912D01*
X87943772Y-97197687D01*
X87780043Y-97064295D01*
X87636718Y-96886291D01*
X87624505Y-96867352D01*
X87541864Y-96736647D01*
X87518528Y-96823532D01*
X87510528Y-96934569D01*
X87531773Y-97076192D01*
X87578071Y-97229449D01*
X87637424Y-97361158D01*
X87705740Y-97466621D01*
X87797094Y-97578648D01*
X87899210Y-97685035D01*
X87999810Y-97773579D01*
X88086616Y-97832077D01*
X88126871Y-97847656D01*
X88208868Y-97878377D01*
X88254839Y-97923172D01*
X88254889Y-97970724D01*
X88245269Y-97983049D01*
X88182504Y-98005652D01*
X88090660Y-97983587D01*
X87976280Y-97920172D01*
X87845905Y-97818727D01*
X87757030Y-97735315D01*
X87549769Y-97528053D01*
X87334391Y-97687770D01*
X87200392Y-97796252D01*
X87051669Y-97931899D01*
X86896349Y-98085705D01*
X86742564Y-98248663D01*
X86598443Y-98411767D01*
X86472116Y-98566010D01*
X86371713Y-98702387D01*
X86305364Y-98811892D01*
X86291244Y-98843353D01*
X86237126Y-99036207D01*
X86203074Y-99278253D01*
X86189108Y-99562382D01*
X85988537Y-99562382D01*
X85989835Y-99478549D01*
X86005207Y-99224367D01*
X86030768Y-99012497D01*
X86065841Y-98848274D01*
X86109751Y-98737033D01*
X86118012Y-98723824D01*
X86161428Y-98648340D01*
X86185939Y-98589353D01*
X86227896Y-98467867D01*
X86292389Y-98309461D01*
X86363098Y-98150397D01*
X86505873Y-98150397D01*
X86511697Y-98161829D01*
X86541163Y-98143290D01*
X86599122Y-98091108D01*
X86690423Y-98001612D01*
X86766437Y-97925235D01*
X86892270Y-97802873D01*
X87022764Y-97683912D01*
X87143092Y-97581408D01*
X87238430Y-97508419D01*
X87244159Y-97504498D01*
X87335720Y-97440729D01*
X87406543Y-97387990D01*
X87442955Y-97356521D01*
X87444476Y-97354482D01*
X87445374Y-97313662D01*
X87430611Y-97237096D01*
X87416446Y-97185235D01*
X87390047Y-97075861D01*
X87374640Y-96970140D01*
X87373012Y-96936443D01*
X87371137Y-96868182D01*
X87358092Y-96851294D01*
X87322750Y-96877390D01*
X87309955Y-96888898D01*
X87227261Y-96977214D01*
X87124937Y-97107395D01*
X87010380Y-97268004D01*
X86890985Y-97447601D01*
X86774147Y-97634746D01*
X86667261Y-97818000D01*
X86577722Y-97985923D01*
X86518842Y-98112666D01*
X86505873Y-98150397D01*
X86363098Y-98150397D01*
X86372511Y-98129223D01*
X86461355Y-97942242D01*
X86552012Y-97763608D01*
X86625295Y-97629673D01*
X86814930Y-97319107D01*
X87008936Y-97047135D01*
X87222711Y-96793612D01*
X87413601Y-96595707D01*
X87604749Y-96595707D01*
X87702540Y-96740883D01*
X87767735Y-96833824D01*
X87829716Y-96915973D01*
X87859879Y-96952291D01*
X87919427Y-97018523D01*
X88001675Y-96959958D01*
X88082125Y-96910011D01*
X88154233Y-96875383D01*
X88183654Y-96861636D01*
X88192863Y-96842721D01*
X88176847Y-96810121D01*
X88130591Y-96755316D01*
X88049078Y-96669787D01*
X88008987Y-96628657D01*
X87793431Y-96407942D01*
X87699090Y-96501824D01*
X87604749Y-96595707D01*
X87413601Y-96595707D01*
X87424001Y-96584925D01*
X87699107Y-96313674D01*
X87562182Y-96178450D01*
X88194777Y-96178450D01*
X88344189Y-96282271D01*
X88432089Y-96348508D01*
X88545322Y-96441040D01*
X88665932Y-96544962D01*
X88730010Y-96602584D01*
X88873987Y-96724645D01*
X89012692Y-96824456D01*
X89129915Y-96890387D01*
X89133422Y-96891935D01*
X89257168Y-96945908D01*
X89387657Y-97002797D01*
X89449836Y-97029894D01*
X89562898Y-97083181D01*
X89690946Y-97149288D01*
X89763600Y-97189559D01*
X89868411Y-97248521D01*
X89929740Y-97277590D01*
X89955205Y-97277870D01*
X89952423Y-97250466D01*
X89937457Y-97214765D01*
X89900256Y-97159683D01*
X89866315Y-97140059D01*
X89831898Y-97114764D01*
X89799059Y-97053438D01*
X89797471Y-97049009D01*
X89759721Y-96964858D01*
X89713166Y-96892454D01*
X89668216Y-96844756D01*
X89635281Y-96834723D01*
X89629749Y-96840234D01*
X89590235Y-96869897D01*
X89547578Y-96842359D01*
X89517743Y-96788942D01*
X89422179Y-96629344D01*
X89288488Y-96488731D01*
X89176634Y-96410219D01*
X89039653Y-96333659D01*
X89117744Y-96436042D01*
X89174233Y-96525164D01*
X89194297Y-96592241D01*
X89176156Y-96628311D01*
X89156712Y-96632059D01*
X89116762Y-96612526D01*
X89049571Y-96561307D01*
X88969656Y-96489472D01*
X88969334Y-96489162D01*
X88784055Y-96340790D01*
X88587348Y-96245914D01*
X88373274Y-96199062D01*
X88194777Y-96178450D01*
X87562182Y-96178450D01*
X87536059Y-96152652D01*
X87439582Y-96050488D01*
X87388348Y-95975879D01*
X87379471Y-95920951D01*
X87410066Y-95877824D01*
X87430210Y-95863656D01*
X87486913Y-95844594D01*
X87562781Y-95851578D01*
X87666637Y-95887070D01*
X87807305Y-95953533D01*
X87870643Y-95986570D01*
X88070164Y-96092516D01*
X88137467Y-96052358D01*
X88396133Y-96052358D01*
X88534038Y-96084354D01*
X88623279Y-96101041D01*
X88674164Y-96097114D01*
X88704195Y-96072243D01*
X88727048Y-96054483D01*
X88764900Y-96055465D01*
X88828915Y-96078324D01*
X88930254Y-96126196D01*
X88973611Y-96147927D01*
X89097755Y-96213004D01*
X89216084Y-96279070D01*
X89307380Y-96334178D01*
X89324163Y-96345300D01*
X89397652Y-96391879D01*
X89451784Y-96419557D01*
X89464409Y-96422883D01*
X89499784Y-96444852D01*
X89537384Y-96488720D01*
X89578669Y-96539823D01*
X89649091Y-96619449D01*
X89735980Y-96713413D01*
X89770931Y-96750190D01*
X89892835Y-96890632D01*
X89993094Y-97039820D01*
X90088087Y-97222247D01*
X90091598Y-97229706D01*
X90157086Y-97364104D01*
X90223640Y-97492109D01*
X90281322Y-97594962D01*
X90306284Y-97634938D01*
X90359337Y-97732056D01*
X90411070Y-97855796D01*
X90440280Y-97945273D01*
X90472724Y-98050616D01*
X90504368Y-98114205D01*
X90546615Y-98152789D01*
X90598858Y-98178223D01*
X90751471Y-98253365D01*
X90930357Y-98360776D01*
X91119654Y-98490340D01*
X91278532Y-98611650D01*
X91438438Y-98749390D01*
X91546474Y-98863842D01*
X91604712Y-98957455D01*
X91616962Y-99012319D01*
X91628203Y-99020204D01*
X91656435Y-98981916D01*
X91682167Y-98933000D01*
X91706894Y-98876158D01*
X91724289Y-98817889D01*
X91735518Y-98746687D01*
X91741753Y-98651046D01*
X91744160Y-98519460D01*
X91743910Y-98340422D01*
X91743825Y-98326086D01*
X91740591Y-98149923D01*
X91733627Y-97981895D01*
X91723826Y-97836974D01*
X91712081Y-97730130D01*
X91706420Y-97698557D01*
X91661656Y-97499415D01*
X91626330Y-97348079D01*
X91597598Y-97233864D01*
X91572614Y-97146086D01*
X91548534Y-97074062D01*
X91522512Y-97007108D01*
X91521887Y-97005589D01*
X91392353Y-96744520D01*
X91224026Y-96486652D01*
X91029783Y-96248962D01*
X90822503Y-96048428D01*
X90754723Y-95994272D01*
X90592943Y-95882379D01*
X90392961Y-95760281D01*
X90172684Y-95638361D01*
X89950017Y-95527000D01*
X89943744Y-95524051D01*
X89802491Y-95457781D01*
X90295660Y-95457781D01*
X90316140Y-95480260D01*
X90375406Y-95517742D01*
X90479649Y-95576231D01*
X90510659Y-95593298D01*
X90779369Y-95753944D01*
X91002904Y-95919373D01*
X91194649Y-96102629D01*
X91367988Y-96316754D01*
X91536307Y-96574789D01*
X91561381Y-96617118D01*
X91708299Y-96918571D01*
X91822739Y-97262847D01*
X91902586Y-97641293D01*
X91945724Y-98045253D01*
X91952322Y-98216868D01*
X91959953Y-98621323D01*
X92130203Y-98484420D01*
X92273994Y-98386107D01*
X92430520Y-98306323D01*
X92488791Y-98284042D01*
X92634078Y-98240053D01*
X92760682Y-98211050D01*
X92856834Y-98199104D01*
X92910764Y-98206285D01*
X92914492Y-98209147D01*
X92953357Y-98218965D01*
X93028460Y-98221271D01*
X93059788Y-98219937D01*
X93160035Y-98222742D01*
X93253509Y-98239984D01*
X93322546Y-98266866D01*
X93349483Y-98298591D01*
X93327002Y-98329676D01*
X93270251Y-98380872D01*
X93195267Y-98440025D01*
X93118085Y-98494981D01*
X93054741Y-98533586D01*
X93024992Y-98544530D01*
X92996756Y-98521698D01*
X92993709Y-98469980D01*
X93015543Y-98414543D01*
X93026753Y-98401094D01*
X93047317Y-98371525D01*
X93025793Y-98365236D01*
X92936736Y-98386253D01*
X92833537Y-98440421D01*
X92739627Y-98514410D01*
X92712512Y-98543443D01*
X92638634Y-98609917D01*
X92581800Y-98625755D01*
X92550351Y-98599447D01*
X92552628Y-98539484D01*
X92596971Y-98454359D01*
X92609133Y-98438200D01*
X92650035Y-98383819D01*
X92654169Y-98366045D01*
X92622716Y-98375318D01*
X92616603Y-98377796D01*
X92545879Y-98404361D01*
X92512777Y-98415220D01*
X92478709Y-98446884D01*
X92429326Y-98518551D01*
X92374266Y-98615918D01*
X92364055Y-98635948D01*
X92296577Y-98758308D01*
X92243055Y-98826030D01*
X92200568Y-98841805D01*
X92169943Y-98814786D01*
X92169093Y-98771014D01*
X92189274Y-98698729D01*
X92196537Y-98680316D01*
X92221829Y-98613100D01*
X92230132Y-98576600D01*
X92228579Y-98574412D01*
X92194418Y-98596998D01*
X92140641Y-98654441D01*
X92079863Y-98731271D01*
X92024699Y-98812014D01*
X92000366Y-98854312D01*
X91943506Y-98939888D01*
X91849071Y-99055130D01*
X91725345Y-99191378D01*
X91580611Y-99339975D01*
X91423154Y-99492262D01*
X91261258Y-99639579D01*
X91190483Y-99700823D01*
X91076327Y-99799590D01*
X91000977Y-99870798D01*
X90956566Y-99924217D01*
X90935231Y-99969623D01*
X90929106Y-100016787D01*
X90929012Y-100025735D01*
X90937385Y-100094043D01*
X90957923Y-100127590D01*
X90961760Y-100128294D01*
X91011425Y-100110206D01*
X91095450Y-100061296D01*
X91202785Y-99989600D01*
X91322382Y-99903153D01*
X91443191Y-99809991D01*
X91554162Y-99718147D01*
X91644246Y-99635659D01*
X91657350Y-99622465D01*
X91841754Y-99454278D01*
X92024499Y-99333761D01*
X92220690Y-99251217D01*
X92249733Y-99242245D01*
X92345303Y-99208321D01*
X92420739Y-99171764D01*
X92445920Y-99153538D01*
X92496092Y-99126383D01*
X92532193Y-99151604D01*
X92549311Y-99222520D01*
X92547735Y-99292065D01*
X92526071Y-99384540D01*
X92487635Y-99432895D01*
X92440048Y-99431301D01*
X92407044Y-99399665D01*
X92347686Y-99365809D01*
X92255797Y-99374665D01*
X92137333Y-99423228D01*
X91998252Y-99508489D01*
X91844512Y-99627441D01*
X91705953Y-99753576D01*
X91590721Y-99859974D01*
X91469275Y-99962783D01*
X91360701Y-100046187D01*
X91317483Y-100075496D01*
X91223160Y-100138988D01*
X91144211Y-100199011D01*
X91104089Y-100235985D01*
X91051643Y-100338382D01*
X91032816Y-100475209D01*
X91046498Y-100632257D01*
X91091581Y-100795315D01*
X91158737Y-100936564D01*
X91199953Y-100994622D01*
X91246273Y-101016520D01*
X91323231Y-101013418D01*
X91332092Y-101012348D01*
X91442050Y-100993993D01*
X91548641Y-100969161D01*
X91556542Y-100966897D01*
X91641415Y-100935059D01*
X91760858Y-100881548D01*
X91897862Y-100814878D01*
X92035414Y-100743561D01*
X92156505Y-100676111D01*
X92235127Y-100627269D01*
X92298715Y-100574509D01*
X92317875Y-100524993D01*
X92313121Y-100490866D01*
X92306259Y-100443824D01*
X92328543Y-100428384D01*
X92394522Y-100434826D01*
X92396535Y-100435134D01*
X92488650Y-100456219D01*
X92597353Y-100490321D01*
X92632306Y-100503308D01*
X92757221Y-100536729D01*
X92912381Y-100555503D01*
X92979881Y-100557940D01*
X93089001Y-100556177D01*
X93176478Y-100544849D01*
X93263194Y-100518449D01*
X93273155Y-100514069D01*
X93642272Y-100514069D01*
X93655175Y-100530957D01*
X93681149Y-100542218D01*
X93735980Y-100554286D01*
X93759058Y-100527689D01*
X93762816Y-100510196D01*
X93784778Y-100467822D01*
X93837522Y-100469817D01*
X93959477Y-100499668D01*
X94049189Y-100506243D01*
X94129322Y-100489869D01*
X94169507Y-100474594D01*
X94239407Y-100440868D01*
X94261374Y-100413306D01*
X94246267Y-100382672D01*
X94216790Y-100321719D01*
X94239875Y-100280947D01*
X94310225Y-100265557D01*
X94361952Y-100269070D01*
X94436762Y-100273367D01*
X94500862Y-100257791D01*
X94575834Y-100214790D01*
X94632823Y-100174293D01*
X94711121Y-100115927D01*
X94765703Y-100073538D01*
X94783836Y-100057336D01*
X94757985Y-100053273D01*
X94701659Y-100052411D01*
X94639665Y-100042239D01*
X94619738Y-100002337D01*
X94619483Y-99993824D01*
X94644071Y-99940036D01*
X94683597Y-99924919D01*
X94755442Y-99895616D01*
X94795136Y-99863376D01*
X94811470Y-99839841D01*
X94798014Y-99832906D01*
X94746666Y-99843504D01*
X94649325Y-99872568D01*
X94611492Y-99884535D01*
X94382689Y-99979725D01*
X94201130Y-100098971D01*
X94081985Y-100189233D01*
X93942870Y-100289751D01*
X93815620Y-100377601D01*
X93716136Y-100445175D01*
X93660472Y-100488070D01*
X93642272Y-100514069D01*
X93273155Y-100514069D01*
X93370036Y-100471469D01*
X93443058Y-100435798D01*
X93591269Y-100354915D01*
X93753494Y-100255062D01*
X93898108Y-100155864D01*
X93917247Y-100141555D01*
X94043421Y-100045783D01*
X94128762Y-99978508D01*
X94179436Y-99931304D01*
X94201607Y-99895749D01*
X94201441Y-99863419D01*
X94185102Y-99825889D01*
X94169706Y-99796608D01*
X94139904Y-99709798D01*
X94121172Y-99598872D01*
X94115207Y-99486361D01*
X94123706Y-99394797D01*
X94136736Y-99358824D01*
X94179310Y-99334541D01*
X94255200Y-99321958D01*
X94273864Y-99321471D01*
X94378870Y-99316248D01*
X94477153Y-99303598D01*
X94481277Y-99302794D01*
X94542349Y-99284462D01*
X94568726Y-99249083D01*
X94574643Y-99176190D01*
X94574659Y-99168521D01*
X94574659Y-99056152D01*
X94767331Y-99056152D01*
X94767350Y-99099259D01*
X94773893Y-99201186D01*
X94799029Y-99253014D01*
X94854735Y-99264043D01*
X94952986Y-99243572D01*
X94953144Y-99243529D01*
X95007302Y-99204366D01*
X95041355Y-99138278D01*
X95192734Y-99138278D01*
X95205047Y-99170006D01*
X95258931Y-99161564D01*
X95294202Y-99147547D01*
X95323973Y-99120927D01*
X95324342Y-99067746D01*
X95314910Y-99026841D01*
X95295511Y-98962360D01*
X95277995Y-98945087D01*
X95254426Y-98977852D01*
X95217684Y-99061535D01*
X95192734Y-99138278D01*
X95041355Y-99138278D01*
X95053751Y-99114223D01*
X95065203Y-99081440D01*
X95092271Y-98995648D01*
X95109404Y-98935505D01*
X95112542Y-98919915D01*
X95086327Y-98908904D01*
X95021682Y-98904190D01*
X94939606Y-98905737D01*
X94861095Y-98913508D01*
X94827115Y-98920403D01*
X94791176Y-98938554D01*
X94773010Y-98978530D01*
X94767331Y-99056152D01*
X94574659Y-99056152D01*
X94574659Y-99052924D01*
X94439506Y-99156089D01*
X94344065Y-99218359D01*
X94248122Y-99264533D01*
X94202051Y-99278446D01*
X94094260Y-99284356D01*
X94003554Y-99263941D01*
X93945346Y-99222568D01*
X93932189Y-99184510D01*
X93939595Y-99150767D01*
X93971590Y-99135708D01*
X94042834Y-99134658D01*
X94081600Y-99136852D01*
X94159793Y-99139082D01*
X94220616Y-99128884D01*
X94281787Y-99098845D01*
X94361026Y-99041552D01*
X94418596Y-98995842D01*
X94558076Y-98895510D01*
X94693436Y-98827691D01*
X94845962Y-98784095D01*
X95031982Y-98756947D01*
X95205422Y-98738765D01*
X95080283Y-98657878D01*
X94907242Y-98576474D01*
X94705050Y-98530720D01*
X94495588Y-98525158D01*
X94458617Y-98528798D01*
X94315450Y-98554207D01*
X94172355Y-98593693D01*
X94044793Y-98641595D01*
X93948227Y-98692254D01*
X93902721Y-98732300D01*
X93853058Y-98770045D01*
X93801028Y-98768813D01*
X93769735Y-98731563D01*
X93767836Y-98715029D01*
X93794780Y-98657995D01*
X93866934Y-98594016D01*
X93971283Y-98529618D01*
X94094810Y-98471327D01*
X94224498Y-98425668D01*
X94347330Y-98399166D01*
X94405974Y-98395118D01*
X94503511Y-98395118D01*
X94479192Y-98163530D01*
X94429334Y-97846720D01*
X94344787Y-97501118D01*
X94242705Y-97180266D01*
X94213299Y-97102024D01*
X94441155Y-97102024D01*
X94456299Y-97154024D01*
X94471750Y-97199824D01*
X94526450Y-97378419D01*
X94579589Y-97584687D01*
X94626507Y-97797531D01*
X94662547Y-97995853D01*
X94682817Y-98155728D01*
X94702317Y-98389551D01*
X94825253Y-98409116D01*
X94935502Y-98436646D01*
X95042163Y-98478027D01*
X95052777Y-98483371D01*
X95137487Y-98525401D01*
X95180145Y-98538003D01*
X95190340Y-98521831D01*
X95182794Y-98492236D01*
X95094779Y-98258384D01*
X94982686Y-98004600D01*
X94854761Y-97746749D01*
X94719245Y-97500693D01*
X94584383Y-97282299D01*
X94472422Y-97125118D01*
X94446507Y-97094892D01*
X94441155Y-97102024D01*
X94213299Y-97102024D01*
X94159816Y-96959726D01*
X94081827Y-96786725D01*
X94002319Y-96650121D01*
X93914875Y-96538769D01*
X93821122Y-96448382D01*
X93729641Y-96375219D01*
X93619535Y-96295136D01*
X93503196Y-96216174D01*
X93393018Y-96146373D01*
X93301394Y-96093774D01*
X93240715Y-96066418D01*
X93229143Y-96064294D01*
X93191327Y-96050871D01*
X93114544Y-96014871D01*
X93012094Y-95962702D01*
X92953258Y-95931401D01*
X92782370Y-95847287D01*
X92575169Y-95757883D01*
X92348112Y-95669204D01*
X92117655Y-95587260D01*
X91900255Y-95518065D01*
X91712370Y-95467632D01*
X91644105Y-95453089D01*
X91529111Y-95437495D01*
X91373929Y-95425122D01*
X91192274Y-95416173D01*
X90997860Y-95410851D01*
X90804399Y-95409360D01*
X90625607Y-95411905D01*
X90475197Y-95418688D01*
X90366882Y-95429914D01*
X90346306Y-95433805D01*
X90307778Y-95444297D01*
X90295660Y-95457781D01*
X89802491Y-95457781D01*
X89750358Y-95433323D01*
X89484145Y-95528550D01*
X89293563Y-95601374D01*
X89090228Y-95686962D01*
X88890239Y-95777907D01*
X88709697Y-95866802D01*
X88564699Y-95946241D01*
X88529620Y-95967703D01*
X88396133Y-96052358D01*
X88137467Y-96052358D01*
X88252000Y-95984020D01*
X88349922Y-95924030D01*
X88431598Y-95871200D01*
X88479198Y-95837080D01*
X88530203Y-95805416D01*
X88625426Y-95756404D01*
X88753660Y-95695050D01*
X88903695Y-95626360D01*
X89064323Y-95555338D01*
X89224337Y-95486990D01*
X89372526Y-95426322D01*
X89497683Y-95378339D01*
X89539483Y-95363582D01*
X89690371Y-95318283D01*
X89865207Y-95274759D01*
X90028578Y-95241742D01*
X90043367Y-95239283D01*
X90170186Y-95224260D01*
X90340722Y-95211869D01*
X90541013Y-95202366D01*
X90757098Y-95196007D01*
X90975014Y-95193047D01*
X91180800Y-95193743D01*
G37*
D14*
X106620000Y-88011000D02*
X109280000Y-88011000D01*
X106620000Y-88011000D02*
X106620000Y-95691000D01*
X106620000Y-95691000D02*
X109280000Y-95691000D01*
X109280000Y-88011000D02*
X109280000Y-95691000D01*
X109280000Y-85411000D02*
X109280000Y-86741000D01*
X107950000Y-85411000D02*
X109280000Y-85411000D01*
X72453500Y-79275000D02*
X70168500Y-79275000D01*
X70168500Y-79275000D02*
X70168500Y-80745000D01*
X70168500Y-80745000D02*
X72453500Y-80745000D01*
D13*
X78580000Y-79526000D02*
X83980000Y-79526000D01*
X78580000Y-82526000D02*
X84080000Y-82526000D01*
X84080000Y-81526000D02*
X84080000Y-82526000D01*
D14*
X100270000Y-100524000D02*
X100270000Y-103184000D01*
X102870000Y-100524000D02*
X100270000Y-100524000D01*
X102870000Y-103184000D02*
X100270000Y-103184000D01*
X102870000Y-100524000D02*
X102870000Y-103184000D01*
X104140000Y-100524000D02*
X105470000Y-100524000D01*
X105470000Y-100524000D02*
X105470000Y-101854000D01*
X120750000Y-113735000D02*
X110270000Y-113735000D01*
X110270000Y-113735000D02*
X110270000Y-82765000D01*
X110270000Y-82765000D02*
X120750000Y-82765000D01*
X109375662Y-92960000D02*
X109375662Y-92460000D01*
X109375662Y-92460000D02*
X109808675Y-92710000D01*
X109808675Y-92710000D02*
X109375662Y-92960000D01*
X100715000Y-109525000D02*
X100715000Y-105275000D01*
X100715000Y-105275000D02*
X101735000Y-105275000D01*
X101735000Y-105275000D02*
X101735000Y-106875000D01*
X101735000Y-106875000D02*
X103015000Y-106875000D01*
X103015000Y-106875000D02*
X103015000Y-103985000D01*
X108835000Y-109525000D02*
X108835000Y-105275000D01*
X108835000Y-105275000D02*
X107815000Y-105275000D01*
X107815000Y-105275000D02*
X107815000Y-106875000D01*
X107815000Y-106875000D02*
X106535000Y-106875000D01*
X102435000Y-113095000D02*
X107115000Y-113095000D01*
X99755000Y-110931000D02*
X99755000Y-108271000D01*
X97155000Y-110931000D02*
X99755000Y-110931000D01*
X97155000Y-108271000D02*
X99755000Y-108271000D01*
X97155000Y-110931000D02*
X97155000Y-108271000D01*
X95885000Y-110931000D02*
X94555000Y-110931000D01*
X94555000Y-110931000D02*
X94555000Y-109601000D01*
X94555000Y-113598000D02*
X94555000Y-112268000D01*
X95885000Y-113598000D02*
X94555000Y-113598000D01*
X97155000Y-113598000D02*
X97155000Y-110938000D01*
X97155000Y-110938000D02*
X99755000Y-110938000D01*
X97155000Y-113598000D02*
X99755000Y-113598000D01*
X99755000Y-113598000D02*
X99755000Y-110938000D01*
X105885000Y-98000000D02*
X98585000Y-98000000D01*
X105885000Y-92500000D02*
X98585000Y-92500000D01*
X98585000Y-92500000D02*
X98585000Y-93650000D01*
X79151500Y-111271500D02*
X71851500Y-111271500D01*
X79151500Y-105771500D02*
X71851500Y-105771500D01*
X71851500Y-105771500D02*
X71851500Y-106921500D01*
X67911000Y-103977000D02*
X67755000Y-103977000D01*
X65595000Y-103977000D02*
X65439000Y-103977000D01*
X67753608Y-107209334D02*
G75*
G03*
X67910515Y-103977001I-1078608J1672334D01*
G01*
X65439485Y-103977001D02*
G75*
G03*
X65596392Y-107209334I1235515J-1559999D01*
G01*
X67754836Y-106578129D02*
G75*
G03*
X67754999Y-104496040I-1079836J1041129D01*
G01*
X65595001Y-104496040D02*
G75*
G03*
X65595164Y-106578129I1079999J-1040960D01*
G01*
X82760000Y-101830000D02*
X83540000Y-101830000D01*
X83540000Y-101830000D02*
X83540000Y-100830000D01*
X82760000Y-83590000D02*
X83540000Y-83590000D01*
X83540000Y-83590000D02*
X83540000Y-84590000D01*
X57795000Y-101830000D02*
X57795000Y-83590000D01*
X57795000Y-83590000D02*
X64215000Y-83590000D01*
X57795000Y-101830000D02*
X64215000Y-101830000D01*
X64215000Y-101830000D02*
X64215000Y-102210000D01*
M02*
