M48
; DRILL file {KiCad 7.0.9} date Fri Dec 15 21:41:48 2023
; FORMAT={2:4/ absolute / inch / suppress leading zeros}
; #@! TF.CreationDate,2023-12-15T21:41:48-05:00
; #@! TF.GenerationSoftware,Kicad,Pcbnew,7.0.9
; #@! TF.FileFunction,Plated,1,2,PTH
FMAT,2
INCH,TZ
; #@! TA.AperFunction,Plated,PTH,ViaDrill
T1C0.0118
; #@! TA.AperFunction,Plated,PTH,ComponentDrill
T2C0.0118
; #@! TA.AperFunction,Plated,PTH,ComponentDrill
T3C0.0217
; #@! TA.AperFunction,Plated,PTH,ComponentDrill
T4C0.0295
; #@! TA.AperFunction,Plated,PTH,ComponentDrill
T5C0.0315
; #@! TA.AperFunction,Plated,PTH,ComponentDrill
T6C0.0335
; #@! TA.AperFunction,Plated,PTH,ComponentDrill
T7C0.0354
; #@! TA.AperFunction,Plated,PTH,ComponentDrill
T8C0.0394
; #@! TA.AperFunction,Plated,PTH,ComponentDrill
T9C0.1260
%
G90
G05
T1
X26250Y-32340
X26250Y-39846
X26581Y-35600
X26750Y-39846
X27004Y-33744
X27250Y-34175
X27750Y-34596
X27920Y-35620
X28520Y-31500
X29250Y-39846
X29690Y-38230
X29800Y-34050
X29825Y-41775
X30115Y-40650
X30250Y-33154
X30250Y-39846
X30330Y-34050
X30400Y-38980
X30605Y-35346
X30725Y-43725
X30750Y-34850
X30870Y-38950
X31100Y-42100
X31200Y-35050
X31475Y-40725
X31475Y-41175
X31500Y-35550
X31750Y-35300
X31750Y-39846
X32689Y-32176
X32890Y-41461
X33350Y-39750
X34000Y-31900
X34260Y-34350
X34344Y-33724
X35148Y-33869
X35480Y-35140
X35740Y-42860
X35774Y-34620
X36100Y-38700
X36270Y-35090
X36329Y-42081
X36338Y-34769
X36350Y-41500
X36374Y-39925
X36400Y-34460
X36500Y-40870
X36650Y-40225
X36874Y-33849
X37300Y-31531
X37531Y-34320
X38250Y-36250
X39300Y-36550
X39300Y-37475
X39325Y-41175
X39831Y-41550
X40225Y-38900
X40550Y-42900
X41250Y-38450
X42500Y-41290
X42500Y-41600
X42500Y-42150
X42679Y-38900
T2
X30543Y-37463
X30543Y-37857
X30740Y-37660
X30937Y-37463
X30937Y-37857
T4
X26220Y-43010
X26220Y-43510
X26220Y-44010
X26220Y-44510
T5
X33735Y-36673
X33735Y-37460
T7
X26250Y-41050
X26250Y-42050
T8
X37750Y-43150
X37750Y-44200
X38750Y-43150
X38750Y-44200
X40000Y-40100
X41000Y-40100
X42500Y-34150
X42500Y-35150
X42500Y-36150
X42500Y-37150
X44500Y-36500
X44500Y-37591
X44500Y-38681
X44500Y-39772
X44500Y-40862
X45618Y-37045
X45618Y-38136
X45618Y-39226
X45618Y-40317
T9
X44618Y-33760
X44618Y-43602
T3
G00X38074Y-32030
M15
G01X38074Y-31774
M16
G05
G00X41126Y-32030
M15
G01X41126Y-31774
M16
G05
T6
G00X38133Y-33507
M15
G01X38133Y-33290
M16
G05
G00X41067Y-33507
M15
G01X41067Y-33290
M16
G05
T0
M30
