G04 #@! TF.GenerationSoftware,KiCad,Pcbnew,7.0.9*
G04 #@! TF.CreationDate,2023-12-15T21:40:49-05:00*
G04 #@! TF.ProjectId,MainBoard,4d61696e-426f-4617-9264-2e6b69636164,rev?*
G04 #@! TF.SameCoordinates,Original*
G04 #@! TF.FileFunction,Copper,L2,Bot*
G04 #@! TF.FilePolarity,Positive*
%FSLAX46Y46*%
G04 Gerber Fmt 4.6, Leading zero omitted, Abs format (unit mm)*
G04 Created by KiCad (PCBNEW 7.0.9) date 2023-12-15 21:40:49*
%MOMM*%
%LPD*%
G01*
G04 APERTURE LIST*
G04 Aperture macros list*
%AMRoundRect*
0 Rectangle with rounded corners*
0 $1 Rounding radius*
0 $2 $3 $4 $5 $6 $7 $8 $9 X,Y pos of 4 corners*
0 Add a 4 corners polygon primitive as box body*
4,1,4,$2,$3,$4,$5,$6,$7,$8,$9,$2,$3,0*
0 Add four circle primitives for the rounded corners*
1,1,$1+$1,$2,$3*
1,1,$1+$1,$4,$5*
1,1,$1+$1,$6,$7*
1,1,$1+$1,$8,$9*
0 Add four rect primitives between the rounded corners*
20,1,$1+$1,$2,$3,$4,$5,0*
20,1,$1+$1,$4,$5,$6,$7,0*
20,1,$1+$1,$6,$7,$8,$9,0*
20,1,$1+$1,$8,$9,$2,$3,0*%
%AMFreePoly0*
4,1,6,0.337500,0.050000,0.087500,-0.200000,-0.337500,-0.200000,-0.337500,0.200000,0.337500,0.200000,0.337500,0.050000,0.337500,0.050000,$1*%
%AMFreePoly1*
4,1,6,0.337500,-0.050000,0.337500,-0.200000,-0.337500,-0.200000,-0.337500,0.200000,0.087500,0.200000,0.337500,-0.050000,0.337500,-0.050000,$1*%
%AMFreePoly2*
4,1,6,0.200000,-0.337500,0.050000,-0.337500,-0.200000,-0.087500,-0.200000,0.337500,0.200000,0.337500,0.200000,-0.337500,0.200000,-0.337500,$1*%
%AMFreePoly3*
4,1,6,0.200000,-0.087500,-0.050000,-0.337500,-0.200000,-0.337500,-0.200000,0.337500,0.200000,0.337500,0.200000,-0.087500,0.200000,-0.087500,$1*%
%AMFreePoly4*
4,1,6,0.337500,-0.200000,-0.337500,-0.200000,-0.337500,-0.050000,-0.087500,0.200000,0.337500,0.200000,0.337500,-0.200000,0.337500,-0.200000,$1*%
%AMFreePoly5*
4,1,6,0.337500,-0.200000,-0.087500,-0.200000,-0.337500,0.050000,-0.337500,0.200000,0.337500,0.200000,0.337500,-0.200000,0.337500,-0.200000,$1*%
%AMFreePoly6*
4,1,6,0.200000,0.087500,0.200000,-0.337500,-0.200000,-0.337500,-0.200000,0.337500,-0.050000,0.337500,0.200000,0.087500,0.200000,0.087500,$1*%
%AMFreePoly7*
4,1,6,0.200000,-0.337500,-0.200000,-0.337500,-0.200000,0.087500,0.050000,0.337500,0.200000,0.337500,0.200000,-0.337500,0.200000,-0.337500,$1*%
G04 Aperture macros list end*
G04 #@! TA.AperFunction,SMDPad,CuDef*
%ADD10RoundRect,0.243750X0.150260X-0.494975X0.494975X-0.150260X-0.150260X0.494975X-0.494975X0.150260X0*%
G04 #@! TD*
G04 #@! TA.AperFunction,ComponentPad*
%ADD11R,1.350000X1.350000*%
G04 #@! TD*
G04 #@! TA.AperFunction,ComponentPad*
%ADD12O,1.350000X1.350000*%
G04 #@! TD*
G04 #@! TA.AperFunction,SMDPad,CuDef*
%ADD13R,2.000000X2.000000*%
G04 #@! TD*
G04 #@! TA.AperFunction,SMDPad,CuDef*
%ADD14RoundRect,0.243750X0.456250X-0.243750X0.456250X0.243750X-0.456250X0.243750X-0.456250X-0.243750X0*%
G04 #@! TD*
G04 #@! TA.AperFunction,SMDPad,CuDef*
%ADD15RoundRect,0.250000X-0.375000X-0.625000X0.375000X-0.625000X0.375000X0.625000X-0.375000X0.625000X0*%
G04 #@! TD*
G04 #@! TA.AperFunction,SMDPad,CuDef*
%ADD16R,1.100000X1.100000*%
G04 #@! TD*
G04 #@! TA.AperFunction,WasherPad*
%ADD17C,1.300000*%
G04 #@! TD*
G04 #@! TA.AperFunction,SMDPad,CuDef*
%ADD18R,1.700000X1.700000*%
G04 #@! TD*
G04 #@! TA.AperFunction,SMDPad,CuDef*
%ADD19RoundRect,0.475000X0.475000X0.475000X-0.475000X0.475000X-0.475000X-0.475000X0.475000X-0.475000X0*%
G04 #@! TD*
G04 #@! TA.AperFunction,ComponentPad*
%ADD20C,1.100000*%
G04 #@! TD*
G04 #@! TA.AperFunction,ComponentPad*
%ADD21R,1.100000X1.100000*%
G04 #@! TD*
G04 #@! TA.AperFunction,SMDPad,CuDef*
%ADD22RoundRect,0.243750X0.243750X0.456250X-0.243750X0.456250X-0.243750X-0.456250X0.243750X-0.456250X0*%
G04 #@! TD*
G04 #@! TA.AperFunction,SMDPad,CuDef*
%ADD23O,0.750000X0.300000*%
G04 #@! TD*
G04 #@! TA.AperFunction,SMDPad,CuDef*
%ADD24O,0.300000X0.750000*%
G04 #@! TD*
G04 #@! TA.AperFunction,SMDPad,CuDef*
%ADD25R,1.800000X1.800000*%
G04 #@! TD*
G04 #@! TA.AperFunction,ComponentPad*
%ADD26C,0.600000*%
G04 #@! TD*
G04 #@! TA.AperFunction,SMDPad,CuDef*
%ADD27RoundRect,0.243750X-0.456250X0.243750X-0.456250X-0.243750X0.456250X-0.243750X0.456250X0.243750X0*%
G04 #@! TD*
G04 #@! TA.AperFunction,SMDPad,CuDef*
%ADD28RoundRect,0.243750X-0.243750X-0.456250X0.243750X-0.456250X0.243750X0.456250X-0.243750X0.456250X0*%
G04 #@! TD*
G04 #@! TA.AperFunction,ComponentPad*
%ADD29O,1.450000X2.000000*%
G04 #@! TD*
G04 #@! TA.AperFunction,ComponentPad*
%ADD30O,1.150000X1.800000*%
G04 #@! TD*
G04 #@! TA.AperFunction,SMDPad,CuDef*
%ADD31R,0.900000X0.800000*%
G04 #@! TD*
G04 #@! TA.AperFunction,SMDPad,CuDef*
%ADD32FreePoly0,180.000000*%
G04 #@! TD*
G04 #@! TA.AperFunction,SMDPad,CuDef*
%ADD33R,0.675000X0.400000*%
G04 #@! TD*
G04 #@! TA.AperFunction,SMDPad,CuDef*
%ADD34FreePoly1,180.000000*%
G04 #@! TD*
G04 #@! TA.AperFunction,SMDPad,CuDef*
%ADD35FreePoly2,180.000000*%
G04 #@! TD*
G04 #@! TA.AperFunction,SMDPad,CuDef*
%ADD36R,0.400000X0.675000*%
G04 #@! TD*
G04 #@! TA.AperFunction,SMDPad,CuDef*
%ADD37FreePoly3,180.000000*%
G04 #@! TD*
G04 #@! TA.AperFunction,SMDPad,CuDef*
%ADD38FreePoly4,180.000000*%
G04 #@! TD*
G04 #@! TA.AperFunction,SMDPad,CuDef*
%ADD39FreePoly5,180.000000*%
G04 #@! TD*
G04 #@! TA.AperFunction,SMDPad,CuDef*
%ADD40FreePoly6,180.000000*%
G04 #@! TD*
G04 #@! TA.AperFunction,SMDPad,CuDef*
%ADD41FreePoly7,180.000000*%
G04 #@! TD*
G04 #@! TA.AperFunction,ComponentPad*
%ADD42R,1.700000X1.700000*%
G04 #@! TD*
G04 #@! TA.AperFunction,ComponentPad*
%ADD43O,1.700000X1.700000*%
G04 #@! TD*
G04 #@! TA.AperFunction,SMDPad,CuDef*
%ADD44RoundRect,0.218750X-0.218750X-0.256250X0.218750X-0.256250X0.218750X0.256250X-0.218750X0.256250X0*%
G04 #@! TD*
G04 #@! TA.AperFunction,ComponentPad*
%ADD45R,1.600000X1.600000*%
G04 #@! TD*
G04 #@! TA.AperFunction,ComponentPad*
%ADD46C,1.600000*%
G04 #@! TD*
G04 #@! TA.AperFunction,ComponentPad*
%ADD47C,4.000000*%
G04 #@! TD*
G04 #@! TA.AperFunction,SMDPad,CuDef*
%ADD48RoundRect,0.218750X-0.256250X0.218750X-0.256250X-0.218750X0.256250X-0.218750X0.256250X0.218750X0*%
G04 #@! TD*
G04 #@! TA.AperFunction,SMDPad,CuDef*
%ADD49R,1.000000X1.500000*%
G04 #@! TD*
G04 #@! TA.AperFunction,ComponentPad*
%ADD50R,1.800000X1.800000*%
G04 #@! TD*
G04 #@! TA.AperFunction,ComponentPad*
%ADD51C,1.800000*%
G04 #@! TD*
G04 #@! TA.AperFunction,SMDPad,CuDef*
%ADD52R,0.800000X0.900000*%
G04 #@! TD*
G04 #@! TA.AperFunction,ViaPad*
%ADD53C,0.600000*%
G04 #@! TD*
G04 #@! TA.AperFunction,Conductor*
%ADD54C,0.250000*%
G04 #@! TD*
G04 #@! TA.AperFunction,Conductor*
%ADD55C,0.180000*%
G04 #@! TD*
G04 #@! TA.AperFunction,Conductor*
%ADD56C,0.400000*%
G04 #@! TD*
G04 #@! TA.AperFunction,Conductor*
%ADD57C,0.300000*%
G04 #@! TD*
G04 APERTURE END LIST*
D10*
X118988813Y-97863687D03*
X117662987Y-99189513D03*
X117815387Y-101767613D03*
X119141213Y-100441787D03*
D11*
X85686900Y-95148400D03*
D12*
X85686900Y-93148400D03*
D13*
X80645000Y-101219000D03*
X74345800Y-101219000D03*
X77495400Y-101219000D03*
D14*
X117957600Y-96314500D03*
X117957600Y-94439500D03*
D15*
X66113200Y-95504000D03*
X68913200Y-95504000D03*
D16*
X95046800Y-98498200D03*
X95046800Y-101298200D03*
D17*
X69128000Y-81381600D03*
X74128000Y-81381600D03*
D18*
X66228000Y-80531600D03*
D19*
X71628000Y-85181600D03*
D18*
X77028000Y-80531600D03*
D19*
X69128000Y-85181600D03*
X74128000Y-85181600D03*
D20*
X66598800Y-110515400D03*
X66598800Y-111785400D03*
D21*
X66598800Y-109245400D03*
D20*
X66598800Y-113055400D03*
D22*
X74521300Y-94996000D03*
X72646300Y-94996000D03*
D23*
X76604600Y-96406400D03*
X76604600Y-95906400D03*
X76604600Y-95406400D03*
X76604600Y-94906400D03*
D24*
X77329600Y-94181400D03*
X77829600Y-94181400D03*
X78329600Y-94181400D03*
X78829600Y-94181400D03*
D23*
X79554600Y-94906400D03*
X79554600Y-95406400D03*
X79554600Y-95906400D03*
X79554600Y-96406400D03*
D24*
X78829600Y-97131400D03*
X78329600Y-97131400D03*
X77829600Y-97131400D03*
X77329600Y-97131400D03*
D25*
X78079600Y-95656400D03*
D26*
X78079600Y-95656400D03*
X77579600Y-96156400D03*
X78579600Y-96156400D03*
X78579600Y-95156400D03*
X77579600Y-95156400D03*
D22*
X65991500Y-97917000D03*
X67866500Y-97917000D03*
D27*
X92265500Y-103583500D03*
X92265500Y-105458500D03*
D28*
X69390500Y-90424000D03*
X67515500Y-90424000D03*
D22*
X87551500Y-105283000D03*
X85676500Y-105283000D03*
D28*
X67490000Y-88519000D03*
X69365000Y-88519000D03*
X102029500Y-107569000D03*
X100154500Y-107569000D03*
D27*
X92274592Y-106885500D03*
X92274592Y-108760500D03*
X83540600Y-105310700D03*
X83540600Y-107185700D03*
X104902000Y-107236500D03*
X104902000Y-105361500D03*
X104902000Y-108917500D03*
X104902000Y-110792500D03*
D22*
X97203500Y-87172800D03*
X95328500Y-87172800D03*
X95328500Y-89154000D03*
X97203500Y-89154000D03*
D28*
X69420500Y-99822000D03*
X71295500Y-99822000D03*
D29*
X104309000Y-84831800D03*
X96859000Y-84831800D03*
D30*
X104459000Y-81031800D03*
X96709000Y-81031800D03*
D31*
X87233000Y-83759000D03*
X87233000Y-85659000D03*
X85233000Y-84709000D03*
D14*
X94742000Y-83009500D03*
X94742000Y-84884500D03*
D27*
X89154000Y-86281500D03*
X89154000Y-84406500D03*
D28*
X69420500Y-97917000D03*
X71295500Y-97917000D03*
X72671700Y-92354400D03*
X74546700Y-92354400D03*
X103045500Y-105537000D03*
X101170500Y-105537000D03*
D32*
X78963100Y-90842400D03*
D33*
X78963100Y-91342400D03*
X78963100Y-91842400D03*
D34*
X78963100Y-92342400D03*
D35*
X78325600Y-92479900D03*
D36*
X77825600Y-92479900D03*
D37*
X77325600Y-92479900D03*
D38*
X76688100Y-92342400D03*
D33*
X76688100Y-91842400D03*
X76688100Y-91342400D03*
D39*
X76688100Y-90842400D03*
D40*
X77325600Y-90704900D03*
D36*
X77825600Y-90704900D03*
D41*
X78325600Y-90704900D03*
D42*
X107950000Y-86741000D03*
D43*
X107950000Y-89281000D03*
X107950000Y-91821000D03*
X107950000Y-94361000D03*
D42*
X104140000Y-101854000D03*
D43*
X101600000Y-101854000D03*
D44*
X97002500Y-107569000D03*
X98577500Y-107569000D03*
D45*
X113030000Y-92710000D03*
D46*
X113030000Y-95480000D03*
X113030000Y-98250000D03*
X113030000Y-101020000D03*
X113030000Y-103790000D03*
X115870000Y-94095000D03*
X115870000Y-96865000D03*
X115870000Y-99635000D03*
X115870000Y-102405000D03*
D47*
X113330000Y-110750000D03*
X113330000Y-85750000D03*
D42*
X95885000Y-109601000D03*
D43*
X98425000Y-109601000D03*
X98425000Y-112268000D03*
D42*
X95885000Y-112268000D03*
D48*
X100203000Y-110845500D03*
X100203000Y-112420500D03*
D49*
X103835000Y-97700000D03*
X100635000Y-97700000D03*
X103835000Y-92800000D03*
X100635000Y-92800000D03*
X77101500Y-110971500D03*
X73901500Y-110971500D03*
X77101500Y-106071500D03*
X73901500Y-106071500D03*
D50*
X66675000Y-104267000D03*
D51*
X66675000Y-106807000D03*
D31*
X71231000Y-103190000D03*
X71231000Y-105090000D03*
X69231000Y-104140000D03*
D52*
X88519000Y-108950000D03*
X89469000Y-106950000D03*
X87569000Y-106950000D03*
X98740000Y-105775000D03*
X96840000Y-105775000D03*
X97790000Y-103775000D03*
D53*
X92329000Y-105410000D03*
X86360000Y-81026000D03*
X99822000Y-92837000D03*
X75692000Y-86487000D03*
X77038200Y-86487000D03*
X107950000Y-104876600D03*
X107950000Y-105664000D03*
X107950000Y-107061000D03*
X92299107Y-88312867D03*
X90119200Y-89255600D03*
X90779600Y-108864400D03*
X78409800Y-98933000D03*
X75412600Y-97104200D03*
X99885500Y-104584500D03*
X92126496Y-89129296D03*
X66675000Y-101210000D03*
X93091000Y-102171500D03*
X72441000Y-80010000D03*
X67515500Y-90424000D03*
X70916800Y-90474800D03*
X83540600Y-105310700D03*
X83030000Y-81726000D03*
X67945000Y-101210000D03*
X94742000Y-80088500D03*
X95328500Y-87172800D03*
X76492000Y-103251000D03*
X101170500Y-105537000D03*
X70485000Y-87874010D03*
X93659000Y-85977498D03*
X69215000Y-86804500D03*
X87020400Y-87249000D03*
X104775000Y-97663000D03*
X78041500Y-111061500D03*
X92274592Y-106885500D03*
X92456000Y-87528400D03*
X90865790Y-87934800D03*
X99822000Y-95186516D03*
X92391000Y-101409500D03*
X79946500Y-104584500D03*
X78994000Y-106934000D03*
X76835000Y-101210000D03*
X79946500Y-103441500D03*
X102171500Y-98806000D03*
X102996990Y-108966000D03*
X84709000Y-100965000D03*
X91694000Y-98297992D03*
X92710000Y-103809802D03*
X80645000Y-89662000D03*
X97155000Y-92075000D03*
X80010000Y-90297000D03*
X77216000Y-99009202D03*
X74295000Y-101210000D03*
X80645000Y-101210000D03*
X78105000Y-88519000D03*
X77735600Y-89779000D03*
X79248000Y-89027000D03*
X89277081Y-86027564D03*
X87233000Y-85659000D03*
X75755500Y-106108500D03*
X108404900Y-98806000D03*
X76835000Y-84210000D03*
X68590000Y-85710002D03*
X66675000Y-82143600D03*
D54*
X87528500Y-106909500D02*
X87569000Y-106950000D01*
X87528500Y-105410000D02*
X87528500Y-106909500D01*
X102029500Y-106553000D02*
X103045500Y-105537000D01*
X102029500Y-107569000D02*
X102029500Y-106553000D01*
D55*
X77825600Y-92479900D02*
X77325600Y-92479900D01*
X77325600Y-92479900D02*
X76587500Y-93218000D01*
X76587500Y-93218000D02*
X76047600Y-93218000D01*
D54*
X76604600Y-95656400D02*
X75488800Y-95656400D01*
X76604600Y-95406400D02*
X76604600Y-95656400D01*
X76604600Y-95656400D02*
X76604600Y-95906400D01*
X91874843Y-88312867D02*
X90932110Y-89255600D01*
X92299107Y-88312867D02*
X91874843Y-88312867D01*
X90932110Y-89255600D02*
X90119200Y-89255600D01*
D56*
X70739263Y-100378237D02*
X70739263Y-100812337D01*
X71295500Y-99822000D02*
X70739263Y-100378237D01*
X70739263Y-100812337D02*
X70256400Y-101295200D01*
X71883000Y-99822000D02*
X72898000Y-98807000D01*
X71295500Y-99822000D02*
X71883000Y-99822000D01*
D54*
X65820983Y-111785400D02*
X65795583Y-111760000D01*
X66598800Y-111785400D02*
X65820983Y-111785400D01*
X65795583Y-111760000D02*
X65125600Y-111760000D01*
X67376617Y-111785400D02*
X67808417Y-112217200D01*
X66598800Y-111785400D02*
X67376617Y-111785400D01*
X67808417Y-112217200D02*
X68478400Y-112217200D01*
X77841001Y-97767801D02*
X77841001Y-98364201D01*
X77829600Y-97756400D02*
X77841001Y-97767801D01*
X77841001Y-98364201D02*
X78409800Y-98933000D01*
X77829600Y-97131400D02*
X77829600Y-97756400D01*
X78409800Y-98933000D02*
X78409800Y-98933000D01*
X80640800Y-96367600D02*
X80183600Y-95910400D01*
X80869600Y-95906400D02*
X81330800Y-96367600D01*
X81330800Y-96367600D02*
X80640800Y-96367600D01*
X79554600Y-95906400D02*
X80869600Y-95906400D01*
D56*
X98740000Y-107406500D02*
X98577500Y-107569000D01*
X98740000Y-105775000D02*
X98740000Y-107406500D01*
X98577500Y-107569000D02*
X100304500Y-107569000D01*
X99885500Y-105429500D02*
X99540000Y-105775000D01*
X99540000Y-105775000D02*
X98740000Y-105775000D01*
X99885500Y-104584500D02*
X99885500Y-105429500D01*
D54*
X92214700Y-89217500D02*
X92126496Y-89129296D01*
X95265000Y-89217500D02*
X92214700Y-89217500D01*
X95328500Y-89154000D02*
X95265000Y-89217500D01*
X66573500Y-101108500D02*
X66675000Y-101210000D01*
X67716500Y-97307500D02*
X67716500Y-98425000D01*
D56*
X67716500Y-98425000D02*
X67716500Y-99822000D01*
X67716500Y-99822000D02*
X67716500Y-100168500D01*
X67716500Y-100168500D02*
X66675000Y-101210000D01*
D54*
X67919500Y-97510500D02*
X69215000Y-97510500D01*
X67716500Y-97307500D02*
X67919500Y-97510500D01*
D56*
X111391000Y-94095000D02*
X115870000Y-94095000D01*
X94488000Y-98044000D02*
X98044000Y-98044000D01*
X93091000Y-99441000D02*
X94488000Y-98044000D01*
X93091000Y-102171500D02*
X93091000Y-99441000D01*
X109329991Y-96156009D02*
X109474000Y-96012000D01*
X99931991Y-96156009D02*
X109329991Y-96156009D01*
X98044000Y-98044000D02*
X99931991Y-96156009D01*
X109474000Y-96012000D02*
X111391000Y-94095000D01*
D55*
X74558700Y-92342400D02*
X74546700Y-92354400D01*
X77325600Y-90704900D02*
X76841500Y-90220800D01*
X75793600Y-90789262D02*
X75793600Y-92342400D01*
X76362062Y-90220800D02*
X75793600Y-90789262D01*
X76841500Y-90220800D02*
X76362062Y-90220800D01*
X76688100Y-92342400D02*
X75793600Y-92342400D01*
X75793600Y-92342400D02*
X74558700Y-92342400D01*
X77325600Y-91264402D02*
X77653598Y-91592400D01*
X77325600Y-90704900D02*
X77325600Y-91264402D01*
X78963100Y-90842400D02*
X78963100Y-91592400D01*
X78963100Y-91592400D02*
X78963100Y-91842400D01*
X78325600Y-91651200D02*
X78384400Y-91592400D01*
X78325600Y-92479900D02*
X78325600Y-91651200D01*
X78384400Y-91592400D02*
X78963100Y-91592400D01*
X77653598Y-91592400D02*
X78384400Y-91592400D01*
D54*
X72667100Y-90474800D02*
X73175100Y-90982800D01*
X70916800Y-90474800D02*
X72667100Y-90474800D01*
X73175100Y-90982800D02*
X74546700Y-92354400D01*
X94942200Y-98498200D02*
X94488000Y-98044000D01*
X95046800Y-98498200D02*
X94942200Y-98498200D01*
X72441000Y-82219600D02*
X72441000Y-80010000D01*
X66878200Y-86690200D02*
X66878200Y-83972400D01*
X67564000Y-87376000D02*
X66878200Y-86690200D01*
X68122800Y-82727800D02*
X71932800Y-82727800D01*
X66878200Y-83972400D02*
X68122800Y-82727800D01*
D56*
X67716500Y-97307500D02*
X68503800Y-96520200D01*
X68503800Y-96520200D02*
X68503800Y-95343399D01*
D54*
X68503800Y-95343399D02*
X67564000Y-94403599D01*
X71932800Y-82727800D02*
X72441000Y-82219600D01*
X67564000Y-94403599D02*
X67564000Y-87376000D01*
X71932800Y-82727800D02*
X82016600Y-82727800D01*
X83018400Y-81726000D02*
X83030000Y-81726000D01*
X82016600Y-82727800D02*
X83018400Y-81726000D01*
X71295500Y-97947000D02*
X71295500Y-97917000D01*
X69420500Y-99822000D02*
X71295500Y-97947000D01*
X69420500Y-99822000D02*
X69420500Y-100505500D01*
X69420500Y-99822000D02*
X69420500Y-100759500D01*
X68970000Y-101210000D02*
X67945000Y-101210000D01*
X69420500Y-100759500D02*
X68970000Y-101210000D01*
X84533000Y-84709000D02*
X85233000Y-84709000D01*
X68452490Y-86994490D02*
X67487800Y-86029800D01*
X68452490Y-92633290D02*
X68452490Y-86994490D01*
X71247000Y-97409000D02*
X70205600Y-96367600D01*
X70205600Y-96367600D02*
X70205600Y-94386400D01*
X71247000Y-98298000D02*
X71247000Y-97409000D01*
X70205600Y-94386400D02*
X68452490Y-92633290D01*
X67487800Y-86029800D02*
X67487800Y-84226400D01*
X67487800Y-84226400D02*
X68351400Y-83362800D01*
X68351400Y-83362800D02*
X82829400Y-83362800D01*
X84175600Y-84709000D02*
X84533000Y-84709000D01*
X82829400Y-83362800D02*
X84175600Y-84709000D01*
X94742000Y-83009500D02*
X94742000Y-80088500D01*
X94742000Y-86586300D02*
X95328500Y-87172800D01*
X94742000Y-84884500D02*
X94742000Y-86586300D01*
X71292000Y-103251000D02*
X71231000Y-103190000D01*
X76492000Y-103251000D02*
X71292000Y-103251000D01*
X103505000Y-102489000D02*
X104140000Y-101854000D01*
X104140000Y-104599500D02*
X104902000Y-105361500D01*
X104140000Y-101854000D02*
X104140000Y-104599500D01*
X70485000Y-87874010D02*
X90001576Y-87874010D01*
X90001576Y-87874010D02*
X91898088Y-85977498D01*
X91898088Y-85977498D02*
X93234736Y-85977498D01*
X93234736Y-85977498D02*
X93659000Y-85977498D01*
X69215000Y-86804500D02*
X69659500Y-87249000D01*
X69659500Y-87249000D02*
X87020400Y-87249000D01*
D56*
X97002500Y-107569000D02*
X97002500Y-106908500D01*
X96840000Y-106746000D02*
X96840000Y-105775000D01*
X97002500Y-106908500D02*
X96840000Y-106746000D01*
D54*
X104738000Y-97700000D02*
X104775000Y-97663000D01*
X103835000Y-97700000D02*
X104738000Y-97700000D01*
X77191500Y-111061500D02*
X77165000Y-111035000D01*
X78041500Y-111061500D02*
X77191500Y-111061500D01*
X77165000Y-112035000D02*
X76868500Y-112331500D01*
X77165000Y-111035000D02*
X77165000Y-112035000D01*
X76868500Y-112331500D02*
X70485000Y-112331500D01*
X68643500Y-110490000D02*
X66675000Y-110490000D01*
X70485000Y-112331500D02*
X68643500Y-110490000D01*
X65659000Y-106680000D02*
X66675000Y-106680000D01*
X65722500Y-110490000D02*
X64960500Y-109728000D01*
X66675000Y-110490000D02*
X65722500Y-110490000D01*
X64960500Y-109728000D02*
X64960500Y-107378500D01*
X64960500Y-107378500D02*
X65659000Y-106680000D01*
D56*
X111898630Y-95480000D02*
X113030000Y-95480000D01*
X111847500Y-95480000D02*
X111898630Y-95480000D01*
X109627500Y-97700000D02*
X111847500Y-95480000D01*
X103835000Y-97700000D02*
X109627500Y-97700000D01*
X103835000Y-99174500D02*
X103835000Y-97700000D01*
X96840000Y-105775000D02*
X96840000Y-102740500D01*
X96840000Y-102740500D02*
X99822000Y-99758500D01*
X99822000Y-99758500D02*
X103251000Y-99758500D01*
X103251000Y-99758500D02*
X103835000Y-99174500D01*
D54*
X100203000Y-109093000D02*
X100203000Y-110845500D01*
X97002500Y-107569000D02*
X97002500Y-108144000D01*
X97002500Y-108144000D02*
X97227510Y-108369010D01*
X99479010Y-108369010D02*
X100203000Y-109093000D01*
X97227510Y-108369010D02*
X99479010Y-108369010D01*
X93726000Y-111971000D02*
X94150000Y-112395000D01*
X92274592Y-106823447D02*
X92291039Y-106807000D01*
X94150000Y-112395000D02*
X95250000Y-112395000D01*
X92291039Y-106807000D02*
X92837000Y-106807000D01*
X92837000Y-106807000D02*
X93726000Y-107696000D01*
X93726000Y-107696000D02*
X93726000Y-111971000D01*
D56*
X96762553Y-106823447D02*
X96840000Y-106746000D01*
X92274592Y-106823447D02*
X96762553Y-106823447D01*
D57*
X74965100Y-94906400D02*
X74546700Y-94488000D01*
X76604600Y-94906400D02*
X74965100Y-94906400D01*
D54*
X74523600Y-95311100D02*
X74523600Y-98462398D01*
X74523600Y-98462398D02*
X70205600Y-102780398D01*
X74546700Y-94488000D02*
X74546700Y-95288000D01*
X74546700Y-95288000D02*
X74523600Y-95311100D01*
X70205600Y-102780398D02*
X70205600Y-105257600D01*
X70205600Y-105257600D02*
X68656200Y-106807000D01*
X68656200Y-106807000D02*
X66675000Y-106807000D01*
X78804610Y-94181400D02*
X78829600Y-94181400D01*
X76604600Y-93787812D02*
X77047412Y-93345000D01*
X76604600Y-94906400D02*
X76604600Y-93787812D01*
X77047412Y-93345000D02*
X78389965Y-93345000D01*
X78804610Y-93759645D02*
X78804610Y-94181400D01*
X78389965Y-93345000D02*
X78804610Y-93759645D01*
X98298000Y-112395000D02*
X100177500Y-112395000D01*
X97122999Y-113570001D02*
X98298000Y-112395000D01*
X94520001Y-113570001D02*
X97122999Y-113570001D01*
X93275990Y-112325990D02*
X94520001Y-113570001D01*
X100177500Y-112395000D02*
X100203000Y-112420500D01*
X88519000Y-108950000D02*
X89169000Y-108950000D01*
X93275990Y-111055990D02*
X93275990Y-112325990D01*
X89169000Y-108950000D02*
X89947000Y-109728000D01*
X89947000Y-109728000D02*
X91948000Y-109728000D01*
X91948000Y-109728000D02*
X93275990Y-111055990D01*
X68531000Y-104140000D02*
X66675000Y-104140000D01*
X69231000Y-104140000D02*
X68531000Y-104140000D01*
X91290054Y-87934800D02*
X90865790Y-87934800D01*
X91696454Y-87528400D02*
X91290054Y-87934800D01*
X92456000Y-87528400D02*
X91696454Y-87528400D01*
X79646501Y-104884499D02*
X79646501Y-106281499D01*
X79946500Y-104584500D02*
X79646501Y-104884499D01*
X79646501Y-106281499D02*
X78994000Y-106934000D01*
X103835000Y-92800000D02*
X103835000Y-94666000D01*
X100330000Y-95631000D02*
X99885516Y-95186516D01*
X103835000Y-94666000D02*
X102870000Y-95631000D01*
X99885516Y-95186516D02*
X99822000Y-95186516D01*
X102870000Y-95631000D02*
X100330000Y-95631000D01*
X94234000Y-97282000D02*
X92391000Y-99125000D01*
X97726516Y-97282000D02*
X94234000Y-97282000D01*
X92391000Y-99125000D02*
X92391000Y-101409500D01*
X99822000Y-95186516D02*
X97726516Y-97282000D01*
X76590999Y-96433801D02*
X76606400Y-96418400D01*
X76835000Y-101210000D02*
X76835000Y-100660000D01*
X76403200Y-96621600D02*
X76590999Y-96433801D01*
X76835000Y-100660000D02*
X76403200Y-100228200D01*
X76403200Y-100228200D02*
X76403200Y-96621600D01*
X78486000Y-109220000D02*
X66675000Y-109220000D01*
X80571501Y-107134499D02*
X78486000Y-109220000D01*
X80571501Y-104066501D02*
X80571501Y-107134499D01*
X79946500Y-103441500D02*
X80571501Y-104066501D01*
X101065500Y-97700000D02*
X102171500Y-98806000D01*
X100635000Y-97700000D02*
X101065500Y-97700000D01*
X104902000Y-107236500D02*
X104902000Y-108917500D01*
X103045490Y-108917500D02*
X102996990Y-108966000D01*
X104902000Y-108917500D02*
X103045490Y-108917500D01*
X84709000Y-104165500D02*
X85953500Y-105410000D01*
X84709000Y-100965000D02*
X84709000Y-104165500D01*
X91694000Y-98297992D02*
X91694000Y-102793802D01*
X91694000Y-102793802D02*
X92410001Y-103509803D01*
X92410001Y-103509803D02*
X92710000Y-103809802D01*
X117957600Y-92659200D02*
X117957600Y-94439500D01*
X116611400Y-91313000D02*
X117957600Y-92659200D01*
X110236000Y-91313000D02*
X116611400Y-91313000D01*
X109728000Y-91821000D02*
X110236000Y-91313000D01*
X109728000Y-94742000D02*
X109728000Y-91821000D01*
X88455500Y-92011500D02*
X92900500Y-92011500D01*
X86106000Y-89662000D02*
X88455500Y-92011500D01*
X107061000Y-95631000D02*
X108839000Y-95631000D01*
X92900500Y-92011500D02*
X93472000Y-91440000D01*
X80645000Y-89662000D02*
X86106000Y-89662000D01*
X93472000Y-91440000D02*
X105791000Y-91440000D01*
X105791000Y-91440000D02*
X106172000Y-91821000D01*
X106172000Y-91821000D02*
X106172000Y-94742000D01*
X108839000Y-95631000D02*
X109728000Y-94742000D01*
X106172000Y-94742000D02*
X107061000Y-95631000D01*
X85852000Y-90297000D02*
X80010000Y-90297000D01*
X88138000Y-92583000D02*
X85852000Y-90297000D01*
X96647000Y-92583000D02*
X88138000Y-92583000D01*
X97155000Y-92075000D02*
X96647000Y-92583000D01*
D56*
X97790000Y-102870000D02*
X97790000Y-103775000D01*
X98806000Y-101854000D02*
X97790000Y-102870000D01*
X101600000Y-101854000D02*
X98806000Y-101854000D01*
D54*
X77329600Y-98895602D02*
X77216000Y-99009202D01*
X77329600Y-97131400D02*
X77329600Y-98895602D01*
X78329600Y-97887600D02*
X78329600Y-97131400D01*
X80645000Y-100203000D02*
X78329600Y-97887600D01*
X80645000Y-101210000D02*
X80645000Y-100203000D01*
X69215000Y-88519000D02*
X78105000Y-88519000D01*
X107950000Y-91821000D02*
X106426000Y-90297000D01*
X92481400Y-90297000D02*
X92349599Y-90428801D01*
X92349599Y-90428801D02*
X92049600Y-90728800D01*
X106426000Y-90297000D02*
X92481400Y-90297000D01*
X89052400Y-90728800D02*
X92049600Y-90728800D01*
X78105000Y-88519000D02*
X78529264Y-88519000D01*
X78646265Y-88401999D02*
X86725599Y-88401999D01*
X78529264Y-88519000D02*
X78646265Y-88401999D01*
X86725599Y-88401999D02*
X89052400Y-90728800D01*
D55*
X77825600Y-89869000D02*
X77825600Y-90704900D01*
X77735600Y-89779000D02*
X77825600Y-89869000D01*
D54*
X118084600Y-90297000D02*
X109601000Y-90297000D01*
X108077000Y-91821000D02*
X107950000Y-91821000D01*
X119964200Y-92176600D02*
X118084600Y-90297000D01*
X119964200Y-97690010D02*
X119964200Y-92176600D01*
X120052548Y-97778358D02*
X119964200Y-97690010D01*
X109601000Y-90297000D02*
X108077000Y-91821000D01*
X119141213Y-100441787D02*
X119964200Y-99618800D01*
X120052548Y-98249536D02*
X120052548Y-97778358D01*
X119964200Y-99618800D02*
X119964200Y-98337884D01*
X119964200Y-98337884D02*
X120052548Y-98249536D01*
X71247000Y-89154000D02*
X69977000Y-90424000D01*
X78522002Y-89027000D02*
X78395002Y-89154000D01*
X78395002Y-89154000D02*
X71247000Y-89154000D01*
X79248000Y-89027000D02*
X78522002Y-89027000D01*
X69390500Y-90424000D02*
X69977000Y-90424000D01*
X106680000Y-93091000D02*
X107950000Y-94361000D01*
X106680000Y-91440000D02*
X106680000Y-93091000D01*
X93033010Y-90862990D02*
X106102990Y-90862990D01*
X79248000Y-89027000D02*
X86360000Y-89027000D01*
X106102990Y-90862990D02*
X106680000Y-91440000D01*
X86360000Y-89027000D02*
X88722200Y-91389200D01*
X92506800Y-91389200D02*
X93033010Y-90862990D01*
X88722200Y-91389200D02*
X91338400Y-91389200D01*
X91338400Y-91389200D02*
X92506800Y-91389200D01*
D55*
X78325600Y-89223402D02*
X78522002Y-89027000D01*
X78325600Y-90450900D02*
X78325600Y-89223402D01*
D54*
X109220000Y-93091000D02*
X107950000Y-94361000D01*
X109220000Y-91567000D02*
X109220000Y-93091000D01*
X109982000Y-90805000D02*
X109220000Y-91567000D01*
X117500400Y-90805000D02*
X109982000Y-90805000D01*
X119354600Y-98044000D02*
X119354600Y-92659200D01*
X119354600Y-92659200D02*
X117500400Y-90805000D01*
X88506500Y-83759000D02*
X89154000Y-84406500D01*
X87233000Y-83759000D02*
X88506500Y-83759000D01*
X83686400Y-93148400D02*
X85686900Y-93148400D01*
X81928400Y-94906400D02*
X83686400Y-93148400D01*
X79554600Y-94906400D02*
X81928400Y-94906400D01*
X79554600Y-95406400D02*
X82787300Y-95406400D01*
X83045300Y-95148400D02*
X85686900Y-95148400D01*
X82787300Y-95406400D02*
X83045300Y-95148400D01*
X77138500Y-106108500D02*
X77165000Y-106135000D01*
X75755500Y-106108500D02*
X77138500Y-106108500D01*
X117957600Y-97129600D02*
X117957600Y-96314500D01*
X116837200Y-98250000D02*
X117957600Y-97129600D01*
X113030000Y-98250000D02*
X116837200Y-98250000D01*
X108404900Y-98806000D02*
X109829600Y-98806000D01*
X111770600Y-96865000D02*
X115870000Y-96865000D01*
X109829600Y-98806000D02*
X111770600Y-96865000D01*
X74921800Y-84210000D02*
X74153400Y-84978400D01*
X76835000Y-84210000D02*
X74921800Y-84210000D01*
X66675000Y-80750000D02*
X66253400Y-80328400D01*
X66675000Y-82143600D02*
X66675000Y-80750000D01*
X117067774Y-101020000D02*
X117815387Y-101767613D01*
X113030000Y-101020000D02*
X117067774Y-101020000D01*
X117217500Y-99635000D02*
X117662987Y-99189513D01*
X115870000Y-99635000D02*
X117217500Y-99635000D01*
G04 #@! TA.AperFunction,Conductor*
G36*
X65148392Y-79343502D02*
G01*
X65194885Y-79397158D01*
X65204989Y-79467432D01*
X65185037Y-79519501D01*
X65142033Y-79583860D01*
X65127500Y-79656922D01*
X65127500Y-81406277D01*
X65142033Y-81479339D01*
X65160405Y-81506835D01*
X65197399Y-81562201D01*
X65280260Y-81617566D01*
X65353326Y-81632100D01*
X66118095Y-81632100D01*
X66186216Y-81652102D01*
X66232709Y-81705758D01*
X66242813Y-81776032D01*
X66218057Y-81834804D01*
X66194137Y-81865975D01*
X66138670Y-81999890D01*
X66119750Y-82143599D01*
X66119750Y-82143600D01*
X66138670Y-82287309D01*
X66194137Y-82421224D01*
X66282378Y-82536221D01*
X66397375Y-82624462D01*
X66481821Y-82659439D01*
X66531291Y-82679930D01*
X66675000Y-82698850D01*
X66818709Y-82679930D01*
X66905349Y-82644043D01*
X66952624Y-82624462D01*
X67067621Y-82536221D01*
X67155862Y-82421224D01*
X67179075Y-82365180D01*
X67211330Y-82287309D01*
X67230250Y-82143600D01*
X67211330Y-81999891D01*
X67187138Y-81941487D01*
X67155863Y-81865978D01*
X67155861Y-81865975D01*
X67115977Y-81813997D01*
X67090377Y-81747780D01*
X67104641Y-81678231D01*
X67154242Y-81627434D01*
X67167728Y-81620884D01*
X67175735Y-81617566D01*
X67175740Y-81617566D01*
X67258601Y-81562201D01*
X67313966Y-81479340D01*
X67328500Y-81406274D01*
X67328500Y-79656926D01*
X67313966Y-79583860D01*
X67270962Y-79519499D01*
X67249749Y-79451748D01*
X67268532Y-79383281D01*
X67321350Y-79335839D01*
X67375729Y-79323500D01*
X72060185Y-79323500D01*
X72128306Y-79343502D01*
X72174799Y-79397158D01*
X72184903Y-79467432D01*
X72155409Y-79532012D01*
X72136889Y-79549462D01*
X72048378Y-79617378D01*
X71960137Y-79732375D01*
X71904670Y-79866290D01*
X71885750Y-80009999D01*
X71885750Y-80010000D01*
X71904670Y-80153709D01*
X71960136Y-80287621D01*
X71960138Y-80287624D01*
X71960139Y-80287625D01*
X72039462Y-80391001D01*
X72065063Y-80457220D01*
X72065500Y-80467704D01*
X72065500Y-82011872D01*
X72045498Y-82079993D01*
X72028595Y-82100967D01*
X71814167Y-82315395D01*
X71751855Y-82349421D01*
X71725072Y-82352300D01*
X69711756Y-82352300D01*
X69643635Y-82332298D01*
X69597142Y-82278642D01*
X69587038Y-82208368D01*
X69616532Y-82143788D01*
X69637695Y-82124364D01*
X69720693Y-82064062D01*
X69733871Y-82054488D01*
X69779669Y-82003625D01*
X69860533Y-81913816D01*
X69860534Y-81913814D01*
X69955179Y-81749884D01*
X69969517Y-81705758D01*
X70013674Y-81569856D01*
X70024567Y-81466209D01*
X70033460Y-81381600D01*
X70013674Y-81193344D01*
X70013674Y-81193343D01*
X69955181Y-81013321D01*
X69955177Y-81013313D01*
X69860534Y-80849385D01*
X69860533Y-80849383D01*
X69733873Y-80708713D01*
X69580732Y-80597450D01*
X69580732Y-80597449D01*
X69442086Y-80535720D01*
X69407803Y-80520456D01*
X69407801Y-80520455D01*
X69407800Y-80520455D01*
X69222646Y-80481100D01*
X69033354Y-80481100D01*
X68848199Y-80520455D01*
X68675267Y-80597449D01*
X68675267Y-80597450D01*
X68522126Y-80708713D01*
X68395466Y-80849383D01*
X68395465Y-80849385D01*
X68300822Y-81013313D01*
X68300818Y-81013321D01*
X68242325Y-81193343D01*
X68222540Y-81381600D01*
X68242325Y-81569856D01*
X68300818Y-81749878D01*
X68300822Y-81749886D01*
X68395465Y-81913814D01*
X68395466Y-81913816D01*
X68522126Y-82054486D01*
X68618305Y-82124364D01*
X68661659Y-82180586D01*
X68667734Y-82251322D01*
X68634603Y-82314114D01*
X68572783Y-82349025D01*
X68544244Y-82352300D01*
X68174811Y-82352300D01*
X68148952Y-82349618D01*
X68138529Y-82347432D01*
X68114436Y-82350436D01*
X68103363Y-82351816D01*
X68095574Y-82352300D01*
X68091682Y-82352300D01*
X68076334Y-82354861D01*
X68068659Y-82356142D01*
X68050566Y-82358397D01*
X68014178Y-82362933D01*
X68014175Y-82362933D01*
X68014174Y-82362934D01*
X68014173Y-82362934D01*
X68006629Y-82365180D01*
X67999191Y-82367734D01*
X67950922Y-82393855D01*
X67901591Y-82417972D01*
X67895188Y-82422543D01*
X67888975Y-82427380D01*
X67851792Y-82467770D01*
X66649455Y-83670105D01*
X66629280Y-83686490D01*
X66620366Y-83692314D01*
X66620365Y-83692315D01*
X66598603Y-83720272D01*
X66593444Y-83726116D01*
X66590681Y-83728879D01*
X66577104Y-83747896D01*
X66543390Y-83791210D01*
X66539648Y-83798126D01*
X66536189Y-83805201D01*
X66520529Y-83857803D01*
X66502699Y-83909741D01*
X66501409Y-83917473D01*
X66500431Y-83925315D01*
X66502700Y-83980155D01*
X66502700Y-86638189D01*
X66500018Y-86664046D01*
X66497832Y-86674467D01*
X66499305Y-86686277D01*
X66502216Y-86709636D01*
X66502700Y-86717425D01*
X66502700Y-86721314D01*
X66506542Y-86744340D01*
X66513332Y-86798820D01*
X66515583Y-86806380D01*
X66518133Y-86813808D01*
X66544255Y-86862077D01*
X66568374Y-86911412D01*
X66572955Y-86917827D01*
X66577776Y-86924022D01*
X66583109Y-86928931D01*
X66618171Y-86961208D01*
X67068252Y-87411289D01*
X67102276Y-87473600D01*
X67097212Y-87544415D01*
X67054665Y-87601251D01*
X67023191Y-87618438D01*
X67006943Y-87624498D01*
X67006942Y-87624498D01*
X66893168Y-87709668D01*
X66807998Y-87823442D01*
X66807996Y-87823447D01*
X66758329Y-87956605D01*
X66758327Y-87956613D01*
X66752000Y-88015467D01*
X66752000Y-89022512D01*
X66752002Y-89022536D01*
X66758328Y-89081388D01*
X66758328Y-89081390D01*
X66807996Y-89214553D01*
X66807998Y-89214557D01*
X66893168Y-89328331D01*
X66962426Y-89380176D01*
X67004972Y-89437011D01*
X67010038Y-89507827D01*
X66976013Y-89570139D01*
X66962427Y-89581912D01*
X66918667Y-89614670D01*
X66833498Y-89728442D01*
X66833496Y-89728447D01*
X66783829Y-89861605D01*
X66783827Y-89861613D01*
X66777500Y-89920467D01*
X66777500Y-90927512D01*
X66777502Y-90927536D01*
X66783828Y-90986388D01*
X66783828Y-90986390D01*
X66833496Y-91119553D01*
X66833498Y-91119557D01*
X66918668Y-91233331D01*
X67032442Y-91318501D01*
X67032444Y-91318501D01*
X67032446Y-91318503D01*
X67090230Y-91340055D01*
X67106534Y-91346137D01*
X67163369Y-91388684D01*
X67188179Y-91455204D01*
X67188500Y-91464192D01*
X67188500Y-94285160D01*
X67168498Y-94353281D01*
X67114842Y-94399774D01*
X67044568Y-94409878D01*
X66979988Y-94380384D01*
X66973405Y-94374255D01*
X66923079Y-94323929D01*
X66923074Y-94323925D01*
X66777599Y-94235982D01*
X66615301Y-94185408D01*
X66544773Y-94179000D01*
X66367200Y-94179000D01*
X66367200Y-95250000D01*
X67188199Y-95250000D01*
X67188199Y-94863026D01*
X67208201Y-94794905D01*
X67261857Y-94748412D01*
X67332131Y-94738308D01*
X67396711Y-94767802D01*
X67403293Y-94773929D01*
X67705408Y-95076045D01*
X68000796Y-95371433D01*
X68034821Y-95433745D01*
X68037700Y-95460528D01*
X68037700Y-96176864D01*
X68037702Y-96176885D01*
X68044108Y-96236479D01*
X68044108Y-96236481D01*
X68044109Y-96236483D01*
X68044691Y-96238043D01*
X68044783Y-96239338D01*
X68045921Y-96244151D01*
X68045140Y-96244335D01*
X68049754Y-96308858D01*
X68015729Y-96371167D01*
X67374079Y-97012816D01*
X67374071Y-97012826D01*
X67357565Y-97035190D01*
X67331698Y-97061233D01*
X67269669Y-97107668D01*
X67184498Y-97221442D01*
X67184498Y-97221443D01*
X67151340Y-97310340D01*
X67108792Y-97367175D01*
X67042272Y-97391984D01*
X66972898Y-97376892D01*
X66922696Y-97326688D01*
X66912990Y-97303790D01*
X66872526Y-97173934D01*
X66785368Y-97029758D01*
X66785364Y-97029753D01*
X66734290Y-96978679D01*
X66700264Y-96916367D01*
X66705329Y-96845552D01*
X66747876Y-96788716D01*
X66771673Y-96774685D01*
X66777597Y-96772018D01*
X66923074Y-96684074D01*
X66923079Y-96684070D01*
X67043270Y-96563879D01*
X67043274Y-96563874D01*
X67131217Y-96418399D01*
X67131217Y-96418398D01*
X67181791Y-96256103D01*
X67181791Y-96256099D01*
X67188200Y-96185572D01*
X67188200Y-95758000D01*
X66367200Y-95758000D01*
X66367200Y-96743000D01*
X66347198Y-96811121D01*
X66293542Y-96857614D01*
X66246694Y-96867804D01*
X66245500Y-96868999D01*
X66245500Y-99066999D01*
X66291316Y-99066999D01*
X66361216Y-99060648D01*
X66522064Y-99010526D01*
X66522065Y-99010526D01*
X66666241Y-98923368D01*
X66666246Y-98923364D01*
X66785364Y-98804246D01*
X66785368Y-98804241D01*
X66872526Y-98660065D01*
X66872526Y-98660064D01*
X66912991Y-98530209D01*
X66952353Y-98471123D01*
X67017411Y-98442698D01*
X67087509Y-98453958D01*
X67140392Y-98501329D01*
X67151341Y-98523661D01*
X67184496Y-98612553D01*
X67184499Y-98612558D01*
X67220063Y-98660065D01*
X67240162Y-98686914D01*
X67240867Y-98687855D01*
X67265679Y-98754375D01*
X67266000Y-98763365D01*
X67266000Y-99929705D01*
X67245998Y-99997826D01*
X67229095Y-100018801D01*
X66610978Y-100636917D01*
X66548666Y-100670942D01*
X66538332Y-100672743D01*
X66531291Y-100673670D01*
X66531289Y-100673670D01*
X66397375Y-100729137D01*
X66282378Y-100817378D01*
X66194137Y-100932375D01*
X66138670Y-101066290D01*
X66119750Y-101209999D01*
X66119750Y-101210000D01*
X66138670Y-101353709D01*
X66194137Y-101487624D01*
X66282378Y-101602621D01*
X66397375Y-101690862D01*
X66481821Y-101725839D01*
X66531291Y-101746330D01*
X66675000Y-101765250D01*
X66818709Y-101746330D01*
X66903155Y-101711351D01*
X66952624Y-101690862D01*
X67067621Y-101602621D01*
X67090634Y-101572630D01*
X67155861Y-101487625D01*
X67193592Y-101396531D01*
X67238136Y-101341255D01*
X67305499Y-101318832D01*
X67374291Y-101336389D01*
X67422670Y-101388350D01*
X67426408Y-101396534D01*
X67464138Y-101487625D01*
X67552378Y-101602621D01*
X67667375Y-101690862D01*
X67751821Y-101725839D01*
X67801291Y-101746330D01*
X67945000Y-101765250D01*
X68088709Y-101746330D01*
X68173155Y-101711351D01*
X68222624Y-101690862D01*
X68326001Y-101611538D01*
X68392221Y-101585937D01*
X68402705Y-101585500D01*
X68917989Y-101585500D01*
X68943847Y-101588181D01*
X68954268Y-101590367D01*
X68989436Y-101585983D01*
X68997226Y-101585500D01*
X69001107Y-101585500D01*
X69001114Y-101585500D01*
X69024140Y-101581657D01*
X69078626Y-101574866D01*
X69078627Y-101574865D01*
X69078630Y-101574865D01*
X69086136Y-101572630D01*
X69093604Y-101570065D01*
X69093610Y-101570065D01*
X69141877Y-101543944D01*
X69191211Y-101519826D01*
X69191214Y-101519823D01*
X69197603Y-101515261D01*
X69203819Y-101510422D01*
X69203826Y-101510419D01*
X69241008Y-101470028D01*
X69649246Y-101061789D01*
X69669418Y-101045409D01*
X69678336Y-101039584D01*
X69700106Y-101011611D01*
X69705271Y-101005764D01*
X69708019Y-101003018D01*
X69721585Y-100984016D01*
X69755309Y-100940689D01*
X69755309Y-100940686D01*
X69759053Y-100933769D01*
X69762509Y-100926701D01*
X69768043Y-100908115D01*
X69771531Y-100896395D01*
X69778171Y-100874095D01*
X69799390Y-100812286D01*
X69801118Y-100812879D01*
X69826609Y-100760231D01*
X69875918Y-100726810D01*
X69903554Y-100716503D01*
X69913249Y-100709246D01*
X70017331Y-100631331D01*
X70102501Y-100517557D01*
X70102503Y-100517553D01*
X70107209Y-100504938D01*
X70135659Y-100428661D01*
X70178206Y-100371825D01*
X70244726Y-100347015D01*
X70314100Y-100362107D01*
X70364302Y-100412309D01*
X70374009Y-100435209D01*
X70414473Y-100565064D01*
X70414473Y-100565065D01*
X70501631Y-100709241D01*
X70501635Y-100709246D01*
X70620753Y-100828364D01*
X70620758Y-100828368D01*
X70764934Y-100915526D01*
X70925783Y-100965648D01*
X70995684Y-100971999D01*
X71178768Y-100971999D01*
X71246889Y-100992001D01*
X71293382Y-101045656D01*
X71303487Y-101115930D01*
X71273994Y-101180511D01*
X71267864Y-101187094D01*
X69976855Y-102478103D01*
X69956680Y-102494488D01*
X69947766Y-102500312D01*
X69947765Y-102500313D01*
X69926003Y-102528270D01*
X69920844Y-102534114D01*
X69918081Y-102536877D01*
X69904504Y-102555894D01*
X69870790Y-102599208D01*
X69867048Y-102606124D01*
X69863589Y-102613199D01*
X69847929Y-102665801D01*
X69830099Y-102717739D01*
X69828809Y-102725471D01*
X69827831Y-102733313D01*
X69830100Y-102788153D01*
X69830100Y-103363500D01*
X69810098Y-103431621D01*
X69756442Y-103478114D01*
X69704100Y-103489500D01*
X68756322Y-103489500D01*
X68683260Y-103504033D01*
X68600399Y-103559399D01*
X68545033Y-103642260D01*
X68540892Y-103663082D01*
X68507984Y-103725992D01*
X68446289Y-103761123D01*
X68417313Y-103764500D01*
X67951500Y-103764500D01*
X67883379Y-103744498D01*
X67836886Y-103690842D01*
X67825500Y-103638500D01*
X67825500Y-103342325D01*
X67825499Y-103342322D01*
X67817145Y-103300326D01*
X67810966Y-103269260D01*
X67755601Y-103186399D01*
X67700235Y-103149405D01*
X67672739Y-103131033D01*
X67599677Y-103116500D01*
X67599674Y-103116500D01*
X65750326Y-103116500D01*
X65750322Y-103116500D01*
X65677260Y-103131033D01*
X65594399Y-103186399D01*
X65539033Y-103269260D01*
X65524500Y-103342322D01*
X65524500Y-105191677D01*
X65539033Y-105264739D01*
X65539034Y-105264740D01*
X65594399Y-105347601D01*
X65677260Y-105402966D01*
X65750326Y-105417500D01*
X66487171Y-105417500D01*
X66555292Y-105437502D01*
X66601785Y-105491158D01*
X66611889Y-105561432D01*
X66582395Y-105626012D01*
X66522669Y-105664396D01*
X66510333Y-105667352D01*
X66421859Y-105683891D01*
X66358800Y-105695679D01*
X66245998Y-105739379D01*
X66159981Y-105772702D01*
X66159980Y-105772702D01*
X66159979Y-105772703D01*
X66159974Y-105772705D01*
X65978701Y-105884945D01*
X65978699Y-105884946D01*
X65821128Y-106028592D01*
X65821126Y-106028595D01*
X65692633Y-106198746D01*
X65692630Y-106198751D01*
X65670385Y-106243423D01*
X65622115Y-106295486D01*
X65573185Y-106312290D01*
X65550378Y-106315133D01*
X65550375Y-106315133D01*
X65550374Y-106315134D01*
X65550373Y-106315134D01*
X65542829Y-106317380D01*
X65535391Y-106319934D01*
X65487122Y-106346055D01*
X65437791Y-106370172D01*
X65431388Y-106374743D01*
X65425175Y-106379580D01*
X65387992Y-106419970D01*
X64731752Y-107076208D01*
X64711577Y-107092592D01*
X64702666Y-107098414D01*
X64702665Y-107098415D01*
X64680903Y-107126372D01*
X64675744Y-107132216D01*
X64672981Y-107134979D01*
X64659404Y-107153996D01*
X64625690Y-107197310D01*
X64621948Y-107204226D01*
X64618489Y-107211301D01*
X64602829Y-107263903D01*
X64584999Y-107315841D01*
X64583709Y-107323573D01*
X64582731Y-107331415D01*
X64585000Y-107386255D01*
X64585000Y-109675989D01*
X64582318Y-109701846D01*
X64580132Y-109712267D01*
X64581487Y-109723131D01*
X64584516Y-109747436D01*
X64585000Y-109755225D01*
X64585000Y-109759114D01*
X64586247Y-109766587D01*
X64588842Y-109782140D01*
X64595632Y-109836620D01*
X64597883Y-109844180D01*
X64600433Y-109851608D01*
X64626555Y-109899877D01*
X64650674Y-109949212D01*
X64655255Y-109955627D01*
X64660076Y-109961822D01*
X64700061Y-109998631D01*
X64700471Y-109999008D01*
X65420205Y-110718742D01*
X65436586Y-110738913D01*
X65442416Y-110747836D01*
X65470383Y-110769603D01*
X65476234Y-110774771D01*
X65478983Y-110777520D01*
X65497986Y-110791088D01*
X65541311Y-110824809D01*
X65541313Y-110824809D01*
X65548239Y-110828558D01*
X65555295Y-110832007D01*
X65555298Y-110832007D01*
X65555301Y-110832010D01*
X65607903Y-110847670D01*
X65659840Y-110865500D01*
X65659842Y-110865500D01*
X65667581Y-110866792D01*
X65675412Y-110867768D01*
X65730256Y-110865500D01*
X65803736Y-110865500D01*
X65871857Y-110885502D01*
X65910423Y-110924464D01*
X65968982Y-111017660D01*
X65968983Y-111017662D01*
X66096537Y-111145216D01*
X66096539Y-111145217D01*
X66249274Y-111241187D01*
X66249275Y-111241187D01*
X66249278Y-111241189D01*
X66419545Y-111300768D01*
X66419550Y-111300768D01*
X66419552Y-111300769D01*
X66436399Y-111302667D01*
X66501853Y-111330169D01*
X66511389Y-111338780D01*
X66583009Y-111410400D01*
X66567727Y-111410400D01*
X66475354Y-111425814D01*
X66365286Y-111485381D01*
X66280522Y-111577459D01*
X66230249Y-111692070D01*
X66223822Y-111769631D01*
X65734752Y-111280561D01*
X65670450Y-111400866D01*
X65670448Y-111400871D01*
X65613267Y-111589372D01*
X65593961Y-111785397D01*
X65593961Y-111785402D01*
X65613267Y-111981427D01*
X65670448Y-112169928D01*
X65670453Y-112169942D01*
X65734751Y-112290236D01*
X66220972Y-111804016D01*
X66219914Y-111816795D01*
X66250637Y-111938119D01*
X66319089Y-112042892D01*
X66417852Y-112119763D01*
X66536224Y-112160400D01*
X66583010Y-112160400D01*
X66511388Y-112232021D01*
X66449075Y-112266046D01*
X66436403Y-112268132D01*
X66419553Y-112270030D01*
X66419539Y-112270033D01*
X66249277Y-112329611D01*
X66249274Y-112329612D01*
X66096539Y-112425582D01*
X66096537Y-112425583D01*
X65968983Y-112553137D01*
X65968982Y-112553139D01*
X65873012Y-112705874D01*
X65873011Y-112705877D01*
X65828302Y-112833648D01*
X65813432Y-112876145D01*
X65793235Y-113055400D01*
X65813432Y-113234655D01*
X65873011Y-113404922D01*
X65873012Y-113404925D01*
X65968982Y-113557660D01*
X65968983Y-113557662D01*
X66096537Y-113685216D01*
X66096539Y-113685217D01*
X66249274Y-113781187D01*
X66249275Y-113781187D01*
X66249278Y-113781189D01*
X66419545Y-113840768D01*
X66598800Y-113860965D01*
X66778055Y-113840768D01*
X66948322Y-113781189D01*
X67101062Y-113685216D01*
X67228616Y-113557662D01*
X67324589Y-113404922D01*
X67384168Y-113234655D01*
X67404365Y-113055400D01*
X67384168Y-112876145D01*
X67324589Y-112705878D01*
X67324587Y-112705875D01*
X67324587Y-112705874D01*
X67228617Y-112553139D01*
X67228616Y-112553137D01*
X67101062Y-112425583D01*
X67101060Y-112425582D01*
X66948325Y-112329612D01*
X66948322Y-112329611D01*
X66778058Y-112270033D01*
X66778057Y-112270032D01*
X66778055Y-112270032D01*
X66761194Y-112268132D01*
X66695743Y-112240628D01*
X66686209Y-112232020D01*
X66614590Y-112160400D01*
X66629873Y-112160400D01*
X66722246Y-112144986D01*
X66832314Y-112085419D01*
X66917078Y-111993341D01*
X66967351Y-111878730D01*
X66973777Y-111801168D01*
X67462846Y-112290237D01*
X67462847Y-112290236D01*
X67527149Y-112169935D01*
X67584332Y-111981427D01*
X67603639Y-111785402D01*
X67603639Y-111785397D01*
X67584332Y-111589372D01*
X67527149Y-111400864D01*
X67462847Y-111280562D01*
X66976627Y-111766781D01*
X66977686Y-111754005D01*
X66946963Y-111632681D01*
X66878511Y-111527908D01*
X66779748Y-111451037D01*
X66661376Y-111410400D01*
X66614590Y-111410400D01*
X66686209Y-111338780D01*
X66748521Y-111304755D01*
X66761198Y-111302667D01*
X66768985Y-111301789D01*
X66778047Y-111300769D01*
X66778047Y-111300768D01*
X66778055Y-111300768D01*
X66948322Y-111241189D01*
X67101062Y-111145216D01*
X67228616Y-111017662D01*
X67245292Y-110991121D01*
X67287177Y-110924464D01*
X67340355Y-110877426D01*
X67393864Y-110865500D01*
X68435773Y-110865500D01*
X68503894Y-110885502D01*
X68524868Y-110902405D01*
X70182701Y-112560238D01*
X70199086Y-112580413D01*
X70204916Y-112589336D01*
X70232883Y-112611103D01*
X70238734Y-112616271D01*
X70241482Y-112619019D01*
X70241485Y-112619021D01*
X70260482Y-112632585D01*
X70303806Y-112666306D01*
X70303809Y-112666308D01*
X70303811Y-112666309D01*
X70303812Y-112666309D01*
X70310731Y-112670053D01*
X70317798Y-112673508D01*
X70317801Y-112673510D01*
X70370405Y-112689171D01*
X70422340Y-112707000D01*
X70422347Y-112707000D01*
X70430107Y-112708295D01*
X70437911Y-112709268D01*
X70492755Y-112707000D01*
X76816489Y-112707000D01*
X76842347Y-112709681D01*
X76852768Y-112711867D01*
X76887936Y-112707483D01*
X76895726Y-112707000D01*
X76899607Y-112707000D01*
X76899614Y-112707000D01*
X76922640Y-112703157D01*
X76977126Y-112696366D01*
X76977127Y-112696365D01*
X76977130Y-112696365D01*
X76984636Y-112694130D01*
X76992104Y-112691565D01*
X76992110Y-112691565D01*
X77040377Y-112665444D01*
X77089711Y-112641326D01*
X77089714Y-112641323D01*
X77096103Y-112636761D01*
X77102319Y-112631922D01*
X77102326Y-112631919D01*
X77139508Y-112591528D01*
X77393746Y-112337289D01*
X77413918Y-112320909D01*
X77422836Y-112315084D01*
X77444606Y-112287111D01*
X77449771Y-112281264D01*
X77452519Y-112278518D01*
X77466085Y-112259516D01*
X77499809Y-112216189D01*
X77499809Y-112216186D01*
X77503553Y-112209269D01*
X77507009Y-112202201D01*
X77522671Y-112149595D01*
X77532912Y-112119763D01*
X77540500Y-112097660D01*
X77540500Y-112097659D01*
X77541791Y-112089921D01*
X77542766Y-112082092D01*
X77542768Y-112082089D01*
X77542767Y-112082085D01*
X77543468Y-112076469D01*
X77571740Y-112011344D01*
X77630733Y-111971843D01*
X77643920Y-111968470D01*
X77699240Y-111957466D01*
X77782101Y-111902101D01*
X77837466Y-111819240D01*
X77852000Y-111746174D01*
X77852000Y-111735477D01*
X77872002Y-111667356D01*
X77925658Y-111620863D01*
X77994446Y-111610555D01*
X78041500Y-111616750D01*
X78185209Y-111597830D01*
X78269655Y-111562851D01*
X78319124Y-111542362D01*
X78434121Y-111454121D01*
X78522362Y-111339124D01*
X78547409Y-111278652D01*
X78577830Y-111205209D01*
X78596750Y-111061500D01*
X78577830Y-110917791D01*
X78556171Y-110865500D01*
X78522362Y-110783875D01*
X78434121Y-110668878D01*
X78319124Y-110580637D01*
X78185209Y-110525170D01*
X78041500Y-110506250D01*
X78041497Y-110506250D01*
X77994445Y-110512444D01*
X77924296Y-110501504D01*
X77871198Y-110454375D01*
X77852000Y-110387522D01*
X77852000Y-110196825D01*
X77851999Y-110196822D01*
X77845923Y-110166278D01*
X77837466Y-110123760D01*
X77782101Y-110040899D01*
X77719406Y-109999008D01*
X77699239Y-109985533D01*
X77626177Y-109971000D01*
X77626174Y-109971000D01*
X76576826Y-109971000D01*
X76576822Y-109971000D01*
X76503760Y-109985533D01*
X76420899Y-110040899D01*
X76365533Y-110123760D01*
X76351000Y-110196822D01*
X76351000Y-111746179D01*
X76362784Y-111805419D01*
X76356456Y-111876133D01*
X76312902Y-111932200D01*
X76245949Y-111955819D01*
X76239205Y-111956000D01*
X74763795Y-111956000D01*
X74695674Y-111935998D01*
X74649181Y-111882342D01*
X74639077Y-111812068D01*
X74640216Y-111805419D01*
X74651999Y-111746179D01*
X74652000Y-111746174D01*
X74652000Y-110196825D01*
X74651999Y-110196822D01*
X74645923Y-110166278D01*
X74637466Y-110123760D01*
X74582101Y-110040899D01*
X74519406Y-109999008D01*
X74499239Y-109985533D01*
X74426177Y-109971000D01*
X74426174Y-109971000D01*
X73376826Y-109971000D01*
X73376822Y-109971000D01*
X73303760Y-109985533D01*
X73220899Y-110040899D01*
X73165533Y-110123760D01*
X73151000Y-110196822D01*
X73151000Y-111746179D01*
X73162784Y-111805419D01*
X73156456Y-111876133D01*
X73112902Y-111932200D01*
X73045949Y-111955819D01*
X73039205Y-111956000D01*
X70692727Y-111956000D01*
X70624606Y-111935998D01*
X70603632Y-111919095D01*
X69776852Y-111092315D01*
X68945796Y-110261258D01*
X68929409Y-110241080D01*
X68923583Y-110232163D01*
X68919446Y-110228943D01*
X68895611Y-110210392D01*
X68889768Y-110205230D01*
X68887018Y-110202480D01*
X68887016Y-110202478D01*
X68868004Y-110188905D01*
X68844229Y-110170400D01*
X68824689Y-110155191D01*
X68824686Y-110155190D01*
X68824684Y-110155188D01*
X68817777Y-110151450D01*
X68810700Y-110147990D01*
X68758096Y-110132329D01*
X68733134Y-110123760D01*
X68706160Y-110114500D01*
X68706159Y-110114500D01*
X68706156Y-110114499D01*
X68698414Y-110113207D01*
X68690587Y-110112231D01*
X68635744Y-110114500D01*
X67472588Y-110114500D01*
X67404467Y-110094498D01*
X67357974Y-110040842D01*
X67347870Y-109970568D01*
X67367822Y-109918499D01*
X67372516Y-109911473D01*
X67384766Y-109893140D01*
X67399300Y-109820074D01*
X67399300Y-109721500D01*
X67419302Y-109653379D01*
X67472958Y-109606886D01*
X67525300Y-109595500D01*
X78433989Y-109595500D01*
X78459847Y-109598181D01*
X78470268Y-109600367D01*
X78505436Y-109595983D01*
X78513226Y-109595500D01*
X78517107Y-109595500D01*
X78517114Y-109595500D01*
X78540140Y-109591657D01*
X78594626Y-109584866D01*
X78594627Y-109584865D01*
X78594630Y-109584865D01*
X78602136Y-109582630D01*
X78609604Y-109580065D01*
X78609610Y-109580065D01*
X78657877Y-109553944D01*
X78707211Y-109529826D01*
X78707214Y-109529823D01*
X78713603Y-109525261D01*
X78719818Y-109520423D01*
X78719826Y-109520419D01*
X78744276Y-109493858D01*
X78757008Y-109480029D01*
X79780930Y-108456106D01*
X80797336Y-107439700D01*
X82390601Y-107439700D01*
X82390601Y-107485515D01*
X82396951Y-107555416D01*
X82447073Y-107716264D01*
X82447073Y-107716265D01*
X82534231Y-107860441D01*
X82534235Y-107860446D01*
X82653353Y-107979564D01*
X82653358Y-107979568D01*
X82797534Y-108066726D01*
X82958383Y-108116848D01*
X83028284Y-108123199D01*
X83286600Y-108123199D01*
X83286600Y-107439700D01*
X83794600Y-107439700D01*
X83794600Y-108123199D01*
X84052916Y-108123199D01*
X84122816Y-108116848D01*
X84283664Y-108066726D01*
X84283665Y-108066726D01*
X84427841Y-107979568D01*
X84427846Y-107979564D01*
X84546964Y-107860446D01*
X84546968Y-107860441D01*
X84634126Y-107716265D01*
X84634126Y-107716264D01*
X84684248Y-107555418D01*
X84684248Y-107555415D01*
X84690600Y-107485515D01*
X84690600Y-107439700D01*
X83794600Y-107439700D01*
X83286600Y-107439700D01*
X82390601Y-107439700D01*
X80797336Y-107439700D01*
X80800247Y-107436789D01*
X80820420Y-107420408D01*
X80829337Y-107414583D01*
X80851109Y-107386608D01*
X80856264Y-107380773D01*
X80859021Y-107378017D01*
X80872595Y-107359003D01*
X80906310Y-107315688D01*
X80906312Y-107315680D01*
X80910057Y-107308762D01*
X80913511Y-107301698D01*
X80917582Y-107288024D01*
X80929171Y-107249095D01*
X80947001Y-107197159D01*
X80947001Y-107197154D01*
X80948295Y-107189398D01*
X80949269Y-107181586D01*
X80947001Y-107126743D01*
X80947001Y-106931700D01*
X82390600Y-106931700D01*
X84690599Y-106931700D01*
X84690599Y-106885884D01*
X84684248Y-106815983D01*
X84634126Y-106655135D01*
X84634126Y-106655134D01*
X84546968Y-106510958D01*
X84546964Y-106510953D01*
X84427846Y-106391835D01*
X84427841Y-106391831D01*
X84283666Y-106304674D01*
X84153808Y-106264208D01*
X84094723Y-106224845D01*
X84066298Y-106159787D01*
X84077559Y-106089689D01*
X84124929Y-106036807D01*
X84147249Y-106025863D01*
X84236154Y-105992703D01*
X84255057Y-105978553D01*
X84349931Y-105907531D01*
X84435101Y-105793757D01*
X84435101Y-105793756D01*
X84435103Y-105793754D01*
X84484771Y-105660591D01*
X84484771Y-105660589D01*
X84484772Y-105660586D01*
X84491099Y-105601732D01*
X84491099Y-105601730D01*
X84491100Y-105601721D01*
X84491099Y-105019680D01*
X84484771Y-104960809D01*
X84435103Y-104827646D01*
X84435101Y-104827642D01*
X84349931Y-104713868D01*
X84236157Y-104628698D01*
X84236152Y-104628696D01*
X84102994Y-104579029D01*
X84102986Y-104579027D01*
X84044124Y-104572700D01*
X83037087Y-104572700D01*
X83037063Y-104572702D01*
X82978211Y-104579028D01*
X82978209Y-104579028D01*
X82845046Y-104628696D01*
X82845042Y-104628698D01*
X82731268Y-104713868D01*
X82646098Y-104827642D01*
X82646096Y-104827647D01*
X82596429Y-104960805D01*
X82596427Y-104960813D01*
X82590100Y-105019667D01*
X82590100Y-105601712D01*
X82590102Y-105601736D01*
X82596428Y-105660588D01*
X82596428Y-105660590D01*
X82646096Y-105793753D01*
X82646098Y-105793757D01*
X82731268Y-105907531D01*
X82845042Y-105992701D01*
X82845044Y-105992702D01*
X82845046Y-105992703D01*
X82866543Y-106000721D01*
X82933938Y-106025859D01*
X82990774Y-106068406D01*
X83015584Y-106134926D01*
X83000492Y-106204300D01*
X82950289Y-106254502D01*
X82927390Y-106264209D01*
X82797535Y-106304673D01*
X82797534Y-106304673D01*
X82653358Y-106391831D01*
X82653353Y-106391835D01*
X82534235Y-106510953D01*
X82534231Y-106510958D01*
X82447073Y-106655134D01*
X82447073Y-106655135D01*
X82396951Y-106815981D01*
X82396951Y-106815984D01*
X82390600Y-106885884D01*
X82390600Y-106931700D01*
X80947001Y-106931700D01*
X80947001Y-104118511D01*
X80949682Y-104092655D01*
X80951868Y-104082233D01*
X80947484Y-104047064D01*
X80947001Y-104039275D01*
X80947001Y-104035387D01*
X80943158Y-104012361D01*
X80941212Y-103996750D01*
X80936367Y-103957875D01*
X80936365Y-103957871D01*
X80934125Y-103950346D01*
X80931566Y-103942894D01*
X80931566Y-103942891D01*
X80905445Y-103894623D01*
X80881327Y-103845290D01*
X80881325Y-103845288D01*
X80881325Y-103845287D01*
X80876749Y-103838878D01*
X80871923Y-103832678D01*
X80847073Y-103809802D01*
X80831530Y-103795493D01*
X80688575Y-103652538D01*
X80535664Y-103499626D01*
X80501638Y-103437314D01*
X80499840Y-103426999D01*
X80482830Y-103297791D01*
X80456246Y-103233611D01*
X80427362Y-103163875D01*
X80339121Y-103048878D01*
X80224124Y-102960637D01*
X80090209Y-102905170D01*
X79946500Y-102886250D01*
X79802790Y-102905170D01*
X79668875Y-102960637D01*
X79553878Y-103048878D01*
X79465637Y-103163875D01*
X79410170Y-103297790D01*
X79391250Y-103441499D01*
X79391250Y-103441500D01*
X79410170Y-103585209D01*
X79465637Y-103719124D01*
X79553878Y-103834121D01*
X79656724Y-103913038D01*
X79698591Y-103970376D01*
X79702813Y-104041247D01*
X79668049Y-104103150D01*
X79656724Y-104112962D01*
X79553878Y-104191878D01*
X79465637Y-104306875D01*
X79410170Y-104440790D01*
X79393161Y-104569979D01*
X79364438Y-104634905D01*
X79360489Y-104639199D01*
X79358984Y-104640976D01*
X79345405Y-104659995D01*
X79311691Y-104703309D01*
X79307949Y-104710225D01*
X79304490Y-104717300D01*
X79288830Y-104769902D01*
X79271000Y-104821840D01*
X79269710Y-104829572D01*
X79268732Y-104837414D01*
X79271001Y-104892254D01*
X79271001Y-106073769D01*
X79250999Y-106141890D01*
X79234096Y-106162865D01*
X79052125Y-106344835D01*
X78989813Y-106378860D01*
X78979478Y-106380661D01*
X78850290Y-106397670D01*
X78716375Y-106453137D01*
X78601378Y-106541378D01*
X78513137Y-106656375D01*
X78457670Y-106790290D01*
X78438750Y-106933999D01*
X78438750Y-106934000D01*
X78457670Y-107077709D01*
X78513137Y-107211624D01*
X78601378Y-107326621D01*
X78716375Y-107414862D01*
X78800821Y-107449839D01*
X78850291Y-107470330D01*
X78994000Y-107489250D01*
X79137709Y-107470330D01*
X79222155Y-107435351D01*
X79271624Y-107414862D01*
X79386621Y-107326621D01*
X79474862Y-107211624D01*
X79503165Y-107143292D01*
X79530330Y-107077709D01*
X79547338Y-106948518D01*
X79576060Y-106883593D01*
X79583153Y-106875883D01*
X79875247Y-106583789D01*
X79895420Y-106567408D01*
X79904337Y-106561583D01*
X79926109Y-106533608D01*
X79931264Y-106527773D01*
X79934021Y-106525017D01*
X79944058Y-106510958D01*
X79947595Y-106506004D01*
X79970571Y-106476485D01*
X80028197Y-106435015D01*
X80099095Y-106431283D01*
X80160756Y-106466474D01*
X80193603Y-106529415D01*
X80196001Y-106553878D01*
X80196001Y-106926771D01*
X80175999Y-106994892D01*
X80159096Y-107015866D01*
X78367367Y-108807595D01*
X78305055Y-108841621D01*
X78278272Y-108844500D01*
X67525300Y-108844500D01*
X67457179Y-108824498D01*
X67410686Y-108770842D01*
X67399300Y-108718500D01*
X67399300Y-108670725D01*
X67399299Y-108670722D01*
X67398757Y-108667999D01*
X67384766Y-108597660D01*
X67329401Y-108514799D01*
X67274035Y-108477805D01*
X67246539Y-108459433D01*
X67173477Y-108444900D01*
X67173474Y-108444900D01*
X66024126Y-108444900D01*
X66024122Y-108444900D01*
X65951060Y-108459433D01*
X65868199Y-108514799D01*
X65812833Y-108597660D01*
X65798300Y-108670722D01*
X65798300Y-109730571D01*
X65778298Y-109798692D01*
X65724642Y-109845185D01*
X65654368Y-109855289D01*
X65589788Y-109825795D01*
X65583205Y-109819666D01*
X65372905Y-109609366D01*
X65338879Y-109547054D01*
X65336000Y-109520271D01*
X65336000Y-107586227D01*
X65356002Y-107518106D01*
X65372900Y-107497136D01*
X65489741Y-107380295D01*
X65552050Y-107346272D01*
X65622866Y-107351336D01*
X65679702Y-107393883D01*
X65691622Y-107413224D01*
X65692632Y-107415253D01*
X65754924Y-107497740D01*
X65809217Y-107569635D01*
X65821129Y-107585408D01*
X65978699Y-107729053D01*
X65978701Y-107729054D01*
X66159974Y-107841294D01*
X66159975Y-107841294D01*
X66159981Y-107841298D01*
X66358802Y-107918321D01*
X66568390Y-107957500D01*
X66568393Y-107957500D01*
X66781607Y-107957500D01*
X66781610Y-107957500D01*
X66991198Y-107918321D01*
X67190019Y-107841298D01*
X67371302Y-107729052D01*
X67528872Y-107585407D01*
X67657366Y-107415255D01*
X67738489Y-107252335D01*
X67786757Y-107200274D01*
X67851279Y-107182500D01*
X68604189Y-107182500D01*
X68630047Y-107185181D01*
X68640468Y-107187367D01*
X68675636Y-107182983D01*
X68683426Y-107182500D01*
X68687307Y-107182500D01*
X68687314Y-107182500D01*
X68710340Y-107178657D01*
X68764826Y-107171866D01*
X68764827Y-107171865D01*
X68764830Y-107171865D01*
X68772336Y-107169630D01*
X68779804Y-107167065D01*
X68779810Y-107167065D01*
X68828077Y-107140944D01*
X68877411Y-107116826D01*
X68877414Y-107116823D01*
X68883803Y-107112261D01*
X68890021Y-107107421D01*
X68890026Y-107107419D01*
X68917376Y-107077709D01*
X68927209Y-107067028D01*
X69410442Y-106583794D01*
X69668736Y-106325500D01*
X72951501Y-106325500D01*
X72951501Y-106875709D01*
X72954351Y-106906106D01*
X72954352Y-106906109D01*
X72999153Y-107034144D01*
X72999153Y-107034145D01*
X73079707Y-107143292D01*
X73188854Y-107223846D01*
X73316889Y-107268647D01*
X73316894Y-107268648D01*
X73347297Y-107271499D01*
X73647500Y-107271499D01*
X73647500Y-106325500D01*
X74155500Y-106325500D01*
X74155500Y-107271499D01*
X74455695Y-107271499D01*
X74455709Y-107271498D01*
X74486106Y-107268648D01*
X74486109Y-107268647D01*
X74614144Y-107223846D01*
X74614145Y-107223846D01*
X74723292Y-107143292D01*
X74803846Y-107034145D01*
X74803846Y-107034144D01*
X74848647Y-106906110D01*
X74848648Y-106906105D01*
X74851499Y-106875705D01*
X74851500Y-106875699D01*
X74851500Y-106325500D01*
X74155500Y-106325500D01*
X73647500Y-106325500D01*
X72951501Y-106325500D01*
X69668736Y-106325500D01*
X69885736Y-106108500D01*
X75200250Y-106108500D01*
X75219170Y-106252209D01*
X75274637Y-106386124D01*
X75362878Y-106501121D01*
X75477875Y-106589362D01*
X75551857Y-106620005D01*
X75611791Y-106644830D01*
X75755500Y-106663750D01*
X75899209Y-106644830D01*
X75983655Y-106609851D01*
X76033124Y-106589362D01*
X76136501Y-106510038D01*
X76202721Y-106484437D01*
X76213205Y-106484000D01*
X76225000Y-106484000D01*
X76293121Y-106504002D01*
X76339614Y-106557658D01*
X76351000Y-106610000D01*
X76351000Y-106846177D01*
X76365533Y-106919239D01*
X76383055Y-106945463D01*
X76420899Y-107002101D01*
X76503760Y-107057466D01*
X76576826Y-107072000D01*
X77626174Y-107072000D01*
X77699240Y-107057466D01*
X77782101Y-107002101D01*
X77837466Y-106919240D01*
X77852000Y-106846174D01*
X77852000Y-105296826D01*
X77837466Y-105223760D01*
X77782101Y-105140899D01*
X77713235Y-105094885D01*
X77699239Y-105085533D01*
X77626177Y-105071000D01*
X77626174Y-105071000D01*
X76576826Y-105071000D01*
X76576822Y-105071000D01*
X76503760Y-105085533D01*
X76420899Y-105140899D01*
X76365533Y-105223760D01*
X76351000Y-105296822D01*
X76351000Y-105607000D01*
X76330998Y-105675121D01*
X76277342Y-105721614D01*
X76225000Y-105733000D01*
X76213205Y-105733000D01*
X76145084Y-105712998D01*
X76136501Y-105706962D01*
X76033124Y-105627637D01*
X75899209Y-105572170D01*
X75755500Y-105553250D01*
X75611790Y-105572170D01*
X75477875Y-105627637D01*
X75362878Y-105715878D01*
X75274637Y-105830875D01*
X75219170Y-105964790D01*
X75200250Y-106108499D01*
X75200250Y-106108500D01*
X69885736Y-106108500D01*
X70238157Y-105756078D01*
X70300464Y-105722057D01*
X70371279Y-105727121D01*
X70428115Y-105769668D01*
X70428626Y-105770355D01*
X70459209Y-105811793D01*
X70568354Y-105892346D01*
X70696389Y-105937147D01*
X70696394Y-105937148D01*
X70726797Y-105939999D01*
X70977000Y-105939999D01*
X70977000Y-105344000D01*
X71485000Y-105344000D01*
X71485000Y-105939999D01*
X71735195Y-105939999D01*
X71735209Y-105939998D01*
X71765606Y-105937148D01*
X71765609Y-105937147D01*
X71893644Y-105892346D01*
X71893645Y-105892346D01*
X71995058Y-105817500D01*
X72951500Y-105817500D01*
X73647500Y-105817500D01*
X73647500Y-104871500D01*
X74155500Y-104871500D01*
X74155500Y-105817500D01*
X74851499Y-105817500D01*
X74851499Y-105267305D01*
X74851498Y-105267290D01*
X74848648Y-105236893D01*
X74848647Y-105236890D01*
X74803846Y-105108855D01*
X74803846Y-105108854D01*
X74723292Y-104999707D01*
X74614145Y-104919153D01*
X74486110Y-104874352D01*
X74486105Y-104874351D01*
X74455705Y-104871500D01*
X74155500Y-104871500D01*
X73647500Y-104871500D01*
X73347305Y-104871500D01*
X73347290Y-104871501D01*
X73316893Y-104874351D01*
X73316890Y-104874352D01*
X73188855Y-104919153D01*
X73188854Y-104919153D01*
X73079707Y-104999707D01*
X72999153Y-105108854D01*
X72999153Y-105108855D01*
X72954352Y-105236889D01*
X72954351Y-105236894D01*
X72951500Y-105267294D01*
X72951500Y-105817500D01*
X71995058Y-105817500D01*
X72002792Y-105811792D01*
X72083346Y-105702645D01*
X72083346Y-105702644D01*
X72128147Y-105574610D01*
X72128148Y-105574605D01*
X72130999Y-105544205D01*
X72131000Y-105544199D01*
X72131000Y-105344000D01*
X71485000Y-105344000D01*
X70977000Y-105344000D01*
X70977000Y-104240000D01*
X71485000Y-104240000D01*
X71485000Y-104836000D01*
X72130999Y-104836000D01*
X72130999Y-104635805D01*
X72130998Y-104635790D01*
X72128148Y-104605393D01*
X72128147Y-104605390D01*
X72083346Y-104477355D01*
X72083346Y-104477354D01*
X72002792Y-104368207D01*
X71893645Y-104287653D01*
X71765610Y-104242852D01*
X71765605Y-104242851D01*
X71735205Y-104240000D01*
X71485000Y-104240000D01*
X70977000Y-104240000D01*
X70726805Y-104240000D01*
X70726787Y-104240001D01*
X70718860Y-104240745D01*
X70649170Y-104227188D01*
X70597872Y-104178106D01*
X70581100Y-104115295D01*
X70581100Y-103959177D01*
X70601102Y-103891056D01*
X70654758Y-103844563D01*
X70725032Y-103834459D01*
X70731678Y-103835597D01*
X70756326Y-103840500D01*
X71705674Y-103840500D01*
X71778740Y-103825966D01*
X71861601Y-103770601D01*
X71916966Y-103687740D01*
X71916965Y-103687740D01*
X71920468Y-103682499D01*
X71974945Y-103636971D01*
X72025234Y-103626500D01*
X76034295Y-103626500D01*
X76102416Y-103646502D01*
X76110999Y-103652538D01*
X76214375Y-103731862D01*
X76293174Y-103764500D01*
X76348291Y-103787330D01*
X76492000Y-103806250D01*
X76635709Y-103787330D01*
X76720155Y-103752351D01*
X76769624Y-103731862D01*
X76884621Y-103643621D01*
X76972862Y-103528624D01*
X77000087Y-103462895D01*
X77028330Y-103394709D01*
X77047250Y-103251000D01*
X77028330Y-103107291D01*
X76992437Y-103020636D01*
X76972862Y-102973375D01*
X76884621Y-102858378D01*
X76769624Y-102770137D01*
X76629043Y-102711909D01*
X76573762Y-102667362D01*
X76551340Y-102599999D01*
X76568898Y-102531207D01*
X76620859Y-102482828D01*
X76677260Y-102469500D01*
X78520074Y-102469500D01*
X78593140Y-102454966D01*
X78676001Y-102399601D01*
X78731366Y-102316740D01*
X78745900Y-102243674D01*
X78745900Y-100194326D01*
X78731366Y-100121260D01*
X78676001Y-100038399D01*
X78611146Y-99995065D01*
X78593139Y-99983033D01*
X78520077Y-99968500D01*
X78520074Y-99968500D01*
X76904700Y-99968500D01*
X76836579Y-99948498D01*
X76790086Y-99894842D01*
X76778700Y-99842500D01*
X76778700Y-99612496D01*
X76798702Y-99544375D01*
X76852358Y-99497882D01*
X76922632Y-99487778D01*
X76952917Y-99496087D01*
X77013108Y-99521018D01*
X77072291Y-99545532D01*
X77216000Y-99564452D01*
X77359709Y-99545532D01*
X77444155Y-99510553D01*
X77493624Y-99490064D01*
X77608621Y-99401823D01*
X77696862Y-99286826D01*
X77722374Y-99225232D01*
X77752330Y-99152911D01*
X77771250Y-99009202D01*
X77770542Y-99003828D01*
X77760493Y-98927497D01*
X77752330Y-98865493D01*
X77726959Y-98804241D01*
X77714691Y-98774622D01*
X77705100Y-98726405D01*
X77705100Y-97947130D01*
X77725102Y-97879009D01*
X77778758Y-97832516D01*
X77849032Y-97822412D01*
X77913612Y-97851906D01*
X77951996Y-97911632D01*
X77955382Y-97926395D01*
X77957942Y-97941741D01*
X77964732Y-97996220D01*
X77966983Y-98003780D01*
X77969533Y-98011208D01*
X77995655Y-98059477D01*
X78019774Y-98108812D01*
X78024355Y-98115227D01*
X78029176Y-98121422D01*
X78069571Y-98158608D01*
X79669783Y-99758820D01*
X79703808Y-99821132D01*
X79698744Y-99891947D01*
X79656197Y-99948783D01*
X79605271Y-99971494D01*
X79547260Y-99983033D01*
X79464399Y-100038399D01*
X79409033Y-100121260D01*
X79394500Y-100194322D01*
X79394500Y-102243677D01*
X79409033Y-102316739D01*
X79414220Y-102324502D01*
X79464399Y-102399601D01*
X79547260Y-102454966D01*
X79620326Y-102469500D01*
X81669674Y-102469500D01*
X81742740Y-102454966D01*
X81825601Y-102399601D01*
X81880966Y-102316740D01*
X81895500Y-102243674D01*
X81895500Y-100965000D01*
X84153750Y-100965000D01*
X84172670Y-101108709D01*
X84228136Y-101242621D01*
X84228138Y-101242624D01*
X84228139Y-101242625D01*
X84307462Y-101346001D01*
X84333063Y-101412220D01*
X84333500Y-101422704D01*
X84333500Y-104113489D01*
X84330818Y-104139346D01*
X84328632Y-104149767D01*
X84330967Y-104168494D01*
X84333016Y-104184936D01*
X84333500Y-104192725D01*
X84333500Y-104196614D01*
X84337342Y-104219640D01*
X84344132Y-104274120D01*
X84346383Y-104281680D01*
X84348933Y-104289108D01*
X84375055Y-104337377D01*
X84399174Y-104386712D01*
X84403755Y-104393127D01*
X84408576Y-104399322D01*
X84429469Y-104418555D01*
X84448970Y-104436507D01*
X84901596Y-104889133D01*
X84935620Y-104951444D01*
X84938500Y-104978227D01*
X84938500Y-105786512D01*
X84938502Y-105786536D01*
X84944828Y-105845388D01*
X84944828Y-105845390D01*
X84994496Y-105978553D01*
X84994498Y-105978557D01*
X85079668Y-106092331D01*
X85193442Y-106177501D01*
X85193444Y-106177502D01*
X85193446Y-106177503D01*
X85250394Y-106198744D01*
X85326605Y-106227170D01*
X85326613Y-106227172D01*
X85355425Y-106230269D01*
X85385479Y-106233500D01*
X85967520Y-106233499D01*
X86026391Y-106227171D01*
X86159554Y-106177503D01*
X86159930Y-106177222D01*
X86273331Y-106092331D01*
X86358501Y-105978557D01*
X86358501Y-105978556D01*
X86358503Y-105978554D01*
X86408171Y-105845391D01*
X86408171Y-105845389D01*
X86408172Y-105845386D01*
X86414499Y-105786532D01*
X86414499Y-105786530D01*
X86414500Y-105786521D01*
X86414500Y-105786512D01*
X86813500Y-105786512D01*
X86813502Y-105786536D01*
X86819828Y-105845388D01*
X86819828Y-105845390D01*
X86869496Y-105978553D01*
X86869498Y-105978557D01*
X86950547Y-106086825D01*
X86954669Y-106092331D01*
X86980817Y-106111905D01*
X86988302Y-106117508D01*
X87030849Y-106174344D01*
X87035915Y-106245159D01*
X87001890Y-106307472D01*
X86993158Y-106314638D01*
X86988401Y-106319395D01*
X86933033Y-106402260D01*
X86918500Y-106475322D01*
X86918500Y-107424677D01*
X86933033Y-107497739D01*
X86933034Y-107497740D01*
X86988399Y-107580601D01*
X87071260Y-107635966D01*
X87144326Y-107650500D01*
X87993674Y-107650500D01*
X88066740Y-107635966D01*
X88149601Y-107580601D01*
X88204966Y-107497740D01*
X88219500Y-107424674D01*
X88219500Y-107204000D01*
X88619001Y-107204000D01*
X88619001Y-107454209D01*
X88621851Y-107484606D01*
X88621852Y-107484609D01*
X88666653Y-107612644D01*
X88666653Y-107612645D01*
X88747207Y-107721792D01*
X88856354Y-107802346D01*
X88984389Y-107847147D01*
X88984394Y-107847148D01*
X89014797Y-107849999D01*
X89215000Y-107849999D01*
X89215000Y-107204000D01*
X89723000Y-107204000D01*
X89723000Y-107849999D01*
X89923195Y-107849999D01*
X89923209Y-107849998D01*
X89953606Y-107847148D01*
X89953609Y-107847147D01*
X90081644Y-107802346D01*
X90081645Y-107802346D01*
X90190792Y-107721792D01*
X90271346Y-107612645D01*
X90271346Y-107612644D01*
X90316147Y-107484610D01*
X90316148Y-107484605D01*
X90318999Y-107454205D01*
X90319000Y-107454199D01*
X90319000Y-107204000D01*
X89723000Y-107204000D01*
X89215000Y-107204000D01*
X88619001Y-107204000D01*
X88219500Y-107204000D01*
X88219500Y-106696000D01*
X88619000Y-106696000D01*
X89215000Y-106696000D01*
X89215000Y-106050000D01*
X89723000Y-106050000D01*
X89723000Y-106696000D01*
X90318999Y-106696000D01*
X90318999Y-106445805D01*
X90318998Y-106445790D01*
X90316148Y-106415393D01*
X90316147Y-106415390D01*
X90271346Y-106287355D01*
X90271346Y-106287354D01*
X90190792Y-106178207D01*
X90081645Y-106097653D01*
X89953610Y-106052852D01*
X89953605Y-106052851D01*
X89923205Y-106050000D01*
X89723000Y-106050000D01*
X89215000Y-106050000D01*
X89014805Y-106050000D01*
X89014790Y-106050001D01*
X88984393Y-106052851D01*
X88984390Y-106052852D01*
X88856355Y-106097653D01*
X88856354Y-106097653D01*
X88747207Y-106178207D01*
X88666653Y-106287354D01*
X88666653Y-106287355D01*
X88621852Y-106415389D01*
X88621851Y-106415394D01*
X88619000Y-106445794D01*
X88619000Y-106696000D01*
X88219500Y-106696000D01*
X88219500Y-106475326D01*
X88204966Y-106402260D01*
X88149601Y-106319399D01*
X88136708Y-106310784D01*
X88091182Y-106256307D01*
X88082335Y-106185864D01*
X88112976Y-106121820D01*
X88131196Y-106105157D01*
X88148331Y-106092331D01*
X88225635Y-105989065D01*
X88233501Y-105978557D01*
X88233501Y-105978556D01*
X88233503Y-105978554D01*
X88283171Y-105845391D01*
X88283171Y-105845389D01*
X88283172Y-105845386D01*
X88289499Y-105786532D01*
X88289499Y-105786530D01*
X88289500Y-105786521D01*
X88289499Y-104779480D01*
X88283171Y-104720609D01*
X88233503Y-104587446D01*
X88233501Y-104587442D01*
X88148331Y-104473668D01*
X88034557Y-104388498D01*
X88034552Y-104388496D01*
X87901394Y-104338829D01*
X87901386Y-104338827D01*
X87842524Y-104332500D01*
X87260487Y-104332500D01*
X87260463Y-104332502D01*
X87201611Y-104338828D01*
X87201609Y-104338828D01*
X87068446Y-104388496D01*
X87068442Y-104388498D01*
X86954668Y-104473668D01*
X86869498Y-104587442D01*
X86869496Y-104587447D01*
X86819829Y-104720605D01*
X86819827Y-104720613D01*
X86813500Y-104779467D01*
X86813500Y-105786512D01*
X86414500Y-105786512D01*
X86414499Y-104779480D01*
X86408171Y-104720609D01*
X86358503Y-104587446D01*
X86358501Y-104587442D01*
X86273331Y-104473668D01*
X86159557Y-104388498D01*
X86159552Y-104388496D01*
X86026394Y-104338829D01*
X86026386Y-104338827D01*
X85967532Y-104332500D01*
X85967521Y-104332500D01*
X85459228Y-104332500D01*
X85391107Y-104312498D01*
X85370133Y-104295595D01*
X85121405Y-104046867D01*
X85087379Y-103984555D01*
X85084500Y-103957772D01*
X85084500Y-101422704D01*
X85104502Y-101354583D01*
X85110527Y-101346013D01*
X85189861Y-101242625D01*
X85196778Y-101225927D01*
X85204034Y-101208407D01*
X85245330Y-101108709D01*
X85264250Y-100965000D01*
X85245330Y-100821291D01*
X85220839Y-100762164D01*
X85189862Y-100687375D01*
X85101621Y-100572378D01*
X84986624Y-100484137D01*
X84852709Y-100428670D01*
X84709000Y-100409750D01*
X84565290Y-100428670D01*
X84431375Y-100484137D01*
X84316378Y-100572378D01*
X84228137Y-100687375D01*
X84172670Y-100821290D01*
X84153750Y-100964999D01*
X84153750Y-100965000D01*
X81895500Y-100965000D01*
X81895500Y-100194326D01*
X81880966Y-100121260D01*
X81825601Y-100038399D01*
X81760746Y-99995065D01*
X81742739Y-99983033D01*
X81669677Y-99968500D01*
X81669674Y-99968500D01*
X80993853Y-99968500D01*
X80925732Y-99948498D01*
X80908525Y-99935210D01*
X80905034Y-99931997D01*
X78918662Y-97945624D01*
X78884636Y-97883312D01*
X78889701Y-97812497D01*
X78932248Y-97755661D01*
X78950554Y-97744262D01*
X78954902Y-97742046D01*
X78954904Y-97742046D01*
X79067942Y-97684450D01*
X79157650Y-97594742D01*
X79215246Y-97481704D01*
X79230100Y-97387919D01*
X79230100Y-96932900D01*
X79250102Y-96864779D01*
X79303758Y-96818286D01*
X79356100Y-96806900D01*
X79811116Y-96806900D01*
X79811119Y-96806900D01*
X79904904Y-96792046D01*
X80017942Y-96734450D01*
X80107650Y-96644742D01*
X80165246Y-96531704D01*
X80185092Y-96406400D01*
X80185092Y-96406397D01*
X80185092Y-96406331D01*
X80185114Y-96406253D01*
X80186643Y-96396605D01*
X80187889Y-96396802D01*
X80205094Y-96338210D01*
X80211130Y-96329627D01*
X80303700Y-96208988D01*
X80364155Y-96063031D01*
X80365029Y-96056400D01*
X80005113Y-96056400D01*
X79947909Y-96042666D01*
X79903751Y-96020166D01*
X79852136Y-95971418D01*
X79835071Y-95902503D01*
X79857972Y-95835302D01*
X79913570Y-95791150D01*
X79960955Y-95781900D01*
X82735289Y-95781900D01*
X82761147Y-95784581D01*
X82771568Y-95786767D01*
X82806736Y-95782383D01*
X82814526Y-95781900D01*
X82818407Y-95781900D01*
X82818414Y-95781900D01*
X82841440Y-95778057D01*
X82895926Y-95771266D01*
X82895927Y-95771265D01*
X82895930Y-95771265D01*
X82903436Y-95769030D01*
X82910904Y-95766465D01*
X82910910Y-95766465D01*
X82959177Y-95740344D01*
X83008511Y-95716226D01*
X83008514Y-95716223D01*
X83014903Y-95711661D01*
X83021122Y-95706820D01*
X83021126Y-95706819D01*
X83058308Y-95666428D01*
X83101194Y-95623542D01*
X83163933Y-95560804D01*
X83226245Y-95526779D01*
X83253028Y-95523900D01*
X84635400Y-95523900D01*
X84703521Y-95543902D01*
X84750014Y-95597558D01*
X84761400Y-95649900D01*
X84761400Y-95848077D01*
X84775933Y-95921139D01*
X84775934Y-95921140D01*
X84831299Y-96004001D01*
X84914160Y-96059366D01*
X84987226Y-96073900D01*
X86386574Y-96073900D01*
X86459640Y-96059366D01*
X86542501Y-96004001D01*
X86597866Y-95921140D01*
X86612400Y-95848074D01*
X86612400Y-94448726D01*
X86597866Y-94375660D01*
X86542501Y-94292799D01*
X86459640Y-94237434D01*
X86459639Y-94237433D01*
X86386577Y-94222900D01*
X86386574Y-94222900D01*
X86141746Y-94222900D01*
X86073625Y-94202898D01*
X86027132Y-94149242D01*
X86017028Y-94078968D01*
X86046522Y-94014388D01*
X86090496Y-93981793D01*
X86152199Y-93954322D01*
X86309592Y-93839969D01*
X86335726Y-93810945D01*
X86439770Y-93695392D01*
X86439771Y-93695390D01*
X86442817Y-93690114D01*
X86537044Y-93526908D01*
X86537398Y-93525821D01*
X86597162Y-93341882D01*
X86601777Y-93297976D01*
X86617498Y-93148400D01*
X86607576Y-93054000D01*
X99685001Y-93054000D01*
X99685001Y-93604209D01*
X99687851Y-93634606D01*
X99687852Y-93634609D01*
X99732653Y-93762644D01*
X99732653Y-93762645D01*
X99813207Y-93871792D01*
X99922354Y-93952346D01*
X100050389Y-93997147D01*
X100050394Y-93997148D01*
X100080797Y-93999999D01*
X100381000Y-93999999D01*
X100381000Y-93054000D01*
X100889000Y-93054000D01*
X100889000Y-93999999D01*
X101189195Y-93999999D01*
X101189209Y-93999998D01*
X101219606Y-93997148D01*
X101219609Y-93997147D01*
X101347644Y-93952346D01*
X101347645Y-93952346D01*
X101456792Y-93871792D01*
X101537346Y-93762645D01*
X101537346Y-93762644D01*
X101582147Y-93634610D01*
X101582148Y-93634605D01*
X101584999Y-93604205D01*
X101585000Y-93604199D01*
X101585000Y-93054000D01*
X100889000Y-93054000D01*
X100381000Y-93054000D01*
X99685001Y-93054000D01*
X86607576Y-93054000D01*
X86597558Y-92958681D01*
X86597162Y-92954917D01*
X86537046Y-92769896D01*
X86537042Y-92769889D01*
X86535970Y-92768033D01*
X86489435Y-92687430D01*
X86439771Y-92601409D01*
X86439770Y-92601407D01*
X86309594Y-92456832D01*
X86152203Y-92342480D01*
X86128972Y-92332137D01*
X85974471Y-92263349D01*
X85784174Y-92222900D01*
X85589626Y-92222900D01*
X85399328Y-92263349D01*
X85221596Y-92342480D01*
X85064205Y-92456832D01*
X84934030Y-92601407D01*
X84871393Y-92709899D01*
X84820010Y-92758893D01*
X84762273Y-92772900D01*
X83738409Y-92772900D01*
X83712553Y-92770218D01*
X83702131Y-92768033D01*
X83702130Y-92768033D01*
X83697353Y-92768628D01*
X83666964Y-92772416D01*
X83659175Y-92772900D01*
X83655286Y-92772900D01*
X83632247Y-92776744D01*
X83577774Y-92783534D01*
X83570233Y-92785779D01*
X83562789Y-92788335D01*
X83545839Y-92797507D01*
X83514519Y-92814457D01*
X83481874Y-92830416D01*
X83465189Y-92838573D01*
X83458799Y-92843135D01*
X83452574Y-92847981D01*
X83415403Y-92888358D01*
X81809765Y-94493996D01*
X81747455Y-94528020D01*
X81720672Y-94530900D01*
X79955067Y-94530900D01*
X79915145Y-94521316D01*
X79914333Y-94523817D01*
X79904907Y-94520754D01*
X79839922Y-94510462D01*
X79811119Y-94505900D01*
X79356100Y-94505900D01*
X79287979Y-94485898D01*
X79241486Y-94432242D01*
X79230100Y-94379900D01*
X79230100Y-93924884D01*
X79230100Y-93924881D01*
X79215246Y-93831096D01*
X79194400Y-93790185D01*
X79181632Y-93748546D01*
X79181245Y-93745445D01*
X79180593Y-93740194D01*
X79180110Y-93732407D01*
X79180110Y-93728529D01*
X79176267Y-93705502D01*
X79175007Y-93695392D01*
X79169476Y-93651020D01*
X79169475Y-93651017D01*
X79167233Y-93643487D01*
X79164676Y-93636037D01*
X79138551Y-93587763D01*
X79132556Y-93575500D01*
X79114436Y-93538434D01*
X79114433Y-93538431D01*
X79114433Y-93538430D01*
X79109868Y-93532036D01*
X79105031Y-93525821D01*
X79086270Y-93508550D01*
X79064640Y-93488637D01*
X78726367Y-93150364D01*
X78692344Y-93088054D01*
X78697408Y-93017239D01*
X78710698Y-92991270D01*
X78715785Y-92983657D01*
X78761566Y-92915140D01*
X78762578Y-92910054D01*
X78764733Y-92899224D01*
X78797641Y-92836315D01*
X78859337Y-92801185D01*
X78888311Y-92797808D01*
X79300600Y-92797808D01*
X79398340Y-92778366D01*
X79481201Y-92723001D01*
X79536566Y-92640140D01*
X79556008Y-92542400D01*
X79556008Y-92142400D01*
X79550951Y-92116977D01*
X79550952Y-92073277D01*
X79550493Y-92073232D01*
X79550952Y-92068563D01*
X79550952Y-92067813D01*
X79551100Y-92067074D01*
X79551100Y-91617726D01*
X79550953Y-91616987D01*
X79550953Y-91616236D01*
X79550493Y-91611568D01*
X79550953Y-91611522D01*
X79550953Y-91573277D01*
X79550493Y-91573232D01*
X79550953Y-91568563D01*
X79550953Y-91567812D01*
X79551100Y-91567074D01*
X79551100Y-91117726D01*
X79550951Y-91116981D01*
X79550951Y-91116228D01*
X79550493Y-91111570D01*
X79550951Y-91111524D01*
X79550951Y-91067821D01*
X79556008Y-91042400D01*
X79556008Y-90893380D01*
X79576010Y-90825259D01*
X79629666Y-90778766D01*
X79699940Y-90768662D01*
X79730225Y-90776971D01*
X79795795Y-90804130D01*
X79866291Y-90833330D01*
X80010000Y-90852250D01*
X80153709Y-90833330D01*
X80252505Y-90792408D01*
X80287624Y-90777862D01*
X80391001Y-90698538D01*
X80457221Y-90672937D01*
X80467705Y-90672500D01*
X85644273Y-90672500D01*
X85712394Y-90692502D01*
X85733368Y-90709405D01*
X87835701Y-92811738D01*
X87852086Y-92831913D01*
X87857916Y-92840836D01*
X87885883Y-92862603D01*
X87891734Y-92867771D01*
X87894482Y-92870519D01*
X87897634Y-92872769D01*
X87913482Y-92884085D01*
X87956806Y-92917806D01*
X87956809Y-92917808D01*
X87956811Y-92917809D01*
X87956812Y-92917809D01*
X87963731Y-92921553D01*
X87970798Y-92925008D01*
X87970801Y-92925010D01*
X88023405Y-92940671D01*
X88075340Y-92958500D01*
X88075347Y-92958500D01*
X88083107Y-92959795D01*
X88090911Y-92960768D01*
X88145755Y-92958500D01*
X96594989Y-92958500D01*
X96620847Y-92961181D01*
X96631268Y-92963367D01*
X96666436Y-92958983D01*
X96674226Y-92958500D01*
X96678107Y-92958500D01*
X96678114Y-92958500D01*
X96701140Y-92954657D01*
X96755626Y-92947866D01*
X96755627Y-92947865D01*
X96755630Y-92947865D01*
X96763136Y-92945630D01*
X96770604Y-92943065D01*
X96770610Y-92943065D01*
X96818877Y-92916944D01*
X96868211Y-92892826D01*
X96868214Y-92892823D01*
X96874603Y-92888261D01*
X96880819Y-92883422D01*
X96880826Y-92883419D01*
X96918008Y-92843028D01*
X97096873Y-92664162D01*
X97159181Y-92630140D01*
X97169507Y-92628340D01*
X97298709Y-92611330D01*
X97383155Y-92576351D01*
X97432624Y-92555862D01*
X97547621Y-92467621D01*
X97635862Y-92352624D01*
X97660807Y-92292400D01*
X97691330Y-92218709D01*
X97710250Y-92075000D01*
X97694839Y-91957945D01*
X97705778Y-91887798D01*
X97752906Y-91834699D01*
X97819761Y-91815500D01*
X99564099Y-91815500D01*
X99632220Y-91835502D01*
X99678713Y-91889158D01*
X99688817Y-91959432D01*
X99687972Y-91964099D01*
X99685000Y-91995794D01*
X99685000Y-92546000D01*
X101584999Y-92546000D01*
X101584999Y-91995805D01*
X101584998Y-91995790D01*
X101581433Y-91957762D01*
X101583566Y-91957561D01*
X101587808Y-91897564D01*
X101630308Y-91840694D01*
X101696808Y-91815828D01*
X101705900Y-91815500D01*
X102972705Y-91815500D01*
X103040826Y-91835502D01*
X103087319Y-91889158D01*
X103097423Y-91959432D01*
X103096284Y-91966081D01*
X103084500Y-92025320D01*
X103084500Y-93574677D01*
X103099033Y-93647739D01*
X103106993Y-93659652D01*
X103154399Y-93730601D01*
X103237260Y-93785966D01*
X103310326Y-93800500D01*
X103333500Y-93800500D01*
X103401621Y-93820502D01*
X103448114Y-93874158D01*
X103459500Y-93926500D01*
X103459500Y-94458272D01*
X103439498Y-94526393D01*
X103422595Y-94547367D01*
X102751367Y-95218595D01*
X102689055Y-95252621D01*
X102662272Y-95255500D01*
X100537727Y-95255500D01*
X100469606Y-95235498D01*
X100448632Y-95218595D01*
X100401534Y-95171497D01*
X100367508Y-95109185D01*
X100365707Y-95098847D01*
X100362705Y-95076046D01*
X100358330Y-95042807D01*
X100330584Y-94975822D01*
X100302862Y-94908891D01*
X100214621Y-94793894D01*
X100099624Y-94705653D01*
X99965709Y-94650186D01*
X99822000Y-94631266D01*
X99678290Y-94650186D01*
X99544375Y-94705653D01*
X99429378Y-94793894D01*
X99341137Y-94908891D01*
X99285670Y-95042806D01*
X99268661Y-95171995D01*
X99239938Y-95236921D01*
X99232834Y-95244642D01*
X97607881Y-96869596D01*
X97545571Y-96903620D01*
X97518788Y-96906500D01*
X94286011Y-96906500D01*
X94260153Y-96903818D01*
X94257730Y-96903310D01*
X94249730Y-96901632D01*
X94227822Y-96904363D01*
X94214562Y-96906016D01*
X94206774Y-96906500D01*
X94202885Y-96906500D01*
X94193074Y-96908137D01*
X94179857Y-96910342D01*
X94177507Y-96910635D01*
X94125378Y-96917133D01*
X94117822Y-96919382D01*
X94110391Y-96921933D01*
X94062117Y-96948058D01*
X94012792Y-96972171D01*
X94006382Y-96976748D01*
X94000175Y-96981580D01*
X93962992Y-97021970D01*
X92445351Y-98539609D01*
X92383039Y-98573635D01*
X92312223Y-98568570D01*
X92255388Y-98526023D01*
X92230577Y-98459503D01*
X92231333Y-98434077D01*
X92249250Y-98297992D01*
X92230330Y-98154283D01*
X92198081Y-98076425D01*
X92174862Y-98020367D01*
X92086621Y-97905370D01*
X91971624Y-97817129D01*
X91837709Y-97761662D01*
X91694000Y-97742742D01*
X91550290Y-97761662D01*
X91416375Y-97817129D01*
X91301378Y-97905370D01*
X91213137Y-98020367D01*
X91157670Y-98154282D01*
X91138750Y-98297991D01*
X91138750Y-98297992D01*
X91157670Y-98441701D01*
X91213136Y-98575613D01*
X91213138Y-98575616D01*
X91213139Y-98575617D01*
X91292462Y-98678993D01*
X91318063Y-98745212D01*
X91318500Y-98755696D01*
X91318500Y-102741791D01*
X91315818Y-102767648D01*
X91313632Y-102778069D01*
X91315308Y-102791510D01*
X91318016Y-102813238D01*
X91318500Y-102821027D01*
X91318500Y-102824916D01*
X91321935Y-102845500D01*
X91322342Y-102847942D01*
X91329132Y-102902422D01*
X91331383Y-102909982D01*
X91333933Y-102917409D01*
X91333935Y-102917412D01*
X91360055Y-102965679D01*
X91366066Y-102977976D01*
X91371368Y-102988820D01*
X91383317Y-103058804D01*
X91372901Y-103091538D01*
X91374146Y-103092003D01*
X91321329Y-103233605D01*
X91321327Y-103233613D01*
X91315000Y-103292467D01*
X91315000Y-103874512D01*
X91315002Y-103874536D01*
X91321328Y-103933388D01*
X91321328Y-103933390D01*
X91370996Y-104066553D01*
X91370998Y-104066557D01*
X91456168Y-104180331D01*
X91569942Y-104265501D01*
X91569944Y-104265502D01*
X91569946Y-104265503D01*
X91593049Y-104274120D01*
X91658838Y-104298659D01*
X91715674Y-104341206D01*
X91740484Y-104407726D01*
X91725392Y-104477100D01*
X91675189Y-104527302D01*
X91652290Y-104537009D01*
X91522435Y-104577473D01*
X91522434Y-104577473D01*
X91378258Y-104664631D01*
X91378253Y-104664635D01*
X91259135Y-104783753D01*
X91259131Y-104783758D01*
X91171973Y-104927934D01*
X91171973Y-104927935D01*
X91121851Y-105088781D01*
X91121851Y-105088784D01*
X91115500Y-105158684D01*
X91115500Y-105204500D01*
X93415499Y-105204500D01*
X93415499Y-105158684D01*
X93409148Y-105088783D01*
X93359026Y-104927935D01*
X93359026Y-104927934D01*
X93271868Y-104783758D01*
X93271864Y-104783753D01*
X93152746Y-104664635D01*
X93152741Y-104664631D01*
X93008565Y-104577473D01*
X92933705Y-104554146D01*
X92874619Y-104514783D01*
X92846194Y-104449725D01*
X92857454Y-104379627D01*
X92904825Y-104326745D01*
X92922964Y-104317445D01*
X92987625Y-104290663D01*
X93102621Y-104202423D01*
X93178796Y-104103150D01*
X93190862Y-104087426D01*
X93221954Y-104012360D01*
X93246330Y-103953511D01*
X93265250Y-103809802D01*
X93246330Y-103666093D01*
X93225590Y-103616021D01*
X93215999Y-103567804D01*
X93215999Y-103292487D01*
X93215999Y-103292480D01*
X93209671Y-103233609D01*
X93160003Y-103100446D01*
X93160001Y-103100442D01*
X93074831Y-102986669D01*
X93046793Y-102965680D01*
X93029643Y-102952842D01*
X92987097Y-102896007D01*
X92982031Y-102825192D01*
X93016056Y-102762879D01*
X93078368Y-102728854D01*
X93088705Y-102727052D01*
X93090999Y-102726749D01*
X93091000Y-102726750D01*
X93234709Y-102707830D01*
X93332409Y-102667362D01*
X93368624Y-102652362D01*
X93483621Y-102564121D01*
X93571862Y-102449124D01*
X93594045Y-102395568D01*
X93627330Y-102315209D01*
X93646250Y-102171500D01*
X93646051Y-102169992D01*
X93639164Y-102117680D01*
X93627330Y-102027791D01*
X93582216Y-101918875D01*
X93571863Y-101893879D01*
X93571857Y-101893869D01*
X93567537Y-101888239D01*
X93541937Y-101822018D01*
X93541500Y-101811536D01*
X93541500Y-101552200D01*
X94046801Y-101552200D01*
X94046801Y-101902409D01*
X94049651Y-101932806D01*
X94049652Y-101932809D01*
X94094453Y-102060844D01*
X94094453Y-102060845D01*
X94175007Y-102169992D01*
X94284154Y-102250546D01*
X94412189Y-102295347D01*
X94412194Y-102295348D01*
X94442597Y-102298199D01*
X94792800Y-102298199D01*
X94792800Y-101552200D01*
X95300800Y-101552200D01*
X95300800Y-102298199D01*
X95650995Y-102298199D01*
X95651009Y-102298198D01*
X95681406Y-102295348D01*
X95681409Y-102295347D01*
X95809444Y-102250546D01*
X95809445Y-102250546D01*
X95918592Y-102169992D01*
X95999146Y-102060845D01*
X95999146Y-102060844D01*
X96043947Y-101932810D01*
X96043948Y-101932805D01*
X96046799Y-101902405D01*
X96046800Y-101902399D01*
X96046800Y-101552200D01*
X95300800Y-101552200D01*
X94792800Y-101552200D01*
X94046801Y-101552200D01*
X93541500Y-101552200D01*
X93541500Y-101044200D01*
X94046800Y-101044200D01*
X94792800Y-101044200D01*
X94792800Y-100298200D01*
X95300800Y-100298200D01*
X95300800Y-101044200D01*
X96046799Y-101044200D01*
X96046799Y-100694005D01*
X96046798Y-100693990D01*
X96043948Y-100663593D01*
X96043947Y-100663590D01*
X95999146Y-100535555D01*
X95999146Y-100535554D01*
X95918592Y-100426407D01*
X95809445Y-100345853D01*
X95681410Y-100301052D01*
X95681405Y-100301051D01*
X95651005Y-100298200D01*
X95300800Y-100298200D01*
X94792800Y-100298200D01*
X94442605Y-100298200D01*
X94442590Y-100298201D01*
X94412193Y-100301051D01*
X94412190Y-100301052D01*
X94284155Y-100345853D01*
X94284154Y-100345853D01*
X94175007Y-100426407D01*
X94094453Y-100535554D01*
X94094453Y-100535555D01*
X94049652Y-100663589D01*
X94049651Y-100663594D01*
X94046800Y-100693994D01*
X94046800Y-101044200D01*
X93541500Y-101044200D01*
X93541500Y-99679794D01*
X93561502Y-99611673D01*
X93578399Y-99590704D01*
X94057884Y-99111219D01*
X94120193Y-99077197D01*
X94191008Y-99082261D01*
X94247844Y-99124808D01*
X94254361Y-99136252D01*
X94260833Y-99145939D01*
X94260834Y-99145940D01*
X94316199Y-99228801D01*
X94399060Y-99284166D01*
X94472126Y-99298700D01*
X95621474Y-99298700D01*
X95694540Y-99284166D01*
X95777401Y-99228801D01*
X95832766Y-99145940D01*
X95847300Y-99072874D01*
X95847300Y-98620500D01*
X95867302Y-98552379D01*
X95920958Y-98505886D01*
X95973300Y-98494500D01*
X98015157Y-98494500D01*
X98022211Y-98494895D01*
X98061035Y-98499270D01*
X98061035Y-98499269D01*
X98061036Y-98499270D01*
X98061036Y-98499269D01*
X98086397Y-98494470D01*
X98119478Y-98488212D01*
X98150636Y-98483515D01*
X98178287Y-98479348D01*
X98178295Y-98479343D01*
X98186472Y-98476821D01*
X98194472Y-98474023D01*
X98247073Y-98446222D01*
X98272315Y-98434066D01*
X98300642Y-98420425D01*
X98300646Y-98420421D01*
X98307685Y-98415622D01*
X98314531Y-98410569D01*
X98314538Y-98410566D01*
X98356600Y-98368503D01*
X98400194Y-98328055D01*
X98400197Y-98328048D01*
X98406081Y-98320672D01*
X98406762Y-98321215D01*
X98416219Y-98308883D01*
X99669405Y-97055698D01*
X99731717Y-97021672D01*
X99802533Y-97026737D01*
X99859368Y-97069284D01*
X99884179Y-97135804D01*
X99884500Y-97144793D01*
X99884500Y-98474677D01*
X99899033Y-98547739D01*
X99912952Y-98568570D01*
X99954399Y-98630601D01*
X100037260Y-98685966D01*
X100110326Y-98700500D01*
X101159674Y-98700500D01*
X101232740Y-98685966D01*
X101315601Y-98630601D01*
X101315601Y-98630599D01*
X101319219Y-98628183D01*
X101386972Y-98606968D01*
X101455439Y-98625751D01*
X101478316Y-98643853D01*
X101582334Y-98747871D01*
X101616360Y-98810183D01*
X101618161Y-98820519D01*
X101635170Y-98949709D01*
X101690637Y-99083623D01*
X101707268Y-99105297D01*
X101732868Y-99171517D01*
X101718603Y-99241066D01*
X101669001Y-99291862D01*
X101607305Y-99308000D01*
X99850844Y-99308000D01*
X99843787Y-99307604D01*
X99804965Y-99303230D01*
X99804964Y-99303230D01*
X99804962Y-99303230D01*
X99746508Y-99314288D01*
X99687715Y-99323151D01*
X99679538Y-99325673D01*
X99671526Y-99328476D01*
X99618915Y-99356283D01*
X99565361Y-99382073D01*
X99558293Y-99386891D01*
X99551462Y-99391933D01*
X99509400Y-99433995D01*
X99465808Y-99474441D01*
X99459923Y-99481822D01*
X99459247Y-99481283D01*
X99449782Y-99493612D01*
X96541843Y-102401553D01*
X96536572Y-102406264D01*
X96506030Y-102430620D01*
X96472519Y-102479771D01*
X96437204Y-102527620D01*
X96433215Y-102535169D01*
X96429527Y-102542828D01*
X96411992Y-102599677D01*
X96392354Y-102655801D01*
X96390766Y-102664188D01*
X96389500Y-102672596D01*
X96389500Y-102732074D01*
X96387276Y-102791511D01*
X96388333Y-102800890D01*
X96387470Y-102800987D01*
X96389500Y-102816396D01*
X96389500Y-104990120D01*
X96369498Y-105058241D01*
X96333502Y-105094885D01*
X96259399Y-105144398D01*
X96204033Y-105227260D01*
X96189500Y-105300322D01*
X96189500Y-106246947D01*
X96169498Y-106315068D01*
X96115842Y-106361561D01*
X96063500Y-106372947D01*
X93336354Y-106372947D01*
X93268233Y-106352945D01*
X93221740Y-106299289D01*
X93211636Y-106229015D01*
X93241130Y-106164435D01*
X93247259Y-106157852D01*
X93271864Y-106133246D01*
X93271868Y-106133241D01*
X93359026Y-105989065D01*
X93359026Y-105989064D01*
X93409148Y-105828218D01*
X93409148Y-105828215D01*
X93415500Y-105758315D01*
X93415500Y-105712500D01*
X91115501Y-105712500D01*
X91115501Y-105758315D01*
X91121851Y-105828216D01*
X91171973Y-105989064D01*
X91171973Y-105989065D01*
X91259131Y-106133241D01*
X91259135Y-106133246D01*
X91366352Y-106240463D01*
X91400378Y-106302775D01*
X91395313Y-106373590D01*
X91384002Y-106394309D01*
X91384410Y-106394532D01*
X91380088Y-106402447D01*
X91330421Y-106535605D01*
X91330419Y-106535613D01*
X91324092Y-106594467D01*
X91324092Y-107176512D01*
X91324094Y-107176536D01*
X91330420Y-107235388D01*
X91330420Y-107235390D01*
X91380088Y-107368553D01*
X91380090Y-107368557D01*
X91465260Y-107482331D01*
X91579034Y-107567501D01*
X91579036Y-107567502D01*
X91579038Y-107567503D01*
X91612128Y-107579845D01*
X91667930Y-107600659D01*
X91724766Y-107643206D01*
X91749576Y-107709726D01*
X91734484Y-107779100D01*
X91684281Y-107829302D01*
X91661382Y-107839009D01*
X91531527Y-107879473D01*
X91531526Y-107879473D01*
X91387350Y-107966631D01*
X91387345Y-107966635D01*
X91268227Y-108085753D01*
X91268223Y-108085758D01*
X91181065Y-108229934D01*
X91181065Y-108229935D01*
X91130943Y-108390781D01*
X91130943Y-108390784D01*
X91124592Y-108460684D01*
X91124592Y-108506500D01*
X92402592Y-108506500D01*
X92470713Y-108526502D01*
X92517206Y-108580158D01*
X92528592Y-108632500D01*
X92528592Y-108888500D01*
X92508590Y-108956621D01*
X92454934Y-109003114D01*
X92402592Y-109014500D01*
X91124593Y-109014500D01*
X91124593Y-109060315D01*
X91130943Y-109130215D01*
X91149266Y-109189014D01*
X91150436Y-109260001D01*
X91113042Y-109320352D01*
X91048956Y-109350905D01*
X91028971Y-109352500D01*
X90154728Y-109352500D01*
X90086607Y-109332498D01*
X90065632Y-109315595D01*
X89471293Y-108721255D01*
X89454907Y-108701077D01*
X89449083Y-108692163D01*
X89444216Y-108688375D01*
X89421111Y-108670392D01*
X89415268Y-108665230D01*
X89412518Y-108662480D01*
X89412516Y-108662478D01*
X89393504Y-108648905D01*
X89350189Y-108615191D01*
X89350186Y-108615190D01*
X89350184Y-108615188D01*
X89343277Y-108611450D01*
X89336200Y-108607990D01*
X89283596Y-108592329D01*
X89253982Y-108582163D01*
X89196048Y-108541128D01*
X89171858Y-108481168D01*
X89170708Y-108481397D01*
X89154966Y-108402260D01*
X89133968Y-108370834D01*
X89099601Y-108319399D01*
X89017523Y-108264557D01*
X89016739Y-108264033D01*
X88943677Y-108249500D01*
X88943674Y-108249500D01*
X88094326Y-108249500D01*
X88094322Y-108249500D01*
X88021260Y-108264033D01*
X87938399Y-108319399D01*
X87883033Y-108402260D01*
X87868500Y-108475322D01*
X87868500Y-109424677D01*
X87883033Y-109497739D01*
X87898088Y-109520271D01*
X87938399Y-109580601D01*
X88021260Y-109635966D01*
X88094326Y-109650500D01*
X88943674Y-109650500D01*
X89016740Y-109635966D01*
X89099601Y-109580601D01*
X89099601Y-109580600D01*
X89109920Y-109573706D01*
X89111562Y-109576164D01*
X89157300Y-109551189D01*
X89228115Y-109556254D01*
X89273178Y-109585215D01*
X89644701Y-109956738D01*
X89661086Y-109976913D01*
X89666916Y-109985836D01*
X89694883Y-110007603D01*
X89700734Y-110012771D01*
X89703482Y-110015519D01*
X89703485Y-110015521D01*
X89722482Y-110029085D01*
X89765806Y-110062806D01*
X89765809Y-110062808D01*
X89765811Y-110062809D01*
X89765812Y-110062809D01*
X89772739Y-110066558D01*
X89779795Y-110070007D01*
X89779798Y-110070007D01*
X89779801Y-110070010D01*
X89832403Y-110085670D01*
X89884340Y-110103500D01*
X89884342Y-110103500D01*
X89892081Y-110104792D01*
X89899912Y-110105768D01*
X89954756Y-110103500D01*
X91740273Y-110103500D01*
X91808394Y-110123502D01*
X91829368Y-110140405D01*
X92863585Y-111174622D01*
X92897611Y-111236934D01*
X92900490Y-111263717D01*
X92900490Y-111411835D01*
X92880488Y-111479956D01*
X92826832Y-111526449D01*
X92756558Y-111536553D01*
X92691978Y-111507059D01*
X92666938Y-111477474D01*
X92568023Y-111315397D01*
X92568021Y-111315395D01*
X92568018Y-111315390D01*
X92394745Y-111107180D01*
X92394741Y-111107177D01*
X92394740Y-111107175D01*
X92193012Y-110926427D01*
X92193002Y-110926418D01*
X91967090Y-110776956D01*
X91721824Y-110661980D01*
X91518019Y-110600664D01*
X91462425Y-110583938D01*
X91194442Y-110544500D01*
X91194439Y-110544500D01*
X90991369Y-110544500D01*
X90991367Y-110544500D01*
X90788839Y-110559323D01*
X90788838Y-110559323D01*
X90524456Y-110618217D01*
X90524441Y-110618222D01*
X90271441Y-110714986D01*
X90035229Y-110847555D01*
X90035225Y-110847557D01*
X89820818Y-111013116D01*
X89632815Y-111208117D01*
X89632810Y-111208123D01*
X89475203Y-111428417D01*
X89475196Y-111428427D01*
X89351343Y-111669324D01*
X89351342Y-111669327D01*
X89263883Y-111925689D01*
X89263880Y-111925702D01*
X89214681Y-112192058D01*
X89214680Y-112192069D01*
X89204788Y-112462765D01*
X89234412Y-112732014D01*
X89302928Y-112994090D01*
X89408869Y-113243389D01*
X89453923Y-113317211D01*
X89549982Y-113474610D01*
X89723255Y-113682820D01*
X89723257Y-113682822D01*
X89723259Y-113682824D01*
X89873117Y-113817097D01*
X89924998Y-113863582D01*
X90121243Y-113993417D01*
X90167019Y-114047685D01*
X90176188Y-114118087D01*
X90145840Y-114182270D01*
X90085609Y-114219857D01*
X90051720Y-114224500D01*
X63791559Y-114224500D01*
X63723438Y-114204498D01*
X63697924Y-114182812D01*
X63688694Y-114172561D01*
X63677682Y-114160332D01*
X63673554Y-114155233D01*
X63654260Y-114128677D01*
X63654259Y-114128676D01*
X63654257Y-114128673D01*
X63645285Y-114120594D01*
X63627435Y-114107625D01*
X63584083Y-114051401D01*
X63575500Y-114005692D01*
X63575500Y-98171000D01*
X65054001Y-98171000D01*
X65054001Y-98429315D01*
X65060351Y-98499216D01*
X65110473Y-98660064D01*
X65110473Y-98660065D01*
X65197631Y-98804241D01*
X65197635Y-98804246D01*
X65316753Y-98923364D01*
X65316758Y-98923368D01*
X65460934Y-99010526D01*
X65621783Y-99060648D01*
X65691683Y-99066999D01*
X65737499Y-99066999D01*
X65737500Y-99066998D01*
X65737500Y-98171000D01*
X65054001Y-98171000D01*
X63575500Y-98171000D01*
X63575500Y-95758000D01*
X65038201Y-95758000D01*
X65038201Y-96185571D01*
X65044608Y-96256101D01*
X65095182Y-96418398D01*
X65095182Y-96418399D01*
X65183125Y-96563874D01*
X65183129Y-96563879D01*
X65303320Y-96684070D01*
X65303325Y-96684074D01*
X65319058Y-96693585D01*
X65367006Y-96745943D01*
X65379036Y-96815913D01*
X65351327Y-96881280D01*
X65319062Y-96909239D01*
X65316758Y-96910631D01*
X65316753Y-96910635D01*
X65197635Y-97029753D01*
X65197631Y-97029758D01*
X65110473Y-97173934D01*
X65110473Y-97173935D01*
X65060351Y-97334781D01*
X65060351Y-97334784D01*
X65054000Y-97404684D01*
X65054000Y-97663000D01*
X65737500Y-97663000D01*
X65737500Y-96853000D01*
X65757502Y-96784879D01*
X65811158Y-96738386D01*
X65858005Y-96728195D01*
X65859200Y-96727001D01*
X65859200Y-95758000D01*
X65038201Y-95758000D01*
X63575500Y-95758000D01*
X63575500Y-95250000D01*
X65038200Y-95250000D01*
X65859200Y-95250000D01*
X65859200Y-94179000D01*
X65681628Y-94179000D01*
X65611098Y-94185408D01*
X65448801Y-94235982D01*
X65448800Y-94235982D01*
X65303325Y-94323925D01*
X65303320Y-94323929D01*
X65183129Y-94444120D01*
X65183125Y-94444125D01*
X65095182Y-94589600D01*
X65095182Y-94589601D01*
X65044608Y-94751896D01*
X65044608Y-94751900D01*
X65038200Y-94822427D01*
X65038200Y-95250000D01*
X63575500Y-95250000D01*
X63575500Y-79539558D01*
X63595502Y-79471437D01*
X63617181Y-79445929D01*
X63639669Y-79425680D01*
X63644758Y-79421559D01*
X63671323Y-79402260D01*
X63671324Y-79402257D01*
X63679405Y-79393282D01*
X63686506Y-79383509D01*
X63686509Y-79383507D01*
X63686510Y-79383503D01*
X63692373Y-79375436D01*
X63748597Y-79332084D01*
X63794307Y-79323500D01*
X65080271Y-79323500D01*
X65148392Y-79343502D01*
G37*
G04 #@! TD.AperFunction*
G04 #@! TA.AperFunction,Conductor*
G36*
X112320141Y-97260502D02*
G01*
X112366634Y-97314158D01*
X112376738Y-97384432D01*
X112347244Y-97449012D01*
X112331953Y-97463900D01*
X112283590Y-97503590D01*
X112152313Y-97663552D01*
X112054768Y-97846045D01*
X111994698Y-98044072D01*
X111974417Y-98249996D01*
X111974417Y-98250003D01*
X111994698Y-98455927D01*
X111994699Y-98455933D01*
X111994700Y-98455934D01*
X112020082Y-98539609D01*
X112054768Y-98653954D01*
X112151011Y-98834012D01*
X112152315Y-98836450D01*
X112283590Y-98996410D01*
X112443550Y-99127685D01*
X112626046Y-99225232D01*
X112824066Y-99285300D01*
X112824070Y-99285300D01*
X112824072Y-99285301D01*
X113029997Y-99305583D01*
X113030000Y-99305583D01*
X113030003Y-99305583D01*
X113235927Y-99285301D01*
X113235928Y-99285300D01*
X113235934Y-99285300D01*
X113433954Y-99225232D01*
X113616450Y-99127685D01*
X113776410Y-98996410D01*
X113907685Y-98836450D01*
X113984840Y-98692103D01*
X114034592Y-98641456D01*
X114095962Y-98625500D01*
X115092020Y-98625500D01*
X115160141Y-98645502D01*
X115206634Y-98699158D01*
X115216738Y-98769432D01*
X115187244Y-98834012D01*
X115171954Y-98848898D01*
X115144414Y-98871500D01*
X115123590Y-98888590D01*
X114992313Y-99048552D01*
X114894768Y-99231045D01*
X114834698Y-99429072D01*
X114814417Y-99634996D01*
X114814417Y-99635003D01*
X114834698Y-99840927D01*
X114834699Y-99840933D01*
X114834700Y-99840934D01*
X114886950Y-100013182D01*
X114894768Y-100038954D01*
X114982298Y-100202711D01*
X114992315Y-100221450D01*
X115123590Y-100381410D01*
X115158123Y-100409750D01*
X115171953Y-100421100D01*
X115211922Y-100479777D01*
X115213823Y-100550748D01*
X115177053Y-100611481D01*
X115113285Y-100642693D01*
X115092020Y-100644500D01*
X114095962Y-100644500D01*
X114027841Y-100624498D01*
X113984840Y-100577896D01*
X113978171Y-100565420D01*
X113907685Y-100433550D01*
X113776410Y-100273590D01*
X113616450Y-100142315D01*
X113616448Y-100142314D01*
X113616447Y-100142313D01*
X113433954Y-100044768D01*
X113337027Y-100015366D01*
X113235934Y-99984700D01*
X113235933Y-99984699D01*
X113235927Y-99984698D01*
X113030003Y-99964417D01*
X113029997Y-99964417D01*
X112824072Y-99984698D01*
X112626045Y-100044768D01*
X112443552Y-100142313D01*
X112283590Y-100273590D01*
X112152313Y-100433552D01*
X112054768Y-100616045D01*
X111994698Y-100814072D01*
X111974417Y-101019996D01*
X111974417Y-101020003D01*
X111994698Y-101225927D01*
X111994699Y-101225933D01*
X111994700Y-101225934D01*
X112034406Y-101356830D01*
X112054768Y-101423954D01*
X112151011Y-101604012D01*
X112152315Y-101606450D01*
X112283590Y-101766410D01*
X112443550Y-101897685D01*
X112626046Y-101995232D01*
X112824066Y-102055300D01*
X112824070Y-102055300D01*
X112824072Y-102055301D01*
X113029997Y-102075583D01*
X113030000Y-102075583D01*
X113030003Y-102075583D01*
X113235927Y-102055301D01*
X113235928Y-102055300D01*
X113235934Y-102055300D01*
X113433954Y-101995232D01*
X113616450Y-101897685D01*
X113776410Y-101766410D01*
X113907685Y-101606450D01*
X113984840Y-101462103D01*
X114034592Y-101411456D01*
X114095962Y-101395500D01*
X115092020Y-101395500D01*
X115160141Y-101415502D01*
X115206634Y-101469158D01*
X115216738Y-101539432D01*
X115187244Y-101604012D01*
X115171953Y-101618900D01*
X115123590Y-101658590D01*
X114992313Y-101818552D01*
X114894768Y-102001045D01*
X114834698Y-102199072D01*
X114814417Y-102404996D01*
X114814417Y-102405003D01*
X114834698Y-102610927D01*
X114834699Y-102610933D01*
X114834700Y-102610934D01*
X114883375Y-102771397D01*
X114894768Y-102808954D01*
X114982653Y-102973375D01*
X114992315Y-102991450D01*
X115123590Y-103151410D01*
X115283550Y-103282685D01*
X115466046Y-103380232D01*
X115664066Y-103440300D01*
X115664070Y-103440300D01*
X115664072Y-103440301D01*
X115869997Y-103460583D01*
X115870000Y-103460583D01*
X115870003Y-103460583D01*
X116075927Y-103440301D01*
X116075928Y-103440300D01*
X116075934Y-103440300D01*
X116273954Y-103380232D01*
X116456450Y-103282685D01*
X116616410Y-103151410D01*
X116747685Y-102991450D01*
X116845232Y-102808954D01*
X116905300Y-102610934D01*
X116910905Y-102554034D01*
X116925583Y-102405003D01*
X116925583Y-102404997D01*
X116907276Y-102219126D01*
X116920504Y-102149373D01*
X116969344Y-102097845D01*
X117038290Y-102080901D01*
X117105450Y-102103922D01*
X117121764Y-102117680D01*
X117399653Y-102395568D01*
X117649585Y-102645500D01*
X117695688Y-102682653D01*
X117824969Y-102741693D01*
X117824974Y-102741693D01*
X117824975Y-102741694D01*
X117965644Y-102761920D01*
X117965647Y-102761920D01*
X117965650Y-102761920D01*
X118106318Y-102741694D01*
X118106317Y-102741694D01*
X118106325Y-102741693D01*
X118206927Y-102695750D01*
X118235600Y-102682656D01*
X118235600Y-102682655D01*
X118235606Y-102682653D01*
X118281709Y-102645501D01*
X118693274Y-102233935D01*
X118730427Y-102187832D01*
X118789467Y-102058551D01*
X118797735Y-102001046D01*
X118809694Y-101917876D01*
X118809694Y-101917869D01*
X118789468Y-101777201D01*
X118789467Y-101777200D01*
X118789467Y-101777195D01*
X118775371Y-101746329D01*
X118730430Y-101647919D01*
X118730427Y-101647915D01*
X118730427Y-101647914D01*
X118693275Y-101601811D01*
X117981189Y-100889726D01*
X117935086Y-100852573D01*
X117805805Y-100793533D01*
X117805798Y-100793531D01*
X117665130Y-100773306D01*
X117665124Y-100773306D01*
X117524451Y-100793532D01*
X117524445Y-100793534D01*
X117502781Y-100803427D01*
X117432507Y-100813529D01*
X117367927Y-100784034D01*
X117355265Y-100769531D01*
X117354927Y-100769843D01*
X117347859Y-100762165D01*
X117345374Y-100760231D01*
X117319885Y-100740392D01*
X117314042Y-100735230D01*
X117311292Y-100732480D01*
X117311290Y-100732478D01*
X117292278Y-100718905D01*
X117267362Y-100699512D01*
X117248963Y-100685191D01*
X117248960Y-100685190D01*
X117248958Y-100685188D01*
X117242051Y-100681450D01*
X117234974Y-100677990D01*
X117182370Y-100662329D01*
X117160292Y-100654750D01*
X117130434Y-100644500D01*
X117130433Y-100644500D01*
X117130430Y-100644499D01*
X117122688Y-100643207D01*
X117114861Y-100642231D01*
X117060018Y-100644500D01*
X116647980Y-100644500D01*
X116579859Y-100624498D01*
X116533366Y-100570842D01*
X116523262Y-100500568D01*
X116552756Y-100435988D01*
X116568047Y-100421100D01*
X116581877Y-100409750D01*
X116616410Y-100381410D01*
X116747685Y-100221450D01*
X116824840Y-100077103D01*
X116874592Y-100026456D01*
X116935962Y-100010500D01*
X117165489Y-100010500D01*
X117191347Y-100013181D01*
X117201768Y-100015367D01*
X117236936Y-100010983D01*
X117244726Y-100010500D01*
X117248607Y-100010500D01*
X117248614Y-100010500D01*
X117271640Y-100006657D01*
X117326126Y-99999866D01*
X117326137Y-99999860D01*
X117333934Y-99997540D01*
X117404930Y-99997269D01*
X117458989Y-100029205D01*
X117497168Y-100067384D01*
X117497183Y-100067398D01*
X117497185Y-100067400D01*
X117543288Y-100104553D01*
X117672569Y-100163593D01*
X117672574Y-100163593D01*
X117672575Y-100163594D01*
X117813244Y-100183820D01*
X117813247Y-100183820D01*
X117813250Y-100183820D01*
X117953918Y-100163594D01*
X117953917Y-100163594D01*
X117953925Y-100163593D01*
X117970254Y-100156135D01*
X118040525Y-100146030D01*
X118105107Y-100175521D01*
X118143492Y-100235246D01*
X118146875Y-100282515D01*
X118146906Y-100282515D01*
X118146906Y-100282942D01*
X118147316Y-100288671D01*
X118146906Y-100291524D01*
X118146906Y-100291530D01*
X118167131Y-100432198D01*
X118167134Y-100432208D01*
X118226169Y-100561480D01*
X118226172Y-100561484D01*
X118226173Y-100561486D01*
X118263325Y-100607589D01*
X118975411Y-101319674D01*
X119021514Y-101356827D01*
X119150795Y-101415867D01*
X119150800Y-101415867D01*
X119150801Y-101415868D01*
X119291470Y-101436094D01*
X119291473Y-101436094D01*
X119291476Y-101436094D01*
X119432144Y-101415868D01*
X119432143Y-101415868D01*
X119432151Y-101415867D01*
X119530927Y-101370758D01*
X119561426Y-101356830D01*
X119561426Y-101356829D01*
X119561432Y-101356827D01*
X119607535Y-101319675D01*
X120019100Y-100908109D01*
X120056253Y-100862006D01*
X120115293Y-100732725D01*
X120118670Y-100709241D01*
X120135520Y-100592050D01*
X120135520Y-100592043D01*
X120115294Y-100451375D01*
X120115293Y-100451374D01*
X120115293Y-100451369D01*
X120097455Y-100412309D01*
X120056256Y-100322093D01*
X120056253Y-100322089D01*
X120056253Y-100322088D01*
X120019101Y-100275985D01*
X120019091Y-100275975D01*
X120019086Y-100275969D01*
X120017671Y-100274554D01*
X120017447Y-100274144D01*
X120016845Y-100273474D01*
X120017003Y-100273331D01*
X119983645Y-100212242D01*
X119988710Y-100141427D01*
X120017669Y-100096366D01*
X120192942Y-99921093D01*
X120213118Y-99904709D01*
X120222036Y-99898884D01*
X120243806Y-99870911D01*
X120248971Y-99865064D01*
X120251719Y-99862318D01*
X120265285Y-99843316D01*
X120299009Y-99799989D01*
X120299009Y-99799986D01*
X120302753Y-99793069D01*
X120306209Y-99786001D01*
X120321871Y-99733395D01*
X120329327Y-99711677D01*
X120370363Y-99653742D01*
X120436207Y-99627189D01*
X120505954Y-99640450D01*
X120557460Y-99689314D01*
X120574500Y-99752588D01*
X120574500Y-114008441D01*
X120554498Y-114076562D01*
X120532811Y-114102077D01*
X120463490Y-114164493D01*
X120457629Y-114172561D01*
X120401406Y-114215915D01*
X120355693Y-114224500D01*
X92062159Y-114224500D01*
X91994038Y-114204498D01*
X91947545Y-114150842D01*
X91937441Y-114080568D01*
X91966935Y-114015988D01*
X92000492Y-113988622D01*
X92018240Y-113978660D01*
X92082777Y-113942441D01*
X92297177Y-113776888D01*
X92485186Y-113581881D01*
X92642799Y-113361579D01*
X92658509Y-113331024D01*
X92766656Y-113120675D01*
X92766657Y-113120672D01*
X92798663Y-113026856D01*
X92854118Y-112864305D01*
X92877495Y-112737741D01*
X92909537Y-112674387D01*
X92970745Y-112638413D01*
X93041685Y-112641241D01*
X93090494Y-112671532D01*
X94217702Y-113798739D01*
X94234087Y-113818914D01*
X94239917Y-113827837D01*
X94267884Y-113849604D01*
X94273735Y-113854772D01*
X94276483Y-113857520D01*
X94276486Y-113857522D01*
X94295483Y-113871086D01*
X94338807Y-113904807D01*
X94338810Y-113904809D01*
X94338812Y-113904810D01*
X94338813Y-113904810D01*
X94345732Y-113908554D01*
X94352799Y-113912009D01*
X94352802Y-113912011D01*
X94405406Y-113927672D01*
X94457341Y-113945501D01*
X94457348Y-113945501D01*
X94465108Y-113946796D01*
X94472912Y-113947769D01*
X94527756Y-113945501D01*
X97070988Y-113945501D01*
X97096846Y-113948182D01*
X97107267Y-113950368D01*
X97142435Y-113945984D01*
X97150225Y-113945501D01*
X97154106Y-113945501D01*
X97154113Y-113945501D01*
X97177139Y-113941658D01*
X97231625Y-113934867D01*
X97231626Y-113934866D01*
X97231629Y-113934866D01*
X97239135Y-113932631D01*
X97246603Y-113930066D01*
X97246609Y-113930066D01*
X97294876Y-113903945D01*
X97344210Y-113879827D01*
X97344213Y-113879824D01*
X97350602Y-113875262D01*
X97356818Y-113870423D01*
X97356825Y-113870420D01*
X97394007Y-113830029D01*
X97899052Y-113324983D01*
X97961361Y-113290961D01*
X98032176Y-113296025D01*
X98033547Y-113296546D01*
X98122544Y-113331024D01*
X98323024Y-113368500D01*
X98323026Y-113368500D01*
X98526974Y-113368500D01*
X98526976Y-113368500D01*
X98727456Y-113331024D01*
X98917637Y-113257348D01*
X99091041Y-113149981D01*
X99241764Y-113012579D01*
X99340789Y-112881447D01*
X99397802Y-112839141D01*
X99468638Y-112834373D01*
X99530807Y-112868659D01*
X99542207Y-112881871D01*
X99611527Y-112974472D01*
X99719546Y-113055334D01*
X99719548Y-113055334D01*
X99719550Y-113055336D01*
X99845978Y-113102491D01*
X99845979Y-113102491D01*
X99845982Y-113102492D01*
X99901857Y-113108499D01*
X99901865Y-113108499D01*
X99901870Y-113108500D01*
X99901874Y-113108500D01*
X100504126Y-113108500D01*
X100504130Y-113108500D01*
X100504135Y-113108499D01*
X100504142Y-113108499D01*
X100560017Y-113102492D01*
X100560018Y-113102491D01*
X100560022Y-113102491D01*
X100686450Y-113055336D01*
X100794472Y-112974472D01*
X100864108Y-112881449D01*
X100875334Y-112866453D01*
X100875334Y-112866452D01*
X100875336Y-112866450D01*
X100922491Y-112740022D01*
X100922737Y-112737742D01*
X100928499Y-112684142D01*
X100928500Y-112684125D01*
X100928500Y-112156874D01*
X100928499Y-112156857D01*
X100922492Y-112100982D01*
X100921253Y-112097659D01*
X100875336Y-111974550D01*
X100875334Y-111974547D01*
X100875334Y-111974546D01*
X100794472Y-111866527D01*
X100686453Y-111785665D01*
X100673444Y-111780813D01*
X100593658Y-111751054D01*
X100536824Y-111708509D01*
X100512013Y-111641989D01*
X100527104Y-111572615D01*
X100577306Y-111522413D01*
X100593651Y-111514947D01*
X100686450Y-111480336D01*
X100690274Y-111477474D01*
X100794472Y-111399472D01*
X100875334Y-111291453D01*
X100875334Y-111291452D01*
X100875336Y-111291450D01*
X100922491Y-111165022D01*
X100922793Y-111162218D01*
X100928499Y-111109142D01*
X100928500Y-111109125D01*
X100928500Y-111046500D01*
X103752001Y-111046500D01*
X103752001Y-111092315D01*
X103758351Y-111162216D01*
X103808473Y-111323064D01*
X103808473Y-111323065D01*
X103895631Y-111467241D01*
X103895635Y-111467246D01*
X104014753Y-111586364D01*
X104014758Y-111586368D01*
X104158934Y-111673526D01*
X104319783Y-111723648D01*
X104389684Y-111729999D01*
X104648000Y-111729999D01*
X104648000Y-111046500D01*
X105156000Y-111046500D01*
X105156000Y-111729999D01*
X105414316Y-111729999D01*
X105484216Y-111723648D01*
X105645064Y-111673526D01*
X105645065Y-111673526D01*
X105789241Y-111586368D01*
X105789246Y-111586364D01*
X105908364Y-111467246D01*
X105908368Y-111467241D01*
X105995526Y-111323065D01*
X105995526Y-111323064D01*
X106045648Y-111162218D01*
X106045648Y-111162215D01*
X106052000Y-111092315D01*
X106052000Y-111046500D01*
X105156000Y-111046500D01*
X104648000Y-111046500D01*
X103752001Y-111046500D01*
X100928500Y-111046500D01*
X100928500Y-110750003D01*
X111074671Y-110750003D01*
X111093965Y-111044375D01*
X111093968Y-111044393D01*
X111151518Y-111333720D01*
X111151520Y-111333727D01*
X111201159Y-111479956D01*
X111246348Y-111613077D01*
X111246351Y-111613083D01*
X111376826Y-111877662D01*
X111540725Y-112122955D01*
X111573564Y-112160400D01*
X111735242Y-112344758D01*
X111854791Y-112449600D01*
X111957044Y-112539274D01*
X112044834Y-112597933D01*
X112202335Y-112703172D01*
X112466923Y-112833652D01*
X112746278Y-112928481D01*
X113035620Y-112986034D01*
X113203837Y-112997059D01*
X113329997Y-113005329D01*
X113330000Y-113005329D01*
X113330003Y-113005329D01*
X113440392Y-112998093D01*
X113624380Y-112986034D01*
X113913722Y-112928481D01*
X114193077Y-112833652D01*
X114457665Y-112703172D01*
X114702957Y-112539273D01*
X114924758Y-112344758D01*
X115119273Y-112122957D01*
X115283172Y-111877665D01*
X115413652Y-111613077D01*
X115508481Y-111333722D01*
X115566034Y-111044380D01*
X115583887Y-110772003D01*
X115585329Y-110750003D01*
X115585329Y-110749996D01*
X115572831Y-110559323D01*
X115566034Y-110455620D01*
X115508481Y-110166278D01*
X115457305Y-110015521D01*
X115413652Y-109886923D01*
X115283173Y-109622338D01*
X115274505Y-109609366D01*
X115181494Y-109470164D01*
X115119278Y-109377050D01*
X115119276Y-109377048D01*
X115119273Y-109377043D01*
X114924758Y-109155242D01*
X114702957Y-108960727D01*
X114702958Y-108960727D01*
X114702955Y-108960725D01*
X114457662Y-108796826D01*
X114193083Y-108666351D01*
X114193077Y-108666348D01*
X114042366Y-108615188D01*
X113913727Y-108571520D01*
X113913720Y-108571518D01*
X113624393Y-108513968D01*
X113624375Y-108513965D01*
X113330003Y-108494671D01*
X113329997Y-108494671D01*
X113035624Y-108513965D01*
X113035606Y-108513968D01*
X112746279Y-108571518D01*
X112746272Y-108571520D01*
X112466923Y-108666347D01*
X112202338Y-108796826D01*
X111957050Y-108960721D01*
X111957043Y-108960726D01*
X111957043Y-108960727D01*
X111735242Y-109155242D01*
X111542549Y-109374966D01*
X111540721Y-109377050D01*
X111376826Y-109622338D01*
X111246347Y-109886923D01*
X111151520Y-110166272D01*
X111151518Y-110166279D01*
X111093968Y-110455606D01*
X111093965Y-110455624D01*
X111074671Y-110749996D01*
X111074671Y-110750003D01*
X100928500Y-110750003D01*
X100928500Y-110581874D01*
X100928499Y-110581857D01*
X100922492Y-110525982D01*
X100922491Y-110525978D01*
X100875336Y-110399550D01*
X100875334Y-110399547D01*
X100875334Y-110399546D01*
X100794472Y-110291527D01*
X100686453Y-110210665D01*
X100664508Y-110202480D01*
X100660464Y-110200971D01*
X100603630Y-110158424D01*
X100578821Y-110091903D01*
X100578500Y-110082917D01*
X100578500Y-109145009D01*
X100581181Y-109119153D01*
X100583367Y-109108731D01*
X100578983Y-109073565D01*
X100578500Y-109065773D01*
X100578500Y-109061885D01*
X100574655Y-109038847D01*
X100567865Y-108984377D01*
X100567865Y-108984374D01*
X100567862Y-108984369D01*
X100565619Y-108976833D01*
X100563064Y-108969388D01*
X100536943Y-108921119D01*
X100520982Y-108888473D01*
X100512826Y-108871788D01*
X100512825Y-108871787D01*
X100508269Y-108865405D01*
X100503421Y-108859176D01*
X100484351Y-108841621D01*
X100463041Y-108822003D01*
X100374421Y-108733383D01*
X100340398Y-108671074D01*
X100345462Y-108600258D01*
X100388008Y-108543422D01*
X100450053Y-108519012D01*
X100469988Y-108516869D01*
X100504391Y-108513171D01*
X100637554Y-108463503D01*
X100647249Y-108456246D01*
X100751331Y-108378331D01*
X100836501Y-108264557D01*
X100836503Y-108264553D01*
X100869659Y-108175661D01*
X100912206Y-108118825D01*
X100978726Y-108094015D01*
X101048100Y-108109107D01*
X101098302Y-108159309D01*
X101108009Y-108182209D01*
X101148473Y-108312064D01*
X101148473Y-108312065D01*
X101235631Y-108456241D01*
X101235635Y-108456246D01*
X101354753Y-108575364D01*
X101354758Y-108575368D01*
X101498934Y-108662526D01*
X101659783Y-108712648D01*
X101729683Y-108718999D01*
X101775499Y-108718999D01*
X102283500Y-108718999D01*
X102330583Y-108718999D01*
X102398704Y-108739001D01*
X102445197Y-108792657D01*
X102455505Y-108861446D01*
X102441740Y-108965999D01*
X102441740Y-108966000D01*
X102460660Y-109109709D01*
X102516127Y-109243624D01*
X102604368Y-109358621D01*
X102719365Y-109446862D01*
X102799441Y-109480029D01*
X102853281Y-109502330D01*
X102996990Y-109521250D01*
X103140699Y-109502330D01*
X103225145Y-109467351D01*
X103274614Y-109446862D01*
X103374353Y-109370329D01*
X103389611Y-109358621D01*
X103402138Y-109342294D01*
X103459475Y-109300429D01*
X103502100Y-109293000D01*
X103879898Y-109293000D01*
X103948019Y-109313002D01*
X103994512Y-109366658D01*
X103997953Y-109374966D01*
X104007497Y-109400554D01*
X104007498Y-109400557D01*
X104092668Y-109514331D01*
X104206442Y-109599501D01*
X104206444Y-109599502D01*
X104206446Y-109599503D01*
X104245094Y-109613918D01*
X104295338Y-109632659D01*
X104352174Y-109675206D01*
X104376984Y-109741726D01*
X104361892Y-109811100D01*
X104311689Y-109861302D01*
X104288790Y-109871009D01*
X104158935Y-109911473D01*
X104158934Y-109911473D01*
X104014758Y-109998631D01*
X104014753Y-109998635D01*
X103895635Y-110117753D01*
X103895631Y-110117758D01*
X103808473Y-110261934D01*
X103808473Y-110261935D01*
X103758351Y-110422781D01*
X103758351Y-110422784D01*
X103752000Y-110492684D01*
X103752000Y-110538500D01*
X106051999Y-110538500D01*
X106051999Y-110492684D01*
X106045648Y-110422783D01*
X105995526Y-110261935D01*
X105995526Y-110261934D01*
X105908368Y-110117758D01*
X105908364Y-110117753D01*
X105789246Y-109998635D01*
X105789241Y-109998631D01*
X105645066Y-109911474D01*
X105515208Y-109871008D01*
X105456123Y-109831645D01*
X105427698Y-109766587D01*
X105438959Y-109696489D01*
X105486329Y-109643607D01*
X105508649Y-109632663D01*
X105597554Y-109599503D01*
X105602902Y-109595500D01*
X105711331Y-109514331D01*
X105796501Y-109400557D01*
X105796501Y-109400556D01*
X105796503Y-109400554D01*
X105846171Y-109267391D01*
X105846966Y-109260001D01*
X105852499Y-109208532D01*
X105852499Y-109208530D01*
X105852500Y-109208521D01*
X105852499Y-108626480D01*
X105846171Y-108567609D01*
X105796503Y-108434446D01*
X105796501Y-108434442D01*
X105711331Y-108320668D01*
X105597557Y-108235498D01*
X105597554Y-108235497D01*
X105489126Y-108195054D01*
X105432291Y-108152507D01*
X105407481Y-108085986D01*
X105422573Y-108016612D01*
X105472776Y-107966411D01*
X105489110Y-107958950D01*
X105597554Y-107918503D01*
X105597799Y-107918320D01*
X105711331Y-107833331D01*
X105796501Y-107719557D01*
X105796501Y-107719556D01*
X105796503Y-107719554D01*
X105846171Y-107586391D01*
X105846171Y-107586389D01*
X105846172Y-107586386D01*
X105852499Y-107527532D01*
X105852499Y-107527530D01*
X105852500Y-107527521D01*
X105852499Y-106945480D01*
X105846171Y-106886609D01*
X105796503Y-106753446D01*
X105796501Y-106753442D01*
X105711331Y-106639668D01*
X105597557Y-106554498D01*
X105597552Y-106554496D01*
X105464394Y-106504829D01*
X105464386Y-106504827D01*
X105405524Y-106498500D01*
X104398487Y-106498500D01*
X104398463Y-106498502D01*
X104339611Y-106504828D01*
X104339609Y-106504828D01*
X104206446Y-106554496D01*
X104206442Y-106554498D01*
X104092668Y-106639668D01*
X104007498Y-106753442D01*
X104007496Y-106753447D01*
X103957829Y-106886605D01*
X103957827Y-106886613D01*
X103951500Y-106945467D01*
X103951500Y-107527512D01*
X103951502Y-107527536D01*
X103957828Y-107586388D01*
X103957828Y-107586390D01*
X104007496Y-107719553D01*
X104007498Y-107719557D01*
X104092668Y-107833331D01*
X104206442Y-107918501D01*
X104206444Y-107918502D01*
X104206446Y-107918503D01*
X104226592Y-107926017D01*
X104314872Y-107958945D01*
X104371708Y-108001492D01*
X104396518Y-108068012D01*
X104381426Y-108137386D01*
X104331223Y-108187588D01*
X104314872Y-108195055D01*
X104206447Y-108235496D01*
X104206442Y-108235498D01*
X104092668Y-108320668D01*
X104007498Y-108434442D01*
X104007497Y-108434445D01*
X103997953Y-108460034D01*
X103955406Y-108516869D01*
X103888885Y-108541679D01*
X103879898Y-108542000D01*
X103391488Y-108542000D01*
X103323367Y-108521998D01*
X103314794Y-108515969D01*
X103274615Y-108485139D01*
X103274614Y-108485138D01*
X103274611Y-108485136D01*
X103140699Y-108429670D01*
X103032763Y-108415459D01*
X102967836Y-108386736D01*
X102928745Y-108327470D01*
X102927900Y-108256479D01*
X102928915Y-108253051D01*
X102960648Y-108151215D01*
X102967000Y-108081315D01*
X102967000Y-107823000D01*
X102283500Y-107823000D01*
X102283500Y-108718999D01*
X101775499Y-108718999D01*
X101775500Y-108718998D01*
X101775500Y-106377355D01*
X101795502Y-106309234D01*
X101800632Y-106301846D01*
X101852501Y-106232557D01*
X101852503Y-106232553D01*
X101854511Y-106227171D01*
X101884227Y-106147500D01*
X101885659Y-106143661D01*
X101928206Y-106086825D01*
X101994726Y-106062015D01*
X102064100Y-106077107D01*
X102114302Y-106127309D01*
X102124009Y-106150209D01*
X102164474Y-106280067D01*
X102227896Y-106384981D01*
X102268906Y-106427132D01*
X102283500Y-106485994D01*
X102283500Y-107315000D01*
X102966999Y-107315000D01*
X102966999Y-107056684D01*
X102960648Y-106986783D01*
X102910525Y-106825932D01*
X102847104Y-106721020D01*
X102806092Y-106678864D01*
X102791500Y-106620005D01*
X102791500Y-104387000D01*
X102745683Y-104387000D01*
X102675783Y-104393351D01*
X102514935Y-104443473D01*
X102514934Y-104443473D01*
X102370758Y-104530631D01*
X102370753Y-104530635D01*
X102251635Y-104649753D01*
X102251631Y-104649758D01*
X102164474Y-104793933D01*
X102124008Y-104923791D01*
X102084645Y-104982877D01*
X102019587Y-105011301D01*
X101949489Y-105000040D01*
X101896607Y-104952669D01*
X101885661Y-104930346D01*
X101852503Y-104841446D01*
X101852501Y-104841443D01*
X101852501Y-104841442D01*
X101767331Y-104727668D01*
X101653557Y-104642498D01*
X101653552Y-104642496D01*
X101520394Y-104592829D01*
X101520386Y-104592827D01*
X101461524Y-104586500D01*
X100879487Y-104586500D01*
X100879463Y-104586502D01*
X100820611Y-104592828D01*
X100820609Y-104592828D01*
X100687446Y-104642496D01*
X100687443Y-104642498D01*
X100642163Y-104676394D01*
X100575642Y-104701204D01*
X100506268Y-104686112D01*
X100456067Y-104635909D01*
X100441733Y-104591971D01*
X100440749Y-104584502D01*
X100440750Y-104584500D01*
X100421830Y-104440791D01*
X100399430Y-104386711D01*
X100366362Y-104306875D01*
X100278121Y-104191878D01*
X100163124Y-104103637D01*
X100029209Y-104048170D01*
X99885500Y-104029250D01*
X99741790Y-104048170D01*
X99607875Y-104103637D01*
X99492878Y-104191878D01*
X99404637Y-104306875D01*
X99349170Y-104440790D01*
X99330250Y-104584499D01*
X99330250Y-104584500D01*
X99349170Y-104728209D01*
X99404637Y-104862122D01*
X99408961Y-104867757D01*
X99434563Y-104933977D01*
X99435000Y-104944463D01*
X99435000Y-104985109D01*
X99414998Y-105053230D01*
X99361342Y-105099723D01*
X99291068Y-105109827D01*
X99239001Y-105089876D01*
X99237742Y-105089034D01*
X99237739Y-105089033D01*
X99164677Y-105074500D01*
X99164674Y-105074500D01*
X98315326Y-105074500D01*
X98315322Y-105074500D01*
X98242260Y-105089033D01*
X98159399Y-105144399D01*
X98104033Y-105227260D01*
X98089500Y-105300322D01*
X98089500Y-106249677D01*
X98104033Y-106322739D01*
X98142013Y-106379580D01*
X98159399Y-106405601D01*
X98233501Y-106455113D01*
X98279029Y-106509588D01*
X98289500Y-106559878D01*
X98289500Y-106750268D01*
X98269498Y-106818389D01*
X98215842Y-106864882D01*
X98207533Y-106868323D01*
X98131551Y-106896663D01*
X98131546Y-106896665D01*
X98023527Y-106977527D01*
X97942666Y-107085545D01*
X97942664Y-107085549D01*
X97942664Y-107085550D01*
X97908054Y-107178341D01*
X97865509Y-107235175D01*
X97798989Y-107259986D01*
X97729615Y-107244895D01*
X97679412Y-107194692D01*
X97671947Y-107178348D01*
X97637336Y-107085550D01*
X97637333Y-107085546D01*
X97637333Y-107085545D01*
X97556472Y-106977528D01*
X97536179Y-106962337D01*
X97499645Y-106934988D01*
X97457100Y-106878154D01*
X97451351Y-106857540D01*
X97446710Y-106833009D01*
X97444144Y-106815984D01*
X97437848Y-106774213D01*
X97437846Y-106774208D01*
X97435324Y-106766032D01*
X97432523Y-106758027D01*
X97404722Y-106705426D01*
X97378926Y-106651860D01*
X97374128Y-106644822D01*
X97369067Y-106637965D01*
X97369066Y-106637963D01*
X97369063Y-106637960D01*
X97369061Y-106637957D01*
X97358980Y-106627876D01*
X97324954Y-106565564D01*
X97330019Y-106494749D01*
X97372566Y-106437913D01*
X97378037Y-106434040D01*
X97420601Y-106405601D01*
X97475966Y-106322740D01*
X97490500Y-106249674D01*
X97490500Y-105300326D01*
X97475966Y-105227260D01*
X97420601Y-105144399D01*
X97415363Y-105140899D01*
X97346498Y-105094885D01*
X97300970Y-105040409D01*
X97290500Y-104990120D01*
X97290500Y-104601500D01*
X97310502Y-104533379D01*
X97364158Y-104486886D01*
X97416500Y-104475500D01*
X98214674Y-104475500D01*
X98287740Y-104460966D01*
X98370601Y-104405601D01*
X98425966Y-104322740D01*
X98440500Y-104249674D01*
X98440500Y-103300326D01*
X98425966Y-103227260D01*
X98370601Y-103144399D01*
X98370599Y-103144398D01*
X98370599Y-103144397D01*
X98367636Y-103142417D01*
X98362630Y-103136427D01*
X98361826Y-103135623D01*
X98361898Y-103135550D01*
X98322109Y-103087940D01*
X98313262Y-103017496D01*
X98343904Y-102953453D01*
X98348507Y-102948595D01*
X98955700Y-102341402D01*
X99018010Y-102307379D01*
X99044793Y-102304500D01*
X100516921Y-102304500D01*
X100585042Y-102324502D01*
X100629711Y-102374336D01*
X100660327Y-102435821D01*
X100670373Y-102449124D01*
X100783234Y-102598578D01*
X100933959Y-102735981D01*
X100933960Y-102735982D01*
X101107351Y-102843341D01*
X101107354Y-102843342D01*
X101107363Y-102843348D01*
X101297544Y-102917024D01*
X101498024Y-102954500D01*
X101498026Y-102954500D01*
X101701974Y-102954500D01*
X101701976Y-102954500D01*
X101902456Y-102917024D01*
X102092637Y-102843348D01*
X102266041Y-102735981D01*
X102274053Y-102728677D01*
X103039500Y-102728677D01*
X103054033Y-102801739D01*
X103062739Y-102814768D01*
X103109399Y-102884601D01*
X103192260Y-102939966D01*
X103265326Y-102954500D01*
X103638500Y-102954500D01*
X103706621Y-102974502D01*
X103753114Y-103028158D01*
X103764500Y-103080500D01*
X103764500Y-104333982D01*
X103744498Y-104402103D01*
X103690842Y-104448596D01*
X103620568Y-104458700D01*
X103583526Y-104445463D01*
X103583014Y-104446601D01*
X103576064Y-104443473D01*
X103415216Y-104393351D01*
X103345315Y-104387000D01*
X103299500Y-104387000D01*
X103299500Y-106686999D01*
X103345316Y-106686999D01*
X103415216Y-106680648D01*
X103576064Y-106630526D01*
X103576065Y-106630526D01*
X103720241Y-106543368D01*
X103720246Y-106543364D01*
X103839364Y-106424246D01*
X103839368Y-106424241D01*
X103926526Y-106280065D01*
X103926526Y-106280064D01*
X103976648Y-106119218D01*
X103976648Y-106119214D01*
X103977313Y-106111905D01*
X104003396Y-106045873D01*
X104061038Y-106004426D01*
X104131938Y-106000721D01*
X104178306Y-106022438D01*
X104206441Y-106043500D01*
X104206443Y-106043501D01*
X104206446Y-106043503D01*
X104248139Y-106059054D01*
X104339605Y-106093170D01*
X104339613Y-106093172D01*
X104369044Y-106096335D01*
X104398479Y-106099500D01*
X105405520Y-106099499D01*
X105464391Y-106093171D01*
X105597554Y-106043503D01*
X105599067Y-106042371D01*
X105711331Y-105958331D01*
X105796501Y-105844557D01*
X105796501Y-105844556D01*
X105796503Y-105844554D01*
X105846171Y-105711391D01*
X105846194Y-105711186D01*
X105852499Y-105652532D01*
X105852499Y-105652530D01*
X105852500Y-105652521D01*
X105852499Y-105070480D01*
X105846171Y-105011609D01*
X105796503Y-104878446D01*
X105796501Y-104878442D01*
X105711331Y-104764668D01*
X105597557Y-104679498D01*
X105597552Y-104679496D01*
X105464394Y-104629829D01*
X105464386Y-104629827D01*
X105405532Y-104623500D01*
X105405521Y-104623500D01*
X104747228Y-104623500D01*
X104679107Y-104603498D01*
X104658133Y-104586595D01*
X104552405Y-104480867D01*
X104518379Y-104418555D01*
X104515500Y-104391772D01*
X104515500Y-103790003D01*
X111974417Y-103790003D01*
X111994698Y-103995927D01*
X111994699Y-103995933D01*
X111994700Y-103995934D01*
X112049961Y-104178106D01*
X112054768Y-104193954D01*
X112146222Y-104365052D01*
X112152315Y-104376450D01*
X112283590Y-104536410D01*
X112443550Y-104667685D01*
X112626046Y-104765232D01*
X112824066Y-104825300D01*
X112824070Y-104825300D01*
X112824072Y-104825301D01*
X113029997Y-104845583D01*
X113030000Y-104845583D01*
X113030003Y-104845583D01*
X113235927Y-104825301D01*
X113235928Y-104825300D01*
X113235934Y-104825300D01*
X113433954Y-104765232D01*
X113616450Y-104667685D01*
X113776410Y-104536410D01*
X113907685Y-104376450D01*
X114005232Y-104193954D01*
X114065300Y-103995934D01*
X114067818Y-103970376D01*
X114085583Y-103790003D01*
X114085583Y-103789996D01*
X114065301Y-103584072D01*
X114065300Y-103584070D01*
X114065300Y-103584066D01*
X114005232Y-103386046D01*
X113907685Y-103203550D01*
X113776410Y-103043590D01*
X113616450Y-102912315D01*
X113616448Y-102912314D01*
X113616447Y-102912313D01*
X113433954Y-102814768D01*
X113290977Y-102771397D01*
X113235934Y-102754700D01*
X113235933Y-102754699D01*
X113235927Y-102754698D01*
X113030003Y-102734417D01*
X113029997Y-102734417D01*
X112824072Y-102754698D01*
X112626045Y-102814768D01*
X112443552Y-102912313D01*
X112283590Y-103043590D01*
X112152313Y-103203552D01*
X112054768Y-103386045D01*
X111994698Y-103584072D01*
X111974417Y-103789996D01*
X111974417Y-103790003D01*
X104515500Y-103790003D01*
X104515500Y-103080500D01*
X104535502Y-103012379D01*
X104589158Y-102965886D01*
X104641500Y-102954500D01*
X105014674Y-102954500D01*
X105087740Y-102939966D01*
X105170601Y-102884601D01*
X105225966Y-102801740D01*
X105240500Y-102728674D01*
X105240500Y-100979326D01*
X105225966Y-100906260D01*
X105170601Y-100823399D01*
X105108666Y-100782016D01*
X105087739Y-100768033D01*
X105014677Y-100753500D01*
X105014674Y-100753500D01*
X103265326Y-100753500D01*
X103265322Y-100753500D01*
X103192260Y-100768033D01*
X103109399Y-100823399D01*
X103054033Y-100906260D01*
X103039500Y-100979322D01*
X103039500Y-102728677D01*
X102274053Y-102728677D01*
X102416764Y-102598579D01*
X102539673Y-102435821D01*
X102630582Y-102253250D01*
X102686397Y-102057083D01*
X102705215Y-101854000D01*
X102686397Y-101650917D01*
X102630582Y-101454750D01*
X102539673Y-101272179D01*
X102517352Y-101242621D01*
X102416765Y-101109421D01*
X102266040Y-100972018D01*
X102266039Y-100972017D01*
X102092648Y-100864658D01*
X102092641Y-100864654D01*
X102092637Y-100864652D01*
X101975022Y-100819088D01*
X101902457Y-100790976D01*
X101807929Y-100773306D01*
X101701976Y-100753500D01*
X101498024Y-100753500D01*
X101410596Y-100769843D01*
X101297542Y-100790976D01*
X101150190Y-100848060D01*
X101107363Y-100864652D01*
X101107362Y-100864652D01*
X101107361Y-100864653D01*
X101107351Y-100864658D01*
X100933960Y-100972017D01*
X100933959Y-100972018D01*
X100783234Y-101109421D01*
X100660328Y-101272177D01*
X100660327Y-101272178D01*
X100660327Y-101272179D01*
X100631615Y-101329842D01*
X100629712Y-101333663D01*
X100581443Y-101385726D01*
X100516921Y-101403500D01*
X99118292Y-101403500D01*
X99050171Y-101383498D01*
X99003678Y-101329842D01*
X98993574Y-101259568D01*
X99023068Y-101194988D01*
X99029181Y-101188421D01*
X99971700Y-100245902D01*
X100034010Y-100211879D01*
X100060793Y-100209000D01*
X103222157Y-100209000D01*
X103229211Y-100209395D01*
X103268035Y-100213770D01*
X103268035Y-100213769D01*
X103268036Y-100213770D01*
X103268036Y-100213769D01*
X103293397Y-100208970D01*
X103326478Y-100202712D01*
X103357636Y-100198015D01*
X103385287Y-100193848D01*
X103385295Y-100193843D01*
X103393472Y-100191321D01*
X103401472Y-100188523D01*
X103454073Y-100160722D01*
X103484581Y-100146030D01*
X103507642Y-100134925D01*
X103507646Y-100134921D01*
X103514685Y-100130122D01*
X103521531Y-100125069D01*
X103521538Y-100125066D01*
X103563599Y-100083004D01*
X103607194Y-100042555D01*
X103607197Y-100042548D01*
X103613081Y-100035172D01*
X103613761Y-100035714D01*
X103623217Y-100023385D01*
X104133166Y-99513435D01*
X104138418Y-99508741D01*
X104168970Y-99484379D01*
X104202480Y-99435228D01*
X104237793Y-99387382D01*
X104237793Y-99387379D01*
X104237795Y-99387378D01*
X104241781Y-99379836D01*
X104245471Y-99372174D01*
X104245470Y-99372174D01*
X104245472Y-99372173D01*
X104263007Y-99315322D01*
X104282646Y-99259199D01*
X104282646Y-99259196D01*
X104284229Y-99250830D01*
X104285500Y-99242401D01*
X104285500Y-99182941D01*
X104285698Y-99177657D01*
X104287725Y-99123490D01*
X104287723Y-99123485D01*
X104286668Y-99114105D01*
X104287527Y-99114008D01*
X104285500Y-99098596D01*
X104285500Y-98818659D01*
X104305502Y-98750538D01*
X104359158Y-98704045D01*
X104386917Y-98695080D01*
X104432740Y-98685966D01*
X104515601Y-98630601D01*
X104570966Y-98547740D01*
X104585500Y-98474674D01*
X104585500Y-98336977D01*
X104605502Y-98268856D01*
X104659158Y-98222363D01*
X104727946Y-98212055D01*
X104775000Y-98218250D01*
X104918709Y-98199330D01*
X105013442Y-98160091D01*
X105061659Y-98150500D01*
X107983685Y-98150500D01*
X108051806Y-98170502D01*
X108098299Y-98224158D01*
X108108403Y-98294432D01*
X108078909Y-98359012D01*
X108060389Y-98376462D01*
X108012278Y-98413378D01*
X107924037Y-98528375D01*
X107868570Y-98662290D01*
X107849650Y-98805999D01*
X107849650Y-98806000D01*
X107868570Y-98949709D01*
X107924037Y-99083624D01*
X108012278Y-99198621D01*
X108127275Y-99286862D01*
X108193493Y-99314289D01*
X108261191Y-99342330D01*
X108404900Y-99361250D01*
X108548609Y-99342330D01*
X108633055Y-99307351D01*
X108682524Y-99286862D01*
X108785901Y-99207538D01*
X108852121Y-99181937D01*
X108862605Y-99181500D01*
X109777589Y-99181500D01*
X109803447Y-99184181D01*
X109813868Y-99186367D01*
X109849036Y-99181983D01*
X109856826Y-99181500D01*
X109860707Y-99181500D01*
X109860714Y-99181500D01*
X109883740Y-99177657D01*
X109938226Y-99170866D01*
X109938227Y-99170865D01*
X109938230Y-99170865D01*
X109945736Y-99168630D01*
X109953204Y-99166065D01*
X109953210Y-99166065D01*
X110001477Y-99139944D01*
X110050811Y-99115826D01*
X110050814Y-99115823D01*
X110057203Y-99111261D01*
X110063419Y-99106422D01*
X110063426Y-99106419D01*
X110100608Y-99066028D01*
X111889232Y-97277405D01*
X111951544Y-97243379D01*
X111978327Y-97240500D01*
X112252020Y-97240500D01*
X112320141Y-97260502D01*
G37*
G04 #@! TD.AperFunction*
G04 #@! TA.AperFunction,Conductor*
G36*
X96256621Y-107293949D02*
G01*
X96303114Y-107347605D01*
X96314500Y-107399947D01*
X96314500Y-107870142D01*
X96320507Y-107926017D01*
X96367665Y-108052452D01*
X96367665Y-108052453D01*
X96448527Y-108160472D01*
X96556550Y-108241336D01*
X96597057Y-108256444D01*
X96653893Y-108298990D01*
X96678704Y-108365510D01*
X96663613Y-108434885D01*
X96613411Y-108485087D01*
X96553025Y-108500500D01*
X95010322Y-108500500D01*
X94937260Y-108515033D01*
X94854399Y-108570399D01*
X94799033Y-108653260D01*
X94784500Y-108726322D01*
X94784500Y-110475677D01*
X94799033Y-110548739D01*
X94799034Y-110548740D01*
X94854399Y-110631601D01*
X94937260Y-110686966D01*
X95010326Y-110701500D01*
X96759674Y-110701500D01*
X96832740Y-110686966D01*
X96915601Y-110631601D01*
X96970966Y-110548740D01*
X96985500Y-110475674D01*
X96985500Y-110158395D01*
X97005502Y-110090274D01*
X97059158Y-110043781D01*
X97129432Y-110033677D01*
X97194012Y-110063171D01*
X97225695Y-110105145D01*
X97294866Y-110253483D01*
X97425335Y-110439812D01*
X97425340Y-110439818D01*
X97586181Y-110600659D01*
X97586187Y-110600664D01*
X97772516Y-110731133D01*
X97978671Y-110827265D01*
X97978677Y-110827267D01*
X98171000Y-110878800D01*
X98171000Y-110034674D01*
X98282685Y-110085680D01*
X98389237Y-110101000D01*
X98460763Y-110101000D01*
X98567315Y-110085680D01*
X98679000Y-110034674D01*
X98679000Y-110878799D01*
X98871322Y-110827267D01*
X98871328Y-110827265D01*
X99077483Y-110731133D01*
X99263812Y-110600664D01*
X99268023Y-110597131D01*
X99269101Y-110598416D01*
X99324717Y-110568047D01*
X99395532Y-110573112D01*
X99452368Y-110615659D01*
X99477179Y-110682179D01*
X99477500Y-110691168D01*
X99477500Y-111109142D01*
X99483507Y-111165017D01*
X99530665Y-111291452D01*
X99530665Y-111291453D01*
X99611527Y-111399472D01*
X99719545Y-111480333D01*
X99719546Y-111480333D01*
X99719550Y-111480336D01*
X99812341Y-111514945D01*
X99869175Y-111557491D01*
X99893986Y-111624011D01*
X99878895Y-111693385D01*
X99828692Y-111743588D01*
X99812348Y-111751052D01*
X99719550Y-111785664D01*
X99719545Y-111785666D01*
X99618074Y-111861627D01*
X99551554Y-111886438D01*
X99482179Y-111871346D01*
X99431977Y-111821144D01*
X99429793Y-111816958D01*
X99364673Y-111686179D01*
X99351947Y-111669327D01*
X99241765Y-111523421D01*
X99091040Y-111386018D01*
X99091039Y-111386017D01*
X98917648Y-111278658D01*
X98917641Y-111278654D01*
X98917637Y-111278652D01*
X98801133Y-111233518D01*
X98727457Y-111204976D01*
X98604726Y-111182034D01*
X98526976Y-111167500D01*
X98323024Y-111167500D01*
X98245279Y-111182033D01*
X98122542Y-111204976D01*
X97975190Y-111262060D01*
X97932363Y-111278652D01*
X97932362Y-111278652D01*
X97932361Y-111278653D01*
X97932351Y-111278658D01*
X97758960Y-111386017D01*
X97758959Y-111386018D01*
X97608234Y-111523421D01*
X97485329Y-111686175D01*
X97394416Y-111868754D01*
X97338603Y-112064915D01*
X97319785Y-112268000D01*
X97338603Y-112471084D01*
X97396012Y-112672853D01*
X97393661Y-112673521D01*
X97398710Y-112733778D01*
X97365447Y-112796501D01*
X97364368Y-112797593D01*
X97200593Y-112961367D01*
X97138284Y-112995391D01*
X97067468Y-112990327D01*
X97010632Y-112947780D01*
X96985821Y-112881260D01*
X96985500Y-112872271D01*
X96985500Y-111393325D01*
X96985499Y-111393322D01*
X96984046Y-111386019D01*
X96970966Y-111320260D01*
X96915601Y-111237399D01*
X96832740Y-111182034D01*
X96832739Y-111182033D01*
X96759677Y-111167500D01*
X96759674Y-111167500D01*
X95010326Y-111167500D01*
X95010322Y-111167500D01*
X94937260Y-111182033D01*
X94854399Y-111237399D01*
X94799033Y-111320260D01*
X94784500Y-111393322D01*
X94784500Y-111893500D01*
X94764498Y-111961621D01*
X94710842Y-112008114D01*
X94658500Y-112019500D01*
X94357728Y-112019500D01*
X94289607Y-111999498D01*
X94268632Y-111982595D01*
X94138404Y-111852366D01*
X94104379Y-111790054D01*
X94101500Y-111763271D01*
X94101500Y-107748010D01*
X94104181Y-107722155D01*
X94106367Y-107711732D01*
X94101983Y-107676562D01*
X94101500Y-107668774D01*
X94101500Y-107664886D01*
X94097657Y-107641860D01*
X94096922Y-107635966D01*
X94090866Y-107587374D01*
X94090864Y-107587370D01*
X94088624Y-107579845D01*
X94086065Y-107572393D01*
X94086065Y-107572390D01*
X94059944Y-107524122D01*
X94035826Y-107474789D01*
X94035824Y-107474787D01*
X94035823Y-107474784D01*
X94034662Y-107473158D01*
X94033762Y-107470570D01*
X94031240Y-107465410D01*
X94031863Y-107465104D01*
X94011360Y-107406094D01*
X94028015Y-107337079D01*
X94079338Y-107288024D01*
X94137210Y-107273947D01*
X96188500Y-107273947D01*
X96256621Y-107293949D01*
G37*
G04 #@! TD.AperFunction*
G04 #@! TA.AperFunction,Conductor*
G36*
X75803010Y-95326902D02*
G01*
X75849503Y-95380558D01*
X75859607Y-95450832D01*
X75830113Y-95515412D01*
X75829621Y-95515978D01*
X75794171Y-95556400D01*
X75795043Y-95563029D01*
X75813746Y-95608181D01*
X75821335Y-95678771D01*
X75813747Y-95704614D01*
X75795044Y-95749768D01*
X75795043Y-95749771D01*
X75794171Y-95756399D01*
X75794171Y-95756400D01*
X76322382Y-95756400D01*
X76390503Y-95776402D01*
X76412210Y-95801453D01*
X76414067Y-95797388D01*
X76420196Y-95790805D01*
X76454600Y-95756401D01*
X76454600Y-95556399D01*
X76420196Y-95521995D01*
X76386170Y-95459683D01*
X76391235Y-95388868D01*
X76433782Y-95332032D01*
X76500302Y-95307221D01*
X76509291Y-95306900D01*
X76628600Y-95306900D01*
X76696721Y-95326902D01*
X76743214Y-95380558D01*
X76754600Y-95432900D01*
X76754600Y-95879900D01*
X76734598Y-95948021D01*
X76680942Y-95994514D01*
X76628600Y-96005900D01*
X76509291Y-96005900D01*
X76441170Y-95985898D01*
X76419462Y-95960846D01*
X76417606Y-95964912D01*
X76357880Y-96003296D01*
X76342101Y-96006846D01*
X76254296Y-96020754D01*
X76211292Y-96042666D01*
X76211290Y-96042667D01*
X76154087Y-96056400D01*
X75794171Y-96056400D01*
X75795044Y-96063031D01*
X75855498Y-96208984D01*
X75948071Y-96329627D01*
X75973671Y-96395847D01*
X75974108Y-96406331D01*
X75974108Y-96406397D01*
X75974108Y-96406400D01*
X75976008Y-96418398D01*
X75993953Y-96531704D01*
X76013796Y-96570648D01*
X76027420Y-96622613D01*
X76027582Y-96626511D01*
X76027700Y-96629355D01*
X76027700Y-100176189D01*
X76025018Y-100202046D01*
X76022832Y-100212467D01*
X76025167Y-100231194D01*
X76027216Y-100247636D01*
X76027700Y-100255425D01*
X76027700Y-100259314D01*
X76030243Y-100274554D01*
X76031542Y-100282340D01*
X76038332Y-100336820D01*
X76040583Y-100344380D01*
X76043133Y-100351808D01*
X76069255Y-100400077D01*
X76093374Y-100449412D01*
X76097955Y-100455827D01*
X76102776Y-100462022D01*
X76126802Y-100484139D01*
X76143171Y-100499208D01*
X76207996Y-100564033D01*
X76242020Y-100626343D01*
X76244900Y-100653127D01*
X76244900Y-102243677D01*
X76259433Y-102316739D01*
X76264620Y-102324502D01*
X76314799Y-102399601D01*
X76388917Y-102449124D01*
X76397660Y-102454966D01*
X76415125Y-102458440D01*
X76478035Y-102491346D01*
X76513167Y-102553041D01*
X76509368Y-102623936D01*
X76467844Y-102681522D01*
X76406993Y-102706941D01*
X76348290Y-102714670D01*
X76214375Y-102770137D01*
X76110999Y-102849462D01*
X76044779Y-102875063D01*
X76034295Y-102875500D01*
X72056551Y-102875500D01*
X71988430Y-102855498D01*
X71941937Y-102801842D01*
X71933681Y-102771203D01*
X71932708Y-102771397D01*
X71916966Y-102692260D01*
X71899287Y-102665801D01*
X71861601Y-102609399D01*
X71781524Y-102555894D01*
X71778739Y-102554033D01*
X71705677Y-102539500D01*
X71705674Y-102539500D01*
X71281725Y-102539500D01*
X71213604Y-102519498D01*
X71167111Y-102465842D01*
X71157007Y-102395568D01*
X71186501Y-102330988D01*
X71192630Y-102324405D01*
X72880205Y-100636830D01*
X72942517Y-100602804D01*
X73013332Y-100607869D01*
X73070168Y-100650416D01*
X73094979Y-100716936D01*
X73095300Y-100725925D01*
X73095300Y-102243677D01*
X73109833Y-102316739D01*
X73115020Y-102324502D01*
X73165199Y-102399601D01*
X73248060Y-102454966D01*
X73321126Y-102469500D01*
X75370474Y-102469500D01*
X75443540Y-102454966D01*
X75526401Y-102399601D01*
X75581766Y-102316740D01*
X75596300Y-102243674D01*
X75596300Y-100194326D01*
X75581766Y-100121260D01*
X75526401Y-100038399D01*
X75461546Y-99995065D01*
X75443539Y-99983033D01*
X75370477Y-99968500D01*
X75370474Y-99968500D01*
X73852725Y-99968500D01*
X73784604Y-99948498D01*
X73738111Y-99894842D01*
X73728007Y-99824568D01*
X73757501Y-99759988D01*
X73763617Y-99753416D01*
X74752346Y-98764687D01*
X74772518Y-98748307D01*
X74781436Y-98742482D01*
X74803206Y-98714509D01*
X74808371Y-98708662D01*
X74811119Y-98705916D01*
X74824685Y-98686914D01*
X74858409Y-98643587D01*
X74858409Y-98643584D01*
X74862153Y-98636667D01*
X74865610Y-98629597D01*
X74869485Y-98616581D01*
X74881270Y-98576994D01*
X74899100Y-98525058D01*
X74899100Y-98525053D01*
X74900394Y-98517297D01*
X74901368Y-98509485D01*
X74899100Y-98454642D01*
X74899100Y-96017244D01*
X74919102Y-95949123D01*
X74972758Y-95902630D01*
X74981066Y-95899189D01*
X75004354Y-95890503D01*
X75013103Y-95883954D01*
X75118131Y-95805331D01*
X75203301Y-95691557D01*
X75203301Y-95691556D01*
X75203303Y-95691554D01*
X75252971Y-95558391D01*
X75253186Y-95556400D01*
X75259299Y-95499532D01*
X75259300Y-95499515D01*
X75259300Y-95432900D01*
X75279302Y-95364779D01*
X75332958Y-95318286D01*
X75385300Y-95306900D01*
X75734889Y-95306900D01*
X75803010Y-95326902D01*
G37*
G04 #@! TD.AperFunction*
G04 #@! TA.AperFunction,Conductor*
G36*
X70356279Y-90675162D02*
G01*
X70414826Y-90715321D01*
X70433577Y-90746724D01*
X70435937Y-90752424D01*
X70524178Y-90867421D01*
X70639175Y-90955662D01*
X70713362Y-90986390D01*
X70773091Y-91011130D01*
X70916800Y-91030050D01*
X71060509Y-91011130D01*
X71144955Y-90976151D01*
X71194424Y-90955662D01*
X71297801Y-90876338D01*
X71364021Y-90850737D01*
X71374505Y-90850300D01*
X72459373Y-90850300D01*
X72527494Y-90870302D01*
X72548468Y-90887205D01*
X72650568Y-90989305D01*
X72684594Y-91051617D01*
X72679529Y-91122432D01*
X72636982Y-91179268D01*
X72570462Y-91204079D01*
X72561474Y-91204400D01*
X72371884Y-91204400D01*
X72301983Y-91210751D01*
X72141135Y-91260873D01*
X72141134Y-91260873D01*
X71996958Y-91348031D01*
X71996953Y-91348035D01*
X71877835Y-91467153D01*
X71877831Y-91467158D01*
X71790673Y-91611334D01*
X71790673Y-91611335D01*
X71740551Y-91772181D01*
X71740551Y-91772184D01*
X71734200Y-91842084D01*
X71734200Y-92100400D01*
X72799700Y-92100400D01*
X72867821Y-92120402D01*
X72914314Y-92174058D01*
X72925700Y-92226400D01*
X72925700Y-93504399D01*
X72971516Y-93504399D01*
X73041416Y-93498048D01*
X73202264Y-93447926D01*
X73202265Y-93447926D01*
X73346441Y-93360768D01*
X73346446Y-93360764D01*
X73465564Y-93241646D01*
X73465568Y-93241641D01*
X73552726Y-93097465D01*
X73552726Y-93097464D01*
X73593191Y-92967609D01*
X73632553Y-92908523D01*
X73697611Y-92880098D01*
X73767709Y-92891358D01*
X73820592Y-92938729D01*
X73831541Y-92961061D01*
X73864696Y-93049953D01*
X73864698Y-93049957D01*
X73949868Y-93163731D01*
X74063642Y-93248901D01*
X74063644Y-93248902D01*
X74063646Y-93248903D01*
X74121068Y-93270320D01*
X74196805Y-93298570D01*
X74196813Y-93298572D01*
X74226244Y-93301735D01*
X74255679Y-93304900D01*
X74837720Y-93304899D01*
X74896591Y-93298571D01*
X75029754Y-93248903D01*
X75039449Y-93241646D01*
X75143531Y-93163731D01*
X75228701Y-93049957D01*
X75228701Y-93049956D01*
X75228703Y-93049954D01*
X75277991Y-92917809D01*
X75278370Y-92916794D01*
X75278372Y-92916786D01*
X75284699Y-92857932D01*
X75284700Y-92857915D01*
X75284700Y-92808900D01*
X75304702Y-92740779D01*
X75358358Y-92694286D01*
X75410700Y-92682900D01*
X75733561Y-92682900D01*
X75763808Y-92682900D01*
X76077707Y-92682900D01*
X76145828Y-92702902D01*
X76166802Y-92719805D01*
X76169995Y-92722998D01*
X76169998Y-92723000D01*
X76169999Y-92723001D01*
X76252860Y-92778366D01*
X76350600Y-92797808D01*
X76559074Y-92797808D01*
X76627195Y-92817810D01*
X76673688Y-92871466D01*
X76681915Y-92895771D01*
X76701974Y-92983657D01*
X76701975Y-92983660D01*
X76717957Y-93011341D01*
X76734695Y-93080337D01*
X76711475Y-93147429D01*
X76697934Y-93163437D01*
X76375853Y-93485519D01*
X76355677Y-93501904D01*
X76346766Y-93507726D01*
X76346765Y-93507727D01*
X76325003Y-93535684D01*
X76319844Y-93541528D01*
X76317081Y-93544291D01*
X76303504Y-93563308D01*
X76269790Y-93606622D01*
X76266048Y-93613538D01*
X76262589Y-93620613D01*
X76246929Y-93673215D01*
X76229099Y-93725153D01*
X76227809Y-93732885D01*
X76226831Y-93740727D01*
X76229100Y-93795567D01*
X76229100Y-94379900D01*
X76209098Y-94448021D01*
X76155442Y-94494514D01*
X76103100Y-94505900D01*
X75367417Y-94505900D01*
X75299296Y-94485898D01*
X75252803Y-94432242D01*
X75249362Y-94423933D01*
X75203303Y-94300446D01*
X75203301Y-94300442D01*
X75118131Y-94186668D01*
X75004357Y-94101498D01*
X75004352Y-94101496D01*
X74871194Y-94051829D01*
X74871186Y-94051827D01*
X74812324Y-94045500D01*
X74230287Y-94045500D01*
X74230263Y-94045502D01*
X74171411Y-94051828D01*
X74171409Y-94051828D01*
X74038246Y-94101496D01*
X74038242Y-94101498D01*
X73924468Y-94186668D01*
X73839298Y-94300442D01*
X73839298Y-94300443D01*
X73806140Y-94389340D01*
X73763592Y-94446175D01*
X73697072Y-94470984D01*
X73627698Y-94455892D01*
X73577496Y-94405688D01*
X73567790Y-94382790D01*
X73527326Y-94252934D01*
X73440168Y-94108758D01*
X73440164Y-94108753D01*
X73321046Y-93989635D01*
X73321041Y-93989631D01*
X73176865Y-93902473D01*
X73016016Y-93852351D01*
X72946115Y-93846000D01*
X72900300Y-93846000D01*
X72900300Y-96145999D01*
X72946116Y-96145999D01*
X73016016Y-96139648D01*
X73176864Y-96089526D01*
X73176865Y-96089526D01*
X73321041Y-96002368D01*
X73321046Y-96002364D01*
X73440164Y-95883246D01*
X73440168Y-95883241D01*
X73527326Y-95739065D01*
X73527326Y-95739064D01*
X73567791Y-95609209D01*
X73607153Y-95550123D01*
X73672211Y-95521698D01*
X73742309Y-95532958D01*
X73795192Y-95580329D01*
X73806141Y-95602661D01*
X73839296Y-95691553D01*
X73839298Y-95691557D01*
X73924468Y-95805331D01*
X74038242Y-95890501D01*
X74038244Y-95890502D01*
X74038245Y-95890502D01*
X74038246Y-95890503D01*
X74066132Y-95900904D01*
X74122967Y-95943449D01*
X74147779Y-96009969D01*
X74148100Y-96018959D01*
X74148100Y-98254668D01*
X74128098Y-98322789D01*
X74111195Y-98343764D01*
X72395073Y-100059884D01*
X72332761Y-100093909D01*
X72261945Y-100088844D01*
X72241960Y-100076000D01*
X71167500Y-100076000D01*
X71099379Y-100055998D01*
X71052886Y-100002342D01*
X71041500Y-99950000D01*
X71041500Y-99694000D01*
X71061502Y-99625879D01*
X71115158Y-99579386D01*
X71167500Y-99568000D01*
X72232999Y-99568000D01*
X72232999Y-99309684D01*
X72226648Y-99239783D01*
X72176526Y-99078935D01*
X72176526Y-99078934D01*
X72089368Y-98934758D01*
X72089364Y-98934753D01*
X71964852Y-98810241D01*
X71967208Y-98807884D01*
X71934671Y-98762214D01*
X71931277Y-98691299D01*
X71952862Y-98645469D01*
X71977503Y-98612554D01*
X72027171Y-98479391D01*
X72027448Y-98476821D01*
X72033499Y-98420532D01*
X72033499Y-98420530D01*
X72033500Y-98420521D01*
X72033499Y-97413480D01*
X72027171Y-97354609D01*
X71977503Y-97221446D01*
X71977501Y-97221443D01*
X71977501Y-97221442D01*
X71892331Y-97107668D01*
X71778557Y-97022498D01*
X71778552Y-97022496D01*
X71645394Y-96972829D01*
X71645386Y-96972827D01*
X71586532Y-96966500D01*
X71586521Y-96966500D01*
X71387728Y-96966500D01*
X71319607Y-96946498D01*
X71298632Y-96929595D01*
X70618004Y-96248966D01*
X70583979Y-96186654D01*
X70581100Y-96159871D01*
X70581100Y-95250000D01*
X71708801Y-95250000D01*
X71708801Y-95508315D01*
X71715151Y-95578216D01*
X71765273Y-95739064D01*
X71765273Y-95739065D01*
X71852431Y-95883241D01*
X71852435Y-95883246D01*
X71971553Y-96002364D01*
X71971558Y-96002368D01*
X72115734Y-96089526D01*
X72276583Y-96139648D01*
X72346483Y-96145999D01*
X72392299Y-96145999D01*
X72392300Y-96145998D01*
X72392300Y-95250000D01*
X71708801Y-95250000D01*
X70581100Y-95250000D01*
X70581100Y-94742000D01*
X71708800Y-94742000D01*
X72392300Y-94742000D01*
X72392300Y-93846000D01*
X72346483Y-93846000D01*
X72276583Y-93852351D01*
X72115735Y-93902473D01*
X72115734Y-93902473D01*
X71971558Y-93989631D01*
X71971553Y-93989635D01*
X71852435Y-94108753D01*
X71852431Y-94108758D01*
X71765273Y-94252934D01*
X71765273Y-94252935D01*
X71715151Y-94413781D01*
X71715151Y-94413784D01*
X71708800Y-94483684D01*
X71708800Y-94742000D01*
X70581100Y-94742000D01*
X70581100Y-94438410D01*
X70583781Y-94412554D01*
X70585967Y-94402132D01*
X70581583Y-94366963D01*
X70581100Y-94359174D01*
X70581100Y-94355286D01*
X70577257Y-94332260D01*
X70576218Y-94323925D01*
X70570466Y-94277774D01*
X70570464Y-94277770D01*
X70568224Y-94270245D01*
X70565665Y-94262793D01*
X70565665Y-94262790D01*
X70539544Y-94214522D01*
X70515426Y-94165189D01*
X70515424Y-94165187D01*
X70515424Y-94165186D01*
X70510848Y-94158777D01*
X70506022Y-94152577D01*
X70502399Y-94149242D01*
X70465629Y-94115392D01*
X69682646Y-93332409D01*
X68958638Y-92608400D01*
X71734201Y-92608400D01*
X71734201Y-92866715D01*
X71740551Y-92936616D01*
X71790673Y-93097464D01*
X71790673Y-93097465D01*
X71877831Y-93241641D01*
X71877835Y-93241646D01*
X71996953Y-93360764D01*
X71996958Y-93360768D01*
X72141134Y-93447926D01*
X72301983Y-93498048D01*
X72371883Y-93504399D01*
X72417699Y-93504399D01*
X72417700Y-93504398D01*
X72417700Y-92608400D01*
X71734201Y-92608400D01*
X68958638Y-92608400D01*
X68864895Y-92514657D01*
X68830869Y-92452345D01*
X68827990Y-92425562D01*
X68827990Y-91470342D01*
X68847992Y-91402221D01*
X68901648Y-91355728D01*
X68971922Y-91345624D01*
X68998020Y-91352286D01*
X69007249Y-91355728D01*
X69040609Y-91368171D01*
X69040613Y-91368172D01*
X69070044Y-91371335D01*
X69099479Y-91374500D01*
X69681520Y-91374499D01*
X69740391Y-91368171D01*
X69873554Y-91318503D01*
X69987331Y-91233331D01*
X70072503Y-91119554D01*
X70122171Y-90986391D01*
X70122171Y-90986389D01*
X70122172Y-90986386D01*
X70128499Y-90927532D01*
X70128499Y-90927530D01*
X70128500Y-90927521D01*
X70128499Y-90846557D01*
X70148500Y-90778439D01*
X70190532Y-90741039D01*
X70189714Y-90739893D01*
X70198208Y-90733827D01*
X70198211Y-90733826D01*
X70198213Y-90733823D01*
X70204603Y-90729261D01*
X70210821Y-90724421D01*
X70210826Y-90724419D01*
X70224465Y-90709602D01*
X70285314Y-90673031D01*
X70356279Y-90675162D01*
G37*
G04 #@! TD.AperFunction*
G04 #@! TA.AperFunction,Conductor*
G36*
X111725441Y-91708502D02*
G01*
X111771934Y-91762158D01*
X111782769Y-91826266D01*
X111780001Y-91855778D01*
X111780000Y-91855800D01*
X111780000Y-92456000D01*
X112598884Y-92456000D01*
X112570507Y-92500156D01*
X112530000Y-92638111D01*
X112530000Y-92781889D01*
X112570507Y-92919844D01*
X112598884Y-92964000D01*
X111780001Y-92964000D01*
X111780001Y-93518500D01*
X111759999Y-93586621D01*
X111706343Y-93633114D01*
X111654001Y-93644500D01*
X111419843Y-93644500D01*
X111412788Y-93644104D01*
X111373965Y-93639730D01*
X111373964Y-93639730D01*
X111373963Y-93639730D01*
X111373962Y-93639730D01*
X111331635Y-93647739D01*
X111315520Y-93650788D01*
X111256713Y-93659652D01*
X111256711Y-93659653D01*
X111248536Y-93662174D01*
X111240528Y-93664977D01*
X111187936Y-93692773D01*
X111163313Y-93704631D01*
X111134357Y-93718575D01*
X111127331Y-93723365D01*
X111120462Y-93728434D01*
X111078413Y-93770483D01*
X111034808Y-93810942D01*
X111028919Y-93818327D01*
X111028244Y-93817789D01*
X111018780Y-93830116D01*
X110318593Y-94530302D01*
X110256283Y-94564326D01*
X110185468Y-94559262D01*
X110128632Y-94516715D01*
X110103821Y-94450195D01*
X110103500Y-94441206D01*
X110103500Y-92028727D01*
X110123502Y-91960606D01*
X110140405Y-91939632D01*
X110354632Y-91725405D01*
X110416944Y-91691379D01*
X110443727Y-91688500D01*
X111657320Y-91688500D01*
X111725441Y-91708502D01*
G37*
G04 #@! TD.AperFunction*
G04 #@! TA.AperFunction,Conductor*
G36*
X116471794Y-91708502D02*
G01*
X116492768Y-91725405D01*
X117545195Y-92777832D01*
X117579221Y-92840144D01*
X117582100Y-92866927D01*
X117582100Y-93575500D01*
X117562098Y-93643621D01*
X117508442Y-93690114D01*
X117457441Y-93701213D01*
X117457447Y-93701320D01*
X117456787Y-93701355D01*
X117456123Y-93701500D01*
X117454081Y-93701500D01*
X117395211Y-93707828D01*
X117395209Y-93707828D01*
X117262046Y-93757496D01*
X117262042Y-93757498D01*
X117148270Y-93842667D01*
X117114529Y-93887740D01*
X117057692Y-93930286D01*
X116986877Y-93935350D01*
X116924565Y-93901325D01*
X116893088Y-93848808D01*
X116845232Y-93691046D01*
X116747685Y-93508550D01*
X116616410Y-93348590D01*
X116456450Y-93217315D01*
X116456448Y-93217314D01*
X116456447Y-93217313D01*
X116273954Y-93119768D01*
X116166472Y-93087164D01*
X116075934Y-93059700D01*
X116075933Y-93059699D01*
X116075927Y-93059698D01*
X115870003Y-93039417D01*
X115869997Y-93039417D01*
X115664072Y-93059698D01*
X115466045Y-93119768D01*
X115283552Y-93217313D01*
X115123590Y-93348590D01*
X114992313Y-93508552D01*
X114976160Y-93538774D01*
X114956530Y-93575500D01*
X114955249Y-93577896D01*
X114905497Y-93628544D01*
X114844127Y-93644500D01*
X114406000Y-93644500D01*
X114337879Y-93624498D01*
X114291386Y-93570842D01*
X114280000Y-93518500D01*
X114280000Y-92964000D01*
X113461116Y-92964000D01*
X113489493Y-92919844D01*
X113530000Y-92781889D01*
X113530000Y-92638111D01*
X113489493Y-92500156D01*
X113461116Y-92456000D01*
X114279999Y-92456000D01*
X114279999Y-91855805D01*
X114279998Y-91855790D01*
X114277230Y-91826261D01*
X114290786Y-91756570D01*
X114339868Y-91705272D01*
X114402680Y-91688500D01*
X116403673Y-91688500D01*
X116471794Y-91708502D01*
G37*
G04 #@! TD.AperFunction*
G04 #@! TA.AperFunction,Conductor*
G36*
X77812313Y-92299902D02*
G01*
X77858806Y-92353558D01*
X77870192Y-92405900D01*
X77870192Y-92416995D01*
X77868907Y-92430044D01*
X77869252Y-92430074D01*
X77868656Y-92437126D01*
X77870192Y-92491802D01*
X77870192Y-92553900D01*
X77850190Y-92622021D01*
X77796534Y-92668514D01*
X77744192Y-92679900D01*
X77303685Y-92679900D01*
X77235564Y-92659898D01*
X77189071Y-92606242D01*
X77178967Y-92535968D01*
X77198919Y-92483899D01*
X77206201Y-92473001D01*
X77261566Y-92390140D01*
X77263321Y-92381316D01*
X77296229Y-92318408D01*
X77357925Y-92283277D01*
X77386900Y-92279900D01*
X77744192Y-92279900D01*
X77812313Y-92299902D01*
G37*
G04 #@! TD.AperFunction*
G04 #@! TA.AperFunction,Conductor*
G36*
X75717091Y-79343502D02*
G01*
X75763584Y-79397158D01*
X75773688Y-79467432D01*
X75767899Y-79491115D01*
X75730852Y-79596989D01*
X75730851Y-79596994D01*
X75728000Y-79627394D01*
X75728000Y-80277600D01*
X78327999Y-80277600D01*
X78327999Y-79627405D01*
X78327998Y-79627390D01*
X78325148Y-79596996D01*
X78288100Y-79491115D01*
X78284482Y-79420210D01*
X78319771Y-79358605D01*
X78382765Y-79325859D01*
X78407030Y-79323500D01*
X89866695Y-79323500D01*
X89934816Y-79343502D01*
X89981309Y-79397158D01*
X89991413Y-79467432D01*
X89961919Y-79532012D01*
X89943709Y-79549222D01*
X89820823Y-79644112D01*
X89820818Y-79644116D01*
X89632815Y-79839117D01*
X89632810Y-79839123D01*
X89475203Y-80059417D01*
X89475196Y-80059427D01*
X89351343Y-80300324D01*
X89351342Y-80300327D01*
X89263883Y-80556689D01*
X89263880Y-80556702D01*
X89214681Y-80823058D01*
X89214680Y-80823069D01*
X89204788Y-81093765D01*
X89234412Y-81363014D01*
X89302928Y-81625090D01*
X89408869Y-81874389D01*
X89408870Y-81874390D01*
X89549982Y-82105610D01*
X89723255Y-82313820D01*
X89723257Y-82313822D01*
X89723259Y-82313824D01*
X89828236Y-82407883D01*
X89924998Y-82494582D01*
X90150910Y-82644044D01*
X90396176Y-82759020D01*
X90655569Y-82837060D01*
X90655572Y-82837060D01*
X90655574Y-82837061D01*
X90923557Y-82876500D01*
X90923561Y-82876500D01*
X91126633Y-82876500D01*
X91161363Y-82873957D01*
X91329156Y-82861677D01*
X91329160Y-82861676D01*
X91329161Y-82861676D01*
X91439665Y-82837060D01*
X91593553Y-82802780D01*
X91846558Y-82706014D01*
X92082777Y-82573441D01*
X92297177Y-82407888D01*
X92485186Y-82212881D01*
X92642799Y-81992579D01*
X92707891Y-81865975D01*
X92766656Y-81751675D01*
X92766657Y-81751672D01*
X92775415Y-81726000D01*
X92854118Y-81495305D01*
X92903319Y-81228933D01*
X92913212Y-80958235D01*
X92893359Y-80777800D01*
X92883587Y-80688985D01*
X92833754Y-80498372D01*
X92815072Y-80426912D01*
X92804749Y-80402621D01*
X92709130Y-80177610D01*
X92682873Y-80134587D01*
X92568018Y-79946390D01*
X92394745Y-79738180D01*
X92394741Y-79738177D01*
X92394740Y-79738175D01*
X92193012Y-79557427D01*
X92193002Y-79557418D01*
X92192994Y-79557413D01*
X92192992Y-79557411D01*
X92188716Y-79554582D01*
X92142941Y-79500313D01*
X92133773Y-79429911D01*
X92164123Y-79365728D01*
X92224354Y-79328142D01*
X92258241Y-79323500D01*
X94516904Y-79323500D01*
X94585025Y-79343502D01*
X94631518Y-79397158D01*
X94641622Y-79467432D01*
X94612128Y-79532012D01*
X94565121Y-79565909D01*
X94464375Y-79607637D01*
X94349378Y-79695878D01*
X94261137Y-79810875D01*
X94205670Y-79944790D01*
X94186750Y-80088499D01*
X94186750Y-80088500D01*
X94205670Y-80232209D01*
X94261136Y-80366121D01*
X94261138Y-80366124D01*
X94261139Y-80366125D01*
X94340462Y-80469501D01*
X94366063Y-80535720D01*
X94366500Y-80546204D01*
X94366500Y-82145500D01*
X94346498Y-82213621D01*
X94292842Y-82260114D01*
X94241841Y-82271213D01*
X94241847Y-82271320D01*
X94241187Y-82271355D01*
X94240523Y-82271500D01*
X94238481Y-82271500D01*
X94179611Y-82277828D01*
X94179609Y-82277828D01*
X94046446Y-82327496D01*
X94046442Y-82327498D01*
X93932668Y-82412668D01*
X93847498Y-82526442D01*
X93847496Y-82526447D01*
X93797829Y-82659605D01*
X93797827Y-82659613D01*
X93791500Y-82718467D01*
X93791500Y-83300512D01*
X93791502Y-83300536D01*
X93797828Y-83359388D01*
X93797828Y-83359390D01*
X93847496Y-83492553D01*
X93847498Y-83492557D01*
X93932668Y-83606331D01*
X94046442Y-83691501D01*
X94046444Y-83691502D01*
X94046446Y-83691503D01*
X94103868Y-83712920D01*
X94179605Y-83741170D01*
X94179613Y-83741172D01*
X94209044Y-83744335D01*
X94238479Y-83747500D01*
X95245520Y-83747499D01*
X95304391Y-83741171D01*
X95437554Y-83691503D01*
X95450857Y-83681545D01*
X95551331Y-83606331D01*
X95636501Y-83492557D01*
X95636501Y-83492556D01*
X95636503Y-83492554D01*
X95686171Y-83359391D01*
X95686171Y-83359389D01*
X95686172Y-83359386D01*
X95692499Y-83300532D01*
X95692499Y-83300530D01*
X95692500Y-83300521D01*
X95692499Y-82718480D01*
X95686171Y-82659609D01*
X95636503Y-82526446D01*
X95636501Y-82526442D01*
X95551331Y-82412668D01*
X95437557Y-82327498D01*
X95437552Y-82327496D01*
X95304394Y-82277829D01*
X95304386Y-82277827D01*
X95245532Y-82271500D01*
X95245521Y-82271500D01*
X95243500Y-82271500D01*
X95243050Y-82271367D01*
X95242155Y-82271320D01*
X95242166Y-82271108D01*
X95175379Y-82251498D01*
X95128886Y-82197842D01*
X95117500Y-82145500D01*
X95117500Y-81407169D01*
X95684000Y-81407169D01*
X95698828Y-81557726D01*
X95757441Y-81750950D01*
X95852618Y-81929012D01*
X95980708Y-82085091D01*
X96136787Y-82213181D01*
X96314850Y-82308358D01*
X96455000Y-82350871D01*
X96455000Y-81471650D01*
X96510736Y-81555064D01*
X96601700Y-81615845D01*
X96709000Y-81637188D01*
X96816300Y-81615845D01*
X96907264Y-81555064D01*
X96963000Y-81471650D01*
X96963000Y-82350871D01*
X97103149Y-82308358D01*
X97281212Y-82213181D01*
X97437291Y-82085091D01*
X97565381Y-81929012D01*
X97660558Y-81750950D01*
X97719171Y-81557726D01*
X97733999Y-81407169D01*
X103434000Y-81407169D01*
X103448828Y-81557726D01*
X103507441Y-81750950D01*
X103602618Y-81929012D01*
X103730708Y-82085091D01*
X103886787Y-82213181D01*
X104064850Y-82308358D01*
X104205000Y-82350871D01*
X104205000Y-81471650D01*
X104260736Y-81555064D01*
X104351700Y-81615845D01*
X104459000Y-81637188D01*
X104566300Y-81615845D01*
X104657264Y-81555064D01*
X104713000Y-81471650D01*
X104713000Y-82350871D01*
X104853149Y-82308358D01*
X105031212Y-82213181D01*
X105187291Y-82085091D01*
X105315381Y-81929012D01*
X105410558Y-81750950D01*
X105469171Y-81557726D01*
X105483999Y-81407169D01*
X105484000Y-81407151D01*
X105484000Y-81285800D01*
X104734000Y-81285800D01*
X104734000Y-80777800D01*
X105484000Y-80777800D01*
X105484000Y-80656448D01*
X105483999Y-80656430D01*
X105469171Y-80505873D01*
X105410558Y-80312649D01*
X105315381Y-80134587D01*
X105187291Y-79978508D01*
X105031212Y-79850418D01*
X104853151Y-79755242D01*
X104853146Y-79755240D01*
X104713000Y-79712727D01*
X104713000Y-80591949D01*
X104657264Y-80508536D01*
X104566300Y-80447755D01*
X104459000Y-80426412D01*
X104351700Y-80447755D01*
X104260736Y-80508536D01*
X104205000Y-80591949D01*
X104205000Y-79712727D01*
X104064853Y-79755240D01*
X104064848Y-79755242D01*
X103886787Y-79850418D01*
X103730708Y-79978508D01*
X103602618Y-80134587D01*
X103507441Y-80312649D01*
X103448828Y-80505873D01*
X103434000Y-80656430D01*
X103434000Y-80777800D01*
X104184000Y-80777800D01*
X104184000Y-81285800D01*
X103434000Y-81285800D01*
X103434000Y-81407169D01*
X97733999Y-81407169D01*
X97734000Y-81407151D01*
X97734000Y-81285800D01*
X96984000Y-81285800D01*
X96984000Y-80777800D01*
X97734000Y-80777800D01*
X97734000Y-80656448D01*
X97733999Y-80656430D01*
X97719171Y-80505873D01*
X97660558Y-80312649D01*
X97565381Y-80134587D01*
X97437291Y-79978508D01*
X97281212Y-79850418D01*
X97103151Y-79755242D01*
X97103146Y-79755240D01*
X96963000Y-79712727D01*
X96963000Y-80591949D01*
X96907264Y-80508536D01*
X96816300Y-80447755D01*
X96709000Y-80426412D01*
X96601700Y-80447755D01*
X96510736Y-80508536D01*
X96455000Y-80591949D01*
X96455000Y-79712727D01*
X96314853Y-79755240D01*
X96314848Y-79755242D01*
X96136787Y-79850418D01*
X95980708Y-79978508D01*
X95852618Y-80134587D01*
X95757441Y-80312649D01*
X95698828Y-80505873D01*
X95684000Y-80656430D01*
X95684000Y-80777800D01*
X96434000Y-80777800D01*
X96434000Y-81285800D01*
X95684000Y-81285800D01*
X95684000Y-81407169D01*
X95117500Y-81407169D01*
X95117500Y-80546204D01*
X95137502Y-80478083D01*
X95143527Y-80469513D01*
X95222861Y-80366125D01*
X95278330Y-80232209D01*
X95297250Y-80088500D01*
X95278330Y-79944791D01*
X95245815Y-79866291D01*
X95222862Y-79810875D01*
X95134621Y-79695878D01*
X95019624Y-79607637D01*
X94918879Y-79565909D01*
X94863598Y-79521362D01*
X94841176Y-79453998D01*
X94858734Y-79385207D01*
X94910695Y-79336828D01*
X94967096Y-79323500D01*
X120448500Y-79323500D01*
X120516621Y-79343502D01*
X120563114Y-79397158D01*
X120574500Y-79449500D01*
X120574500Y-92027561D01*
X120554498Y-92095682D01*
X120500842Y-92142175D01*
X120430568Y-92152279D01*
X120365988Y-92122785D01*
X120336548Y-92077165D01*
X120334151Y-92078364D01*
X120334134Y-92078330D01*
X120331110Y-92068738D01*
X120327737Y-92063511D01*
X120326824Y-92060445D01*
X120324265Y-92052993D01*
X120324265Y-92052990D01*
X120298144Y-92004722D01*
X120274026Y-91955389D01*
X120274024Y-91955387D01*
X120274024Y-91955386D01*
X120269448Y-91948977D01*
X120264622Y-91942777D01*
X120256178Y-91935004D01*
X120224229Y-91905592D01*
X119307465Y-90988828D01*
X118386896Y-90068258D01*
X118370509Y-90048080D01*
X118364683Y-90039163D01*
X118360546Y-90035943D01*
X118336711Y-90017392D01*
X118330868Y-90012230D01*
X118328118Y-90009480D01*
X118328116Y-90009478D01*
X118309104Y-89995905D01*
X118299514Y-89988441D01*
X118265789Y-89962191D01*
X118265786Y-89962190D01*
X118265784Y-89962188D01*
X118258877Y-89958450D01*
X118251800Y-89954990D01*
X118199196Y-89939329D01*
X118185796Y-89934729D01*
X118147260Y-89921500D01*
X118147259Y-89921500D01*
X118147256Y-89921499D01*
X118139514Y-89920207D01*
X118131687Y-89919231D01*
X118076844Y-89921500D01*
X109653009Y-89921500D01*
X109627153Y-89918818D01*
X109616731Y-89916633D01*
X109616730Y-89916633D01*
X109611953Y-89917228D01*
X109581564Y-89921016D01*
X109573775Y-89921500D01*
X109569886Y-89921500D01*
X109546847Y-89925344D01*
X109492374Y-89932134D01*
X109484833Y-89934379D01*
X109477389Y-89936935D01*
X109460439Y-89946107D01*
X109429119Y-89963057D01*
X109396474Y-89979016D01*
X109379789Y-89987173D01*
X109373399Y-89991735D01*
X109367174Y-89996581D01*
X109330003Y-90036958D01*
X108567486Y-90799474D01*
X108505174Y-90833500D01*
X108434359Y-90828435D01*
X108432982Y-90827912D01*
X108306122Y-90778766D01*
X108252457Y-90757976D01*
X108185629Y-90745484D01*
X108051976Y-90720500D01*
X107848024Y-90720500D01*
X107647544Y-90757976D01*
X107647539Y-90757977D01*
X107647537Y-90757978D01*
X107558658Y-90792408D01*
X107487912Y-90798364D01*
X107425176Y-90765125D01*
X107424049Y-90764011D01*
X106728296Y-90068258D01*
X106711909Y-90048080D01*
X106706083Y-90039163D01*
X106701946Y-90035943D01*
X106678111Y-90017392D01*
X106672268Y-90012230D01*
X106669518Y-90009480D01*
X106669516Y-90009478D01*
X106650504Y-89995905D01*
X106640914Y-89988441D01*
X106607189Y-89962191D01*
X106607186Y-89962190D01*
X106607184Y-89962188D01*
X106600277Y-89958450D01*
X106593200Y-89954990D01*
X106540596Y-89939329D01*
X106527196Y-89934729D01*
X106488660Y-89921500D01*
X106488659Y-89921500D01*
X106488656Y-89921499D01*
X106480914Y-89920207D01*
X106473087Y-89919231D01*
X106418244Y-89921500D01*
X98248151Y-89921500D01*
X98180030Y-89901498D01*
X98133537Y-89847842D01*
X98123433Y-89777568D01*
X98127856Y-89758015D01*
X98134648Y-89736218D01*
X98134648Y-89736215D01*
X98141000Y-89666315D01*
X98141000Y-89408000D01*
X97075500Y-89408000D01*
X97007379Y-89387998D01*
X96960886Y-89334342D01*
X96949500Y-89282000D01*
X96949500Y-87426800D01*
X97457500Y-87426800D01*
X97457500Y-88900000D01*
X98140999Y-88900000D01*
X98140999Y-88641684D01*
X98134648Y-88571783D01*
X98084526Y-88410935D01*
X98084526Y-88410934D01*
X97997368Y-88266758D01*
X97983107Y-88252498D01*
X97949080Y-88190186D01*
X97954143Y-88119371D01*
X97983107Y-88074302D01*
X97997368Y-88060041D01*
X98084526Y-87915865D01*
X98084526Y-87915864D01*
X98134648Y-87755018D01*
X98134648Y-87755015D01*
X98141000Y-87685115D01*
X98141000Y-87426800D01*
X97457500Y-87426800D01*
X96949500Y-87426800D01*
X96949500Y-87044800D01*
X96969502Y-86976679D01*
X97023158Y-86930186D01*
X97075500Y-86918800D01*
X98140999Y-86918800D01*
X98140999Y-86660484D01*
X98134648Y-86590583D01*
X98102370Y-86487000D01*
X106650000Y-86487000D01*
X107518884Y-86487000D01*
X107490507Y-86531156D01*
X107450000Y-86669111D01*
X107450000Y-86812889D01*
X107490507Y-86950844D01*
X107518884Y-86995000D01*
X106650001Y-86995000D01*
X106650001Y-87645209D01*
X106652851Y-87675606D01*
X106652852Y-87675609D01*
X106697653Y-87803644D01*
X106697653Y-87803645D01*
X106778207Y-87912792D01*
X106887354Y-87993346D01*
X107015389Y-88038147D01*
X107015394Y-88038148D01*
X107045797Y-88040999D01*
X107430331Y-88040999D01*
X107498451Y-88061001D01*
X107544944Y-88114656D01*
X107555049Y-88184930D01*
X107525556Y-88249511D01*
X107475851Y-88284489D01*
X107457367Y-88291650D01*
X107457351Y-88291658D01*
X107283960Y-88399017D01*
X107283959Y-88399018D01*
X107133234Y-88536421D01*
X107010329Y-88699175D01*
X106919416Y-88881754D01*
X106863603Y-89077915D01*
X106844785Y-89281000D01*
X106863603Y-89484084D01*
X106919416Y-89680245D01*
X106919417Y-89680247D01*
X106919418Y-89680250D01*
X107010327Y-89862821D01*
X107010328Y-89862822D01*
X107010329Y-89862824D01*
X107133234Y-90025578D01*
X107283959Y-90162981D01*
X107283960Y-90162982D01*
X107457351Y-90270341D01*
X107457354Y-90270342D01*
X107457363Y-90270348D01*
X107647544Y-90344024D01*
X107848024Y-90381500D01*
X107848026Y-90381500D01*
X108051974Y-90381500D01*
X108051976Y-90381500D01*
X108252456Y-90344024D01*
X108442637Y-90270348D01*
X108616041Y-90162981D01*
X108766764Y-90025579D01*
X108778922Y-90009480D01*
X108797491Y-89984889D01*
X108889673Y-89862821D01*
X108980582Y-89680250D01*
X109036397Y-89484083D01*
X109055215Y-89281000D01*
X109036397Y-89077917D01*
X108980582Y-88881750D01*
X108889673Y-88699179D01*
X108889670Y-88699175D01*
X108766765Y-88536421D01*
X108616040Y-88399018D01*
X108616039Y-88399017D01*
X108442648Y-88291658D01*
X108442641Y-88291654D01*
X108442637Y-88291652D01*
X108424150Y-88284490D01*
X108367855Y-88241231D01*
X108343885Y-88174403D01*
X108359849Y-88105225D01*
X108410680Y-88055659D01*
X108469667Y-88040999D01*
X108854195Y-88040999D01*
X108854209Y-88040998D01*
X108884606Y-88038148D01*
X108884609Y-88038147D01*
X109012644Y-87993346D01*
X109012645Y-87993346D01*
X109121792Y-87912792D01*
X109202346Y-87803645D01*
X109202346Y-87803644D01*
X109247147Y-87675610D01*
X109247148Y-87675605D01*
X109249999Y-87645205D01*
X109250000Y-87645199D01*
X109250000Y-86995000D01*
X108381116Y-86995000D01*
X108409493Y-86950844D01*
X108450000Y-86812889D01*
X108450000Y-86669111D01*
X108409493Y-86531156D01*
X108381116Y-86487000D01*
X109249999Y-86487000D01*
X109249999Y-85836805D01*
X109249998Y-85836790D01*
X109247148Y-85806393D01*
X109247147Y-85806390D01*
X109227417Y-85750003D01*
X111074671Y-85750003D01*
X111093965Y-86044375D01*
X111093968Y-86044393D01*
X111151518Y-86333720D01*
X111151520Y-86333727D01*
X111193828Y-86458359D01*
X111246348Y-86613077D01*
X111246351Y-86613083D01*
X111376826Y-86877662D01*
X111540725Y-87122955D01*
X111579375Y-87167026D01*
X111735242Y-87344758D01*
X111828793Y-87426800D01*
X111957044Y-87539274D01*
X112065858Y-87611981D01*
X112202335Y-87703172D01*
X112466923Y-87833652D01*
X112746278Y-87928481D01*
X113035620Y-87986034D01*
X113203837Y-87997059D01*
X113329997Y-88005329D01*
X113330000Y-88005329D01*
X113330003Y-88005329D01*
X113440392Y-87998093D01*
X113624380Y-87986034D01*
X113913722Y-87928481D01*
X114193077Y-87833652D01*
X114457665Y-87703172D01*
X114702957Y-87539273D01*
X114924758Y-87344758D01*
X115119273Y-87122957D01*
X115283172Y-86877665D01*
X115413652Y-86613077D01*
X115508481Y-86333722D01*
X115566034Y-86044380D01*
X115581633Y-85806389D01*
X115585329Y-85750003D01*
X115585329Y-85749996D01*
X115571165Y-85533909D01*
X115566034Y-85455620D01*
X115508481Y-85166278D01*
X115481160Y-85085795D01*
X115413652Y-84886923D01*
X115283173Y-84622338D01*
X115240384Y-84558300D01*
X115156742Y-84433119D01*
X115119278Y-84377050D01*
X115119276Y-84377048D01*
X115119273Y-84377043D01*
X114924758Y-84155242D01*
X114735934Y-83989647D01*
X114702955Y-83960725D01*
X114457662Y-83796826D01*
X114193083Y-83666351D01*
X114193077Y-83666348D01*
X114042142Y-83615112D01*
X113913727Y-83571520D01*
X113913720Y-83571518D01*
X113624393Y-83513968D01*
X113624375Y-83513965D01*
X113330003Y-83494671D01*
X113329997Y-83494671D01*
X113035624Y-83513965D01*
X113035606Y-83513968D01*
X112746279Y-83571518D01*
X112746272Y-83571520D01*
X112466923Y-83666347D01*
X112202338Y-83796826D01*
X111957050Y-83960721D01*
X111957043Y-83960726D01*
X111957043Y-83960727D01*
X111735242Y-84155242D01*
X111558860Y-84356367D01*
X111540721Y-84377050D01*
X111376826Y-84622338D01*
X111246347Y-84886923D01*
X111151520Y-85166272D01*
X111151518Y-85166279D01*
X111093968Y-85455606D01*
X111093965Y-85455624D01*
X111074671Y-85749996D01*
X111074671Y-85750003D01*
X109227417Y-85750003D01*
X109202346Y-85678355D01*
X109202346Y-85678354D01*
X109121792Y-85569207D01*
X109012645Y-85488653D01*
X108884610Y-85443852D01*
X108884605Y-85443851D01*
X108854205Y-85441000D01*
X108204000Y-85441000D01*
X108204000Y-86307325D01*
X108092315Y-86256320D01*
X107985763Y-86241000D01*
X107914237Y-86241000D01*
X107807685Y-86256320D01*
X107696000Y-86307325D01*
X107696000Y-85441000D01*
X107045805Y-85441000D01*
X107045790Y-85441001D01*
X107015393Y-85443851D01*
X107015390Y-85443852D01*
X106887355Y-85488653D01*
X106887354Y-85488653D01*
X106778207Y-85569207D01*
X106697653Y-85678354D01*
X106697653Y-85678355D01*
X106652852Y-85806389D01*
X106652851Y-85806394D01*
X106650000Y-85836794D01*
X106650000Y-86487000D01*
X98102370Y-86487000D01*
X98084526Y-86429735D01*
X98084526Y-86429734D01*
X97997368Y-86285558D01*
X97997364Y-86285553D01*
X97878246Y-86166435D01*
X97878241Y-86166431D01*
X97759079Y-86094395D01*
X97711131Y-86042036D01*
X97699101Y-85972066D01*
X97726810Y-85906700D01*
X97731026Y-85901823D01*
X97862283Y-85728010D01*
X97959350Y-85533072D01*
X98018941Y-85323632D01*
X98034000Y-85161119D01*
X98034000Y-85085800D01*
X97284000Y-85085800D01*
X97284000Y-84577800D01*
X98034000Y-84577800D01*
X98034000Y-84558300D01*
X98054002Y-84490179D01*
X98107658Y-84443686D01*
X98155431Y-84433293D01*
X98155422Y-84433218D01*
X98156231Y-84433119D01*
X98160000Y-84432300D01*
X98162984Y-84432300D01*
X98162985Y-84432300D01*
X98199459Y-84423309D01*
X98206618Y-84421979D01*
X98247058Y-84416871D01*
X98278499Y-84404421D01*
X98286612Y-84401828D01*
X98316365Y-84394496D01*
X98352698Y-84375425D01*
X98358772Y-84372639D01*
X98399871Y-84356368D01*
X98420727Y-84341214D01*
X98436234Y-84331582D01*
X98456240Y-84321083D01*
X98489543Y-84291578D01*
X98494259Y-84287790D01*
X98532837Y-84259763D01*
X98546862Y-84242808D01*
X98560394Y-84228810D01*
X98574483Y-84216330D01*
X98601716Y-84176875D01*
X98605017Y-84172511D01*
X98637600Y-84133126D01*
X98645363Y-84116626D01*
X98655669Y-84098709D01*
X98664220Y-84086323D01*
X98682452Y-84038245D01*
X98684330Y-84033815D01*
X98707579Y-83984413D01*
X98710286Y-83970219D01*
X98716242Y-83949149D01*
X98720237Y-83938618D01*
X98726852Y-83884132D01*
X98727504Y-83879960D01*
X98733232Y-83849935D01*
X98738376Y-83822970D01*
X98737706Y-83812327D01*
X98738377Y-83789220D01*
X98739278Y-83781803D01*
X98739278Y-83781800D01*
X102428722Y-83781800D01*
X102435751Y-83839696D01*
X102436082Y-83843293D01*
X102437383Y-83863967D01*
X102439943Y-83904659D01*
X102442071Y-83911209D01*
X102447317Y-83934946D01*
X102447762Y-83938616D01*
X102447763Y-83938618D01*
X102451754Y-83949141D01*
X102469655Y-83996345D01*
X102470665Y-83999216D01*
X102490732Y-84060972D01*
X102492391Y-84063586D01*
X102503569Y-84085923D01*
X102503777Y-84086320D01*
X102523894Y-84115463D01*
X102541515Y-84140992D01*
X102578798Y-84199740D01*
X102578799Y-84199741D01*
X102578800Y-84199742D01*
X102581274Y-84202733D01*
X102588234Y-84210823D01*
X102588461Y-84210623D01*
X102593514Y-84216326D01*
X102593517Y-84216330D01*
X102639697Y-84257242D01*
X102645596Y-84262468D01*
X102698606Y-84312247D01*
X102699274Y-84312732D01*
X102702981Y-84315023D01*
X102711758Y-84321082D01*
X102747740Y-84339967D01*
X102776148Y-84354877D01*
X102842632Y-84391427D01*
X102842633Y-84391427D01*
X102843064Y-84391598D01*
X102848726Y-84393392D01*
X102851622Y-84394489D01*
X102851635Y-84394496D01*
X102925304Y-84412653D01*
X102966817Y-84423312D01*
X103001823Y-84432300D01*
X103001826Y-84432300D01*
X103008000Y-84432300D01*
X103076121Y-84452302D01*
X103122614Y-84505958D01*
X103134000Y-84558300D01*
X103134000Y-84577800D01*
X103884000Y-84577800D01*
X103884000Y-85085800D01*
X103134000Y-85085800D01*
X103134000Y-85161119D01*
X103149058Y-85323632D01*
X103208649Y-85533072D01*
X103305716Y-85728010D01*
X103436940Y-85901780D01*
X103597871Y-86048487D01*
X103597875Y-86048489D01*
X103783010Y-86163120D01*
X103783019Y-86163125D01*
X103986064Y-86241785D01*
X103986062Y-86241785D01*
X104055000Y-86254671D01*
X104055000Y-85453841D01*
X104056077Y-85454918D01*
X104176031Y-85516038D01*
X104309000Y-85537098D01*
X104441969Y-85516038D01*
X104561923Y-85454918D01*
X104563000Y-85453841D01*
X104563000Y-86254671D01*
X104631936Y-86241785D01*
X104834980Y-86163125D01*
X104834989Y-86163120D01*
X105020124Y-86048489D01*
X105020128Y-86048487D01*
X105181059Y-85901780D01*
X105312283Y-85728010D01*
X105409350Y-85533072D01*
X105468941Y-85323632D01*
X105484000Y-85161119D01*
X105484000Y-85085800D01*
X104734000Y-85085800D01*
X104734000Y-84577800D01*
X105484000Y-84577800D01*
X105484000Y-84502480D01*
X105468941Y-84339967D01*
X105409350Y-84130527D01*
X105312283Y-83935589D01*
X105181059Y-83761819D01*
X105020128Y-83615112D01*
X105020124Y-83615110D01*
X104834989Y-83500479D01*
X104834980Y-83500474D01*
X104631938Y-83421814D01*
X104563000Y-83408927D01*
X104563000Y-84209759D01*
X104561923Y-84208682D01*
X104441969Y-84147562D01*
X104309000Y-84126502D01*
X104176031Y-84147562D01*
X104056077Y-84208682D01*
X104055000Y-84209759D01*
X104055000Y-83408927D01*
X103986061Y-83421814D01*
X103794643Y-83495971D01*
X103723896Y-83501928D01*
X103661160Y-83468691D01*
X103645429Y-83450054D01*
X103643301Y-83446971D01*
X103626484Y-83422607D01*
X103601665Y-83383499D01*
X103589203Y-83363861D01*
X103586741Y-83360886D01*
X103579759Y-83352769D01*
X103579532Y-83352971D01*
X103574485Y-83347273D01*
X103574483Y-83347270D01*
X103574478Y-83347265D01*
X103574474Y-83347261D01*
X103522403Y-83301131D01*
X103469395Y-83251354D01*
X103469393Y-83251352D01*
X103469389Y-83251350D01*
X103468724Y-83250866D01*
X103465012Y-83248573D01*
X103456242Y-83242518D01*
X103391851Y-83208722D01*
X103389139Y-83207231D01*
X103325368Y-83172173D01*
X103325365Y-83172172D01*
X103324936Y-83172002D01*
X103319272Y-83170207D01*
X103316365Y-83169104D01*
X103242695Y-83150946D01*
X103226270Y-83146729D01*
X103166177Y-83131300D01*
X103162985Y-83131300D01*
X103005015Y-83131300D01*
X102993824Y-83134058D01*
X102968548Y-83140287D01*
X102961365Y-83141621D01*
X102920949Y-83146727D01*
X102920938Y-83146730D01*
X102889504Y-83159175D01*
X102881383Y-83161771D01*
X102851635Y-83169103D01*
X102851634Y-83169103D01*
X102815311Y-83188167D01*
X102809224Y-83190959D01*
X102768129Y-83207231D01*
X102768125Y-83207233D01*
X102747262Y-83222390D01*
X102731769Y-83232013D01*
X102711760Y-83242515D01*
X102678467Y-83272009D01*
X102673721Y-83275821D01*
X102635163Y-83303836D01*
X102621134Y-83320794D01*
X102607611Y-83334783D01*
X102593515Y-83347271D01*
X102593514Y-83347273D01*
X102566289Y-83386715D01*
X102562984Y-83391084D01*
X102530400Y-83430472D01*
X102530398Y-83430476D01*
X102522636Y-83446971D01*
X102512329Y-83464889D01*
X102503783Y-83477270D01*
X102503780Y-83477275D01*
X102485552Y-83525337D01*
X102483651Y-83529821D01*
X102460421Y-83579187D01*
X102460419Y-83579193D01*
X102457710Y-83593389D01*
X102451761Y-83614436D01*
X102447765Y-83624975D01*
X102447763Y-83624982D01*
X102441151Y-83679423D01*
X102440495Y-83683631D01*
X102429624Y-83740624D01*
X102429624Y-83740628D01*
X102429624Y-83740630D01*
X102430045Y-83747328D01*
X102430294Y-83751274D01*
X102429624Y-83774363D01*
X102428722Y-83781795D01*
X102428722Y-83781800D01*
X98739278Y-83781800D01*
X98738073Y-83771877D01*
X98732245Y-83723886D01*
X98731917Y-83720315D01*
X98728056Y-83658940D01*
X98725930Y-83652398D01*
X98720682Y-83628647D01*
X98720237Y-83624982D01*
X98698329Y-83567216D01*
X98697334Y-83564387D01*
X98677268Y-83502629D01*
X98675610Y-83500017D01*
X98664479Y-83477771D01*
X98664220Y-83477277D01*
X98626484Y-83422607D01*
X98589203Y-83363861D01*
X98586741Y-83360886D01*
X98579759Y-83352769D01*
X98579532Y-83352971D01*
X98574485Y-83347273D01*
X98574483Y-83347270D01*
X98574478Y-83347265D01*
X98574474Y-83347261D01*
X98522403Y-83301131D01*
X98469395Y-83251354D01*
X98469393Y-83251352D01*
X98469389Y-83251350D01*
X98468724Y-83250866D01*
X98465012Y-83248573D01*
X98456242Y-83242518D01*
X98391851Y-83208722D01*
X98389139Y-83207231D01*
X98325368Y-83172173D01*
X98325365Y-83172172D01*
X98324936Y-83172002D01*
X98319272Y-83170207D01*
X98316365Y-83169104D01*
X98242695Y-83150946D01*
X98226270Y-83146729D01*
X98166177Y-83131300D01*
X98162985Y-83131300D01*
X98005015Y-83131300D01*
X97993824Y-83134058D01*
X97968548Y-83140287D01*
X97961365Y-83141621D01*
X97920949Y-83146727D01*
X97920938Y-83146730D01*
X97889504Y-83159175D01*
X97881383Y-83161771D01*
X97851635Y-83169103D01*
X97851634Y-83169103D01*
X97815311Y-83188167D01*
X97809224Y-83190959D01*
X97768129Y-83207231D01*
X97768125Y-83207233D01*
X97747262Y-83222390D01*
X97731769Y-83232013D01*
X97711760Y-83242515D01*
X97678467Y-83272009D01*
X97673721Y-83275821D01*
X97635163Y-83303836D01*
X97621134Y-83320794D01*
X97607611Y-83334783D01*
X97593515Y-83347271D01*
X97593514Y-83347273D01*
X97566289Y-83386715D01*
X97562984Y-83391084D01*
X97530400Y-83430472D01*
X97530395Y-83430480D01*
X97530118Y-83431071D01*
X97529777Y-83431454D01*
X97526154Y-83437165D01*
X97525232Y-83436580D01*
X97483010Y-83484188D01*
X97414664Y-83503404D01*
X97370598Y-83494903D01*
X97181938Y-83421814D01*
X97113000Y-83408927D01*
X97113000Y-84209759D01*
X97111923Y-84208682D01*
X96991969Y-84147562D01*
X96859000Y-84126502D01*
X96726031Y-84147562D01*
X96606077Y-84208682D01*
X96605000Y-84209759D01*
X96605000Y-83408927D01*
X96536061Y-83421814D01*
X96333019Y-83500474D01*
X96333010Y-83500479D01*
X96147875Y-83615110D01*
X96147871Y-83615112D01*
X95986940Y-83761819D01*
X95855716Y-83935589D01*
X95758650Y-84130526D01*
X95735496Y-84211901D01*
X95697614Y-84271947D01*
X95633283Y-84301981D01*
X95562927Y-84292467D01*
X95538797Y-84278286D01*
X95437557Y-84202498D01*
X95437552Y-84202496D01*
X95304394Y-84152829D01*
X95304386Y-84152827D01*
X95245524Y-84146500D01*
X94238487Y-84146500D01*
X94238463Y-84146502D01*
X94179611Y-84152828D01*
X94179609Y-84152828D01*
X94046446Y-84202496D01*
X94046442Y-84202498D01*
X93932668Y-84287668D01*
X93847498Y-84401442D01*
X93847496Y-84401447D01*
X93797829Y-84534605D01*
X93797827Y-84534613D01*
X93791500Y-84593467D01*
X93791500Y-85175512D01*
X93791502Y-85175536D01*
X93797828Y-85234388D01*
X93797828Y-85234389D01*
X93805467Y-85254870D01*
X93810531Y-85325686D01*
X93776505Y-85387997D01*
X93714193Y-85422022D01*
X93670965Y-85423823D01*
X93659001Y-85422248D01*
X93659000Y-85422248D01*
X93515290Y-85441168D01*
X93381375Y-85496635D01*
X93277999Y-85575960D01*
X93211779Y-85601561D01*
X93201295Y-85601998D01*
X91950099Y-85601998D01*
X91924240Y-85599316D01*
X91913817Y-85597130D01*
X91889724Y-85600134D01*
X91878651Y-85601514D01*
X91870862Y-85601998D01*
X91866970Y-85601998D01*
X91851622Y-85604559D01*
X91843947Y-85605840D01*
X91825854Y-85608095D01*
X91789466Y-85612631D01*
X91789463Y-85612631D01*
X91789462Y-85612632D01*
X91789461Y-85612632D01*
X91781917Y-85614878D01*
X91774479Y-85617432D01*
X91726210Y-85643553D01*
X91676879Y-85667670D01*
X91670476Y-85672241D01*
X91664263Y-85677078D01*
X91627080Y-85717468D01*
X89882943Y-87461605D01*
X89820631Y-87495630D01*
X89793848Y-87498510D01*
X87686477Y-87498510D01*
X87618356Y-87478508D01*
X87571863Y-87424852D01*
X87561555Y-87356064D01*
X87575650Y-87249001D01*
X87575650Y-87248999D01*
X87571644Y-87218574D01*
X87556730Y-87105291D01*
X87521195Y-87019500D01*
X87501262Y-86971375D01*
X87413021Y-86856378D01*
X87298024Y-86768137D01*
X87164109Y-86712670D01*
X87020400Y-86693750D01*
X86876690Y-86712670D01*
X86742775Y-86768137D01*
X86639399Y-86847462D01*
X86573179Y-86873063D01*
X86562695Y-86873500D01*
X69889833Y-86873500D01*
X69821712Y-86853498D01*
X69775219Y-86799842D01*
X69764911Y-86763947D01*
X69764151Y-86758177D01*
X69751330Y-86660791D01*
X69714774Y-86572536D01*
X69697911Y-86531823D01*
X69690322Y-86461233D01*
X69722102Y-86397747D01*
X69774681Y-86364004D01*
X69911697Y-86318603D01*
X70056044Y-86229568D01*
X70165771Y-86119840D01*
X70228081Y-86085817D01*
X70298897Y-86090881D01*
X70355733Y-86133428D01*
X70367130Y-86151731D01*
X70372955Y-86163162D01*
X70372958Y-86163168D01*
X70495323Y-86314276D01*
X70646431Y-86436641D01*
X70819684Y-86524918D01*
X71007492Y-86575242D01*
X71088259Y-86581600D01*
X71374000Y-86581600D01*
X71374000Y-85053600D01*
X71394002Y-84985479D01*
X71447658Y-84938986D01*
X71500000Y-84927600D01*
X71756000Y-84927600D01*
X71824121Y-84947602D01*
X71870614Y-85001258D01*
X71882000Y-85053600D01*
X71882000Y-86581600D01*
X72167741Y-86581600D01*
X72248507Y-86575242D01*
X72258695Y-86572512D01*
X88203500Y-86572512D01*
X88203502Y-86572536D01*
X88209828Y-86631388D01*
X88209828Y-86631390D01*
X88259496Y-86764553D01*
X88259498Y-86764557D01*
X88344668Y-86878331D01*
X88458442Y-86963501D01*
X88458444Y-86963502D01*
X88458446Y-86963503D01*
X88493772Y-86976679D01*
X88591605Y-87013170D01*
X88591613Y-87013172D01*
X88621044Y-87016335D01*
X88650479Y-87019500D01*
X89657520Y-87019499D01*
X89716391Y-87013171D01*
X89849554Y-86963503D01*
X89902290Y-86924026D01*
X89963331Y-86878331D01*
X90048501Y-86764557D01*
X90048501Y-86764556D01*
X90048503Y-86764554D01*
X90094796Y-86640440D01*
X90098170Y-86631394D01*
X90098172Y-86631386D01*
X90104499Y-86572532D01*
X90104499Y-86572530D01*
X90104500Y-86572521D01*
X90104499Y-85990480D01*
X90098171Y-85931609D01*
X90048503Y-85798446D01*
X90048501Y-85798442D01*
X89963331Y-85684668D01*
X89849557Y-85599498D01*
X89849552Y-85599496D01*
X89716394Y-85549829D01*
X89716386Y-85549827D01*
X89657532Y-85543500D01*
X89657521Y-85543500D01*
X89572036Y-85543500D01*
X89523819Y-85533909D01*
X89420790Y-85491234D01*
X89277081Y-85472314D01*
X89133374Y-85491233D01*
X89103414Y-85503642D01*
X89030339Y-85533910D01*
X88982125Y-85543500D01*
X88650487Y-85543500D01*
X88650463Y-85543502D01*
X88591611Y-85549828D01*
X88591609Y-85549828D01*
X88458446Y-85599496D01*
X88458442Y-85599498D01*
X88344668Y-85684668D01*
X88259498Y-85798442D01*
X88259496Y-85798447D01*
X88209829Y-85931605D01*
X88209827Y-85931613D01*
X88203500Y-85990467D01*
X88203500Y-86572512D01*
X72258695Y-86572512D01*
X72436315Y-86524918D01*
X72609567Y-86436641D01*
X72609568Y-86436641D01*
X72760676Y-86314276D01*
X72883041Y-86163168D01*
X72888866Y-86151736D01*
X72937613Y-86100120D01*
X73006528Y-86083052D01*
X73073730Y-86105952D01*
X73090229Y-86119842D01*
X73199949Y-86229562D01*
X73199955Y-86229567D01*
X73199956Y-86229568D01*
X73344303Y-86318603D01*
X73505292Y-86371949D01*
X73604655Y-86382100D01*
X74651344Y-86382099D01*
X74651345Y-86382099D01*
X74681329Y-86379036D01*
X74750708Y-86371949D01*
X74911697Y-86318603D01*
X75056044Y-86229568D01*
X75175968Y-86109644D01*
X75191985Y-86083677D01*
X86532500Y-86083677D01*
X86547033Y-86156739D01*
X86547034Y-86156740D01*
X86602399Y-86239601D01*
X86685260Y-86294966D01*
X86758326Y-86309500D01*
X87707674Y-86309500D01*
X87780740Y-86294966D01*
X87863601Y-86239601D01*
X87918966Y-86156740D01*
X87933500Y-86083674D01*
X87933500Y-85234326D01*
X87918966Y-85161260D01*
X87863601Y-85078399D01*
X87780740Y-85023034D01*
X87780739Y-85023033D01*
X87707677Y-85008500D01*
X87707674Y-85008500D01*
X86758326Y-85008500D01*
X86758322Y-85008500D01*
X86685260Y-85023033D01*
X86602399Y-85078399D01*
X86547033Y-85161260D01*
X86532500Y-85234322D01*
X86532500Y-86083677D01*
X75191985Y-86083677D01*
X75265003Y-85965297D01*
X75318349Y-85804308D01*
X75328500Y-85704945D01*
X75328499Y-84711499D01*
X75348501Y-84643379D01*
X75402157Y-84596886D01*
X75454499Y-84585500D01*
X76377295Y-84585500D01*
X76445416Y-84605502D01*
X76453999Y-84611538D01*
X76557375Y-84690862D01*
X76641821Y-84725839D01*
X76691291Y-84746330D01*
X76835000Y-84765250D01*
X76978709Y-84746330D01*
X77063155Y-84711351D01*
X77112624Y-84690862D01*
X77227621Y-84602621D01*
X77315862Y-84487624D01*
X77348221Y-84409499D01*
X77371330Y-84353709D01*
X77390250Y-84210000D01*
X77390076Y-84208682D01*
X77382723Y-84152827D01*
X77371330Y-84066291D01*
X77340248Y-83991251D01*
X77315862Y-83932376D01*
X77312934Y-83927305D01*
X77296192Y-83858310D01*
X77319410Y-83791217D01*
X77375215Y-83747328D01*
X77422050Y-83738300D01*
X82621673Y-83738300D01*
X82689794Y-83758302D01*
X82710768Y-83775205D01*
X83873301Y-84937738D01*
X83889686Y-84957913D01*
X83895516Y-84966836D01*
X83923483Y-84988603D01*
X83929334Y-84993771D01*
X83932082Y-84996519D01*
X83932085Y-84996521D01*
X83951082Y-85010085D01*
X83994406Y-85043806D01*
X83994409Y-85043808D01*
X83994411Y-85043809D01*
X83994412Y-85043809D01*
X84001331Y-85047553D01*
X84008398Y-85051008D01*
X84008401Y-85051010D01*
X84061005Y-85066671D01*
X84112940Y-85084500D01*
X84112947Y-85084500D01*
X84120707Y-85085795D01*
X84128511Y-85086768D01*
X84183355Y-85084500D01*
X84419313Y-85084500D01*
X84487434Y-85104502D01*
X84533927Y-85158158D01*
X84542892Y-85185918D01*
X84547033Y-85206739D01*
X84547034Y-85206740D01*
X84602399Y-85289601D01*
X84685260Y-85344966D01*
X84758326Y-85359500D01*
X85707674Y-85359500D01*
X85780740Y-85344966D01*
X85863601Y-85289601D01*
X85918966Y-85206740D01*
X85933500Y-85133674D01*
X85933500Y-84284326D01*
X85918966Y-84211260D01*
X85900536Y-84183677D01*
X86532500Y-84183677D01*
X86547033Y-84256739D01*
X86549546Y-84260500D01*
X86602399Y-84339601D01*
X86685260Y-84394966D01*
X86758326Y-84409500D01*
X87707674Y-84409500D01*
X87780740Y-84394966D01*
X87863601Y-84339601D01*
X87918966Y-84256740D01*
X87923108Y-84235918D01*
X87956016Y-84173008D01*
X88017711Y-84137877D01*
X88046687Y-84134500D01*
X88077500Y-84134500D01*
X88145621Y-84154502D01*
X88192114Y-84208158D01*
X88203500Y-84260500D01*
X88203500Y-84697512D01*
X88203502Y-84697536D01*
X88209828Y-84756388D01*
X88209828Y-84756390D01*
X88259496Y-84889553D01*
X88259498Y-84889557D01*
X88344668Y-85003331D01*
X88458442Y-85088501D01*
X88458444Y-85088502D01*
X88458446Y-85088503D01*
X88515868Y-85109920D01*
X88591605Y-85138170D01*
X88591613Y-85138172D01*
X88621044Y-85141335D01*
X88650479Y-85144500D01*
X89657520Y-85144499D01*
X89716391Y-85138171D01*
X89849554Y-85088503D01*
X89853172Y-85085795D01*
X89963331Y-85003331D01*
X90048501Y-84889557D01*
X90048501Y-84889556D01*
X90048503Y-84889554D01*
X90098171Y-84756391D01*
X90098171Y-84756389D01*
X90098172Y-84756386D01*
X90104499Y-84697532D01*
X90104499Y-84697530D01*
X90104500Y-84697521D01*
X90104499Y-84115480D01*
X90098171Y-84056609D01*
X90048503Y-83923446D01*
X90048501Y-83923442D01*
X89963331Y-83809668D01*
X89849557Y-83724498D01*
X89849552Y-83724496D01*
X89716394Y-83674829D01*
X89716386Y-83674827D01*
X89657532Y-83668500D01*
X89657521Y-83668500D01*
X88999228Y-83668500D01*
X88931107Y-83648498D01*
X88910133Y-83631595D01*
X88808796Y-83530258D01*
X88792409Y-83510080D01*
X88786583Y-83501163D01*
X88778242Y-83494671D01*
X88758611Y-83479392D01*
X88752768Y-83474230D01*
X88750018Y-83471480D01*
X88750016Y-83471478D01*
X88731004Y-83457905D01*
X88716956Y-83446971D01*
X88687689Y-83424191D01*
X88687686Y-83424190D01*
X88687684Y-83424188D01*
X88680777Y-83420450D01*
X88673700Y-83416990D01*
X88621096Y-83401329D01*
X88585120Y-83388979D01*
X88569160Y-83383500D01*
X88569159Y-83383500D01*
X88569156Y-83383499D01*
X88561414Y-83382207D01*
X88553587Y-83381231D01*
X88498744Y-83383500D01*
X88046687Y-83383500D01*
X87978566Y-83363498D01*
X87932073Y-83309842D01*
X87923108Y-83282082D01*
X87918966Y-83261260D01*
X87906443Y-83242518D01*
X87863601Y-83178399D01*
X87780740Y-83123034D01*
X87780739Y-83123033D01*
X87707677Y-83108500D01*
X87707674Y-83108500D01*
X86758326Y-83108500D01*
X86758322Y-83108500D01*
X86685260Y-83123033D01*
X86602399Y-83178399D01*
X86547033Y-83261260D01*
X86532500Y-83334322D01*
X86532500Y-84183677D01*
X85900536Y-84183677D01*
X85863601Y-84128399D01*
X85780740Y-84073034D01*
X85780739Y-84073033D01*
X85707677Y-84058500D01*
X85707674Y-84058500D01*
X84758326Y-84058500D01*
X84758322Y-84058500D01*
X84685260Y-84073033D01*
X84602399Y-84128399D01*
X84547033Y-84211260D01*
X84542892Y-84232082D01*
X84509984Y-84294992D01*
X84448289Y-84330123D01*
X84419313Y-84333500D01*
X84383327Y-84333500D01*
X84315206Y-84313498D01*
X84294232Y-84296595D01*
X83726519Y-83728882D01*
X83131696Y-83134058D01*
X83115309Y-83113880D01*
X83109483Y-83104963D01*
X83105346Y-83101743D01*
X83081511Y-83083192D01*
X83075668Y-83078030D01*
X83072918Y-83075280D01*
X83072916Y-83075278D01*
X83053904Y-83061705D01*
X83010589Y-83027991D01*
X83010586Y-83027990D01*
X83010584Y-83027988D01*
X83003677Y-83024250D01*
X82996600Y-83020790D01*
X82943996Y-83005129D01*
X82892060Y-82987300D01*
X82892059Y-82987300D01*
X82892056Y-82987299D01*
X82884314Y-82986007D01*
X82876487Y-82985031D01*
X82821644Y-82987300D01*
X82592328Y-82987300D01*
X82524207Y-82967298D01*
X82477714Y-82913642D01*
X82467610Y-82843368D01*
X82497104Y-82778788D01*
X82503232Y-82772205D01*
X82958512Y-82316924D01*
X83020825Y-82282899D01*
X83031157Y-82281097D01*
X83173709Y-82262330D01*
X83258155Y-82227351D01*
X83307624Y-82206862D01*
X83422621Y-82118621D01*
X83510862Y-82003624D01*
X83541766Y-81929012D01*
X83566330Y-81869709D01*
X83585250Y-81726000D01*
X83566330Y-81582291D01*
X83530300Y-81495305D01*
X83510862Y-81448375D01*
X83422621Y-81333378D01*
X83307624Y-81245137D01*
X83173709Y-81189670D01*
X83030000Y-81170750D01*
X82886290Y-81189670D01*
X82752375Y-81245137D01*
X82637378Y-81333378D01*
X82549137Y-81448375D01*
X82493670Y-81582290D01*
X82478420Y-81698120D01*
X82449697Y-81763047D01*
X82442594Y-81770768D01*
X81897965Y-82315396D01*
X81835655Y-82349420D01*
X81808872Y-82352300D01*
X74711756Y-82352300D01*
X74643635Y-82332298D01*
X74597142Y-82278642D01*
X74587038Y-82208368D01*
X74616532Y-82143788D01*
X74637695Y-82124364D01*
X74720693Y-82064062D01*
X74733871Y-82054488D01*
X74779669Y-82003625D01*
X74860533Y-81913816D01*
X74860534Y-81913814D01*
X74955179Y-81749884D01*
X74969517Y-81705758D01*
X75013674Y-81569856D01*
X75024567Y-81466209D01*
X75033460Y-81381600D01*
X75013674Y-81193344D01*
X75013674Y-81193343D01*
X74955181Y-81013321D01*
X74955177Y-81013313D01*
X74860534Y-80849385D01*
X74860533Y-80849383D01*
X74803102Y-80785600D01*
X75728001Y-80785600D01*
X75728001Y-81435809D01*
X75730851Y-81466206D01*
X75730852Y-81466209D01*
X75775653Y-81594244D01*
X75775653Y-81594245D01*
X75856207Y-81703392D01*
X75965354Y-81783946D01*
X76093389Y-81828747D01*
X76093394Y-81828748D01*
X76123797Y-81831599D01*
X76774000Y-81831599D01*
X76774000Y-80785600D01*
X77282000Y-80785600D01*
X77282000Y-81831599D01*
X77932195Y-81831599D01*
X77932209Y-81831598D01*
X77962606Y-81828748D01*
X77962609Y-81828747D01*
X78090644Y-81783946D01*
X78090645Y-81783946D01*
X78199792Y-81703392D01*
X78280346Y-81594245D01*
X78280346Y-81594244D01*
X78325147Y-81466210D01*
X78325148Y-81466205D01*
X78327999Y-81435805D01*
X78328000Y-81435799D01*
X78328000Y-80785600D01*
X77282000Y-80785600D01*
X76774000Y-80785600D01*
X75728001Y-80785600D01*
X74803102Y-80785600D01*
X74733873Y-80708713D01*
X74580732Y-80597450D01*
X74580732Y-80597449D01*
X74442086Y-80535720D01*
X74407803Y-80520456D01*
X74407801Y-80520455D01*
X74407800Y-80520455D01*
X74222646Y-80481100D01*
X74033354Y-80481100D01*
X73848199Y-80520455D01*
X73675267Y-80597449D01*
X73675267Y-80597450D01*
X73522126Y-80708713D01*
X73395466Y-80849383D01*
X73395465Y-80849385D01*
X73300822Y-81013313D01*
X73300818Y-81013321D01*
X73242325Y-81193343D01*
X73222540Y-81381600D01*
X73242325Y-81569856D01*
X73300818Y-81749878D01*
X73300822Y-81749886D01*
X73395465Y-81913814D01*
X73395466Y-81913816D01*
X73522126Y-82054486D01*
X73618305Y-82124364D01*
X73661659Y-82180586D01*
X73667734Y-82251322D01*
X73634603Y-82314114D01*
X73572783Y-82349025D01*
X73544244Y-82352300D01*
X72943206Y-82352300D01*
X72875085Y-82332298D01*
X72828592Y-82278642D01*
X72817314Y-82231510D01*
X72816500Y-82211846D01*
X72816500Y-80467704D01*
X72836502Y-80399583D01*
X72842527Y-80391013D01*
X72921861Y-80287625D01*
X72926014Y-80277600D01*
X72944815Y-80232209D01*
X72977330Y-80153709D01*
X72996250Y-80010000D01*
X72977330Y-79866291D01*
X72931333Y-79755242D01*
X72921862Y-79732375D01*
X72833621Y-79617378D01*
X72745111Y-79549462D01*
X72703244Y-79492124D01*
X72699022Y-79421253D01*
X72733786Y-79359350D01*
X72796499Y-79326069D01*
X72821815Y-79323500D01*
X75648970Y-79323500D01*
X75717091Y-79343502D01*
G37*
G04 #@! TD.AperFunction*
G04 #@! TA.AperFunction,Conductor*
G36*
X94330649Y-86242916D02*
G01*
X94363931Y-86305629D01*
X94366500Y-86330945D01*
X94366500Y-86534289D01*
X94363818Y-86560146D01*
X94361632Y-86570567D01*
X94363008Y-86581600D01*
X94366016Y-86605736D01*
X94366500Y-86613525D01*
X94366500Y-86617414D01*
X94369966Y-86638189D01*
X94370342Y-86640440D01*
X94377132Y-86694920D01*
X94379383Y-86702480D01*
X94381933Y-86709908D01*
X94408055Y-86758177D01*
X94432174Y-86807512D01*
X94436755Y-86813927D01*
X94441576Y-86820122D01*
X94477832Y-86853498D01*
X94481971Y-86857308D01*
X94553596Y-86928933D01*
X94587620Y-86991243D01*
X94590500Y-87018027D01*
X94590500Y-87676312D01*
X94590502Y-87676336D01*
X94596828Y-87735188D01*
X94596828Y-87735190D01*
X94646496Y-87868353D01*
X94646498Y-87868357D01*
X94731668Y-87982131D01*
X94839071Y-88062532D01*
X94881618Y-88119368D01*
X94886682Y-88190184D01*
X94852657Y-88252496D01*
X94839071Y-88264268D01*
X94731668Y-88344668D01*
X94646498Y-88458442D01*
X94646496Y-88458447D01*
X94596829Y-88591605D01*
X94596827Y-88591613D01*
X94590500Y-88650467D01*
X94590500Y-88716000D01*
X94570498Y-88784121D01*
X94516842Y-88830614D01*
X94464500Y-88842000D01*
X92662072Y-88842000D01*
X92593951Y-88821998D01*
X92562111Y-88792706D01*
X92519117Y-88736675D01*
X92519115Y-88736673D01*
X92519114Y-88736672D01*
X92404120Y-88648433D01*
X92270205Y-88592966D01*
X92126496Y-88574046D01*
X91982786Y-88592966D01*
X91848871Y-88648433D01*
X91733874Y-88736674D01*
X91645633Y-88851671D01*
X91590166Y-88985586D01*
X91571246Y-89129295D01*
X91571246Y-89129296D01*
X91590166Y-89273005D01*
X91645633Y-89406920D01*
X91733874Y-89521917D01*
X91848871Y-89610158D01*
X91933317Y-89645135D01*
X91982787Y-89665626D01*
X92126496Y-89684546D01*
X92270205Y-89665626D01*
X92358608Y-89629008D01*
X92404115Y-89610160D01*
X92404118Y-89610158D01*
X92404121Y-89610157D01*
X92404123Y-89610155D01*
X92404597Y-89609882D01*
X92405134Y-89609737D01*
X92411752Y-89606997D01*
X92412112Y-89607868D01*
X92467600Y-89593000D01*
X94470383Y-89593000D01*
X94538504Y-89613002D01*
X94584997Y-89666658D01*
X94595661Y-89705531D01*
X94596828Y-89716388D01*
X94596828Y-89716390D01*
X94596829Y-89716391D01*
X94604224Y-89736218D01*
X94609912Y-89751466D01*
X94614978Y-89822282D01*
X94580953Y-89884595D01*
X94518641Y-89918620D01*
X94491857Y-89921500D01*
X92533411Y-89921500D01*
X92507553Y-89918818D01*
X92505130Y-89918310D01*
X92497130Y-89916632D01*
X92476289Y-89919231D01*
X92461962Y-89921016D01*
X92454174Y-89921500D01*
X92450282Y-89921500D01*
X92434934Y-89924061D01*
X92427259Y-89925342D01*
X92409166Y-89927597D01*
X92372778Y-89932133D01*
X92372775Y-89932133D01*
X92372774Y-89932134D01*
X92372773Y-89932134D01*
X92365229Y-89934380D01*
X92357791Y-89936934D01*
X92309522Y-89963055D01*
X92260191Y-89987172D01*
X92253788Y-89991743D01*
X92247575Y-89996580D01*
X92210394Y-90036968D01*
X92065427Y-90181935D01*
X92065405Y-90181955D01*
X91930967Y-90316395D01*
X91868655Y-90350420D01*
X91841871Y-90353300D01*
X89260127Y-90353300D01*
X89192006Y-90333298D01*
X89171032Y-90316395D01*
X87319243Y-88464605D01*
X87285217Y-88402293D01*
X87290282Y-88331477D01*
X87332829Y-88274642D01*
X87399349Y-88249831D01*
X87408338Y-88249510D01*
X89949565Y-88249510D01*
X89975423Y-88252191D01*
X89985844Y-88254377D01*
X90021012Y-88249993D01*
X90028802Y-88249510D01*
X90032683Y-88249510D01*
X90032690Y-88249510D01*
X90055716Y-88245667D01*
X90110202Y-88238876D01*
X90110203Y-88238875D01*
X90110206Y-88238875D01*
X90117712Y-88236640D01*
X90125180Y-88234075D01*
X90125186Y-88234075D01*
X90173453Y-88207954D01*
X90222787Y-88183836D01*
X90222788Y-88183834D01*
X90232168Y-88179249D01*
X90234355Y-88183723D01*
X90260727Y-88169323D01*
X90331542Y-88174388D01*
X90387472Y-88215740D01*
X90473168Y-88327421D01*
X90588165Y-88415662D01*
X90672611Y-88450639D01*
X90722081Y-88471130D01*
X90865790Y-88490050D01*
X91009499Y-88471130D01*
X91093945Y-88436151D01*
X91143414Y-88415662D01*
X91246791Y-88336338D01*
X91313011Y-88310737D01*
X91318800Y-88310495D01*
X91321160Y-88310300D01*
X91321168Y-88310300D01*
X91344194Y-88306457D01*
X91398680Y-88299666D01*
X91398681Y-88299665D01*
X91398684Y-88299665D01*
X91406190Y-88297430D01*
X91413658Y-88294865D01*
X91413664Y-88294865D01*
X91461931Y-88268744D01*
X91511265Y-88244626D01*
X91511268Y-88244623D01*
X91517657Y-88240061D01*
X91523873Y-88235222D01*
X91523880Y-88235219D01*
X91561062Y-88194828D01*
X91815087Y-87940804D01*
X91877399Y-87906779D01*
X91904182Y-87903900D01*
X91998295Y-87903900D01*
X92066416Y-87923902D01*
X92074999Y-87929938D01*
X92178375Y-88009262D01*
X92248113Y-88038147D01*
X92312291Y-88064730D01*
X92456000Y-88083650D01*
X92599709Y-88064730D01*
X92684155Y-88029751D01*
X92733624Y-88009262D01*
X92848621Y-87921021D01*
X92936862Y-87806024D01*
X92966202Y-87735188D01*
X92992330Y-87672109D01*
X93011250Y-87528400D01*
X92992330Y-87384691D01*
X92951187Y-87285361D01*
X92936862Y-87250775D01*
X92848621Y-87135778D01*
X92733624Y-87047537D01*
X92599709Y-86992070D01*
X92456000Y-86973150D01*
X92312290Y-86992070D01*
X92178375Y-87047537D01*
X92074999Y-87126862D01*
X92008779Y-87152463D01*
X91998295Y-87152900D01*
X91748463Y-87152900D01*
X91722607Y-87150218D01*
X91712185Y-87148033D01*
X91712184Y-87148033D01*
X91707407Y-87148628D01*
X91677018Y-87152416D01*
X91669229Y-87152900D01*
X91665340Y-87152900D01*
X91642301Y-87156744D01*
X91587828Y-87163534D01*
X91580267Y-87165785D01*
X91578501Y-87166392D01*
X91578182Y-87166406D01*
X91577828Y-87166512D01*
X91577801Y-87166423D01*
X91574149Y-87166588D01*
X91564102Y-87169784D01*
X91564063Y-87169791D01*
X91563573Y-87167064D01*
X91507577Y-87169589D01*
X91446183Y-87133933D01*
X91413812Y-87070746D01*
X91420742Y-87000088D01*
X91448499Y-86958123D01*
X92016722Y-86389902D01*
X92079034Y-86355877D01*
X92105817Y-86352998D01*
X93172076Y-86352998D01*
X93201295Y-86352998D01*
X93269416Y-86373000D01*
X93277999Y-86379036D01*
X93381375Y-86458360D01*
X93465821Y-86493337D01*
X93515291Y-86513828D01*
X93659000Y-86532748D01*
X93802709Y-86513828D01*
X93891037Y-86477242D01*
X93936624Y-86458360D01*
X94051621Y-86370119D01*
X94140538Y-86254241D01*
X94197876Y-86212374D01*
X94268747Y-86208152D01*
X94330649Y-86242916D01*
G37*
G04 #@! TD.AperFunction*
M02*
